%TF.GenerationSoftware,KiCad,Pcbnew,8.0.9-1.fc40*%
%TF.CreationDate,2025-07-10T00:16:45+02:00*%
%TF.ProjectId,pico-artnet-node,7069636f-2d61-4727-946e-65742d6e6f64,rev?*%
%TF.SameCoordinates,Original*%
%TF.FileFunction,Legend,Top*%
%TF.FilePolarity,Positive*%
%FSLAX46Y46*%
G04 Gerber Fmt 4.6, Leading zero omitted, Abs format (unit mm)*
G04 Created by KiCad (PCBNEW 8.0.9-1.fc40) date 2025-07-10 00:16:45*
%MOMM*%
%LPD*%
G01*
G04 APERTURE LIST*
%ADD10C,0.100000*%
%ADD11C,0.500000*%
%ADD12C,0.200000*%
%ADD13C,0.150000*%
%ADD14C,0.120000*%
%ADD15C,0.010000*%
G04 APERTURE END LIST*
D10*
X200000000Y-120000000D02*
X148000000Y-120000000D01*
X194310000Y-49530000D02*
X194310000Y-52070000D01*
X194310000Y-72390000D02*
X194310000Y-69850000D01*
X179070000Y-69850000D02*
X179070000Y-72390000D01*
X148000000Y-126000000D02*
X200000000Y-126000000D01*
X179070000Y-49530000D02*
X179070000Y-52070000D01*
X164372419Y-107696115D02*
X163372419Y-107696115D01*
X163372419Y-107696115D02*
X164086704Y-107362782D01*
X164086704Y-107362782D02*
X163372419Y-107029449D01*
X163372419Y-107029449D02*
X164372419Y-107029449D01*
X164086704Y-106600877D02*
X164086704Y-106124687D01*
X164372419Y-106696115D02*
X163372419Y-106362782D01*
X163372419Y-106362782D02*
X164372419Y-106029449D01*
X163372419Y-105791353D02*
X164372419Y-105124687D01*
X163372419Y-105124687D02*
X164372419Y-105791353D01*
X163705752Y-104315163D02*
X164372419Y-104315163D01*
X163324800Y-104553258D02*
X164039085Y-104791353D01*
X164039085Y-104791353D02*
X164039085Y-104172306D01*
X163800990Y-103648496D02*
X163753371Y-103743734D01*
X163753371Y-103743734D02*
X163705752Y-103791353D01*
X163705752Y-103791353D02*
X163610514Y-103838972D01*
X163610514Y-103838972D02*
X163562895Y-103838972D01*
X163562895Y-103838972D02*
X163467657Y-103791353D01*
X163467657Y-103791353D02*
X163420038Y-103743734D01*
X163420038Y-103743734D02*
X163372419Y-103648496D01*
X163372419Y-103648496D02*
X163372419Y-103458020D01*
X163372419Y-103458020D02*
X163420038Y-103362782D01*
X163420038Y-103362782D02*
X163467657Y-103315163D01*
X163467657Y-103315163D02*
X163562895Y-103267544D01*
X163562895Y-103267544D02*
X163610514Y-103267544D01*
X163610514Y-103267544D02*
X163705752Y-103315163D01*
X163705752Y-103315163D02*
X163753371Y-103362782D01*
X163753371Y-103362782D02*
X163800990Y-103458020D01*
X163800990Y-103458020D02*
X163800990Y-103648496D01*
X163800990Y-103648496D02*
X163848609Y-103743734D01*
X163848609Y-103743734D02*
X163896228Y-103791353D01*
X163896228Y-103791353D02*
X163991466Y-103838972D01*
X163991466Y-103838972D02*
X164181942Y-103838972D01*
X164181942Y-103838972D02*
X164277180Y-103791353D01*
X164277180Y-103791353D02*
X164324800Y-103743734D01*
X164324800Y-103743734D02*
X164372419Y-103648496D01*
X164372419Y-103648496D02*
X164372419Y-103458020D01*
X164372419Y-103458020D02*
X164324800Y-103362782D01*
X164324800Y-103362782D02*
X164277180Y-103315163D01*
X164277180Y-103315163D02*
X164181942Y-103267544D01*
X164181942Y-103267544D02*
X163991466Y-103267544D01*
X163991466Y-103267544D02*
X163896228Y-103315163D01*
X163896228Y-103315163D02*
X163848609Y-103362782D01*
X163848609Y-103362782D02*
X163800990Y-103458020D01*
X163372419Y-102362782D02*
X163372419Y-102838972D01*
X163372419Y-102838972D02*
X163848609Y-102886591D01*
X163848609Y-102886591D02*
X163800990Y-102838972D01*
X163800990Y-102838972D02*
X163753371Y-102743734D01*
X163753371Y-102743734D02*
X163753371Y-102505639D01*
X163753371Y-102505639D02*
X163800990Y-102410401D01*
X163800990Y-102410401D02*
X163848609Y-102362782D01*
X163848609Y-102362782D02*
X163943847Y-102315163D01*
X163943847Y-102315163D02*
X164181942Y-102315163D01*
X164181942Y-102315163D02*
X164277180Y-102362782D01*
X164277180Y-102362782D02*
X164324800Y-102410401D01*
X164324800Y-102410401D02*
X164372419Y-102505639D01*
X164372419Y-102505639D02*
X164372419Y-102743734D01*
X164372419Y-102743734D02*
X164324800Y-102838972D01*
X164324800Y-102838972D02*
X164277180Y-102886591D01*
X149203884Y-68262475D02*
X149203884Y-67262475D01*
X149632455Y-68262475D02*
X149632455Y-67738665D01*
X149632455Y-67738665D02*
X149584836Y-67643427D01*
X149584836Y-67643427D02*
X149489598Y-67595808D01*
X149489598Y-67595808D02*
X149346741Y-67595808D01*
X149346741Y-67595808D02*
X149251503Y-67643427D01*
X149251503Y-67643427D02*
X149203884Y-67691046D01*
X149965789Y-67595808D02*
X150346741Y-67595808D01*
X150108646Y-67262475D02*
X150108646Y-68119617D01*
X150108646Y-68119617D02*
X150156265Y-68214856D01*
X150156265Y-68214856D02*
X150251503Y-68262475D01*
X150251503Y-68262475D02*
X150346741Y-68262475D01*
X150537218Y-67595808D02*
X150918170Y-67595808D01*
X150680075Y-67262475D02*
X150680075Y-68119617D01*
X150680075Y-68119617D02*
X150727694Y-68214856D01*
X150727694Y-68214856D02*
X150822932Y-68262475D01*
X150822932Y-68262475D02*
X150918170Y-68262475D01*
X151251504Y-67595808D02*
X151251504Y-68595808D01*
X151251504Y-67643427D02*
X151346742Y-67595808D01*
X151346742Y-67595808D02*
X151537218Y-67595808D01*
X151537218Y-67595808D02*
X151632456Y-67643427D01*
X151632456Y-67643427D02*
X151680075Y-67691046D01*
X151680075Y-67691046D02*
X151727694Y-67786284D01*
X151727694Y-67786284D02*
X151727694Y-68071998D01*
X151727694Y-68071998D02*
X151680075Y-68167236D01*
X151680075Y-68167236D02*
X151632456Y-68214856D01*
X151632456Y-68214856D02*
X151537218Y-68262475D01*
X151537218Y-68262475D02*
X151346742Y-68262475D01*
X151346742Y-68262475D02*
X151251504Y-68214856D01*
X152108647Y-68214856D02*
X152203885Y-68262475D01*
X152203885Y-68262475D02*
X152394361Y-68262475D01*
X152394361Y-68262475D02*
X152489599Y-68214856D01*
X152489599Y-68214856D02*
X152537218Y-68119617D01*
X152537218Y-68119617D02*
X152537218Y-68071998D01*
X152537218Y-68071998D02*
X152489599Y-67976760D01*
X152489599Y-67976760D02*
X152394361Y-67929141D01*
X152394361Y-67929141D02*
X152251504Y-67929141D01*
X152251504Y-67929141D02*
X152156266Y-67881522D01*
X152156266Y-67881522D02*
X152108647Y-67786284D01*
X152108647Y-67786284D02*
X152108647Y-67738665D01*
X152108647Y-67738665D02*
X152156266Y-67643427D01*
X152156266Y-67643427D02*
X152251504Y-67595808D01*
X152251504Y-67595808D02*
X152394361Y-67595808D01*
X152394361Y-67595808D02*
X152489599Y-67643427D01*
X152965790Y-68167236D02*
X153013409Y-68214856D01*
X153013409Y-68214856D02*
X152965790Y-68262475D01*
X152965790Y-68262475D02*
X152918171Y-68214856D01*
X152918171Y-68214856D02*
X152965790Y-68167236D01*
X152965790Y-68167236D02*
X152965790Y-68262475D01*
X152965790Y-67643427D02*
X153013409Y-67691046D01*
X153013409Y-67691046D02*
X152965790Y-67738665D01*
X152965790Y-67738665D02*
X152918171Y-67691046D01*
X152918171Y-67691046D02*
X152965790Y-67643427D01*
X152965790Y-67643427D02*
X152965790Y-67738665D01*
X154156265Y-67214856D02*
X153299123Y-68500570D01*
X155203884Y-67214856D02*
X154346742Y-68500570D01*
X155441980Y-67595808D02*
X155632456Y-68262475D01*
X155632456Y-68262475D02*
X155822932Y-67786284D01*
X155822932Y-67786284D02*
X156013408Y-68262475D01*
X156013408Y-68262475D02*
X156203884Y-67595808D01*
X156489599Y-67595808D02*
X156680075Y-68262475D01*
X156680075Y-68262475D02*
X156870551Y-67786284D01*
X156870551Y-67786284D02*
X157061027Y-68262475D01*
X157061027Y-68262475D02*
X157251503Y-67595808D01*
X157537218Y-67595808D02*
X157727694Y-68262475D01*
X157727694Y-68262475D02*
X157918170Y-67786284D01*
X157918170Y-67786284D02*
X158108646Y-68262475D01*
X158108646Y-68262475D02*
X158299122Y-67595808D01*
X158680075Y-68167236D02*
X158727694Y-68214856D01*
X158727694Y-68214856D02*
X158680075Y-68262475D01*
X158680075Y-68262475D02*
X158632456Y-68214856D01*
X158632456Y-68214856D02*
X158680075Y-68167236D01*
X158680075Y-68167236D02*
X158680075Y-68262475D01*
X159584836Y-67595808D02*
X159584836Y-68405332D01*
X159584836Y-68405332D02*
X159537217Y-68500570D01*
X159537217Y-68500570D02*
X159489598Y-68548189D01*
X159489598Y-68548189D02*
X159394360Y-68595808D01*
X159394360Y-68595808D02*
X159251503Y-68595808D01*
X159251503Y-68595808D02*
X159156265Y-68548189D01*
X159584836Y-68214856D02*
X159489598Y-68262475D01*
X159489598Y-68262475D02*
X159299122Y-68262475D01*
X159299122Y-68262475D02*
X159203884Y-68214856D01*
X159203884Y-68214856D02*
X159156265Y-68167236D01*
X159156265Y-68167236D02*
X159108646Y-68071998D01*
X159108646Y-68071998D02*
X159108646Y-67786284D01*
X159108646Y-67786284D02*
X159156265Y-67691046D01*
X159156265Y-67691046D02*
X159203884Y-67643427D01*
X159203884Y-67643427D02*
X159299122Y-67595808D01*
X159299122Y-67595808D02*
X159489598Y-67595808D01*
X159489598Y-67595808D02*
X159584836Y-67643427D01*
X160061027Y-68262475D02*
X160061027Y-67595808D01*
X160061027Y-67262475D02*
X160013408Y-67310094D01*
X160013408Y-67310094D02*
X160061027Y-67357713D01*
X160061027Y-67357713D02*
X160108646Y-67310094D01*
X160108646Y-67310094D02*
X160061027Y-67262475D01*
X160061027Y-67262475D02*
X160061027Y-67357713D01*
X160394360Y-67595808D02*
X160775312Y-67595808D01*
X160537217Y-67262475D02*
X160537217Y-68119617D01*
X160537217Y-68119617D02*
X160584836Y-68214856D01*
X160584836Y-68214856D02*
X160680074Y-68262475D01*
X160680074Y-68262475D02*
X160775312Y-68262475D01*
X161108646Y-68262475D02*
X161108646Y-67262475D01*
X161537217Y-68262475D02*
X161537217Y-67738665D01*
X161537217Y-67738665D02*
X161489598Y-67643427D01*
X161489598Y-67643427D02*
X161394360Y-67595808D01*
X161394360Y-67595808D02*
X161251503Y-67595808D01*
X161251503Y-67595808D02*
X161156265Y-67643427D01*
X161156265Y-67643427D02*
X161108646Y-67691046D01*
X162441979Y-67595808D02*
X162441979Y-68262475D01*
X162013408Y-67595808D02*
X162013408Y-68119617D01*
X162013408Y-68119617D02*
X162061027Y-68214856D01*
X162061027Y-68214856D02*
X162156265Y-68262475D01*
X162156265Y-68262475D02*
X162299122Y-68262475D01*
X162299122Y-68262475D02*
X162394360Y-68214856D01*
X162394360Y-68214856D02*
X162441979Y-68167236D01*
X162918170Y-68262475D02*
X162918170Y-67262475D01*
X162918170Y-67643427D02*
X163013408Y-67595808D01*
X163013408Y-67595808D02*
X163203884Y-67595808D01*
X163203884Y-67595808D02*
X163299122Y-67643427D01*
X163299122Y-67643427D02*
X163346741Y-67691046D01*
X163346741Y-67691046D02*
X163394360Y-67786284D01*
X163394360Y-67786284D02*
X163394360Y-68071998D01*
X163394360Y-68071998D02*
X163346741Y-68167236D01*
X163346741Y-68167236D02*
X163299122Y-68214856D01*
X163299122Y-68214856D02*
X163203884Y-68262475D01*
X163203884Y-68262475D02*
X163013408Y-68262475D01*
X163013408Y-68262475D02*
X162918170Y-68214856D01*
X163822932Y-68167236D02*
X163870551Y-68214856D01*
X163870551Y-68214856D02*
X163822932Y-68262475D01*
X163822932Y-68262475D02*
X163775313Y-68214856D01*
X163775313Y-68214856D02*
X163822932Y-68167236D01*
X163822932Y-68167236D02*
X163822932Y-68262475D01*
X164727693Y-68214856D02*
X164632455Y-68262475D01*
X164632455Y-68262475D02*
X164441979Y-68262475D01*
X164441979Y-68262475D02*
X164346741Y-68214856D01*
X164346741Y-68214856D02*
X164299122Y-68167236D01*
X164299122Y-68167236D02*
X164251503Y-68071998D01*
X164251503Y-68071998D02*
X164251503Y-67786284D01*
X164251503Y-67786284D02*
X164299122Y-67691046D01*
X164299122Y-67691046D02*
X164346741Y-67643427D01*
X164346741Y-67643427D02*
X164441979Y-67595808D01*
X164441979Y-67595808D02*
X164632455Y-67595808D01*
X164632455Y-67595808D02*
X164727693Y-67643427D01*
X165299122Y-68262475D02*
X165203884Y-68214856D01*
X165203884Y-68214856D02*
X165156265Y-68167236D01*
X165156265Y-68167236D02*
X165108646Y-68071998D01*
X165108646Y-68071998D02*
X165108646Y-67786284D01*
X165108646Y-67786284D02*
X165156265Y-67691046D01*
X165156265Y-67691046D02*
X165203884Y-67643427D01*
X165203884Y-67643427D02*
X165299122Y-67595808D01*
X165299122Y-67595808D02*
X165441979Y-67595808D01*
X165441979Y-67595808D02*
X165537217Y-67643427D01*
X165537217Y-67643427D02*
X165584836Y-67691046D01*
X165584836Y-67691046D02*
X165632455Y-67786284D01*
X165632455Y-67786284D02*
X165632455Y-68071998D01*
X165632455Y-68071998D02*
X165584836Y-68167236D01*
X165584836Y-68167236D02*
X165537217Y-68214856D01*
X165537217Y-68214856D02*
X165441979Y-68262475D01*
X165441979Y-68262475D02*
X165299122Y-68262475D01*
X166061027Y-68262475D02*
X166061027Y-67595808D01*
X166061027Y-67691046D02*
X166108646Y-67643427D01*
X166108646Y-67643427D02*
X166203884Y-67595808D01*
X166203884Y-67595808D02*
X166346741Y-67595808D01*
X166346741Y-67595808D02*
X166441979Y-67643427D01*
X166441979Y-67643427D02*
X166489598Y-67738665D01*
X166489598Y-67738665D02*
X166489598Y-68262475D01*
X166489598Y-67738665D02*
X166537217Y-67643427D01*
X166537217Y-67643427D02*
X166632455Y-67595808D01*
X166632455Y-67595808D02*
X166775312Y-67595808D01*
X166775312Y-67595808D02*
X166870551Y-67643427D01*
X166870551Y-67643427D02*
X166918170Y-67738665D01*
X166918170Y-67738665D02*
X166918170Y-68262475D01*
X168108645Y-67214856D02*
X167251503Y-68500570D01*
X149061027Y-69205752D02*
X149441979Y-69205752D01*
X149203884Y-68872419D02*
X149203884Y-69729561D01*
X149203884Y-69729561D02*
X149251503Y-69824800D01*
X149251503Y-69824800D02*
X149346741Y-69872419D01*
X149346741Y-69872419D02*
X149441979Y-69872419D01*
X149918170Y-69872419D02*
X149822932Y-69824800D01*
X149822932Y-69824800D02*
X149775313Y-69777180D01*
X149775313Y-69777180D02*
X149727694Y-69681942D01*
X149727694Y-69681942D02*
X149727694Y-69396228D01*
X149727694Y-69396228D02*
X149775313Y-69300990D01*
X149775313Y-69300990D02*
X149822932Y-69253371D01*
X149822932Y-69253371D02*
X149918170Y-69205752D01*
X149918170Y-69205752D02*
X150061027Y-69205752D01*
X150061027Y-69205752D02*
X150156265Y-69253371D01*
X150156265Y-69253371D02*
X150203884Y-69300990D01*
X150203884Y-69300990D02*
X150251503Y-69396228D01*
X150251503Y-69396228D02*
X150251503Y-69681942D01*
X150251503Y-69681942D02*
X150203884Y-69777180D01*
X150203884Y-69777180D02*
X150156265Y-69824800D01*
X150156265Y-69824800D02*
X150061027Y-69872419D01*
X150061027Y-69872419D02*
X149918170Y-69872419D01*
X150680075Y-69872419D02*
X150680075Y-69205752D01*
X150680075Y-69300990D02*
X150727694Y-69253371D01*
X150727694Y-69253371D02*
X150822932Y-69205752D01*
X150822932Y-69205752D02*
X150965789Y-69205752D01*
X150965789Y-69205752D02*
X151061027Y-69253371D01*
X151061027Y-69253371D02*
X151108646Y-69348609D01*
X151108646Y-69348609D02*
X151108646Y-69872419D01*
X151108646Y-69348609D02*
X151156265Y-69253371D01*
X151156265Y-69253371D02*
X151251503Y-69205752D01*
X151251503Y-69205752D02*
X151394360Y-69205752D01*
X151394360Y-69205752D02*
X151489599Y-69253371D01*
X151489599Y-69253371D02*
X151537218Y-69348609D01*
X151537218Y-69348609D02*
X151537218Y-69872419D01*
X152013408Y-69872419D02*
X152013408Y-69205752D01*
X152013408Y-69300990D02*
X152061027Y-69253371D01*
X152061027Y-69253371D02*
X152156265Y-69205752D01*
X152156265Y-69205752D02*
X152299122Y-69205752D01*
X152299122Y-69205752D02*
X152394360Y-69253371D01*
X152394360Y-69253371D02*
X152441979Y-69348609D01*
X152441979Y-69348609D02*
X152441979Y-69872419D01*
X152441979Y-69348609D02*
X152489598Y-69253371D01*
X152489598Y-69253371D02*
X152584836Y-69205752D01*
X152584836Y-69205752D02*
X152727693Y-69205752D01*
X152727693Y-69205752D02*
X152822932Y-69253371D01*
X152822932Y-69253371D02*
X152870551Y-69348609D01*
X152870551Y-69348609D02*
X152870551Y-69872419D01*
X153346741Y-69872419D02*
X153346741Y-69205752D01*
X153346741Y-68872419D02*
X153299122Y-68920038D01*
X153299122Y-68920038D02*
X153346741Y-68967657D01*
X153346741Y-68967657D02*
X153394360Y-68920038D01*
X153394360Y-68920038D02*
X153346741Y-68872419D01*
X153346741Y-68872419D02*
X153346741Y-68967657D01*
X154203883Y-69824800D02*
X154108645Y-69872419D01*
X154108645Y-69872419D02*
X153918169Y-69872419D01*
X153918169Y-69872419D02*
X153822931Y-69824800D01*
X153822931Y-69824800D02*
X153775312Y-69729561D01*
X153775312Y-69729561D02*
X153775312Y-69348609D01*
X153775312Y-69348609D02*
X153822931Y-69253371D01*
X153822931Y-69253371D02*
X153918169Y-69205752D01*
X153918169Y-69205752D02*
X154108645Y-69205752D01*
X154108645Y-69205752D02*
X154203883Y-69253371D01*
X154203883Y-69253371D02*
X154251502Y-69348609D01*
X154251502Y-69348609D02*
X154251502Y-69443847D01*
X154251502Y-69443847D02*
X153775312Y-69539085D01*
X155203883Y-69872419D02*
X154632455Y-69872419D01*
X154918169Y-69872419D02*
X154918169Y-68872419D01*
X154918169Y-68872419D02*
X154822931Y-69015276D01*
X154822931Y-69015276D02*
X154727693Y-69110514D01*
X154727693Y-69110514D02*
X154632455Y-69158133D01*
X155584836Y-68967657D02*
X155632455Y-68920038D01*
X155632455Y-68920038D02*
X155727693Y-68872419D01*
X155727693Y-68872419D02*
X155965788Y-68872419D01*
X155965788Y-68872419D02*
X156061026Y-68920038D01*
X156061026Y-68920038D02*
X156108645Y-68967657D01*
X156108645Y-68967657D02*
X156156264Y-69062895D01*
X156156264Y-69062895D02*
X156156264Y-69158133D01*
X156156264Y-69158133D02*
X156108645Y-69300990D01*
X156108645Y-69300990D02*
X155537217Y-69872419D01*
X155537217Y-69872419D02*
X156156264Y-69872419D01*
X156489598Y-68872419D02*
X157108645Y-68872419D01*
X157108645Y-68872419D02*
X156775312Y-69253371D01*
X156775312Y-69253371D02*
X156918169Y-69253371D01*
X156918169Y-69253371D02*
X157013407Y-69300990D01*
X157013407Y-69300990D02*
X157061026Y-69348609D01*
X157061026Y-69348609D02*
X157108645Y-69443847D01*
X157108645Y-69443847D02*
X157108645Y-69681942D01*
X157108645Y-69681942D02*
X157061026Y-69777180D01*
X157061026Y-69777180D02*
X157013407Y-69824800D01*
X157013407Y-69824800D02*
X156918169Y-69872419D01*
X156918169Y-69872419D02*
X156632455Y-69872419D01*
X156632455Y-69872419D02*
X156537217Y-69824800D01*
X156537217Y-69824800D02*
X156489598Y-69777180D01*
X157965788Y-68872419D02*
X157775312Y-68872419D01*
X157775312Y-68872419D02*
X157680074Y-68920038D01*
X157680074Y-68920038D02*
X157632455Y-68967657D01*
X157632455Y-68967657D02*
X157537217Y-69110514D01*
X157537217Y-69110514D02*
X157489598Y-69300990D01*
X157489598Y-69300990D02*
X157489598Y-69681942D01*
X157489598Y-69681942D02*
X157537217Y-69777180D01*
X157537217Y-69777180D02*
X157584836Y-69824800D01*
X157584836Y-69824800D02*
X157680074Y-69872419D01*
X157680074Y-69872419D02*
X157870550Y-69872419D01*
X157870550Y-69872419D02*
X157965788Y-69824800D01*
X157965788Y-69824800D02*
X158013407Y-69777180D01*
X158013407Y-69777180D02*
X158061026Y-69681942D01*
X158061026Y-69681942D02*
X158061026Y-69443847D01*
X158061026Y-69443847D02*
X158013407Y-69348609D01*
X158013407Y-69348609D02*
X157965788Y-69300990D01*
X157965788Y-69300990D02*
X157870550Y-69253371D01*
X157870550Y-69253371D02*
X157680074Y-69253371D01*
X157680074Y-69253371D02*
X157584836Y-69300990D01*
X157584836Y-69300990D02*
X157537217Y-69348609D01*
X157537217Y-69348609D02*
X157489598Y-69443847D01*
X159203883Y-68824800D02*
X158346741Y-70110514D01*
X159537217Y-69205752D02*
X159537217Y-70205752D01*
X159537217Y-69253371D02*
X159632455Y-69205752D01*
X159632455Y-69205752D02*
X159822931Y-69205752D01*
X159822931Y-69205752D02*
X159918169Y-69253371D01*
X159918169Y-69253371D02*
X159965788Y-69300990D01*
X159965788Y-69300990D02*
X160013407Y-69396228D01*
X160013407Y-69396228D02*
X160013407Y-69681942D01*
X160013407Y-69681942D02*
X159965788Y-69777180D01*
X159965788Y-69777180D02*
X159918169Y-69824800D01*
X159918169Y-69824800D02*
X159822931Y-69872419D01*
X159822931Y-69872419D02*
X159632455Y-69872419D01*
X159632455Y-69872419D02*
X159537217Y-69824800D01*
X160441979Y-69872419D02*
X160441979Y-69205752D01*
X160441979Y-68872419D02*
X160394360Y-68920038D01*
X160394360Y-68920038D02*
X160441979Y-68967657D01*
X160441979Y-68967657D02*
X160489598Y-68920038D01*
X160489598Y-68920038D02*
X160441979Y-68872419D01*
X160441979Y-68872419D02*
X160441979Y-68967657D01*
X161346740Y-69824800D02*
X161251502Y-69872419D01*
X161251502Y-69872419D02*
X161061026Y-69872419D01*
X161061026Y-69872419D02*
X160965788Y-69824800D01*
X160965788Y-69824800D02*
X160918169Y-69777180D01*
X160918169Y-69777180D02*
X160870550Y-69681942D01*
X160870550Y-69681942D02*
X160870550Y-69396228D01*
X160870550Y-69396228D02*
X160918169Y-69300990D01*
X160918169Y-69300990D02*
X160965788Y-69253371D01*
X160965788Y-69253371D02*
X161061026Y-69205752D01*
X161061026Y-69205752D02*
X161251502Y-69205752D01*
X161251502Y-69205752D02*
X161346740Y-69253371D01*
X161918169Y-69872419D02*
X161822931Y-69824800D01*
X161822931Y-69824800D02*
X161775312Y-69777180D01*
X161775312Y-69777180D02*
X161727693Y-69681942D01*
X161727693Y-69681942D02*
X161727693Y-69396228D01*
X161727693Y-69396228D02*
X161775312Y-69300990D01*
X161775312Y-69300990D02*
X161822931Y-69253371D01*
X161822931Y-69253371D02*
X161918169Y-69205752D01*
X161918169Y-69205752D02*
X162061026Y-69205752D01*
X162061026Y-69205752D02*
X162156264Y-69253371D01*
X162156264Y-69253371D02*
X162203883Y-69300990D01*
X162203883Y-69300990D02*
X162251502Y-69396228D01*
X162251502Y-69396228D02*
X162251502Y-69681942D01*
X162251502Y-69681942D02*
X162203883Y-69777180D01*
X162203883Y-69777180D02*
X162156264Y-69824800D01*
X162156264Y-69824800D02*
X162061026Y-69872419D01*
X162061026Y-69872419D02*
X161918169Y-69872419D01*
X162680074Y-69491466D02*
X163441979Y-69491466D01*
X164346740Y-69872419D02*
X164346740Y-69348609D01*
X164346740Y-69348609D02*
X164299121Y-69253371D01*
X164299121Y-69253371D02*
X164203883Y-69205752D01*
X164203883Y-69205752D02*
X164013407Y-69205752D01*
X164013407Y-69205752D02*
X163918169Y-69253371D01*
X164346740Y-69824800D02*
X164251502Y-69872419D01*
X164251502Y-69872419D02*
X164013407Y-69872419D01*
X164013407Y-69872419D02*
X163918169Y-69824800D01*
X163918169Y-69824800D02*
X163870550Y-69729561D01*
X163870550Y-69729561D02*
X163870550Y-69634323D01*
X163870550Y-69634323D02*
X163918169Y-69539085D01*
X163918169Y-69539085D02*
X164013407Y-69491466D01*
X164013407Y-69491466D02*
X164251502Y-69491466D01*
X164251502Y-69491466D02*
X164346740Y-69443847D01*
X164822931Y-69872419D02*
X164822931Y-69205752D01*
X164822931Y-69396228D02*
X164870550Y-69300990D01*
X164870550Y-69300990D02*
X164918169Y-69253371D01*
X164918169Y-69253371D02*
X165013407Y-69205752D01*
X165013407Y-69205752D02*
X165108645Y-69205752D01*
X165299122Y-69205752D02*
X165680074Y-69205752D01*
X165441979Y-68872419D02*
X165441979Y-69729561D01*
X165441979Y-69729561D02*
X165489598Y-69824800D01*
X165489598Y-69824800D02*
X165584836Y-69872419D01*
X165584836Y-69872419D02*
X165680074Y-69872419D01*
X166013408Y-69205752D02*
X166013408Y-69872419D01*
X166013408Y-69300990D02*
X166061027Y-69253371D01*
X166061027Y-69253371D02*
X166156265Y-69205752D01*
X166156265Y-69205752D02*
X166299122Y-69205752D01*
X166299122Y-69205752D02*
X166394360Y-69253371D01*
X166394360Y-69253371D02*
X166441979Y-69348609D01*
X166441979Y-69348609D02*
X166441979Y-69872419D01*
X167299122Y-69824800D02*
X167203884Y-69872419D01*
X167203884Y-69872419D02*
X167013408Y-69872419D01*
X167013408Y-69872419D02*
X166918170Y-69824800D01*
X166918170Y-69824800D02*
X166870551Y-69729561D01*
X166870551Y-69729561D02*
X166870551Y-69348609D01*
X166870551Y-69348609D02*
X166918170Y-69253371D01*
X166918170Y-69253371D02*
X167013408Y-69205752D01*
X167013408Y-69205752D02*
X167203884Y-69205752D01*
X167203884Y-69205752D02*
X167299122Y-69253371D01*
X167299122Y-69253371D02*
X167346741Y-69348609D01*
X167346741Y-69348609D02*
X167346741Y-69443847D01*
X167346741Y-69443847D02*
X166870551Y-69539085D01*
X167632456Y-69205752D02*
X168013408Y-69205752D01*
X167775313Y-68872419D02*
X167775313Y-69729561D01*
X167775313Y-69729561D02*
X167822932Y-69824800D01*
X167822932Y-69824800D02*
X167918170Y-69872419D01*
X167918170Y-69872419D02*
X168013408Y-69872419D01*
X168346742Y-69491466D02*
X169108647Y-69491466D01*
X169584837Y-69205752D02*
X169584837Y-69872419D01*
X169584837Y-69300990D02*
X169632456Y-69253371D01*
X169632456Y-69253371D02*
X169727694Y-69205752D01*
X169727694Y-69205752D02*
X169870551Y-69205752D01*
X169870551Y-69205752D02*
X169965789Y-69253371D01*
X169965789Y-69253371D02*
X170013408Y-69348609D01*
X170013408Y-69348609D02*
X170013408Y-69872419D01*
X170632456Y-69872419D02*
X170537218Y-69824800D01*
X170537218Y-69824800D02*
X170489599Y-69777180D01*
X170489599Y-69777180D02*
X170441980Y-69681942D01*
X170441980Y-69681942D02*
X170441980Y-69396228D01*
X170441980Y-69396228D02*
X170489599Y-69300990D01*
X170489599Y-69300990D02*
X170537218Y-69253371D01*
X170537218Y-69253371D02*
X170632456Y-69205752D01*
X170632456Y-69205752D02*
X170775313Y-69205752D01*
X170775313Y-69205752D02*
X170870551Y-69253371D01*
X170870551Y-69253371D02*
X170918170Y-69300990D01*
X170918170Y-69300990D02*
X170965789Y-69396228D01*
X170965789Y-69396228D02*
X170965789Y-69681942D01*
X170965789Y-69681942D02*
X170918170Y-69777180D01*
X170918170Y-69777180D02*
X170870551Y-69824800D01*
X170870551Y-69824800D02*
X170775313Y-69872419D01*
X170775313Y-69872419D02*
X170632456Y-69872419D01*
X171822932Y-69872419D02*
X171822932Y-68872419D01*
X171822932Y-69824800D02*
X171727694Y-69872419D01*
X171727694Y-69872419D02*
X171537218Y-69872419D01*
X171537218Y-69872419D02*
X171441980Y-69824800D01*
X171441980Y-69824800D02*
X171394361Y-69777180D01*
X171394361Y-69777180D02*
X171346742Y-69681942D01*
X171346742Y-69681942D02*
X171346742Y-69396228D01*
X171346742Y-69396228D02*
X171394361Y-69300990D01*
X171394361Y-69300990D02*
X171441980Y-69253371D01*
X171441980Y-69253371D02*
X171537218Y-69205752D01*
X171537218Y-69205752D02*
X171727694Y-69205752D01*
X171727694Y-69205752D02*
X171822932Y-69253371D01*
X172680075Y-69824800D02*
X172584837Y-69872419D01*
X172584837Y-69872419D02*
X172394361Y-69872419D01*
X172394361Y-69872419D02*
X172299123Y-69824800D01*
X172299123Y-69824800D02*
X172251504Y-69729561D01*
X172251504Y-69729561D02*
X172251504Y-69348609D01*
X172251504Y-69348609D02*
X172299123Y-69253371D01*
X172299123Y-69253371D02*
X172394361Y-69205752D01*
X172394361Y-69205752D02*
X172584837Y-69205752D01*
X172584837Y-69205752D02*
X172680075Y-69253371D01*
X172680075Y-69253371D02*
X172727694Y-69348609D01*
X172727694Y-69348609D02*
X172727694Y-69443847D01*
X172727694Y-69443847D02*
X172251504Y-69539085D01*
D11*
X160140851Y-46168047D02*
X160140851Y-43668047D01*
X160140851Y-43668047D02*
X160959899Y-43668047D01*
X160959899Y-43668047D02*
X161164661Y-43787095D01*
X161164661Y-43787095D02*
X161267042Y-43906142D01*
X161267042Y-43906142D02*
X161369423Y-44144238D01*
X161369423Y-44144238D02*
X161369423Y-44501380D01*
X161369423Y-44501380D02*
X161267042Y-44739476D01*
X161267042Y-44739476D02*
X161164661Y-44858523D01*
X161164661Y-44858523D02*
X160959899Y-44977571D01*
X160959899Y-44977571D02*
X160140851Y-44977571D01*
X162290851Y-46168047D02*
X162290851Y-44501380D01*
X162290851Y-43668047D02*
X162188470Y-43787095D01*
X162188470Y-43787095D02*
X162290851Y-43906142D01*
X162290851Y-43906142D02*
X162393232Y-43787095D01*
X162393232Y-43787095D02*
X162290851Y-43668047D01*
X162290851Y-43668047D02*
X162290851Y-43906142D01*
X164236090Y-46049000D02*
X164031328Y-46168047D01*
X164031328Y-46168047D02*
X163621804Y-46168047D01*
X163621804Y-46168047D02*
X163417042Y-46049000D01*
X163417042Y-46049000D02*
X163314661Y-45929952D01*
X163314661Y-45929952D02*
X163212280Y-45691857D01*
X163212280Y-45691857D02*
X163212280Y-44977571D01*
X163212280Y-44977571D02*
X163314661Y-44739476D01*
X163314661Y-44739476D02*
X163417042Y-44620428D01*
X163417042Y-44620428D02*
X163621804Y-44501380D01*
X163621804Y-44501380D02*
X164031328Y-44501380D01*
X164031328Y-44501380D02*
X164236090Y-44620428D01*
X165464661Y-46168047D02*
X165259899Y-46049000D01*
X165259899Y-46049000D02*
X165157518Y-45929952D01*
X165157518Y-45929952D02*
X165055137Y-45691857D01*
X165055137Y-45691857D02*
X165055137Y-44977571D01*
X165055137Y-44977571D02*
X165157518Y-44739476D01*
X165157518Y-44739476D02*
X165259899Y-44620428D01*
X165259899Y-44620428D02*
X165464661Y-44501380D01*
X165464661Y-44501380D02*
X165771804Y-44501380D01*
X165771804Y-44501380D02*
X165976566Y-44620428D01*
X165976566Y-44620428D02*
X166078947Y-44739476D01*
X166078947Y-44739476D02*
X166181328Y-44977571D01*
X166181328Y-44977571D02*
X166181328Y-45691857D01*
X166181328Y-45691857D02*
X166078947Y-45929952D01*
X166078947Y-45929952D02*
X165976566Y-46049000D01*
X165976566Y-46049000D02*
X165771804Y-46168047D01*
X165771804Y-46168047D02*
X165464661Y-46168047D01*
X168638470Y-45453761D02*
X169662280Y-45453761D01*
X168433708Y-46168047D02*
X169150375Y-43668047D01*
X169150375Y-43668047D02*
X169867042Y-46168047D01*
X170583708Y-46168047D02*
X170583708Y-44501380D01*
X170583708Y-44977571D02*
X170686089Y-44739476D01*
X170686089Y-44739476D02*
X170788470Y-44620428D01*
X170788470Y-44620428D02*
X170993232Y-44501380D01*
X170993232Y-44501380D02*
X171197994Y-44501380D01*
X171607517Y-44501380D02*
X172426565Y-44501380D01*
X171914660Y-43668047D02*
X171914660Y-45810904D01*
X171914660Y-45810904D02*
X172017041Y-46049000D01*
X172017041Y-46049000D02*
X172221803Y-46168047D01*
X172221803Y-46168047D02*
X172426565Y-46168047D01*
X173143231Y-44501380D02*
X173143231Y-46168047D01*
X173143231Y-44739476D02*
X173245612Y-44620428D01*
X173245612Y-44620428D02*
X173450374Y-44501380D01*
X173450374Y-44501380D02*
X173757517Y-44501380D01*
X173757517Y-44501380D02*
X173962279Y-44620428D01*
X173962279Y-44620428D02*
X174064660Y-44858523D01*
X174064660Y-44858523D02*
X174064660Y-46168047D01*
X175907517Y-46049000D02*
X175702755Y-46168047D01*
X175702755Y-46168047D02*
X175293231Y-46168047D01*
X175293231Y-46168047D02*
X175088469Y-46049000D01*
X175088469Y-46049000D02*
X174986088Y-45810904D01*
X174986088Y-45810904D02*
X174986088Y-44858523D01*
X174986088Y-44858523D02*
X175088469Y-44620428D01*
X175088469Y-44620428D02*
X175293231Y-44501380D01*
X175293231Y-44501380D02*
X175702755Y-44501380D01*
X175702755Y-44501380D02*
X175907517Y-44620428D01*
X175907517Y-44620428D02*
X176009898Y-44858523D01*
X176009898Y-44858523D02*
X176009898Y-45096619D01*
X176009898Y-45096619D02*
X174986088Y-45334714D01*
X176624183Y-44501380D02*
X177443231Y-44501380D01*
X176931326Y-43668047D02*
X176931326Y-45810904D01*
X176931326Y-45810904D02*
X177033707Y-46049000D01*
X177033707Y-46049000D02*
X177238469Y-46168047D01*
X177238469Y-46168047D02*
X177443231Y-46168047D01*
X179797992Y-46168047D02*
X179797992Y-43668047D01*
X179797992Y-43668047D02*
X181026564Y-46168047D01*
X181026564Y-46168047D02*
X181026564Y-43668047D01*
X182357516Y-46168047D02*
X182152754Y-46049000D01*
X182152754Y-46049000D02*
X182050373Y-45929952D01*
X182050373Y-45929952D02*
X181947992Y-45691857D01*
X181947992Y-45691857D02*
X181947992Y-44977571D01*
X181947992Y-44977571D02*
X182050373Y-44739476D01*
X182050373Y-44739476D02*
X182152754Y-44620428D01*
X182152754Y-44620428D02*
X182357516Y-44501380D01*
X182357516Y-44501380D02*
X182664659Y-44501380D01*
X182664659Y-44501380D02*
X182869421Y-44620428D01*
X182869421Y-44620428D02*
X182971802Y-44739476D01*
X182971802Y-44739476D02*
X183074183Y-44977571D01*
X183074183Y-44977571D02*
X183074183Y-45691857D01*
X183074183Y-45691857D02*
X182971802Y-45929952D01*
X182971802Y-45929952D02*
X182869421Y-46049000D01*
X182869421Y-46049000D02*
X182664659Y-46168047D01*
X182664659Y-46168047D02*
X182357516Y-46168047D01*
X184917040Y-46168047D02*
X184917040Y-43668047D01*
X184917040Y-46049000D02*
X184712278Y-46168047D01*
X184712278Y-46168047D02*
X184302754Y-46168047D01*
X184302754Y-46168047D02*
X184097992Y-46049000D01*
X184097992Y-46049000D02*
X183995611Y-45929952D01*
X183995611Y-45929952D02*
X183893230Y-45691857D01*
X183893230Y-45691857D02*
X183893230Y-44977571D01*
X183893230Y-44977571D02*
X183995611Y-44739476D01*
X183995611Y-44739476D02*
X184097992Y-44620428D01*
X184097992Y-44620428D02*
X184302754Y-44501380D01*
X184302754Y-44501380D02*
X184712278Y-44501380D01*
X184712278Y-44501380D02*
X184917040Y-44620428D01*
X186759897Y-46049000D02*
X186555135Y-46168047D01*
X186555135Y-46168047D02*
X186145611Y-46168047D01*
X186145611Y-46168047D02*
X185940849Y-46049000D01*
X185940849Y-46049000D02*
X185838468Y-45810904D01*
X185838468Y-45810904D02*
X185838468Y-44858523D01*
X185838468Y-44858523D02*
X185940849Y-44620428D01*
X185940849Y-44620428D02*
X186145611Y-44501380D01*
X186145611Y-44501380D02*
X186555135Y-44501380D01*
X186555135Y-44501380D02*
X186759897Y-44620428D01*
X186759897Y-44620428D02*
X186862278Y-44858523D01*
X186862278Y-44858523D02*
X186862278Y-45096619D01*
X186862278Y-45096619D02*
X185838468Y-45334714D01*
D12*
X162245863Y-74267219D02*
X161769673Y-74267219D01*
X161769673Y-74267219D02*
X161769673Y-73267219D01*
X162960149Y-74219600D02*
X162864911Y-74267219D01*
X162864911Y-74267219D02*
X162674435Y-74267219D01*
X162674435Y-74267219D02*
X162579197Y-74219600D01*
X162579197Y-74219600D02*
X162531578Y-74124361D01*
X162531578Y-74124361D02*
X162531578Y-73743409D01*
X162531578Y-73743409D02*
X162579197Y-73648171D01*
X162579197Y-73648171D02*
X162674435Y-73600552D01*
X162674435Y-73600552D02*
X162864911Y-73600552D01*
X162864911Y-73600552D02*
X162960149Y-73648171D01*
X162960149Y-73648171D02*
X163007768Y-73743409D01*
X163007768Y-73743409D02*
X163007768Y-73838647D01*
X163007768Y-73838647D02*
X162531578Y-73933885D01*
X163864911Y-74267219D02*
X163864911Y-73267219D01*
X163864911Y-74219600D02*
X163769673Y-74267219D01*
X163769673Y-74267219D02*
X163579197Y-74267219D01*
X163579197Y-74267219D02*
X163483959Y-74219600D01*
X163483959Y-74219600D02*
X163436340Y-74171980D01*
X163436340Y-74171980D02*
X163388721Y-74076742D01*
X163388721Y-74076742D02*
X163388721Y-73791028D01*
X163388721Y-73791028D02*
X163436340Y-73695790D01*
X163436340Y-73695790D02*
X163483959Y-73648171D01*
X163483959Y-73648171D02*
X163579197Y-73600552D01*
X163579197Y-73600552D02*
X163769673Y-73600552D01*
X163769673Y-73600552D02*
X163864911Y-73648171D01*
X165055388Y-73981504D02*
X165531578Y-73981504D01*
X164960150Y-74267219D02*
X165293483Y-73267219D01*
X165293483Y-73267219D02*
X165626816Y-74267219D01*
D10*
X166832598Y-122443419D02*
X166832598Y-123157704D01*
X166832598Y-123157704D02*
X166784979Y-123300561D01*
X166784979Y-123300561D02*
X166689741Y-123395800D01*
X166689741Y-123395800D02*
X166546884Y-123443419D01*
X166546884Y-123443419D02*
X166451646Y-123443419D01*
X167784979Y-123443419D02*
X167308789Y-123443419D01*
X167308789Y-123443419D02*
X167308789Y-122443419D01*
X168689741Y-123348180D02*
X168642122Y-123395800D01*
X168642122Y-123395800D02*
X168499265Y-123443419D01*
X168499265Y-123443419D02*
X168404027Y-123443419D01*
X168404027Y-123443419D02*
X168261170Y-123395800D01*
X168261170Y-123395800D02*
X168165932Y-123300561D01*
X168165932Y-123300561D02*
X168118313Y-123205323D01*
X168118313Y-123205323D02*
X168070694Y-123014847D01*
X168070694Y-123014847D02*
X168070694Y-122871990D01*
X168070694Y-122871990D02*
X168118313Y-122681514D01*
X168118313Y-122681514D02*
X168165932Y-122586276D01*
X168165932Y-122586276D02*
X168261170Y-122491038D01*
X168261170Y-122491038D02*
X168404027Y-122443419D01*
X168404027Y-122443419D02*
X168499265Y-122443419D01*
X168499265Y-122443419D02*
X168642122Y-122491038D01*
X168642122Y-122491038D02*
X168689741Y-122538657D01*
X169404027Y-122443419D02*
X169404027Y-123157704D01*
X169404027Y-123157704D02*
X169356408Y-123300561D01*
X169356408Y-123300561D02*
X169261170Y-123395800D01*
X169261170Y-123395800D02*
X169118313Y-123443419D01*
X169118313Y-123443419D02*
X169023075Y-123443419D01*
X170356408Y-123443419D02*
X169880218Y-123443419D01*
X169880218Y-123443419D02*
X169880218Y-122443419D01*
X171261170Y-123348180D02*
X171213551Y-123395800D01*
X171213551Y-123395800D02*
X171070694Y-123443419D01*
X171070694Y-123443419D02*
X170975456Y-123443419D01*
X170975456Y-123443419D02*
X170832599Y-123395800D01*
X170832599Y-123395800D02*
X170737361Y-123300561D01*
X170737361Y-123300561D02*
X170689742Y-123205323D01*
X170689742Y-123205323D02*
X170642123Y-123014847D01*
X170642123Y-123014847D02*
X170642123Y-122871990D01*
X170642123Y-122871990D02*
X170689742Y-122681514D01*
X170689742Y-122681514D02*
X170737361Y-122586276D01*
X170737361Y-122586276D02*
X170832599Y-122491038D01*
X170832599Y-122491038D02*
X170975456Y-122443419D01*
X170975456Y-122443419D02*
X171070694Y-122443419D01*
X171070694Y-122443419D02*
X171213551Y-122491038D01*
X171213551Y-122491038D02*
X171261170Y-122538657D01*
X171975456Y-122443419D02*
X171975456Y-123157704D01*
X171975456Y-123157704D02*
X171927837Y-123300561D01*
X171927837Y-123300561D02*
X171832599Y-123395800D01*
X171832599Y-123395800D02*
X171689742Y-123443419D01*
X171689742Y-123443419D02*
X171594504Y-123443419D01*
X172927837Y-123443419D02*
X172451647Y-123443419D01*
X172451647Y-123443419D02*
X172451647Y-122443419D01*
X173832599Y-123348180D02*
X173784980Y-123395800D01*
X173784980Y-123395800D02*
X173642123Y-123443419D01*
X173642123Y-123443419D02*
X173546885Y-123443419D01*
X173546885Y-123443419D02*
X173404028Y-123395800D01*
X173404028Y-123395800D02*
X173308790Y-123300561D01*
X173308790Y-123300561D02*
X173261171Y-123205323D01*
X173261171Y-123205323D02*
X173213552Y-123014847D01*
X173213552Y-123014847D02*
X173213552Y-122871990D01*
X173213552Y-122871990D02*
X173261171Y-122681514D01*
X173261171Y-122681514D02*
X173308790Y-122586276D01*
X173308790Y-122586276D02*
X173404028Y-122491038D01*
X173404028Y-122491038D02*
X173546885Y-122443419D01*
X173546885Y-122443419D02*
X173642123Y-122443419D01*
X173642123Y-122443419D02*
X173784980Y-122491038D01*
X173784980Y-122491038D02*
X173832599Y-122538657D01*
X174546885Y-122443419D02*
X174546885Y-123157704D01*
X174546885Y-123157704D02*
X174499266Y-123300561D01*
X174499266Y-123300561D02*
X174404028Y-123395800D01*
X174404028Y-123395800D02*
X174261171Y-123443419D01*
X174261171Y-123443419D02*
X174165933Y-123443419D01*
X175499266Y-123443419D02*
X175023076Y-123443419D01*
X175023076Y-123443419D02*
X175023076Y-122443419D01*
X176404028Y-123348180D02*
X176356409Y-123395800D01*
X176356409Y-123395800D02*
X176213552Y-123443419D01*
X176213552Y-123443419D02*
X176118314Y-123443419D01*
X176118314Y-123443419D02*
X175975457Y-123395800D01*
X175975457Y-123395800D02*
X175880219Y-123300561D01*
X175880219Y-123300561D02*
X175832600Y-123205323D01*
X175832600Y-123205323D02*
X175784981Y-123014847D01*
X175784981Y-123014847D02*
X175784981Y-122871990D01*
X175784981Y-122871990D02*
X175832600Y-122681514D01*
X175832600Y-122681514D02*
X175880219Y-122586276D01*
X175880219Y-122586276D02*
X175975457Y-122491038D01*
X175975457Y-122491038D02*
X176118314Y-122443419D01*
X176118314Y-122443419D02*
X176213552Y-122443419D01*
X176213552Y-122443419D02*
X176356409Y-122491038D01*
X176356409Y-122491038D02*
X176404028Y-122538657D01*
D12*
X177643409Y-84596993D02*
X177691028Y-84454136D01*
X177691028Y-84454136D02*
X177738647Y-84406517D01*
X177738647Y-84406517D02*
X177833885Y-84358898D01*
X177833885Y-84358898D02*
X177976742Y-84358898D01*
X177976742Y-84358898D02*
X178071980Y-84406517D01*
X178071980Y-84406517D02*
X178119600Y-84454136D01*
X178119600Y-84454136D02*
X178167219Y-84549374D01*
X178167219Y-84549374D02*
X178167219Y-84930326D01*
X178167219Y-84930326D02*
X177167219Y-84930326D01*
X177167219Y-84930326D02*
X177167219Y-84596993D01*
X177167219Y-84596993D02*
X177214838Y-84501755D01*
X177214838Y-84501755D02*
X177262457Y-84454136D01*
X177262457Y-84454136D02*
X177357695Y-84406517D01*
X177357695Y-84406517D02*
X177452933Y-84406517D01*
X177452933Y-84406517D02*
X177548171Y-84454136D01*
X177548171Y-84454136D02*
X177595790Y-84501755D01*
X177595790Y-84501755D02*
X177643409Y-84596993D01*
X177643409Y-84596993D02*
X177643409Y-84930326D01*
X177500552Y-83501755D02*
X178167219Y-83501755D01*
X177500552Y-83930326D02*
X178024361Y-83930326D01*
X178024361Y-83930326D02*
X178119600Y-83882707D01*
X178119600Y-83882707D02*
X178167219Y-83787469D01*
X178167219Y-83787469D02*
X178167219Y-83644612D01*
X178167219Y-83644612D02*
X178119600Y-83549374D01*
X178119600Y-83549374D02*
X178071980Y-83501755D01*
X177500552Y-83168421D02*
X177500552Y-82787469D01*
X177167219Y-83025564D02*
X178024361Y-83025564D01*
X178024361Y-83025564D02*
X178119600Y-82977945D01*
X178119600Y-82977945D02*
X178167219Y-82882707D01*
X178167219Y-82882707D02*
X178167219Y-82787469D01*
X177500552Y-82596992D02*
X177500552Y-82216040D01*
X177167219Y-82454135D02*
X178024361Y-82454135D01*
X178024361Y-82454135D02*
X178119600Y-82406516D01*
X178119600Y-82406516D02*
X178167219Y-82311278D01*
X178167219Y-82311278D02*
X178167219Y-82216040D01*
X178167219Y-81739849D02*
X178119600Y-81835087D01*
X178119600Y-81835087D02*
X178071980Y-81882706D01*
X178071980Y-81882706D02*
X177976742Y-81930325D01*
X177976742Y-81930325D02*
X177691028Y-81930325D01*
X177691028Y-81930325D02*
X177595790Y-81882706D01*
X177595790Y-81882706D02*
X177548171Y-81835087D01*
X177548171Y-81835087D02*
X177500552Y-81739849D01*
X177500552Y-81739849D02*
X177500552Y-81596992D01*
X177500552Y-81596992D02*
X177548171Y-81501754D01*
X177548171Y-81501754D02*
X177595790Y-81454135D01*
X177595790Y-81454135D02*
X177691028Y-81406516D01*
X177691028Y-81406516D02*
X177976742Y-81406516D01*
X177976742Y-81406516D02*
X178071980Y-81454135D01*
X178071980Y-81454135D02*
X178119600Y-81501754D01*
X178119600Y-81501754D02*
X178167219Y-81596992D01*
X178167219Y-81596992D02*
X178167219Y-81739849D01*
X177500552Y-80977944D02*
X178167219Y-80977944D01*
X177595790Y-80977944D02*
X177548171Y-80930325D01*
X177548171Y-80930325D02*
X177500552Y-80835087D01*
X177500552Y-80835087D02*
X177500552Y-80692230D01*
X177500552Y-80692230D02*
X177548171Y-80596992D01*
X177548171Y-80596992D02*
X177643409Y-80549373D01*
X177643409Y-80549373D02*
X178167219Y-80549373D01*
X178119600Y-80120801D02*
X178167219Y-80025563D01*
X178167219Y-80025563D02*
X178167219Y-79835087D01*
X178167219Y-79835087D02*
X178119600Y-79739849D01*
X178119600Y-79739849D02*
X178024361Y-79692230D01*
X178024361Y-79692230D02*
X177976742Y-79692230D01*
X177976742Y-79692230D02*
X177881504Y-79739849D01*
X177881504Y-79739849D02*
X177833885Y-79835087D01*
X177833885Y-79835087D02*
X177833885Y-79977944D01*
X177833885Y-79977944D02*
X177786266Y-80073182D01*
X177786266Y-80073182D02*
X177691028Y-80120801D01*
X177691028Y-80120801D02*
X177643409Y-80120801D01*
X177643409Y-80120801D02*
X177548171Y-80073182D01*
X177548171Y-80073182D02*
X177500552Y-79977944D01*
X177500552Y-79977944D02*
X177500552Y-79835087D01*
X177500552Y-79835087D02*
X177548171Y-79739849D01*
X150469673Y-99567219D02*
X150469673Y-98567219D01*
X150469673Y-98567219D02*
X150707768Y-98567219D01*
X150707768Y-98567219D02*
X150850625Y-98614838D01*
X150850625Y-98614838D02*
X150945863Y-98710076D01*
X150945863Y-98710076D02*
X150993482Y-98805314D01*
X150993482Y-98805314D02*
X151041101Y-98995790D01*
X151041101Y-98995790D02*
X151041101Y-99138647D01*
X151041101Y-99138647D02*
X150993482Y-99329123D01*
X150993482Y-99329123D02*
X150945863Y-99424361D01*
X150945863Y-99424361D02*
X150850625Y-99519600D01*
X150850625Y-99519600D02*
X150707768Y-99567219D01*
X150707768Y-99567219D02*
X150469673Y-99567219D01*
X151469673Y-99567219D02*
X151469673Y-98567219D01*
X151469673Y-98567219D02*
X151803006Y-99281504D01*
X151803006Y-99281504D02*
X152136339Y-98567219D01*
X152136339Y-98567219D02*
X152136339Y-99567219D01*
X152517292Y-98567219D02*
X153183958Y-99567219D01*
X153183958Y-98567219D02*
X152517292Y-99567219D01*
X154660149Y-99043409D02*
X154803006Y-99091028D01*
X154803006Y-99091028D02*
X154850625Y-99138647D01*
X154850625Y-99138647D02*
X154898244Y-99233885D01*
X154898244Y-99233885D02*
X154898244Y-99376742D01*
X154898244Y-99376742D02*
X154850625Y-99471980D01*
X154850625Y-99471980D02*
X154803006Y-99519600D01*
X154803006Y-99519600D02*
X154707768Y-99567219D01*
X154707768Y-99567219D02*
X154326816Y-99567219D01*
X154326816Y-99567219D02*
X154326816Y-98567219D01*
X154326816Y-98567219D02*
X154660149Y-98567219D01*
X154660149Y-98567219D02*
X154755387Y-98614838D01*
X154755387Y-98614838D02*
X154803006Y-98662457D01*
X154803006Y-98662457D02*
X154850625Y-98757695D01*
X154850625Y-98757695D02*
X154850625Y-98852933D01*
X154850625Y-98852933D02*
X154803006Y-98948171D01*
X154803006Y-98948171D02*
X154755387Y-98995790D01*
X154755387Y-98995790D02*
X154660149Y-99043409D01*
X154660149Y-99043409D02*
X154326816Y-99043409D01*
D10*
X165713408Y-47510514D02*
X165618169Y-47462895D01*
X165618169Y-47462895D02*
X165427693Y-47462895D01*
X165427693Y-47462895D02*
X165332455Y-47510514D01*
X165332455Y-47510514D02*
X165237217Y-47605752D01*
X165237217Y-47605752D02*
X165189598Y-47700990D01*
X165189598Y-47700990D02*
X165189598Y-47891466D01*
X165189598Y-47891466D02*
X165237217Y-47986704D01*
X165237217Y-47986704D02*
X165332455Y-48081942D01*
X165332455Y-48081942D02*
X165427693Y-48129561D01*
X165427693Y-48129561D02*
X165618169Y-48129561D01*
X165618169Y-48129561D02*
X165713408Y-48081942D01*
X165522931Y-47129561D02*
X165284836Y-47177180D01*
X165284836Y-47177180D02*
X165046741Y-47320038D01*
X165046741Y-47320038D02*
X164903884Y-47558133D01*
X164903884Y-47558133D02*
X164856265Y-47796228D01*
X164856265Y-47796228D02*
X164903884Y-48034323D01*
X164903884Y-48034323D02*
X165046741Y-48272419D01*
X165046741Y-48272419D02*
X165284836Y-48415276D01*
X165284836Y-48415276D02*
X165522931Y-48462895D01*
X165522931Y-48462895D02*
X165761027Y-48415276D01*
X165761027Y-48415276D02*
X165999122Y-48272419D01*
X165999122Y-48272419D02*
X166141979Y-48034323D01*
X166141979Y-48034323D02*
X166189598Y-47796228D01*
X166189598Y-47796228D02*
X166141979Y-47558133D01*
X166141979Y-47558133D02*
X165999122Y-47320038D01*
X165999122Y-47320038D02*
X165761027Y-47177180D01*
X165761027Y-47177180D02*
X165522931Y-47129561D01*
X167237218Y-47272419D02*
X167808646Y-47272419D01*
X167522932Y-48272419D02*
X167522932Y-47272419D01*
X168141980Y-48272419D02*
X168141980Y-47605752D01*
X168141980Y-47272419D02*
X168094361Y-47320038D01*
X168094361Y-47320038D02*
X168141980Y-47367657D01*
X168141980Y-47367657D02*
X168189599Y-47320038D01*
X168189599Y-47320038D02*
X168141980Y-47272419D01*
X168141980Y-47272419D02*
X168141980Y-47367657D01*
X168618170Y-48272419D02*
X168618170Y-47605752D01*
X168618170Y-47700990D02*
X168665789Y-47653371D01*
X168665789Y-47653371D02*
X168761027Y-47605752D01*
X168761027Y-47605752D02*
X168903884Y-47605752D01*
X168903884Y-47605752D02*
X168999122Y-47653371D01*
X168999122Y-47653371D02*
X169046741Y-47748609D01*
X169046741Y-47748609D02*
X169046741Y-48272419D01*
X169046741Y-47748609D02*
X169094360Y-47653371D01*
X169094360Y-47653371D02*
X169189598Y-47605752D01*
X169189598Y-47605752D02*
X169332455Y-47605752D01*
X169332455Y-47605752D02*
X169427694Y-47653371D01*
X169427694Y-47653371D02*
X169475313Y-47748609D01*
X169475313Y-47748609D02*
X169475313Y-48272419D01*
X170094360Y-48272419D02*
X169999122Y-48224800D01*
X169999122Y-48224800D02*
X169951503Y-48177180D01*
X169951503Y-48177180D02*
X169903884Y-48081942D01*
X169903884Y-48081942D02*
X169903884Y-47796228D01*
X169903884Y-47796228D02*
X169951503Y-47700990D01*
X169951503Y-47700990D02*
X169999122Y-47653371D01*
X169999122Y-47653371D02*
X170094360Y-47605752D01*
X170094360Y-47605752D02*
X170237217Y-47605752D01*
X170237217Y-47605752D02*
X170332455Y-47653371D01*
X170332455Y-47653371D02*
X170380074Y-47700990D01*
X170380074Y-47700990D02*
X170427693Y-47796228D01*
X170427693Y-47796228D02*
X170427693Y-48081942D01*
X170427693Y-48081942D02*
X170380074Y-48177180D01*
X170380074Y-48177180D02*
X170332455Y-48224800D01*
X170332455Y-48224800D02*
X170237217Y-48272419D01*
X170237217Y-48272419D02*
X170094360Y-48272419D01*
X171808646Y-47272419D02*
X171999122Y-47272419D01*
X171999122Y-47272419D02*
X172094360Y-47320038D01*
X172094360Y-47320038D02*
X172189598Y-47415276D01*
X172189598Y-47415276D02*
X172237217Y-47605752D01*
X172237217Y-47605752D02*
X172237217Y-47939085D01*
X172237217Y-47939085D02*
X172189598Y-48129561D01*
X172189598Y-48129561D02*
X172094360Y-48224800D01*
X172094360Y-48224800D02*
X171999122Y-48272419D01*
X171999122Y-48272419D02*
X171808646Y-48272419D01*
X171808646Y-48272419D02*
X171713408Y-48224800D01*
X171713408Y-48224800D02*
X171618170Y-48129561D01*
X171618170Y-48129561D02*
X171570551Y-47939085D01*
X171570551Y-47939085D02*
X171570551Y-47605752D01*
X171570551Y-47605752D02*
X171618170Y-47415276D01*
X171618170Y-47415276D02*
X171713408Y-47320038D01*
X171713408Y-47320038D02*
X171808646Y-47272419D01*
X172808646Y-48272419D02*
X172713408Y-48224800D01*
X172713408Y-48224800D02*
X172665789Y-48177180D01*
X172665789Y-48177180D02*
X172618170Y-48081942D01*
X172618170Y-48081942D02*
X172618170Y-47796228D01*
X172618170Y-47796228D02*
X172665789Y-47700990D01*
X172665789Y-47700990D02*
X172713408Y-47653371D01*
X172713408Y-47653371D02*
X172808646Y-47605752D01*
X172808646Y-47605752D02*
X172951503Y-47605752D01*
X172951503Y-47605752D02*
X173046741Y-47653371D01*
X173046741Y-47653371D02*
X173094360Y-47700990D01*
X173094360Y-47700990D02*
X173141979Y-47796228D01*
X173141979Y-47796228D02*
X173141979Y-48081942D01*
X173141979Y-48081942D02*
X173094360Y-48177180D01*
X173094360Y-48177180D02*
X173046741Y-48224800D01*
X173046741Y-48224800D02*
X172951503Y-48272419D01*
X172951503Y-48272419D02*
X172808646Y-48272419D01*
X173522932Y-48224800D02*
X173618170Y-48272419D01*
X173618170Y-48272419D02*
X173808646Y-48272419D01*
X173808646Y-48272419D02*
X173903884Y-48224800D01*
X173903884Y-48224800D02*
X173951503Y-48129561D01*
X173951503Y-48129561D02*
X173951503Y-48081942D01*
X173951503Y-48081942D02*
X173903884Y-47986704D01*
X173903884Y-47986704D02*
X173808646Y-47939085D01*
X173808646Y-47939085D02*
X173665789Y-47939085D01*
X173665789Y-47939085D02*
X173570551Y-47891466D01*
X173570551Y-47891466D02*
X173522932Y-47796228D01*
X173522932Y-47796228D02*
X173522932Y-47748609D01*
X173522932Y-47748609D02*
X173570551Y-47653371D01*
X173570551Y-47653371D02*
X173665789Y-47605752D01*
X173665789Y-47605752D02*
X173808646Y-47605752D01*
X173808646Y-47605752D02*
X173903884Y-47653371D01*
X174237218Y-47605752D02*
X174618170Y-47605752D01*
X174380075Y-47272419D02*
X174380075Y-48129561D01*
X174380075Y-48129561D02*
X174427694Y-48224800D01*
X174427694Y-48224800D02*
X174522932Y-48272419D01*
X174522932Y-48272419D02*
X174618170Y-48272419D01*
X175332456Y-48224800D02*
X175237218Y-48272419D01*
X175237218Y-48272419D02*
X175046742Y-48272419D01*
X175046742Y-48272419D02*
X174951504Y-48224800D01*
X174951504Y-48224800D02*
X174903885Y-48129561D01*
X174903885Y-48129561D02*
X174903885Y-47748609D01*
X174903885Y-47748609D02*
X174951504Y-47653371D01*
X174951504Y-47653371D02*
X175046742Y-47605752D01*
X175046742Y-47605752D02*
X175237218Y-47605752D01*
X175237218Y-47605752D02*
X175332456Y-47653371D01*
X175332456Y-47653371D02*
X175380075Y-47748609D01*
X175380075Y-47748609D02*
X175380075Y-47843847D01*
X175380075Y-47843847D02*
X174903885Y-47939085D01*
X175808647Y-48272419D02*
X175808647Y-47605752D01*
X175808647Y-47796228D02*
X175856266Y-47700990D01*
X175856266Y-47700990D02*
X175903885Y-47653371D01*
X175903885Y-47653371D02*
X175999123Y-47605752D01*
X175999123Y-47605752D02*
X176094361Y-47605752D01*
X176570552Y-48272419D02*
X176475314Y-48224800D01*
X176475314Y-48224800D02*
X176427695Y-48177180D01*
X176427695Y-48177180D02*
X176380076Y-48081942D01*
X176380076Y-48081942D02*
X176380076Y-47796228D01*
X176380076Y-47796228D02*
X176427695Y-47700990D01*
X176427695Y-47700990D02*
X176475314Y-47653371D01*
X176475314Y-47653371D02*
X176570552Y-47605752D01*
X176570552Y-47605752D02*
X176713409Y-47605752D01*
X176713409Y-47605752D02*
X176808647Y-47653371D01*
X176808647Y-47653371D02*
X176856266Y-47700990D01*
X176856266Y-47700990D02*
X176903885Y-47796228D01*
X176903885Y-47796228D02*
X176903885Y-48081942D01*
X176903885Y-48081942D02*
X176856266Y-48177180D01*
X176856266Y-48177180D02*
X176808647Y-48224800D01*
X176808647Y-48224800D02*
X176713409Y-48272419D01*
X176713409Y-48272419D02*
X176570552Y-48272419D01*
X177332457Y-48272419D02*
X177332457Y-47605752D01*
X177332457Y-47700990D02*
X177380076Y-47653371D01*
X177380076Y-47653371D02*
X177475314Y-47605752D01*
X177475314Y-47605752D02*
X177618171Y-47605752D01*
X177618171Y-47605752D02*
X177713409Y-47653371D01*
X177713409Y-47653371D02*
X177761028Y-47748609D01*
X177761028Y-47748609D02*
X177761028Y-48272419D01*
X177761028Y-47748609D02*
X177808647Y-47653371D01*
X177808647Y-47653371D02*
X177903885Y-47605752D01*
X177903885Y-47605752D02*
X178046742Y-47605752D01*
X178046742Y-47605752D02*
X178141981Y-47653371D01*
X178141981Y-47653371D02*
X178189600Y-47748609D01*
X178189600Y-47748609D02*
X178189600Y-48272419D01*
X179380076Y-47367657D02*
X179427695Y-47320038D01*
X179427695Y-47320038D02*
X179522933Y-47272419D01*
X179522933Y-47272419D02*
X179761028Y-47272419D01*
X179761028Y-47272419D02*
X179856266Y-47320038D01*
X179856266Y-47320038D02*
X179903885Y-47367657D01*
X179903885Y-47367657D02*
X179951504Y-47462895D01*
X179951504Y-47462895D02*
X179951504Y-47558133D01*
X179951504Y-47558133D02*
X179903885Y-47700990D01*
X179903885Y-47700990D02*
X179332457Y-48272419D01*
X179332457Y-48272419D02*
X179951504Y-48272419D01*
X180570552Y-47272419D02*
X180665790Y-47272419D01*
X180665790Y-47272419D02*
X180761028Y-47320038D01*
X180761028Y-47320038D02*
X180808647Y-47367657D01*
X180808647Y-47367657D02*
X180856266Y-47462895D01*
X180856266Y-47462895D02*
X180903885Y-47653371D01*
X180903885Y-47653371D02*
X180903885Y-47891466D01*
X180903885Y-47891466D02*
X180856266Y-48081942D01*
X180856266Y-48081942D02*
X180808647Y-48177180D01*
X180808647Y-48177180D02*
X180761028Y-48224800D01*
X180761028Y-48224800D02*
X180665790Y-48272419D01*
X180665790Y-48272419D02*
X180570552Y-48272419D01*
X180570552Y-48272419D02*
X180475314Y-48224800D01*
X180475314Y-48224800D02*
X180427695Y-48177180D01*
X180427695Y-48177180D02*
X180380076Y-48081942D01*
X180380076Y-48081942D02*
X180332457Y-47891466D01*
X180332457Y-47891466D02*
X180332457Y-47653371D01*
X180332457Y-47653371D02*
X180380076Y-47462895D01*
X180380076Y-47462895D02*
X180427695Y-47367657D01*
X180427695Y-47367657D02*
X180475314Y-47320038D01*
X180475314Y-47320038D02*
X180570552Y-47272419D01*
X181284838Y-47367657D02*
X181332457Y-47320038D01*
X181332457Y-47320038D02*
X181427695Y-47272419D01*
X181427695Y-47272419D02*
X181665790Y-47272419D01*
X181665790Y-47272419D02*
X181761028Y-47320038D01*
X181761028Y-47320038D02*
X181808647Y-47367657D01*
X181808647Y-47367657D02*
X181856266Y-47462895D01*
X181856266Y-47462895D02*
X181856266Y-47558133D01*
X181856266Y-47558133D02*
X181808647Y-47700990D01*
X181808647Y-47700990D02*
X181237219Y-48272419D01*
X181237219Y-48272419D02*
X181856266Y-48272419D01*
X182761028Y-47272419D02*
X182284838Y-47272419D01*
X182284838Y-47272419D02*
X182237219Y-47748609D01*
X182237219Y-47748609D02*
X182284838Y-47700990D01*
X182284838Y-47700990D02*
X182380076Y-47653371D01*
X182380076Y-47653371D02*
X182618171Y-47653371D01*
X182618171Y-47653371D02*
X182713409Y-47700990D01*
X182713409Y-47700990D02*
X182761028Y-47748609D01*
X182761028Y-47748609D02*
X182808647Y-47843847D01*
X182808647Y-47843847D02*
X182808647Y-48081942D01*
X182808647Y-48081942D02*
X182761028Y-48177180D01*
X182761028Y-48177180D02*
X182713409Y-48224800D01*
X182713409Y-48224800D02*
X182618171Y-48272419D01*
X182618171Y-48272419D02*
X182380076Y-48272419D01*
X182380076Y-48272419D02*
X182284838Y-48224800D01*
X182284838Y-48224800D02*
X182237219Y-48177180D01*
X164372419Y-87496115D02*
X163372419Y-87496115D01*
X163372419Y-87496115D02*
X164086704Y-87162782D01*
X164086704Y-87162782D02*
X163372419Y-86829449D01*
X163372419Y-86829449D02*
X164372419Y-86829449D01*
X164086704Y-86400877D02*
X164086704Y-85924687D01*
X164372419Y-86496115D02*
X163372419Y-86162782D01*
X163372419Y-86162782D02*
X164372419Y-85829449D01*
X163372419Y-85591353D02*
X164372419Y-84924687D01*
X163372419Y-84924687D02*
X164372419Y-85591353D01*
X163705752Y-84115163D02*
X164372419Y-84115163D01*
X163324800Y-84353258D02*
X164039085Y-84591353D01*
X164039085Y-84591353D02*
X164039085Y-83972306D01*
X163800990Y-83448496D02*
X163753371Y-83543734D01*
X163753371Y-83543734D02*
X163705752Y-83591353D01*
X163705752Y-83591353D02*
X163610514Y-83638972D01*
X163610514Y-83638972D02*
X163562895Y-83638972D01*
X163562895Y-83638972D02*
X163467657Y-83591353D01*
X163467657Y-83591353D02*
X163420038Y-83543734D01*
X163420038Y-83543734D02*
X163372419Y-83448496D01*
X163372419Y-83448496D02*
X163372419Y-83258020D01*
X163372419Y-83258020D02*
X163420038Y-83162782D01*
X163420038Y-83162782D02*
X163467657Y-83115163D01*
X163467657Y-83115163D02*
X163562895Y-83067544D01*
X163562895Y-83067544D02*
X163610514Y-83067544D01*
X163610514Y-83067544D02*
X163705752Y-83115163D01*
X163705752Y-83115163D02*
X163753371Y-83162782D01*
X163753371Y-83162782D02*
X163800990Y-83258020D01*
X163800990Y-83258020D02*
X163800990Y-83448496D01*
X163800990Y-83448496D02*
X163848609Y-83543734D01*
X163848609Y-83543734D02*
X163896228Y-83591353D01*
X163896228Y-83591353D02*
X163991466Y-83638972D01*
X163991466Y-83638972D02*
X164181942Y-83638972D01*
X164181942Y-83638972D02*
X164277180Y-83591353D01*
X164277180Y-83591353D02*
X164324800Y-83543734D01*
X164324800Y-83543734D02*
X164372419Y-83448496D01*
X164372419Y-83448496D02*
X164372419Y-83258020D01*
X164372419Y-83258020D02*
X164324800Y-83162782D01*
X164324800Y-83162782D02*
X164277180Y-83115163D01*
X164277180Y-83115163D02*
X164181942Y-83067544D01*
X164181942Y-83067544D02*
X163991466Y-83067544D01*
X163991466Y-83067544D02*
X163896228Y-83115163D01*
X163896228Y-83115163D02*
X163848609Y-83162782D01*
X163848609Y-83162782D02*
X163800990Y-83258020D01*
X163372419Y-82162782D02*
X163372419Y-82638972D01*
X163372419Y-82638972D02*
X163848609Y-82686591D01*
X163848609Y-82686591D02*
X163800990Y-82638972D01*
X163800990Y-82638972D02*
X163753371Y-82543734D01*
X163753371Y-82543734D02*
X163753371Y-82305639D01*
X163753371Y-82305639D02*
X163800990Y-82210401D01*
X163800990Y-82210401D02*
X163848609Y-82162782D01*
X163848609Y-82162782D02*
X163943847Y-82115163D01*
X163943847Y-82115163D02*
X164181942Y-82115163D01*
X164181942Y-82115163D02*
X164277180Y-82162782D01*
X164277180Y-82162782D02*
X164324800Y-82210401D01*
X164324800Y-82210401D02*
X164372419Y-82305639D01*
X164372419Y-82305639D02*
X164372419Y-82543734D01*
X164372419Y-82543734D02*
X164324800Y-82638972D01*
X164324800Y-82638972D02*
X164277180Y-82686591D01*
X179903884Y-107172419D02*
X179903884Y-106505752D01*
X179903884Y-106696228D02*
X179951503Y-106600990D01*
X179951503Y-106600990D02*
X179999122Y-106553371D01*
X179999122Y-106553371D02*
X180094360Y-106505752D01*
X180094360Y-106505752D02*
X180189598Y-106505752D01*
X180522932Y-106505752D02*
X180522932Y-107505752D01*
X180522932Y-106553371D02*
X180618170Y-106505752D01*
X180618170Y-106505752D02*
X180808646Y-106505752D01*
X180808646Y-106505752D02*
X180903884Y-106553371D01*
X180903884Y-106553371D02*
X180951503Y-106600990D01*
X180951503Y-106600990D02*
X180999122Y-106696228D01*
X180999122Y-106696228D02*
X180999122Y-106981942D01*
X180999122Y-106981942D02*
X180951503Y-107077180D01*
X180951503Y-107077180D02*
X180903884Y-107124800D01*
X180903884Y-107124800D02*
X180808646Y-107172419D01*
X180808646Y-107172419D02*
X180618170Y-107172419D01*
X180618170Y-107172419D02*
X180522932Y-107124800D01*
X181380075Y-106267657D02*
X181427694Y-106220038D01*
X181427694Y-106220038D02*
X181522932Y-106172419D01*
X181522932Y-106172419D02*
X181761027Y-106172419D01*
X181761027Y-106172419D02*
X181856265Y-106220038D01*
X181856265Y-106220038D02*
X181903884Y-106267657D01*
X181903884Y-106267657D02*
X181951503Y-106362895D01*
X181951503Y-106362895D02*
X181951503Y-106458133D01*
X181951503Y-106458133D02*
X181903884Y-106600990D01*
X181903884Y-106600990D02*
X181332456Y-107172419D01*
X181332456Y-107172419D02*
X181951503Y-107172419D01*
X182570551Y-106172419D02*
X182665789Y-106172419D01*
X182665789Y-106172419D02*
X182761027Y-106220038D01*
X182761027Y-106220038D02*
X182808646Y-106267657D01*
X182808646Y-106267657D02*
X182856265Y-106362895D01*
X182856265Y-106362895D02*
X182903884Y-106553371D01*
X182903884Y-106553371D02*
X182903884Y-106791466D01*
X182903884Y-106791466D02*
X182856265Y-106981942D01*
X182856265Y-106981942D02*
X182808646Y-107077180D01*
X182808646Y-107077180D02*
X182761027Y-107124800D01*
X182761027Y-107124800D02*
X182665789Y-107172419D01*
X182665789Y-107172419D02*
X182570551Y-107172419D01*
X182570551Y-107172419D02*
X182475313Y-107124800D01*
X182475313Y-107124800D02*
X182427694Y-107077180D01*
X182427694Y-107077180D02*
X182380075Y-106981942D01*
X182380075Y-106981942D02*
X182332456Y-106791466D01*
X182332456Y-106791466D02*
X182332456Y-106553371D01*
X182332456Y-106553371D02*
X182380075Y-106362895D01*
X182380075Y-106362895D02*
X182427694Y-106267657D01*
X182427694Y-106267657D02*
X182475313Y-106220038D01*
X182475313Y-106220038D02*
X182570551Y-106172419D01*
X183761027Y-106505752D02*
X183761027Y-107172419D01*
X183522932Y-106124800D02*
X183284837Y-106839085D01*
X183284837Y-106839085D02*
X183903884Y-106839085D01*
X184475313Y-106172419D02*
X184570551Y-106172419D01*
X184570551Y-106172419D02*
X184665789Y-106220038D01*
X184665789Y-106220038D02*
X184713408Y-106267657D01*
X184713408Y-106267657D02*
X184761027Y-106362895D01*
X184761027Y-106362895D02*
X184808646Y-106553371D01*
X184808646Y-106553371D02*
X184808646Y-106791466D01*
X184808646Y-106791466D02*
X184761027Y-106981942D01*
X184761027Y-106981942D02*
X184713408Y-107077180D01*
X184713408Y-107077180D02*
X184665789Y-107124800D01*
X184665789Y-107124800D02*
X184570551Y-107172419D01*
X184570551Y-107172419D02*
X184475313Y-107172419D01*
X184475313Y-107172419D02*
X184380075Y-107124800D01*
X184380075Y-107124800D02*
X184332456Y-107077180D01*
X184332456Y-107077180D02*
X184284837Y-106981942D01*
X184284837Y-106981942D02*
X184237218Y-106791466D01*
X184237218Y-106791466D02*
X184237218Y-106553371D01*
X184237218Y-106553371D02*
X184284837Y-106362895D01*
X184284837Y-106362895D02*
X184332456Y-106267657D01*
X184332456Y-106267657D02*
X184380075Y-106220038D01*
X184380075Y-106220038D02*
X184475313Y-106172419D01*
X185237218Y-106791466D02*
X185999123Y-106791466D01*
X186380075Y-106505752D02*
X186903884Y-106505752D01*
X186903884Y-106505752D02*
X186380075Y-107172419D01*
X186380075Y-107172419D02*
X186903884Y-107172419D01*
X187665789Y-107124800D02*
X187570551Y-107172419D01*
X187570551Y-107172419D02*
X187380075Y-107172419D01*
X187380075Y-107172419D02*
X187284837Y-107124800D01*
X187284837Y-107124800D02*
X187237218Y-107029561D01*
X187237218Y-107029561D02*
X187237218Y-106648609D01*
X187237218Y-106648609D02*
X187284837Y-106553371D01*
X187284837Y-106553371D02*
X187380075Y-106505752D01*
X187380075Y-106505752D02*
X187570551Y-106505752D01*
X187570551Y-106505752D02*
X187665789Y-106553371D01*
X187665789Y-106553371D02*
X187713408Y-106648609D01*
X187713408Y-106648609D02*
X187713408Y-106743847D01*
X187713408Y-106743847D02*
X187237218Y-106839085D01*
X188141980Y-107172419D02*
X188141980Y-106505752D01*
X188141980Y-106696228D02*
X188189599Y-106600990D01*
X188189599Y-106600990D02*
X188237218Y-106553371D01*
X188237218Y-106553371D02*
X188332456Y-106505752D01*
X188332456Y-106505752D02*
X188427694Y-106505752D01*
X188903885Y-107172419D02*
X188808647Y-107124800D01*
X188808647Y-107124800D02*
X188761028Y-107077180D01*
X188761028Y-107077180D02*
X188713409Y-106981942D01*
X188713409Y-106981942D02*
X188713409Y-106696228D01*
X188713409Y-106696228D02*
X188761028Y-106600990D01*
X188761028Y-106600990D02*
X188808647Y-106553371D01*
X188808647Y-106553371D02*
X188903885Y-106505752D01*
X188903885Y-106505752D02*
X189046742Y-106505752D01*
X189046742Y-106505752D02*
X189141980Y-106553371D01*
X189141980Y-106553371D02*
X189189599Y-106600990D01*
X189189599Y-106600990D02*
X189237218Y-106696228D01*
X189237218Y-106696228D02*
X189237218Y-106981942D01*
X189237218Y-106981942D02*
X189189599Y-107077180D01*
X189189599Y-107077180D02*
X189141980Y-107124800D01*
X189141980Y-107124800D02*
X189046742Y-107172419D01*
X189046742Y-107172419D02*
X188903885Y-107172419D01*
D12*
X172867219Y-85030326D02*
X171867219Y-85030326D01*
X171867219Y-85030326D02*
X171867219Y-84792231D01*
X171867219Y-84792231D02*
X171914838Y-84649374D01*
X171914838Y-84649374D02*
X172010076Y-84554136D01*
X172010076Y-84554136D02*
X172105314Y-84506517D01*
X172105314Y-84506517D02*
X172295790Y-84458898D01*
X172295790Y-84458898D02*
X172438647Y-84458898D01*
X172438647Y-84458898D02*
X172629123Y-84506517D01*
X172629123Y-84506517D02*
X172724361Y-84554136D01*
X172724361Y-84554136D02*
X172819600Y-84649374D01*
X172819600Y-84649374D02*
X172867219Y-84792231D01*
X172867219Y-84792231D02*
X172867219Y-85030326D01*
X172867219Y-84030326D02*
X172200552Y-84030326D01*
X171867219Y-84030326D02*
X171914838Y-84077945D01*
X171914838Y-84077945D02*
X171962457Y-84030326D01*
X171962457Y-84030326D02*
X171914838Y-83982707D01*
X171914838Y-83982707D02*
X171867219Y-84030326D01*
X171867219Y-84030326D02*
X171962457Y-84030326D01*
X172819600Y-83601755D02*
X172867219Y-83506517D01*
X172867219Y-83506517D02*
X172867219Y-83316041D01*
X172867219Y-83316041D02*
X172819600Y-83220803D01*
X172819600Y-83220803D02*
X172724361Y-83173184D01*
X172724361Y-83173184D02*
X172676742Y-83173184D01*
X172676742Y-83173184D02*
X172581504Y-83220803D01*
X172581504Y-83220803D02*
X172533885Y-83316041D01*
X172533885Y-83316041D02*
X172533885Y-83458898D01*
X172533885Y-83458898D02*
X172486266Y-83554136D01*
X172486266Y-83554136D02*
X172391028Y-83601755D01*
X172391028Y-83601755D02*
X172343409Y-83601755D01*
X172343409Y-83601755D02*
X172248171Y-83554136D01*
X172248171Y-83554136D02*
X172200552Y-83458898D01*
X172200552Y-83458898D02*
X172200552Y-83316041D01*
X172200552Y-83316041D02*
X172248171Y-83220803D01*
X172200552Y-82744612D02*
X173200552Y-82744612D01*
X172248171Y-82744612D02*
X172200552Y-82649374D01*
X172200552Y-82649374D02*
X172200552Y-82458898D01*
X172200552Y-82458898D02*
X172248171Y-82363660D01*
X172248171Y-82363660D02*
X172295790Y-82316041D01*
X172295790Y-82316041D02*
X172391028Y-82268422D01*
X172391028Y-82268422D02*
X172676742Y-82268422D01*
X172676742Y-82268422D02*
X172771980Y-82316041D01*
X172771980Y-82316041D02*
X172819600Y-82363660D01*
X172819600Y-82363660D02*
X172867219Y-82458898D01*
X172867219Y-82458898D02*
X172867219Y-82649374D01*
X172867219Y-82649374D02*
X172819600Y-82744612D01*
X172867219Y-81696993D02*
X172819600Y-81792231D01*
X172819600Y-81792231D02*
X172724361Y-81839850D01*
X172724361Y-81839850D02*
X171867219Y-81839850D01*
X172867219Y-80887469D02*
X172343409Y-80887469D01*
X172343409Y-80887469D02*
X172248171Y-80935088D01*
X172248171Y-80935088D02*
X172200552Y-81030326D01*
X172200552Y-81030326D02*
X172200552Y-81220802D01*
X172200552Y-81220802D02*
X172248171Y-81316040D01*
X172819600Y-80887469D02*
X172867219Y-80982707D01*
X172867219Y-80982707D02*
X172867219Y-81220802D01*
X172867219Y-81220802D02*
X172819600Y-81316040D01*
X172819600Y-81316040D02*
X172724361Y-81363659D01*
X172724361Y-81363659D02*
X172629123Y-81363659D01*
X172629123Y-81363659D02*
X172533885Y-81316040D01*
X172533885Y-81316040D02*
X172486266Y-81220802D01*
X172486266Y-81220802D02*
X172486266Y-80982707D01*
X172486266Y-80982707D02*
X172438647Y-80887469D01*
X172200552Y-80506516D02*
X172867219Y-80268421D01*
X172200552Y-80030326D02*
X172867219Y-80268421D01*
X172867219Y-80268421D02*
X173105314Y-80363659D01*
X173105314Y-80363659D02*
X173152933Y-80411278D01*
X173152933Y-80411278D02*
X173200552Y-80506516D01*
X162345863Y-94567219D02*
X161869673Y-94567219D01*
X161869673Y-94567219D02*
X161869673Y-93567219D01*
X163060149Y-94519600D02*
X162964911Y-94567219D01*
X162964911Y-94567219D02*
X162774435Y-94567219D01*
X162774435Y-94567219D02*
X162679197Y-94519600D01*
X162679197Y-94519600D02*
X162631578Y-94424361D01*
X162631578Y-94424361D02*
X162631578Y-94043409D01*
X162631578Y-94043409D02*
X162679197Y-93948171D01*
X162679197Y-93948171D02*
X162774435Y-93900552D01*
X162774435Y-93900552D02*
X162964911Y-93900552D01*
X162964911Y-93900552D02*
X163060149Y-93948171D01*
X163060149Y-93948171D02*
X163107768Y-94043409D01*
X163107768Y-94043409D02*
X163107768Y-94138647D01*
X163107768Y-94138647D02*
X162631578Y-94233885D01*
X163964911Y-94567219D02*
X163964911Y-93567219D01*
X163964911Y-94519600D02*
X163869673Y-94567219D01*
X163869673Y-94567219D02*
X163679197Y-94567219D01*
X163679197Y-94567219D02*
X163583959Y-94519600D01*
X163583959Y-94519600D02*
X163536340Y-94471980D01*
X163536340Y-94471980D02*
X163488721Y-94376742D01*
X163488721Y-94376742D02*
X163488721Y-94091028D01*
X163488721Y-94091028D02*
X163536340Y-93995790D01*
X163536340Y-93995790D02*
X163583959Y-93948171D01*
X163583959Y-93948171D02*
X163679197Y-93900552D01*
X163679197Y-93900552D02*
X163869673Y-93900552D01*
X163869673Y-93900552D02*
X163964911Y-93948171D01*
X165536340Y-94043409D02*
X165679197Y-94091028D01*
X165679197Y-94091028D02*
X165726816Y-94138647D01*
X165726816Y-94138647D02*
X165774435Y-94233885D01*
X165774435Y-94233885D02*
X165774435Y-94376742D01*
X165774435Y-94376742D02*
X165726816Y-94471980D01*
X165726816Y-94471980D02*
X165679197Y-94519600D01*
X165679197Y-94519600D02*
X165583959Y-94567219D01*
X165583959Y-94567219D02*
X165203007Y-94567219D01*
X165203007Y-94567219D02*
X165203007Y-93567219D01*
X165203007Y-93567219D02*
X165536340Y-93567219D01*
X165536340Y-93567219D02*
X165631578Y-93614838D01*
X165631578Y-93614838D02*
X165679197Y-93662457D01*
X165679197Y-93662457D02*
X165726816Y-93757695D01*
X165726816Y-93757695D02*
X165726816Y-93852933D01*
X165726816Y-93852933D02*
X165679197Y-93948171D01*
X165679197Y-93948171D02*
X165631578Y-93995790D01*
X165631578Y-93995790D02*
X165536340Y-94043409D01*
X165536340Y-94043409D02*
X165203007Y-94043409D01*
D10*
X177608646Y-67572419D02*
X177846741Y-68572419D01*
X177846741Y-68572419D02*
X178037217Y-67858133D01*
X178037217Y-67858133D02*
X178227693Y-68572419D01*
X178227693Y-68572419D02*
X178465789Y-67572419D01*
X179322931Y-67572419D02*
X178846741Y-67572419D01*
X178846741Y-67572419D02*
X178799122Y-68048609D01*
X178799122Y-68048609D02*
X178846741Y-68000990D01*
X178846741Y-68000990D02*
X178941979Y-67953371D01*
X178941979Y-67953371D02*
X179180074Y-67953371D01*
X179180074Y-67953371D02*
X179275312Y-68000990D01*
X179275312Y-68000990D02*
X179322931Y-68048609D01*
X179322931Y-68048609D02*
X179370550Y-68143847D01*
X179370550Y-68143847D02*
X179370550Y-68381942D01*
X179370550Y-68381942D02*
X179322931Y-68477180D01*
X179322931Y-68477180D02*
X179275312Y-68524800D01*
X179275312Y-68524800D02*
X179180074Y-68572419D01*
X179180074Y-68572419D02*
X178941979Y-68572419D01*
X178941979Y-68572419D02*
X178846741Y-68524800D01*
X178846741Y-68524800D02*
X178799122Y-68477180D01*
X180275312Y-67572419D02*
X179799122Y-67572419D01*
X179799122Y-67572419D02*
X179751503Y-68048609D01*
X179751503Y-68048609D02*
X179799122Y-68000990D01*
X179799122Y-68000990D02*
X179894360Y-67953371D01*
X179894360Y-67953371D02*
X180132455Y-67953371D01*
X180132455Y-67953371D02*
X180227693Y-68000990D01*
X180227693Y-68000990D02*
X180275312Y-68048609D01*
X180275312Y-68048609D02*
X180322931Y-68143847D01*
X180322931Y-68143847D02*
X180322931Y-68381942D01*
X180322931Y-68381942D02*
X180275312Y-68477180D01*
X180275312Y-68477180D02*
X180227693Y-68524800D01*
X180227693Y-68524800D02*
X180132455Y-68572419D01*
X180132455Y-68572419D02*
X179894360Y-68572419D01*
X179894360Y-68572419D02*
X179799122Y-68524800D01*
X179799122Y-68524800D02*
X179751503Y-68477180D01*
X180941979Y-67572419D02*
X181037217Y-67572419D01*
X181037217Y-67572419D02*
X181132455Y-67620038D01*
X181132455Y-67620038D02*
X181180074Y-67667657D01*
X181180074Y-67667657D02*
X181227693Y-67762895D01*
X181227693Y-67762895D02*
X181275312Y-67953371D01*
X181275312Y-67953371D02*
X181275312Y-68191466D01*
X181275312Y-68191466D02*
X181227693Y-68381942D01*
X181227693Y-68381942D02*
X181180074Y-68477180D01*
X181180074Y-68477180D02*
X181132455Y-68524800D01*
X181132455Y-68524800D02*
X181037217Y-68572419D01*
X181037217Y-68572419D02*
X180941979Y-68572419D01*
X180941979Y-68572419D02*
X180846741Y-68524800D01*
X180846741Y-68524800D02*
X180799122Y-68477180D01*
X180799122Y-68477180D02*
X180751503Y-68381942D01*
X180751503Y-68381942D02*
X180703884Y-68191466D01*
X180703884Y-68191466D02*
X180703884Y-67953371D01*
X180703884Y-67953371D02*
X180751503Y-67762895D01*
X180751503Y-67762895D02*
X180799122Y-67667657D01*
X180799122Y-67667657D02*
X180846741Y-67620038D01*
X180846741Y-67620038D02*
X180941979Y-67572419D01*
X181894360Y-67572419D02*
X181989598Y-67572419D01*
X181989598Y-67572419D02*
X182084836Y-67620038D01*
X182084836Y-67620038D02*
X182132455Y-67667657D01*
X182132455Y-67667657D02*
X182180074Y-67762895D01*
X182180074Y-67762895D02*
X182227693Y-67953371D01*
X182227693Y-67953371D02*
X182227693Y-68191466D01*
X182227693Y-68191466D02*
X182180074Y-68381942D01*
X182180074Y-68381942D02*
X182132455Y-68477180D01*
X182132455Y-68477180D02*
X182084836Y-68524800D01*
X182084836Y-68524800D02*
X181989598Y-68572419D01*
X181989598Y-68572419D02*
X181894360Y-68572419D01*
X181894360Y-68572419D02*
X181799122Y-68524800D01*
X181799122Y-68524800D02*
X181751503Y-68477180D01*
X181751503Y-68477180D02*
X181703884Y-68381942D01*
X181703884Y-68381942D02*
X181656265Y-68191466D01*
X181656265Y-68191466D02*
X181656265Y-67953371D01*
X181656265Y-67953371D02*
X181703884Y-67762895D01*
X181703884Y-67762895D02*
X181751503Y-67667657D01*
X181751503Y-67667657D02*
X181799122Y-67620038D01*
X181799122Y-67620038D02*
X181894360Y-67572419D01*
D12*
X150469673Y-79267219D02*
X150469673Y-78267219D01*
X150469673Y-78267219D02*
X150707768Y-78267219D01*
X150707768Y-78267219D02*
X150850625Y-78314838D01*
X150850625Y-78314838D02*
X150945863Y-78410076D01*
X150945863Y-78410076D02*
X150993482Y-78505314D01*
X150993482Y-78505314D02*
X151041101Y-78695790D01*
X151041101Y-78695790D02*
X151041101Y-78838647D01*
X151041101Y-78838647D02*
X150993482Y-79029123D01*
X150993482Y-79029123D02*
X150945863Y-79124361D01*
X150945863Y-79124361D02*
X150850625Y-79219600D01*
X150850625Y-79219600D02*
X150707768Y-79267219D01*
X150707768Y-79267219D02*
X150469673Y-79267219D01*
X151469673Y-79267219D02*
X151469673Y-78267219D01*
X151469673Y-78267219D02*
X151803006Y-78981504D01*
X151803006Y-78981504D02*
X152136339Y-78267219D01*
X152136339Y-78267219D02*
X152136339Y-79267219D01*
X152517292Y-78267219D02*
X153183958Y-79267219D01*
X153183958Y-78267219D02*
X152517292Y-79267219D01*
X154279197Y-78981504D02*
X154755387Y-78981504D01*
X154183959Y-79267219D02*
X154517292Y-78267219D01*
X154517292Y-78267219D02*
X154850625Y-79267219D01*
D10*
X176538095Y-110857419D02*
X176538095Y-111666942D01*
X176538095Y-111666942D02*
X176585714Y-111762180D01*
X176585714Y-111762180D02*
X176633333Y-111809800D01*
X176633333Y-111809800D02*
X176728571Y-111857419D01*
X176728571Y-111857419D02*
X176919047Y-111857419D01*
X176919047Y-111857419D02*
X177014285Y-111809800D01*
X177014285Y-111809800D02*
X177061904Y-111762180D01*
X177061904Y-111762180D02*
X177109523Y-111666942D01*
X177109523Y-111666942D02*
X177109523Y-110857419D01*
X178109523Y-111857419D02*
X177538095Y-111857419D01*
X177823809Y-111857419D02*
X177823809Y-110857419D01*
X177823809Y-110857419D02*
X177728571Y-111000276D01*
X177728571Y-111000276D02*
X177633333Y-111095514D01*
X177633333Y-111095514D02*
X177538095Y-111143133D01*
D13*
X151566666Y-108354819D02*
X151566666Y-109069104D01*
X151566666Y-109069104D02*
X151519047Y-109211961D01*
X151519047Y-109211961D02*
X151423809Y-109307200D01*
X151423809Y-109307200D02*
X151280952Y-109354819D01*
X151280952Y-109354819D02*
X151185714Y-109354819D01*
X151995238Y-108450057D02*
X152042857Y-108402438D01*
X152042857Y-108402438D02*
X152138095Y-108354819D01*
X152138095Y-108354819D02*
X152376190Y-108354819D01*
X152376190Y-108354819D02*
X152471428Y-108402438D01*
X152471428Y-108402438D02*
X152519047Y-108450057D01*
X152519047Y-108450057D02*
X152566666Y-108545295D01*
X152566666Y-108545295D02*
X152566666Y-108640533D01*
X152566666Y-108640533D02*
X152519047Y-108783390D01*
X152519047Y-108783390D02*
X151947619Y-109354819D01*
X151947619Y-109354819D02*
X152566666Y-109354819D01*
X196703333Y-85859580D02*
X196655714Y-85907200D01*
X196655714Y-85907200D02*
X196512857Y-85954819D01*
X196512857Y-85954819D02*
X196417619Y-85954819D01*
X196417619Y-85954819D02*
X196274762Y-85907200D01*
X196274762Y-85907200D02*
X196179524Y-85811961D01*
X196179524Y-85811961D02*
X196131905Y-85716723D01*
X196131905Y-85716723D02*
X196084286Y-85526247D01*
X196084286Y-85526247D02*
X196084286Y-85383390D01*
X196084286Y-85383390D02*
X196131905Y-85192914D01*
X196131905Y-85192914D02*
X196179524Y-85097676D01*
X196179524Y-85097676D02*
X196274762Y-85002438D01*
X196274762Y-85002438D02*
X196417619Y-84954819D01*
X196417619Y-84954819D02*
X196512857Y-84954819D01*
X196512857Y-84954819D02*
X196655714Y-85002438D01*
X196655714Y-85002438D02*
X196703333Y-85050057D01*
X197655714Y-85954819D02*
X197084286Y-85954819D01*
X197370000Y-85954819D02*
X197370000Y-84954819D01*
X197370000Y-84954819D02*
X197274762Y-85097676D01*
X197274762Y-85097676D02*
X197179524Y-85192914D01*
X197179524Y-85192914D02*
X197084286Y-85240533D01*
X151466666Y-87954819D02*
X151466666Y-88669104D01*
X151466666Y-88669104D02*
X151419047Y-88811961D01*
X151419047Y-88811961D02*
X151323809Y-88907200D01*
X151323809Y-88907200D02*
X151180952Y-88954819D01*
X151180952Y-88954819D02*
X151085714Y-88954819D01*
X152466666Y-88954819D02*
X151895238Y-88954819D01*
X152180952Y-88954819D02*
X152180952Y-87954819D01*
X152180952Y-87954819D02*
X152085714Y-88097676D01*
X152085714Y-88097676D02*
X151990476Y-88192914D01*
X151990476Y-88192914D02*
X151895238Y-88240533D01*
X161238095Y-90514819D02*
X161238095Y-91324342D01*
X161238095Y-91324342D02*
X161285714Y-91419580D01*
X161285714Y-91419580D02*
X161333333Y-91467200D01*
X161333333Y-91467200D02*
X161428571Y-91514819D01*
X161428571Y-91514819D02*
X161619047Y-91514819D01*
X161619047Y-91514819D02*
X161714285Y-91467200D01*
X161714285Y-91467200D02*
X161761904Y-91419580D01*
X161761904Y-91419580D02*
X161809523Y-91324342D01*
X161809523Y-91324342D02*
X161809523Y-90514819D01*
X162238095Y-90610057D02*
X162285714Y-90562438D01*
X162285714Y-90562438D02*
X162380952Y-90514819D01*
X162380952Y-90514819D02*
X162619047Y-90514819D01*
X162619047Y-90514819D02*
X162714285Y-90562438D01*
X162714285Y-90562438D02*
X162761904Y-90610057D01*
X162761904Y-90610057D02*
X162809523Y-90705295D01*
X162809523Y-90705295D02*
X162809523Y-90800533D01*
X162809523Y-90800533D02*
X162761904Y-90943390D01*
X162761904Y-90943390D02*
X162190476Y-91514819D01*
X162190476Y-91514819D02*
X162809523Y-91514819D01*
X195238095Y-127654819D02*
X195238095Y-126654819D01*
X195238095Y-127131009D02*
X195809523Y-127131009D01*
X195809523Y-127654819D02*
X195809523Y-126654819D01*
X196714285Y-126654819D02*
X196523809Y-126654819D01*
X196523809Y-126654819D02*
X196428571Y-126702438D01*
X196428571Y-126702438D02*
X196380952Y-126750057D01*
X196380952Y-126750057D02*
X196285714Y-126892914D01*
X196285714Y-126892914D02*
X196238095Y-127083390D01*
X196238095Y-127083390D02*
X196238095Y-127464342D01*
X196238095Y-127464342D02*
X196285714Y-127559580D01*
X196285714Y-127559580D02*
X196333333Y-127607200D01*
X196333333Y-127607200D02*
X196428571Y-127654819D01*
X196428571Y-127654819D02*
X196619047Y-127654819D01*
X196619047Y-127654819D02*
X196714285Y-127607200D01*
X196714285Y-127607200D02*
X196761904Y-127559580D01*
X196761904Y-127559580D02*
X196809523Y-127464342D01*
X196809523Y-127464342D02*
X196809523Y-127226247D01*
X196809523Y-127226247D02*
X196761904Y-127131009D01*
X196761904Y-127131009D02*
X196714285Y-127083390D01*
X196714285Y-127083390D02*
X196619047Y-127035771D01*
X196619047Y-127035771D02*
X196428571Y-127035771D01*
X196428571Y-127035771D02*
X196333333Y-127083390D01*
X196333333Y-127083390D02*
X196285714Y-127131009D01*
X196285714Y-127131009D02*
X196238095Y-127226247D01*
X187666667Y-136607200D02*
X187809524Y-136654819D01*
X187809524Y-136654819D02*
X188047619Y-136654819D01*
X188047619Y-136654819D02*
X188142857Y-136607200D01*
X188142857Y-136607200D02*
X188190476Y-136559580D01*
X188190476Y-136559580D02*
X188238095Y-136464342D01*
X188238095Y-136464342D02*
X188238095Y-136369104D01*
X188238095Y-136369104D02*
X188190476Y-136273866D01*
X188190476Y-136273866D02*
X188142857Y-136226247D01*
X188142857Y-136226247D02*
X188047619Y-136178628D01*
X188047619Y-136178628D02*
X187857143Y-136131009D01*
X187857143Y-136131009D02*
X187761905Y-136083390D01*
X187761905Y-136083390D02*
X187714286Y-136035771D01*
X187714286Y-136035771D02*
X187666667Y-135940533D01*
X187666667Y-135940533D02*
X187666667Y-135845295D01*
X187666667Y-135845295D02*
X187714286Y-135750057D01*
X187714286Y-135750057D02*
X187761905Y-135702438D01*
X187761905Y-135702438D02*
X187857143Y-135654819D01*
X187857143Y-135654819D02*
X188095238Y-135654819D01*
X188095238Y-135654819D02*
X188238095Y-135702438D01*
X188571429Y-135654819D02*
X188809524Y-136654819D01*
X188809524Y-136654819D02*
X189000000Y-135940533D01*
X189000000Y-135940533D02*
X189190476Y-136654819D01*
X189190476Y-136654819D02*
X189428572Y-135654819D01*
X190238095Y-135988152D02*
X190238095Y-136654819D01*
X190000000Y-135607200D02*
X189761905Y-136321485D01*
X189761905Y-136321485D02*
X190380952Y-136321485D01*
X191583333Y-83259580D02*
X191535714Y-83307200D01*
X191535714Y-83307200D02*
X191392857Y-83354819D01*
X191392857Y-83354819D02*
X191297619Y-83354819D01*
X191297619Y-83354819D02*
X191154762Y-83307200D01*
X191154762Y-83307200D02*
X191059524Y-83211961D01*
X191059524Y-83211961D02*
X191011905Y-83116723D01*
X191011905Y-83116723D02*
X190964286Y-82926247D01*
X190964286Y-82926247D02*
X190964286Y-82783390D01*
X190964286Y-82783390D02*
X191011905Y-82592914D01*
X191011905Y-82592914D02*
X191059524Y-82497676D01*
X191059524Y-82497676D02*
X191154762Y-82402438D01*
X191154762Y-82402438D02*
X191297619Y-82354819D01*
X191297619Y-82354819D02*
X191392857Y-82354819D01*
X191392857Y-82354819D02*
X191535714Y-82402438D01*
X191535714Y-82402438D02*
X191583333Y-82450057D01*
X191964286Y-82450057D02*
X192011905Y-82402438D01*
X192011905Y-82402438D02*
X192107143Y-82354819D01*
X192107143Y-82354819D02*
X192345238Y-82354819D01*
X192345238Y-82354819D02*
X192440476Y-82402438D01*
X192440476Y-82402438D02*
X192488095Y-82450057D01*
X192488095Y-82450057D02*
X192535714Y-82545295D01*
X192535714Y-82545295D02*
X192535714Y-82640533D01*
X192535714Y-82640533D02*
X192488095Y-82783390D01*
X192488095Y-82783390D02*
X191916667Y-83354819D01*
X191916667Y-83354819D02*
X192535714Y-83354819D01*
X167666667Y-136607200D02*
X167809524Y-136654819D01*
X167809524Y-136654819D02*
X168047619Y-136654819D01*
X168047619Y-136654819D02*
X168142857Y-136607200D01*
X168142857Y-136607200D02*
X168190476Y-136559580D01*
X168190476Y-136559580D02*
X168238095Y-136464342D01*
X168238095Y-136464342D02*
X168238095Y-136369104D01*
X168238095Y-136369104D02*
X168190476Y-136273866D01*
X168190476Y-136273866D02*
X168142857Y-136226247D01*
X168142857Y-136226247D02*
X168047619Y-136178628D01*
X168047619Y-136178628D02*
X167857143Y-136131009D01*
X167857143Y-136131009D02*
X167761905Y-136083390D01*
X167761905Y-136083390D02*
X167714286Y-136035771D01*
X167714286Y-136035771D02*
X167666667Y-135940533D01*
X167666667Y-135940533D02*
X167666667Y-135845295D01*
X167666667Y-135845295D02*
X167714286Y-135750057D01*
X167714286Y-135750057D02*
X167761905Y-135702438D01*
X167761905Y-135702438D02*
X167857143Y-135654819D01*
X167857143Y-135654819D02*
X168095238Y-135654819D01*
X168095238Y-135654819D02*
X168238095Y-135702438D01*
X168571429Y-135654819D02*
X168809524Y-136654819D01*
X168809524Y-136654819D02*
X169000000Y-135940533D01*
X169000000Y-135940533D02*
X169190476Y-136654819D01*
X169190476Y-136654819D02*
X169428572Y-135654819D01*
X169761905Y-135750057D02*
X169809524Y-135702438D01*
X169809524Y-135702438D02*
X169904762Y-135654819D01*
X169904762Y-135654819D02*
X170142857Y-135654819D01*
X170142857Y-135654819D02*
X170238095Y-135702438D01*
X170238095Y-135702438D02*
X170285714Y-135750057D01*
X170285714Y-135750057D02*
X170333333Y-135845295D01*
X170333333Y-135845295D02*
X170333333Y-135940533D01*
X170333333Y-135940533D02*
X170285714Y-136083390D01*
X170285714Y-136083390D02*
X169714286Y-136654819D01*
X169714286Y-136654819D02*
X170333333Y-136654819D01*
X161666666Y-77814819D02*
X161666666Y-78529104D01*
X161666666Y-78529104D02*
X161619047Y-78671961D01*
X161619047Y-78671961D02*
X161523809Y-78767200D01*
X161523809Y-78767200D02*
X161380952Y-78814819D01*
X161380952Y-78814819D02*
X161285714Y-78814819D01*
X162571428Y-77814819D02*
X162380952Y-77814819D01*
X162380952Y-77814819D02*
X162285714Y-77862438D01*
X162285714Y-77862438D02*
X162238095Y-77910057D01*
X162238095Y-77910057D02*
X162142857Y-78052914D01*
X162142857Y-78052914D02*
X162095238Y-78243390D01*
X162095238Y-78243390D02*
X162095238Y-78624342D01*
X162095238Y-78624342D02*
X162142857Y-78719580D01*
X162142857Y-78719580D02*
X162190476Y-78767200D01*
X162190476Y-78767200D02*
X162285714Y-78814819D01*
X162285714Y-78814819D02*
X162476190Y-78814819D01*
X162476190Y-78814819D02*
X162571428Y-78767200D01*
X162571428Y-78767200D02*
X162619047Y-78719580D01*
X162619047Y-78719580D02*
X162666666Y-78624342D01*
X162666666Y-78624342D02*
X162666666Y-78386247D01*
X162666666Y-78386247D02*
X162619047Y-78291009D01*
X162619047Y-78291009D02*
X162571428Y-78243390D01*
X162571428Y-78243390D02*
X162476190Y-78195771D01*
X162476190Y-78195771D02*
X162285714Y-78195771D01*
X162285714Y-78195771D02*
X162190476Y-78243390D01*
X162190476Y-78243390D02*
X162142857Y-78291009D01*
X162142857Y-78291009D02*
X162095238Y-78386247D01*
X180006666Y-88144819D02*
X180006666Y-88859104D01*
X180006666Y-88859104D02*
X179959047Y-89001961D01*
X179959047Y-89001961D02*
X179863809Y-89097200D01*
X179863809Y-89097200D02*
X179720952Y-89144819D01*
X179720952Y-89144819D02*
X179625714Y-89144819D01*
X180959047Y-88144819D02*
X180482857Y-88144819D01*
X180482857Y-88144819D02*
X180435238Y-88621009D01*
X180435238Y-88621009D02*
X180482857Y-88573390D01*
X180482857Y-88573390D02*
X180578095Y-88525771D01*
X180578095Y-88525771D02*
X180816190Y-88525771D01*
X180816190Y-88525771D02*
X180911428Y-88573390D01*
X180911428Y-88573390D02*
X180959047Y-88621009D01*
X180959047Y-88621009D02*
X181006666Y-88716247D01*
X181006666Y-88716247D02*
X181006666Y-88954342D01*
X181006666Y-88954342D02*
X180959047Y-89049580D01*
X180959047Y-89049580D02*
X180911428Y-89097200D01*
X180911428Y-89097200D02*
X180816190Y-89144819D01*
X180816190Y-89144819D02*
X180578095Y-89144819D01*
X180578095Y-89144819D02*
X180482857Y-89097200D01*
X180482857Y-89097200D02*
X180435238Y-89049580D01*
X156333333Y-78954819D02*
X156000000Y-78478628D01*
X155761905Y-78954819D02*
X155761905Y-77954819D01*
X155761905Y-77954819D02*
X156142857Y-77954819D01*
X156142857Y-77954819D02*
X156238095Y-78002438D01*
X156238095Y-78002438D02*
X156285714Y-78050057D01*
X156285714Y-78050057D02*
X156333333Y-78145295D01*
X156333333Y-78145295D02*
X156333333Y-78288152D01*
X156333333Y-78288152D02*
X156285714Y-78383390D01*
X156285714Y-78383390D02*
X156238095Y-78431009D01*
X156238095Y-78431009D02*
X156142857Y-78478628D01*
X156142857Y-78478628D02*
X155761905Y-78478628D01*
X156666667Y-77954819D02*
X157285714Y-77954819D01*
X157285714Y-77954819D02*
X156952381Y-78335771D01*
X156952381Y-78335771D02*
X157095238Y-78335771D01*
X157095238Y-78335771D02*
X157190476Y-78383390D01*
X157190476Y-78383390D02*
X157238095Y-78431009D01*
X157238095Y-78431009D02*
X157285714Y-78526247D01*
X157285714Y-78526247D02*
X157285714Y-78764342D01*
X157285714Y-78764342D02*
X157238095Y-78859580D01*
X157238095Y-78859580D02*
X157190476Y-78907200D01*
X157190476Y-78907200D02*
X157095238Y-78954819D01*
X157095238Y-78954819D02*
X156809524Y-78954819D01*
X156809524Y-78954819D02*
X156714286Y-78907200D01*
X156714286Y-78907200D02*
X156666667Y-78859580D01*
X177666667Y-136607200D02*
X177809524Y-136654819D01*
X177809524Y-136654819D02*
X178047619Y-136654819D01*
X178047619Y-136654819D02*
X178142857Y-136607200D01*
X178142857Y-136607200D02*
X178190476Y-136559580D01*
X178190476Y-136559580D02*
X178238095Y-136464342D01*
X178238095Y-136464342D02*
X178238095Y-136369104D01*
X178238095Y-136369104D02*
X178190476Y-136273866D01*
X178190476Y-136273866D02*
X178142857Y-136226247D01*
X178142857Y-136226247D02*
X178047619Y-136178628D01*
X178047619Y-136178628D02*
X177857143Y-136131009D01*
X177857143Y-136131009D02*
X177761905Y-136083390D01*
X177761905Y-136083390D02*
X177714286Y-136035771D01*
X177714286Y-136035771D02*
X177666667Y-135940533D01*
X177666667Y-135940533D02*
X177666667Y-135845295D01*
X177666667Y-135845295D02*
X177714286Y-135750057D01*
X177714286Y-135750057D02*
X177761905Y-135702438D01*
X177761905Y-135702438D02*
X177857143Y-135654819D01*
X177857143Y-135654819D02*
X178095238Y-135654819D01*
X178095238Y-135654819D02*
X178238095Y-135702438D01*
X178571429Y-135654819D02*
X178809524Y-136654819D01*
X178809524Y-136654819D02*
X179000000Y-135940533D01*
X179000000Y-135940533D02*
X179190476Y-136654819D01*
X179190476Y-136654819D02*
X179428572Y-135654819D01*
X179714286Y-135654819D02*
X180333333Y-135654819D01*
X180333333Y-135654819D02*
X180000000Y-136035771D01*
X180000000Y-136035771D02*
X180142857Y-136035771D01*
X180142857Y-136035771D02*
X180238095Y-136083390D01*
X180238095Y-136083390D02*
X180285714Y-136131009D01*
X180285714Y-136131009D02*
X180333333Y-136226247D01*
X180333333Y-136226247D02*
X180333333Y-136464342D01*
X180333333Y-136464342D02*
X180285714Y-136559580D01*
X180285714Y-136559580D02*
X180238095Y-136607200D01*
X180238095Y-136607200D02*
X180142857Y-136654819D01*
X180142857Y-136654819D02*
X179857143Y-136654819D01*
X179857143Y-136654819D02*
X179761905Y-136607200D01*
X179761905Y-136607200D02*
X179714286Y-136559580D01*
X174926666Y-88144819D02*
X174926666Y-88859104D01*
X174926666Y-88859104D02*
X174879047Y-89001961D01*
X174879047Y-89001961D02*
X174783809Y-89097200D01*
X174783809Y-89097200D02*
X174640952Y-89144819D01*
X174640952Y-89144819D02*
X174545714Y-89144819D01*
X175307619Y-88144819D02*
X175926666Y-88144819D01*
X175926666Y-88144819D02*
X175593333Y-88525771D01*
X175593333Y-88525771D02*
X175736190Y-88525771D01*
X175736190Y-88525771D02*
X175831428Y-88573390D01*
X175831428Y-88573390D02*
X175879047Y-88621009D01*
X175879047Y-88621009D02*
X175926666Y-88716247D01*
X175926666Y-88716247D02*
X175926666Y-88954342D01*
X175926666Y-88954342D02*
X175879047Y-89049580D01*
X175879047Y-89049580D02*
X175831428Y-89097200D01*
X175831428Y-89097200D02*
X175736190Y-89144819D01*
X175736190Y-89144819D02*
X175450476Y-89144819D01*
X175450476Y-89144819D02*
X175355238Y-89097200D01*
X175355238Y-89097200D02*
X175307619Y-89049580D01*
X151238095Y-127654819D02*
X151238095Y-126654819D01*
X151238095Y-127131009D02*
X151809523Y-127131009D01*
X151809523Y-127654819D02*
X151809523Y-126654819D01*
X152761904Y-126654819D02*
X152285714Y-126654819D01*
X152285714Y-126654819D02*
X152238095Y-127131009D01*
X152238095Y-127131009D02*
X152285714Y-127083390D01*
X152285714Y-127083390D02*
X152380952Y-127035771D01*
X152380952Y-127035771D02*
X152619047Y-127035771D01*
X152619047Y-127035771D02*
X152714285Y-127083390D01*
X152714285Y-127083390D02*
X152761904Y-127131009D01*
X152761904Y-127131009D02*
X152809523Y-127226247D01*
X152809523Y-127226247D02*
X152809523Y-127464342D01*
X152809523Y-127464342D02*
X152761904Y-127559580D01*
X152761904Y-127559580D02*
X152714285Y-127607200D01*
X152714285Y-127607200D02*
X152619047Y-127654819D01*
X152619047Y-127654819D02*
X152380952Y-127654819D01*
X152380952Y-127654819D02*
X152285714Y-127607200D01*
X152285714Y-127607200D02*
X152238095Y-127559580D01*
X161238095Y-110954819D02*
X161238095Y-111764342D01*
X161238095Y-111764342D02*
X161285714Y-111859580D01*
X161285714Y-111859580D02*
X161333333Y-111907200D01*
X161333333Y-111907200D02*
X161428571Y-111954819D01*
X161428571Y-111954819D02*
X161619047Y-111954819D01*
X161619047Y-111954819D02*
X161714285Y-111907200D01*
X161714285Y-111907200D02*
X161761904Y-111859580D01*
X161761904Y-111859580D02*
X161809523Y-111764342D01*
X161809523Y-111764342D02*
X161809523Y-110954819D01*
X162190476Y-110954819D02*
X162809523Y-110954819D01*
X162809523Y-110954819D02*
X162476190Y-111335771D01*
X162476190Y-111335771D02*
X162619047Y-111335771D01*
X162619047Y-111335771D02*
X162714285Y-111383390D01*
X162714285Y-111383390D02*
X162761904Y-111431009D01*
X162761904Y-111431009D02*
X162809523Y-111526247D01*
X162809523Y-111526247D02*
X162809523Y-111764342D01*
X162809523Y-111764342D02*
X162761904Y-111859580D01*
X162761904Y-111859580D02*
X162714285Y-111907200D01*
X162714285Y-111907200D02*
X162619047Y-111954819D01*
X162619047Y-111954819D02*
X162333333Y-111954819D01*
X162333333Y-111954819D02*
X162238095Y-111907200D01*
X162238095Y-111907200D02*
X162190476Y-111859580D01*
X157666667Y-136607200D02*
X157809524Y-136654819D01*
X157809524Y-136654819D02*
X158047619Y-136654819D01*
X158047619Y-136654819D02*
X158142857Y-136607200D01*
X158142857Y-136607200D02*
X158190476Y-136559580D01*
X158190476Y-136559580D02*
X158238095Y-136464342D01*
X158238095Y-136464342D02*
X158238095Y-136369104D01*
X158238095Y-136369104D02*
X158190476Y-136273866D01*
X158190476Y-136273866D02*
X158142857Y-136226247D01*
X158142857Y-136226247D02*
X158047619Y-136178628D01*
X158047619Y-136178628D02*
X157857143Y-136131009D01*
X157857143Y-136131009D02*
X157761905Y-136083390D01*
X157761905Y-136083390D02*
X157714286Y-136035771D01*
X157714286Y-136035771D02*
X157666667Y-135940533D01*
X157666667Y-135940533D02*
X157666667Y-135845295D01*
X157666667Y-135845295D02*
X157714286Y-135750057D01*
X157714286Y-135750057D02*
X157761905Y-135702438D01*
X157761905Y-135702438D02*
X157857143Y-135654819D01*
X157857143Y-135654819D02*
X158095238Y-135654819D01*
X158095238Y-135654819D02*
X158238095Y-135702438D01*
X158571429Y-135654819D02*
X158809524Y-136654819D01*
X158809524Y-136654819D02*
X159000000Y-135940533D01*
X159000000Y-135940533D02*
X159190476Y-136654819D01*
X159190476Y-136654819D02*
X159428572Y-135654819D01*
X160333333Y-136654819D02*
X159761905Y-136654819D01*
X160047619Y-136654819D02*
X160047619Y-135654819D01*
X160047619Y-135654819D02*
X159952381Y-135797676D01*
X159952381Y-135797676D02*
X159857143Y-135892914D01*
X159857143Y-135892914D02*
X159761905Y-135940533D01*
X161666666Y-98154819D02*
X161666666Y-98869104D01*
X161666666Y-98869104D02*
X161619047Y-99011961D01*
X161619047Y-99011961D02*
X161523809Y-99107200D01*
X161523809Y-99107200D02*
X161380952Y-99154819D01*
X161380952Y-99154819D02*
X161285714Y-99154819D01*
X162047619Y-98154819D02*
X162714285Y-98154819D01*
X162714285Y-98154819D02*
X162285714Y-99154819D01*
D10*
X174038095Y-72757419D02*
X174038095Y-73566942D01*
X174038095Y-73566942D02*
X174085714Y-73662180D01*
X174085714Y-73662180D02*
X174133333Y-73709800D01*
X174133333Y-73709800D02*
X174228571Y-73757419D01*
X174228571Y-73757419D02*
X174419047Y-73757419D01*
X174419047Y-73757419D02*
X174514285Y-73709800D01*
X174514285Y-73709800D02*
X174561904Y-73662180D01*
X174561904Y-73662180D02*
X174609523Y-73566942D01*
X174609523Y-73566942D02*
X174609523Y-72757419D01*
X175561904Y-72757419D02*
X175085714Y-72757419D01*
X175085714Y-72757419D02*
X175038095Y-73233609D01*
X175038095Y-73233609D02*
X175085714Y-73185990D01*
X175085714Y-73185990D02*
X175180952Y-73138371D01*
X175180952Y-73138371D02*
X175419047Y-73138371D01*
X175419047Y-73138371D02*
X175514285Y-73185990D01*
X175514285Y-73185990D02*
X175561904Y-73233609D01*
X175561904Y-73233609D02*
X175609523Y-73328847D01*
X175609523Y-73328847D02*
X175609523Y-73566942D01*
X175609523Y-73566942D02*
X175561904Y-73662180D01*
X175561904Y-73662180D02*
X175514285Y-73709800D01*
X175514285Y-73709800D02*
X175419047Y-73757419D01*
X175419047Y-73757419D02*
X175180952Y-73757419D01*
X175180952Y-73757419D02*
X175085714Y-73709800D01*
X175085714Y-73709800D02*
X175038095Y-73662180D01*
D13*
X157333333Y-81714819D02*
X157000000Y-81238628D01*
X156761905Y-81714819D02*
X156761905Y-80714819D01*
X156761905Y-80714819D02*
X157142857Y-80714819D01*
X157142857Y-80714819D02*
X157238095Y-80762438D01*
X157238095Y-80762438D02*
X157285714Y-80810057D01*
X157285714Y-80810057D02*
X157333333Y-80905295D01*
X157333333Y-80905295D02*
X157333333Y-81048152D01*
X157333333Y-81048152D02*
X157285714Y-81143390D01*
X157285714Y-81143390D02*
X157238095Y-81191009D01*
X157238095Y-81191009D02*
X157142857Y-81238628D01*
X157142857Y-81238628D02*
X156761905Y-81238628D01*
X158285714Y-81714819D02*
X157714286Y-81714819D01*
X158000000Y-81714819D02*
X158000000Y-80714819D01*
X158000000Y-80714819D02*
X157904762Y-80857676D01*
X157904762Y-80857676D02*
X157809524Y-80952914D01*
X157809524Y-80952914D02*
X157714286Y-81000533D01*
X156333333Y-99344819D02*
X156000000Y-98868628D01*
X155761905Y-99344819D02*
X155761905Y-98344819D01*
X155761905Y-98344819D02*
X156142857Y-98344819D01*
X156142857Y-98344819D02*
X156238095Y-98392438D01*
X156238095Y-98392438D02*
X156285714Y-98440057D01*
X156285714Y-98440057D02*
X156333333Y-98535295D01*
X156333333Y-98535295D02*
X156333333Y-98678152D01*
X156333333Y-98678152D02*
X156285714Y-98773390D01*
X156285714Y-98773390D02*
X156238095Y-98821009D01*
X156238095Y-98821009D02*
X156142857Y-98868628D01*
X156142857Y-98868628D02*
X155761905Y-98868628D01*
X157190476Y-98678152D02*
X157190476Y-99344819D01*
X156952381Y-98297200D02*
X156714286Y-99011485D01*
X156714286Y-99011485D02*
X157333333Y-99011485D01*
X157333333Y-102054819D02*
X157000000Y-101578628D01*
X156761905Y-102054819D02*
X156761905Y-101054819D01*
X156761905Y-101054819D02*
X157142857Y-101054819D01*
X157142857Y-101054819D02*
X157238095Y-101102438D01*
X157238095Y-101102438D02*
X157285714Y-101150057D01*
X157285714Y-101150057D02*
X157333333Y-101245295D01*
X157333333Y-101245295D02*
X157333333Y-101388152D01*
X157333333Y-101388152D02*
X157285714Y-101483390D01*
X157285714Y-101483390D02*
X157238095Y-101531009D01*
X157238095Y-101531009D02*
X157142857Y-101578628D01*
X157142857Y-101578628D02*
X156761905Y-101578628D01*
X157714286Y-101150057D02*
X157761905Y-101102438D01*
X157761905Y-101102438D02*
X157857143Y-101054819D01*
X157857143Y-101054819D02*
X158095238Y-101054819D01*
X158095238Y-101054819D02*
X158190476Y-101102438D01*
X158190476Y-101102438D02*
X158238095Y-101150057D01*
X158238095Y-101150057D02*
X158285714Y-101245295D01*
X158285714Y-101245295D02*
X158285714Y-101340533D01*
X158285714Y-101340533D02*
X158238095Y-101483390D01*
X158238095Y-101483390D02*
X157666667Y-102054819D01*
X157666667Y-102054819D02*
X158285714Y-102054819D01*
%TO.C,U1*%
D10*
X199390000Y-92710000D02*
X176530000Y-92710000D01*
X176530000Y-110490000D01*
X199390000Y-110490000D01*
X199390000Y-92710000D01*
X200660000Y-97790000D02*
X195580000Y-97790000D01*
X195580000Y-105410000D01*
X200660000Y-105410000D01*
X200660000Y-97790000D01*
D14*
%TO.C,J2*%
X151070000Y-100270000D02*
X152400000Y-100270000D01*
X151070000Y-101600000D02*
X151070000Y-100270000D01*
X151070000Y-102870000D02*
X151070000Y-108010000D01*
X151070000Y-102870000D02*
X153730000Y-102870000D01*
X151070000Y-108010000D02*
X153730000Y-108010000D01*
X153730000Y-102870000D02*
X153730000Y-108010000D01*
%TO.C,C1*%
X194269000Y-89184000D02*
X194269000Y-88616000D01*
X194309000Y-89418000D02*
X194309000Y-88382000D01*
X194349000Y-89577000D02*
X194349000Y-88223000D01*
X194389000Y-89705000D02*
X194389000Y-88095000D01*
X194429000Y-89815000D02*
X194429000Y-87985000D01*
X194469000Y-89911000D02*
X194469000Y-87889000D01*
X194509000Y-89998000D02*
X194509000Y-87802000D01*
X194549000Y-90078000D02*
X194549000Y-87722000D01*
X194589000Y-87860000D02*
X194589000Y-87649000D01*
X194589000Y-90151000D02*
X194589000Y-89940000D01*
X194629000Y-87860000D02*
X194629000Y-87581000D01*
X194629000Y-90219000D02*
X194629000Y-89940000D01*
X194669000Y-87860000D02*
X194669000Y-87517000D01*
X194669000Y-90283000D02*
X194669000Y-89940000D01*
X194709000Y-87860000D02*
X194709000Y-87457000D01*
X194709000Y-90343000D02*
X194709000Y-89940000D01*
X194749000Y-87860000D02*
X194749000Y-87400000D01*
X194749000Y-90400000D02*
X194749000Y-89940000D01*
X194789000Y-87860000D02*
X194789000Y-87346000D01*
X194789000Y-90454000D02*
X194789000Y-89940000D01*
X194829000Y-87860000D02*
X194829000Y-87295000D01*
X194829000Y-90505000D02*
X194829000Y-89940000D01*
X194869000Y-87860000D02*
X194869000Y-87247000D01*
X194869000Y-90553000D02*
X194869000Y-89940000D01*
X194909000Y-87860000D02*
X194909000Y-87201000D01*
X194909000Y-90599000D02*
X194909000Y-89940000D01*
X194949000Y-87860000D02*
X194949000Y-87157000D01*
X194949000Y-90643000D02*
X194949000Y-89940000D01*
X194989000Y-87860000D02*
X194989000Y-87115000D01*
X194989000Y-90685000D02*
X194989000Y-89940000D01*
X195029000Y-87860000D02*
X195029000Y-87074000D01*
X195029000Y-90726000D02*
X195029000Y-89940000D01*
X195069000Y-87860000D02*
X195069000Y-87036000D01*
X195069000Y-90764000D02*
X195069000Y-89940000D01*
X195109000Y-87860000D02*
X195109000Y-86999000D01*
X195109000Y-90801000D02*
X195109000Y-89940000D01*
X195149000Y-87860000D02*
X195149000Y-86963000D01*
X195149000Y-90837000D02*
X195149000Y-89940000D01*
X195189000Y-87860000D02*
X195189000Y-86929000D01*
X195189000Y-90871000D02*
X195189000Y-89940000D01*
X195229000Y-87860000D02*
X195229000Y-86896000D01*
X195229000Y-90904000D02*
X195229000Y-89940000D01*
X195269000Y-87860000D02*
X195269000Y-86865000D01*
X195269000Y-90935000D02*
X195269000Y-89940000D01*
X195309000Y-87860000D02*
X195309000Y-86835000D01*
X195309000Y-90965000D02*
X195309000Y-89940000D01*
X195349000Y-87860000D02*
X195349000Y-86805000D01*
X195349000Y-90995000D02*
X195349000Y-89940000D01*
X195389000Y-87860000D02*
X195389000Y-86778000D01*
X195389000Y-91022000D02*
X195389000Y-89940000D01*
X195429000Y-87860000D02*
X195429000Y-86751000D01*
X195429000Y-91049000D02*
X195429000Y-89940000D01*
X195469000Y-87860000D02*
X195469000Y-86725000D01*
X195469000Y-91075000D02*
X195469000Y-89940000D01*
X195509000Y-87860000D02*
X195509000Y-86700000D01*
X195509000Y-91100000D02*
X195509000Y-89940000D01*
X195549000Y-87860000D02*
X195549000Y-86676000D01*
X195549000Y-91124000D02*
X195549000Y-89940000D01*
X195589000Y-87860000D02*
X195589000Y-86653000D01*
X195589000Y-91147000D02*
X195589000Y-89940000D01*
X195629000Y-87860000D02*
X195629000Y-86632000D01*
X195629000Y-91168000D02*
X195629000Y-89940000D01*
X195669000Y-87860000D02*
X195669000Y-86610000D01*
X195669000Y-91190000D02*
X195669000Y-89940000D01*
X195709000Y-87860000D02*
X195709000Y-86590000D01*
X195709000Y-91210000D02*
X195709000Y-89940000D01*
X195749000Y-87860000D02*
X195749000Y-86571000D01*
X195749000Y-91229000D02*
X195749000Y-89940000D01*
X195789000Y-87860000D02*
X195789000Y-86552000D01*
X195789000Y-91248000D02*
X195789000Y-89940000D01*
X195829000Y-87860000D02*
X195829000Y-86535000D01*
X195829000Y-91265000D02*
X195829000Y-89940000D01*
X195869000Y-87860000D02*
X195869000Y-86518000D01*
X195869000Y-91282000D02*
X195869000Y-89940000D01*
X195909000Y-87860000D02*
X195909000Y-86502000D01*
X195909000Y-91298000D02*
X195909000Y-89940000D01*
X195949000Y-87860000D02*
X195949000Y-86486000D01*
X195949000Y-91314000D02*
X195949000Y-89940000D01*
X195989000Y-87860000D02*
X195989000Y-86472000D01*
X195989000Y-91328000D02*
X195989000Y-89940000D01*
X196029000Y-87860000D02*
X196029000Y-86458000D01*
X196029000Y-91342000D02*
X196029000Y-89940000D01*
X196069000Y-87860000D02*
X196069000Y-86445000D01*
X196069000Y-91355000D02*
X196069000Y-89940000D01*
X196109000Y-87860000D02*
X196109000Y-86432000D01*
X196109000Y-91368000D02*
X196109000Y-89940000D01*
X196149000Y-87860000D02*
X196149000Y-86420000D01*
X196149000Y-91380000D02*
X196149000Y-89940000D01*
X196190000Y-87860000D02*
X196190000Y-86409000D01*
X196190000Y-91391000D02*
X196190000Y-89940000D01*
X196230000Y-87860000D02*
X196230000Y-86399000D01*
X196230000Y-91401000D02*
X196230000Y-89940000D01*
X196270000Y-87860000D02*
X196270000Y-86389000D01*
X196270000Y-91411000D02*
X196270000Y-89940000D01*
X196310000Y-87860000D02*
X196310000Y-86380000D01*
X196310000Y-91420000D02*
X196310000Y-89940000D01*
X196350000Y-87860000D02*
X196350000Y-86372000D01*
X196350000Y-91428000D02*
X196350000Y-89940000D01*
X196390000Y-87860000D02*
X196390000Y-86364000D01*
X196390000Y-91436000D02*
X196390000Y-89940000D01*
X196430000Y-87860000D02*
X196430000Y-86357000D01*
X196430000Y-91443000D02*
X196430000Y-89940000D01*
X196470000Y-87860000D02*
X196470000Y-86350000D01*
X196470000Y-91450000D02*
X196470000Y-89940000D01*
X196510000Y-87860000D02*
X196510000Y-86344000D01*
X196510000Y-91456000D02*
X196510000Y-89940000D01*
X196550000Y-87860000D02*
X196550000Y-86339000D01*
X196550000Y-91461000D02*
X196550000Y-89940000D01*
X196590000Y-87860000D02*
X196590000Y-86335000D01*
X196590000Y-91465000D02*
X196590000Y-89940000D01*
X196630000Y-87860000D02*
X196630000Y-86331000D01*
X196630000Y-91469000D02*
X196630000Y-89940000D01*
X196670000Y-91473000D02*
X196670000Y-86327000D01*
X196710000Y-91476000D02*
X196710000Y-86324000D01*
X196750000Y-91478000D02*
X196750000Y-86322000D01*
X196790000Y-91479000D02*
X196790000Y-86321000D01*
X196830000Y-91480000D02*
X196830000Y-86320000D01*
X196870000Y-91480000D02*
X196870000Y-86320000D01*
X199424775Y-90625000D02*
X199424775Y-90125000D01*
X199674775Y-90375000D02*
X199174775Y-90375000D01*
X199490000Y-88900000D02*
G75*
G02*
X194250000Y-88900000I-2620000J0D01*
G01*
X194250000Y-88900000D02*
G75*
G02*
X199490000Y-88900000I2620000J0D01*
G01*
%TO.C,J1*%
X151070000Y-79950000D02*
X152400000Y-79950000D01*
X151070000Y-81280000D02*
X151070000Y-79950000D01*
X151070000Y-82550000D02*
X151070000Y-87690000D01*
X151070000Y-82550000D02*
X153730000Y-82550000D01*
X151070000Y-87690000D02*
X153730000Y-87690000D01*
X153730000Y-82550000D02*
X153730000Y-87690000D01*
%TO.C,U2*%
X161180000Y-79950000D02*
X161180000Y-90230000D01*
X161180000Y-90230000D02*
X162830000Y-90230000D01*
X164830000Y-90230000D02*
X166480000Y-90230000D01*
X166480000Y-79950000D02*
X161180000Y-79950000D01*
X166480000Y-90230000D02*
X166480000Y-79950000D01*
X162830000Y-90230000D02*
G75*
G02*
X164830000Y-90230000I1000000J0D01*
G01*
%TO.C,SW4*%
X185750000Y-128750000D02*
X185750000Y-133250000D01*
X188250000Y-134500000D02*
X189750000Y-134500000D01*
X189750000Y-127500000D02*
X188250000Y-127500000D01*
X192250000Y-133250000D02*
X192250000Y-128750000D01*
%TO.C,C2*%
X188945225Y-84885000D02*
X189445225Y-84885000D01*
X189195225Y-84635000D02*
X189195225Y-85135000D01*
X191750000Y-83780000D02*
X191750000Y-88940000D01*
X191790000Y-83780000D02*
X191790000Y-88940000D01*
X191830000Y-83781000D02*
X191830000Y-88939000D01*
X191870000Y-83782000D02*
X191870000Y-88938000D01*
X191910000Y-83784000D02*
X191910000Y-88936000D01*
X191950000Y-83787000D02*
X191950000Y-88933000D01*
X191990000Y-83791000D02*
X191990000Y-85320000D01*
X191990000Y-87400000D02*
X191990000Y-88929000D01*
X192030000Y-83795000D02*
X192030000Y-85320000D01*
X192030000Y-87400000D02*
X192030000Y-88925000D01*
X192070000Y-83799000D02*
X192070000Y-85320000D01*
X192070000Y-87400000D02*
X192070000Y-88921000D01*
X192110000Y-83804000D02*
X192110000Y-85320000D01*
X192110000Y-87400000D02*
X192110000Y-88916000D01*
X192150000Y-83810000D02*
X192150000Y-85320000D01*
X192150000Y-87400000D02*
X192150000Y-88910000D01*
X192190000Y-83817000D02*
X192190000Y-85320000D01*
X192190000Y-87400000D02*
X192190000Y-88903000D01*
X192230000Y-83824000D02*
X192230000Y-85320000D01*
X192230000Y-87400000D02*
X192230000Y-88896000D01*
X192270000Y-83832000D02*
X192270000Y-85320000D01*
X192270000Y-87400000D02*
X192270000Y-88888000D01*
X192310000Y-83840000D02*
X192310000Y-85320000D01*
X192310000Y-87400000D02*
X192310000Y-88880000D01*
X192350000Y-83849000D02*
X192350000Y-85320000D01*
X192350000Y-87400000D02*
X192350000Y-88871000D01*
X192390000Y-83859000D02*
X192390000Y-85320000D01*
X192390000Y-87400000D02*
X192390000Y-88861000D01*
X192430000Y-83869000D02*
X192430000Y-85320000D01*
X192430000Y-87400000D02*
X192430000Y-88851000D01*
X192471000Y-83880000D02*
X192471000Y-85320000D01*
X192471000Y-87400000D02*
X192471000Y-88840000D01*
X192511000Y-83892000D02*
X192511000Y-85320000D01*
X192511000Y-87400000D02*
X192511000Y-88828000D01*
X192551000Y-83905000D02*
X192551000Y-85320000D01*
X192551000Y-87400000D02*
X192551000Y-88815000D01*
X192591000Y-83918000D02*
X192591000Y-85320000D01*
X192591000Y-87400000D02*
X192591000Y-88802000D01*
X192631000Y-83932000D02*
X192631000Y-85320000D01*
X192631000Y-87400000D02*
X192631000Y-88788000D01*
X192671000Y-83946000D02*
X192671000Y-85320000D01*
X192671000Y-87400000D02*
X192671000Y-88774000D01*
X192711000Y-83962000D02*
X192711000Y-85320000D01*
X192711000Y-87400000D02*
X192711000Y-88758000D01*
X192751000Y-83978000D02*
X192751000Y-85320000D01*
X192751000Y-87400000D02*
X192751000Y-88742000D01*
X192791000Y-83995000D02*
X192791000Y-85320000D01*
X192791000Y-87400000D02*
X192791000Y-88725000D01*
X192831000Y-84012000D02*
X192831000Y-85320000D01*
X192831000Y-87400000D02*
X192831000Y-88708000D01*
X192871000Y-84031000D02*
X192871000Y-85320000D01*
X192871000Y-87400000D02*
X192871000Y-88689000D01*
X192911000Y-84050000D02*
X192911000Y-85320000D01*
X192911000Y-87400000D02*
X192911000Y-88670000D01*
X192951000Y-84070000D02*
X192951000Y-85320000D01*
X192951000Y-87400000D02*
X192951000Y-88650000D01*
X192991000Y-84092000D02*
X192991000Y-85320000D01*
X192991000Y-87400000D02*
X192991000Y-88628000D01*
X193031000Y-84113000D02*
X193031000Y-85320000D01*
X193031000Y-87400000D02*
X193031000Y-88607000D01*
X193071000Y-84136000D02*
X193071000Y-85320000D01*
X193071000Y-87400000D02*
X193071000Y-88584000D01*
X193111000Y-84160000D02*
X193111000Y-85320000D01*
X193111000Y-87400000D02*
X193111000Y-88560000D01*
X193151000Y-84185000D02*
X193151000Y-85320000D01*
X193151000Y-87400000D02*
X193151000Y-88535000D01*
X193191000Y-84211000D02*
X193191000Y-85320000D01*
X193191000Y-87400000D02*
X193191000Y-88509000D01*
X193231000Y-84238000D02*
X193231000Y-85320000D01*
X193231000Y-87400000D02*
X193231000Y-88482000D01*
X193271000Y-84265000D02*
X193271000Y-85320000D01*
X193271000Y-87400000D02*
X193271000Y-88455000D01*
X193311000Y-84295000D02*
X193311000Y-85320000D01*
X193311000Y-87400000D02*
X193311000Y-88425000D01*
X193351000Y-84325000D02*
X193351000Y-85320000D01*
X193351000Y-87400000D02*
X193351000Y-88395000D01*
X193391000Y-84356000D02*
X193391000Y-85320000D01*
X193391000Y-87400000D02*
X193391000Y-88364000D01*
X193431000Y-84389000D02*
X193431000Y-85320000D01*
X193431000Y-87400000D02*
X193431000Y-88331000D01*
X193471000Y-84423000D02*
X193471000Y-85320000D01*
X193471000Y-87400000D02*
X193471000Y-88297000D01*
X193511000Y-84459000D02*
X193511000Y-85320000D01*
X193511000Y-87400000D02*
X193511000Y-88261000D01*
X193551000Y-84496000D02*
X193551000Y-85320000D01*
X193551000Y-87400000D02*
X193551000Y-88224000D01*
X193591000Y-84534000D02*
X193591000Y-85320000D01*
X193591000Y-87400000D02*
X193591000Y-88186000D01*
X193631000Y-84575000D02*
X193631000Y-85320000D01*
X193631000Y-87400000D02*
X193631000Y-88145000D01*
X193671000Y-84617000D02*
X193671000Y-85320000D01*
X193671000Y-87400000D02*
X193671000Y-88103000D01*
X193711000Y-84661000D02*
X193711000Y-85320000D01*
X193711000Y-87400000D02*
X193711000Y-88059000D01*
X193751000Y-84707000D02*
X193751000Y-85320000D01*
X193751000Y-87400000D02*
X193751000Y-88013000D01*
X193791000Y-84755000D02*
X193791000Y-85320000D01*
X193791000Y-87400000D02*
X193791000Y-87965000D01*
X193831000Y-84806000D02*
X193831000Y-85320000D01*
X193831000Y-87400000D02*
X193831000Y-87914000D01*
X193871000Y-84860000D02*
X193871000Y-85320000D01*
X193871000Y-87400000D02*
X193871000Y-87860000D01*
X193911000Y-84917000D02*
X193911000Y-85320000D01*
X193911000Y-87400000D02*
X193911000Y-87803000D01*
X193951000Y-84977000D02*
X193951000Y-85320000D01*
X193951000Y-87400000D02*
X193951000Y-87743000D01*
X193991000Y-85041000D02*
X193991000Y-85320000D01*
X193991000Y-87400000D02*
X193991000Y-87679000D01*
X194031000Y-85109000D02*
X194031000Y-85320000D01*
X194031000Y-87400000D02*
X194031000Y-87611000D01*
X194071000Y-85182000D02*
X194071000Y-87538000D01*
X194111000Y-85262000D02*
X194111000Y-87458000D01*
X194151000Y-85349000D02*
X194151000Y-87371000D01*
X194191000Y-85445000D02*
X194191000Y-87275000D01*
X194231000Y-85555000D02*
X194231000Y-87165000D01*
X194271000Y-85683000D02*
X194271000Y-87037000D01*
X194311000Y-85842000D02*
X194311000Y-86878000D01*
X194351000Y-86076000D02*
X194351000Y-86644000D01*
X194370000Y-86360000D02*
G75*
G02*
X189130000Y-86360000I-2620000J0D01*
G01*
X189130000Y-86360000D02*
G75*
G02*
X194370000Y-86360000I2620000J0D01*
G01*
%TO.C,SW2*%
X165750000Y-128750000D02*
X165750000Y-133250000D01*
X168250000Y-134500000D02*
X169750000Y-134500000D01*
X169750000Y-127500000D02*
X168250000Y-127500000D01*
X172250000Y-133250000D02*
X172250000Y-128750000D01*
%TO.C,J6*%
X161230000Y-74870000D02*
X162560000Y-74870000D01*
X161230000Y-76200000D02*
X161230000Y-74870000D01*
X161230000Y-77470000D02*
X161230000Y-77530000D01*
X161230000Y-77470000D02*
X163830000Y-77470000D01*
X161230000Y-77530000D02*
X166430000Y-77530000D01*
X163830000Y-74870000D02*
X166430000Y-74870000D01*
X163830000Y-77470000D02*
X163830000Y-74870000D01*
X166430000Y-74870000D02*
X166430000Y-77530000D01*
%TO.C,J5*%
X179010000Y-85090000D02*
X179010000Y-74870000D01*
X181670000Y-74870000D02*
X179010000Y-74870000D01*
X181670000Y-85090000D02*
X179010000Y-85090000D01*
X181670000Y-85090000D02*
X181670000Y-74870000D01*
X181670000Y-86360000D02*
X181670000Y-87690000D01*
X181670000Y-87690000D02*
X180340000Y-87690000D01*
%TO.C,R3*%
X156310000Y-76200000D02*
X156380000Y-76200000D01*
X156310000Y-76200000D02*
G75*
G02*
X153570000Y-76200000I-1370000J0D01*
G01*
X153570000Y-76200000D02*
G75*
G02*
X156310000Y-76200000I1370000J0D01*
G01*
%TO.C,SW3*%
X175750000Y-128750000D02*
X175750000Y-133250000D01*
X178250000Y-134500000D02*
X179750000Y-134500000D01*
X179750000Y-127500000D02*
X178250000Y-127500000D01*
X182250000Y-133250000D02*
X182250000Y-128750000D01*
%TO.C,J3*%
X173930000Y-85090000D02*
X173930000Y-77410000D01*
X176590000Y-77410000D02*
X173930000Y-77410000D01*
X176590000Y-85090000D02*
X173930000Y-85090000D01*
X176590000Y-85090000D02*
X176590000Y-77410000D01*
X176590000Y-86360000D02*
X176590000Y-87690000D01*
X176590000Y-87690000D02*
X175260000Y-87690000D01*
D15*
%TO.C,SYM2*%
X165435690Y-63640018D02*
X165470585Y-63655269D01*
X165553877Y-63721235D01*
X165625103Y-63816618D01*
X165669153Y-63918406D01*
X165676322Y-63968587D01*
X165652285Y-64038647D01*
X165599561Y-64075717D01*
X165543031Y-64098164D01*
X165517146Y-64102300D01*
X165504542Y-64072283D01*
X165479654Y-64006961D01*
X165468735Y-63977445D01*
X165407508Y-63875348D01*
X165318861Y-63824423D01*
X165205193Y-63825989D01*
X165196774Y-63827994D01*
X165136088Y-63856767D01*
X165091474Y-63912859D01*
X165061002Y-64003163D01*
X165042744Y-64134571D01*
X165034771Y-64313974D01*
X165034023Y-64409433D01*
X165033652Y-64559913D01*
X165031223Y-64662495D01*
X165024760Y-64727672D01*
X165012288Y-64765938D01*
X164991833Y-64787785D01*
X164961419Y-64803707D01*
X164959661Y-64804509D01*
X164901091Y-64829272D01*
X164872075Y-64838391D01*
X164867616Y-64810822D01*
X164863799Y-64734620D01*
X164860899Y-64619541D01*
X164859191Y-64475341D01*
X164858851Y-64369814D01*
X164860588Y-64165613D01*
X164867382Y-64010697D01*
X164881607Y-63896024D01*
X164905638Y-63812551D01*
X164941848Y-63751236D01*
X164992612Y-63703034D01*
X165042739Y-63669393D01*
X165163275Y-63624619D01*
X165303557Y-63614521D01*
X165435690Y-63640018D01*
G36*
X165435690Y-63640018D02*
G01*
X165470585Y-63655269D01*
X165553877Y-63721235D01*
X165625103Y-63816618D01*
X165669153Y-63918406D01*
X165676322Y-63968587D01*
X165652285Y-64038647D01*
X165599561Y-64075717D01*
X165543031Y-64098164D01*
X165517146Y-64102300D01*
X165504542Y-64072283D01*
X165479654Y-64006961D01*
X165468735Y-63977445D01*
X165407508Y-63875348D01*
X165318861Y-63824423D01*
X165205193Y-63825989D01*
X165196774Y-63827994D01*
X165136088Y-63856767D01*
X165091474Y-63912859D01*
X165061002Y-64003163D01*
X165042744Y-64134571D01*
X165034771Y-64313974D01*
X165034023Y-64409433D01*
X165033652Y-64559913D01*
X165031223Y-64662495D01*
X165024760Y-64727672D01*
X165012288Y-64765938D01*
X164991833Y-64787785D01*
X164961419Y-64803707D01*
X164959661Y-64804509D01*
X164901091Y-64829272D01*
X164872075Y-64838391D01*
X164867616Y-64810822D01*
X164863799Y-64734620D01*
X164860899Y-64619541D01*
X164859191Y-64475341D01*
X164858851Y-64369814D01*
X164860588Y-64165613D01*
X164867382Y-64010697D01*
X164881607Y-63896024D01*
X164905638Y-63812551D01*
X164941848Y-63751236D01*
X164992612Y-63703034D01*
X165042739Y-63669393D01*
X165163275Y-63624619D01*
X165303557Y-63614521D01*
X165435690Y-63640018D01*
G37*
X157517429Y-63577719D02*
X157611123Y-63631914D01*
X157676264Y-63685707D01*
X157723907Y-63742066D01*
X157756728Y-63810987D01*
X157777406Y-63902468D01*
X157788620Y-64026506D01*
X157793049Y-64193098D01*
X157793563Y-64312851D01*
X157793563Y-64753659D01*
X157669483Y-64809283D01*
X157545402Y-64864907D01*
X157530805Y-64382095D01*
X157524773Y-64201779D01*
X157518445Y-64070901D01*
X157510606Y-63980511D01*
X157500037Y-63921664D01*
X157485523Y-63885413D01*
X157465848Y-63862810D01*
X157459535Y-63857917D01*
X157363888Y-63819706D01*
X157267207Y-63834827D01*
X157209655Y-63874943D01*
X157186245Y-63903370D01*
X157170039Y-63940672D01*
X157159741Y-63997223D01*
X157154049Y-64083394D01*
X157151664Y-64209558D01*
X157151264Y-64341042D01*
X157151186Y-64505999D01*
X157148361Y-64622761D01*
X157138907Y-64701510D01*
X157118940Y-64752431D01*
X157084576Y-64785706D01*
X157031932Y-64811520D01*
X156961617Y-64838344D01*
X156884820Y-64867542D01*
X156893962Y-64349346D01*
X156897643Y-64162539D01*
X156901950Y-64024490D01*
X156908123Y-63925568D01*
X156917402Y-63856145D01*
X156931027Y-63806590D01*
X156950239Y-63767273D01*
X156973402Y-63732584D01*
X157085152Y-63621770D01*
X157221513Y-63557689D01*
X157369825Y-63542339D01*
X157517429Y-63577719D01*
G36*
X157517429Y-63577719D02*
G01*
X157611123Y-63631914D01*
X157676264Y-63685707D01*
X157723907Y-63742066D01*
X157756728Y-63810987D01*
X157777406Y-63902468D01*
X157788620Y-64026506D01*
X157793049Y-64193098D01*
X157793563Y-64312851D01*
X157793563Y-64753659D01*
X157669483Y-64809283D01*
X157545402Y-64864907D01*
X157530805Y-64382095D01*
X157524773Y-64201779D01*
X157518445Y-64070901D01*
X157510606Y-63980511D01*
X157500037Y-63921664D01*
X157485523Y-63885413D01*
X157465848Y-63862810D01*
X157459535Y-63857917D01*
X157363888Y-63819706D01*
X157267207Y-63834827D01*
X157209655Y-63874943D01*
X157186245Y-63903370D01*
X157170039Y-63940672D01*
X157159741Y-63997223D01*
X157154049Y-64083394D01*
X157151664Y-64209558D01*
X157151264Y-64341042D01*
X157151186Y-64505999D01*
X157148361Y-64622761D01*
X157138907Y-64701510D01*
X157118940Y-64752431D01*
X157084576Y-64785706D01*
X157031932Y-64811520D01*
X156961617Y-64838344D01*
X156884820Y-64867542D01*
X156893962Y-64349346D01*
X156897643Y-64162539D01*
X156901950Y-64024490D01*
X156908123Y-63925568D01*
X156917402Y-63856145D01*
X156931027Y-63806590D01*
X156950239Y-63767273D01*
X156973402Y-63732584D01*
X157085152Y-63621770D01*
X157221513Y-63557689D01*
X157369825Y-63542339D01*
X157517429Y-63577719D01*
G37*
X161165943Y-63621920D02*
X161298565Y-63670859D01*
X161406010Y-63757419D01*
X161448032Y-63818352D01*
X161493843Y-63930161D01*
X161492891Y-64011006D01*
X161444808Y-64065378D01*
X161427017Y-64074624D01*
X161350204Y-64103450D01*
X161310976Y-64096065D01*
X161297689Y-64047658D01*
X161297012Y-64020920D01*
X161272686Y-63922548D01*
X161209281Y-63853734D01*
X161121154Y-63820498D01*
X161022663Y-63828861D01*
X160942602Y-63872296D01*
X160915561Y-63897072D01*
X160896394Y-63927129D01*
X160883446Y-63972565D01*
X160875064Y-64043476D01*
X160869593Y-64149960D01*
X160865378Y-64302112D01*
X160864287Y-64350287D01*
X160860307Y-64515095D01*
X160855781Y-64631088D01*
X160848995Y-64707833D01*
X160838231Y-64754893D01*
X160821773Y-64781835D01*
X160797906Y-64798223D01*
X160782626Y-64805463D01*
X160717733Y-64830220D01*
X160679534Y-64838391D01*
X160666912Y-64811103D01*
X160659208Y-64728603D01*
X160656380Y-64589941D01*
X160658386Y-64394162D01*
X160659011Y-64363965D01*
X160663421Y-64185349D01*
X160668635Y-64054923D01*
X160676055Y-63962492D01*
X160687082Y-63897858D01*
X160703117Y-63850825D01*
X160725561Y-63811196D01*
X160737302Y-63794215D01*
X160804619Y-63719080D01*
X160879910Y-63660638D01*
X160889128Y-63655536D01*
X161024133Y-63615260D01*
X161165943Y-63621920D01*
G36*
X161165943Y-63621920D02*
G01*
X161298565Y-63670859D01*
X161406010Y-63757419D01*
X161448032Y-63818352D01*
X161493843Y-63930161D01*
X161492891Y-64011006D01*
X161444808Y-64065378D01*
X161427017Y-64074624D01*
X161350204Y-64103450D01*
X161310976Y-64096065D01*
X161297689Y-64047658D01*
X161297012Y-64020920D01*
X161272686Y-63922548D01*
X161209281Y-63853734D01*
X161121154Y-63820498D01*
X161022663Y-63828861D01*
X160942602Y-63872296D01*
X160915561Y-63897072D01*
X160896394Y-63927129D01*
X160883446Y-63972565D01*
X160875064Y-64043476D01*
X160869593Y-64149960D01*
X160865378Y-64302112D01*
X160864287Y-64350287D01*
X160860307Y-64515095D01*
X160855781Y-64631088D01*
X160848995Y-64707833D01*
X160838231Y-64754893D01*
X160821773Y-64781835D01*
X160797906Y-64798223D01*
X160782626Y-64805463D01*
X160717733Y-64830220D01*
X160679534Y-64838391D01*
X160666912Y-64811103D01*
X160659208Y-64728603D01*
X160656380Y-64589941D01*
X160658386Y-64394162D01*
X160659011Y-64363965D01*
X160663421Y-64185349D01*
X160668635Y-64054923D01*
X160676055Y-63962492D01*
X160687082Y-63897858D01*
X160703117Y-63850825D01*
X160725561Y-63811196D01*
X160737302Y-63794215D01*
X160804619Y-63719080D01*
X160879910Y-63660638D01*
X160889128Y-63655536D01*
X161024133Y-63615260D01*
X161165943Y-63621920D01*
G37*
X163680124Y-63639840D02*
X163684579Y-63716653D01*
X163688071Y-63833391D01*
X163690315Y-63980821D01*
X163691035Y-64135455D01*
X163691035Y-64658727D01*
X163598645Y-64751117D01*
X163534978Y-64808047D01*
X163479089Y-64831107D01*
X163402702Y-64829647D01*
X163372380Y-64825934D01*
X163277610Y-64815126D01*
X163199222Y-64808933D01*
X163180115Y-64808361D01*
X163115699Y-64812102D01*
X163023571Y-64821494D01*
X162987850Y-64825934D01*
X162900114Y-64832801D01*
X162841153Y-64817885D01*
X162782690Y-64771835D01*
X162761585Y-64751117D01*
X162669195Y-64658727D01*
X162669195Y-63679947D01*
X162743558Y-63646066D01*
X162807590Y-63620970D01*
X162845052Y-63612184D01*
X162854657Y-63639950D01*
X162863635Y-63717530D01*
X162871386Y-63836348D01*
X162877314Y-63987828D01*
X162880173Y-64115805D01*
X162888161Y-64619425D01*
X162957848Y-64629278D01*
X163021229Y-64622389D01*
X163052286Y-64600083D01*
X163060967Y-64558379D01*
X163068378Y-64469544D01*
X163073931Y-64344834D01*
X163077036Y-64195507D01*
X163077484Y-64118661D01*
X163077931Y-63676287D01*
X163169874Y-63644235D01*
X163234949Y-63622443D01*
X163270347Y-63612281D01*
X163271368Y-63612184D01*
X163274920Y-63639809D01*
X163278823Y-63716411D01*
X163282751Y-63832579D01*
X163286376Y-63978904D01*
X163288908Y-64115805D01*
X163296897Y-64619425D01*
X163472069Y-64619425D01*
X163480107Y-64159965D01*
X163488146Y-63700505D01*
X163573543Y-63656344D01*
X163636593Y-63626019D01*
X163673910Y-63612258D01*
X163674987Y-63612184D01*
X163680124Y-63639840D01*
G36*
X163680124Y-63639840D02*
G01*
X163684579Y-63716653D01*
X163688071Y-63833391D01*
X163690315Y-63980821D01*
X163691035Y-64135455D01*
X163691035Y-64658727D01*
X163598645Y-64751117D01*
X163534978Y-64808047D01*
X163479089Y-64831107D01*
X163402702Y-64829647D01*
X163372380Y-64825934D01*
X163277610Y-64815126D01*
X163199222Y-64808933D01*
X163180115Y-64808361D01*
X163115699Y-64812102D01*
X163023571Y-64821494D01*
X162987850Y-64825934D01*
X162900114Y-64832801D01*
X162841153Y-64817885D01*
X162782690Y-64771835D01*
X162761585Y-64751117D01*
X162669195Y-64658727D01*
X162669195Y-63679947D01*
X162743558Y-63646066D01*
X162807590Y-63620970D01*
X162845052Y-63612184D01*
X162854657Y-63639950D01*
X162863635Y-63717530D01*
X162871386Y-63836348D01*
X162877314Y-63987828D01*
X162880173Y-64115805D01*
X162888161Y-64619425D01*
X162957848Y-64629278D01*
X163021229Y-64622389D01*
X163052286Y-64600083D01*
X163060967Y-64558379D01*
X163068378Y-64469544D01*
X163073931Y-64344834D01*
X163077036Y-64195507D01*
X163077484Y-64118661D01*
X163077931Y-63676287D01*
X163169874Y-63644235D01*
X163234949Y-63622443D01*
X163270347Y-63612281D01*
X163271368Y-63612184D01*
X163274920Y-63639809D01*
X163278823Y-63716411D01*
X163282751Y-63832579D01*
X163286376Y-63978904D01*
X163288908Y-64115805D01*
X163296897Y-64619425D01*
X163472069Y-64619425D01*
X163480107Y-64159965D01*
X163488146Y-63700505D01*
X163573543Y-63656344D01*
X163636593Y-63626019D01*
X163673910Y-63612258D01*
X163674987Y-63612184D01*
X163680124Y-63639840D01*
G37*
X158844598Y-63423857D02*
X158853154Y-63543188D01*
X158862981Y-63613506D01*
X158876599Y-63644179D01*
X158896527Y-63644571D01*
X158902989Y-63640910D01*
X158988940Y-63614398D01*
X159100745Y-63615946D01*
X159214414Y-63643199D01*
X159285510Y-63678455D01*
X159358405Y-63734778D01*
X159411693Y-63798519D01*
X159448275Y-63879510D01*
X159471050Y-63987586D01*
X159482919Y-64132580D01*
X159486782Y-64324326D01*
X159486851Y-64361109D01*
X159486897Y-64774288D01*
X159394954Y-64806339D01*
X159329652Y-64828144D01*
X159293824Y-64838297D01*
X159292770Y-64838391D01*
X159289242Y-64810860D01*
X159286239Y-64734923D01*
X159283990Y-64620565D01*
X159282724Y-64477769D01*
X159282529Y-64390951D01*
X159282123Y-64219773D01*
X159280032Y-64097088D01*
X159274947Y-64013000D01*
X159265560Y-63957614D01*
X159250561Y-63921032D01*
X159228642Y-63893359D01*
X159214957Y-63880032D01*
X159120949Y-63826328D01*
X159018364Y-63822307D01*
X158925290Y-63867725D01*
X158908078Y-63884123D01*
X158882832Y-63914957D01*
X158865320Y-63951531D01*
X158854142Y-64004415D01*
X158847896Y-64084177D01*
X158845182Y-64201385D01*
X158844598Y-64362991D01*
X158844598Y-64774288D01*
X158752655Y-64806339D01*
X158687353Y-64828144D01*
X158651525Y-64838297D01*
X158650471Y-64838391D01*
X158647775Y-64810448D01*
X158645345Y-64731630D01*
X158643278Y-64609453D01*
X158641671Y-64451432D01*
X158640623Y-64265083D01*
X158640231Y-64057920D01*
X158640230Y-64048706D01*
X158640230Y-63259020D01*
X158735115Y-63218997D01*
X158830000Y-63178973D01*
X158844598Y-63423857D01*
G36*
X158844598Y-63423857D02*
G01*
X158853154Y-63543188D01*
X158862981Y-63613506D01*
X158876599Y-63644179D01*
X158896527Y-63644571D01*
X158902989Y-63640910D01*
X158988940Y-63614398D01*
X159100745Y-63615946D01*
X159214414Y-63643199D01*
X159285510Y-63678455D01*
X159358405Y-63734778D01*
X159411693Y-63798519D01*
X159448275Y-63879510D01*
X159471050Y-63987586D01*
X159482919Y-64132580D01*
X159486782Y-64324326D01*
X159486851Y-64361109D01*
X159486897Y-64774288D01*
X159394954Y-64806339D01*
X159329652Y-64828144D01*
X159293824Y-64838297D01*
X159292770Y-64838391D01*
X159289242Y-64810860D01*
X159286239Y-64734923D01*
X159283990Y-64620565D01*
X159282724Y-64477769D01*
X159282529Y-64390951D01*
X159282123Y-64219773D01*
X159280032Y-64097088D01*
X159274947Y-64013000D01*
X159265560Y-63957614D01*
X159250561Y-63921032D01*
X159228642Y-63893359D01*
X159214957Y-63880032D01*
X159120949Y-63826328D01*
X159018364Y-63822307D01*
X158925290Y-63867725D01*
X158908078Y-63884123D01*
X158882832Y-63914957D01*
X158865320Y-63951531D01*
X158854142Y-64004415D01*
X158847896Y-64084177D01*
X158845182Y-64201385D01*
X158844598Y-64362991D01*
X158844598Y-64774288D01*
X158752655Y-64806339D01*
X158687353Y-64828144D01*
X158651525Y-64838297D01*
X158650471Y-64838391D01*
X158647775Y-64810448D01*
X158645345Y-64731630D01*
X158643278Y-64609453D01*
X158641671Y-64451432D01*
X158640623Y-64265083D01*
X158640231Y-64057920D01*
X158640230Y-64048706D01*
X158640230Y-63259020D01*
X158735115Y-63218997D01*
X158830000Y-63178973D01*
X158844598Y-63423857D01*
G37*
X154148221Y-63566015D02*
X154285061Y-63637968D01*
X154386051Y-63753766D01*
X154421925Y-63828213D01*
X154449839Y-63939992D01*
X154464129Y-64081227D01*
X154465484Y-64235371D01*
X154454595Y-64385879D01*
X154432153Y-64516205D01*
X154398850Y-64609803D01*
X154388615Y-64625922D01*
X154267382Y-64746249D01*
X154123387Y-64818317D01*
X153967139Y-64839408D01*
X153809148Y-64806802D01*
X153765180Y-64787253D01*
X153679556Y-64727012D01*
X153604408Y-64647135D01*
X153597306Y-64637004D01*
X153568439Y-64588181D01*
X153549357Y-64535990D01*
X153538084Y-64467285D01*
X153532645Y-64368918D01*
X153531062Y-64227744D01*
X153531035Y-64196092D01*
X153531107Y-64186019D01*
X153822989Y-64186019D01*
X153824687Y-64319256D01*
X153831372Y-64407674D01*
X153845425Y-64464785D01*
X153869229Y-64504102D01*
X153881379Y-64517241D01*
X153951236Y-64567172D01*
X154019059Y-64564895D01*
X154087635Y-64521584D01*
X154128535Y-64475346D01*
X154152758Y-64407857D01*
X154166361Y-64301433D01*
X154167294Y-64289020D01*
X154169616Y-64096147D01*
X154145350Y-63952900D01*
X154094824Y-63860160D01*
X154018368Y-63818807D01*
X153991076Y-63816552D01*
X153919411Y-63827893D01*
X153870390Y-63867184D01*
X153840418Y-63942326D01*
X153825899Y-64061222D01*
X153822989Y-64186019D01*
X153531107Y-64186019D01*
X153532122Y-64045659D01*
X153536688Y-63940549D01*
X153546688Y-63867714D01*
X153564079Y-63814108D01*
X153590816Y-63766681D01*
X153596724Y-63757864D01*
X153696032Y-63639007D01*
X153804242Y-63570008D01*
X153935981Y-63542619D01*
X153980717Y-63541281D01*
X154148221Y-63566015D01*
G36*
X154148221Y-63566015D02*
G01*
X154285061Y-63637968D01*
X154386051Y-63753766D01*
X154421925Y-63828213D01*
X154449839Y-63939992D01*
X154464129Y-64081227D01*
X154465484Y-64235371D01*
X154454595Y-64385879D01*
X154432153Y-64516205D01*
X154398850Y-64609803D01*
X154388615Y-64625922D01*
X154267382Y-64746249D01*
X154123387Y-64818317D01*
X153967139Y-64839408D01*
X153809148Y-64806802D01*
X153765180Y-64787253D01*
X153679556Y-64727012D01*
X153604408Y-64647135D01*
X153597306Y-64637004D01*
X153568439Y-64588181D01*
X153549357Y-64535990D01*
X153538084Y-64467285D01*
X153532645Y-64368918D01*
X153531062Y-64227744D01*
X153531035Y-64196092D01*
X153531107Y-64186019D01*
X153822989Y-64186019D01*
X153824687Y-64319256D01*
X153831372Y-64407674D01*
X153845425Y-64464785D01*
X153869229Y-64504102D01*
X153881379Y-64517241D01*
X153951236Y-64567172D01*
X154019059Y-64564895D01*
X154087635Y-64521584D01*
X154128535Y-64475346D01*
X154152758Y-64407857D01*
X154166361Y-64301433D01*
X154167294Y-64289020D01*
X154169616Y-64096147D01*
X154145350Y-63952900D01*
X154094824Y-63860160D01*
X154018368Y-63818807D01*
X153991076Y-63816552D01*
X153919411Y-63827893D01*
X153870390Y-63867184D01*
X153840418Y-63942326D01*
X153825899Y-64061222D01*
X153822989Y-64186019D01*
X153531107Y-64186019D01*
X153532122Y-64045659D01*
X153536688Y-63940549D01*
X153546688Y-63867714D01*
X153564079Y-63814108D01*
X153590816Y-63766681D01*
X153596724Y-63757864D01*
X153696032Y-63639007D01*
X153804242Y-63570008D01*
X153935981Y-63542619D01*
X153980717Y-63541281D01*
X154148221Y-63566015D01*
G37*
X166443439Y-63656540D02*
X166558950Y-63732034D01*
X166614664Y-63799617D01*
X166658804Y-63922255D01*
X166662309Y-64019298D01*
X166654368Y-64149056D01*
X166355115Y-64280039D01*
X166209611Y-64346958D01*
X166114537Y-64400790D01*
X166065101Y-64447416D01*
X166056511Y-64492720D01*
X166083972Y-64542582D01*
X166114253Y-64575632D01*
X166202363Y-64628633D01*
X166298196Y-64632347D01*
X166386212Y-64591041D01*
X166450869Y-64508983D01*
X166462433Y-64480008D01*
X166517825Y-64389509D01*
X166581553Y-64350940D01*
X166668966Y-64317946D01*
X166668966Y-64443034D01*
X166661238Y-64528156D01*
X166630966Y-64599938D01*
X166567518Y-64682356D01*
X166558088Y-64693066D01*
X166487513Y-64766391D01*
X166426847Y-64805742D01*
X166350950Y-64823845D01*
X166288030Y-64829774D01*
X166175487Y-64831251D01*
X166095370Y-64812535D01*
X166045390Y-64784747D01*
X165966838Y-64723641D01*
X165912463Y-64657554D01*
X165878052Y-64574441D01*
X165859388Y-64462254D01*
X165852256Y-64308946D01*
X165851687Y-64231136D01*
X165853622Y-64137853D01*
X166029899Y-64137853D01*
X166031944Y-64187896D01*
X166037039Y-64196092D01*
X166070666Y-64184958D01*
X166143030Y-64155493D01*
X166239747Y-64113601D01*
X166259973Y-64104597D01*
X166382203Y-64042442D01*
X166449547Y-63987815D01*
X166464348Y-63936649D01*
X166428947Y-63884876D01*
X166399711Y-63862000D01*
X166294216Y-63816250D01*
X166195476Y-63823808D01*
X166112812Y-63879651D01*
X166055548Y-63978753D01*
X166037188Y-64057414D01*
X166029899Y-64137853D01*
X165853622Y-64137853D01*
X165855459Y-64049351D01*
X165869359Y-63914853D01*
X165896894Y-63816916D01*
X165941572Y-63744811D01*
X166006901Y-63687813D01*
X166035383Y-63669393D01*
X166164763Y-63621422D01*
X166306412Y-63618403D01*
X166443439Y-63656540D01*
G36*
X166443439Y-63656540D02*
G01*
X166558950Y-63732034D01*
X166614664Y-63799617D01*
X166658804Y-63922255D01*
X166662309Y-64019298D01*
X166654368Y-64149056D01*
X166355115Y-64280039D01*
X166209611Y-64346958D01*
X166114537Y-64400790D01*
X166065101Y-64447416D01*
X166056511Y-64492720D01*
X166083972Y-64542582D01*
X166114253Y-64575632D01*
X166202363Y-64628633D01*
X166298196Y-64632347D01*
X166386212Y-64591041D01*
X166450869Y-64508983D01*
X166462433Y-64480008D01*
X166517825Y-64389509D01*
X166581553Y-64350940D01*
X166668966Y-64317946D01*
X166668966Y-64443034D01*
X166661238Y-64528156D01*
X166630966Y-64599938D01*
X166567518Y-64682356D01*
X166558088Y-64693066D01*
X166487513Y-64766391D01*
X166426847Y-64805742D01*
X166350950Y-64823845D01*
X166288030Y-64829774D01*
X166175487Y-64831251D01*
X166095370Y-64812535D01*
X166045390Y-64784747D01*
X165966838Y-64723641D01*
X165912463Y-64657554D01*
X165878052Y-64574441D01*
X165859388Y-64462254D01*
X165852256Y-64308946D01*
X165851687Y-64231136D01*
X165853622Y-64137853D01*
X166029899Y-64137853D01*
X166031944Y-64187896D01*
X166037039Y-64196092D01*
X166070666Y-64184958D01*
X166143030Y-64155493D01*
X166239747Y-64113601D01*
X166259973Y-64104597D01*
X166382203Y-64042442D01*
X166449547Y-63987815D01*
X166464348Y-63936649D01*
X166428947Y-63884876D01*
X166399711Y-63862000D01*
X166294216Y-63816250D01*
X166195476Y-63823808D01*
X166112812Y-63879651D01*
X166055548Y-63978753D01*
X166037188Y-64057414D01*
X166029899Y-64137853D01*
X165853622Y-64137853D01*
X165855459Y-64049351D01*
X165869359Y-63914853D01*
X165896894Y-63816916D01*
X165941572Y-63744811D01*
X166006901Y-63687813D01*
X166035383Y-63669393D01*
X166164763Y-63621422D01*
X166306412Y-63618403D01*
X166443439Y-63656540D01*
G37*
X162493914Y-63854455D02*
X162493543Y-64072661D01*
X162492108Y-64240519D01*
X162489002Y-64366070D01*
X162483622Y-64457355D01*
X162475362Y-64522415D01*
X162463616Y-64569291D01*
X162447781Y-64606024D01*
X162435790Y-64626991D01*
X162336490Y-64740694D01*
X162210588Y-64811965D01*
X162071291Y-64837538D01*
X161931805Y-64814150D01*
X161848743Y-64772119D01*
X161761545Y-64699411D01*
X161702117Y-64610612D01*
X161666261Y-64494320D01*
X161649781Y-64339135D01*
X161647447Y-64225287D01*
X161647761Y-64217106D01*
X161851724Y-64217106D01*
X161852970Y-64347657D01*
X161858678Y-64434080D01*
X161871804Y-64490618D01*
X161895306Y-64531514D01*
X161923386Y-64562362D01*
X162017688Y-64621905D01*
X162118940Y-64626992D01*
X162214636Y-64577279D01*
X162222084Y-64570543D01*
X162253874Y-64535502D01*
X162273808Y-64493811D01*
X162284600Y-64431762D01*
X162288965Y-64335644D01*
X162289655Y-64229379D01*
X162288159Y-64095880D01*
X162281964Y-64006822D01*
X162268514Y-63948293D01*
X162245251Y-63906382D01*
X162226175Y-63884123D01*
X162137563Y-63827985D01*
X162035508Y-63821235D01*
X161938095Y-63864114D01*
X161919296Y-63880032D01*
X161887293Y-63915382D01*
X161867318Y-63957502D01*
X161856593Y-64020251D01*
X161852339Y-64117487D01*
X161851724Y-64217106D01*
X161647761Y-64217106D01*
X161654504Y-64041947D01*
X161678472Y-63904195D01*
X161723548Y-63800632D01*
X161793928Y-63719856D01*
X161848743Y-63678455D01*
X161948376Y-63633728D01*
X162063855Y-63612967D01*
X162171199Y-63618525D01*
X162231264Y-63640943D01*
X162254835Y-63647323D01*
X162270477Y-63623535D01*
X162281395Y-63559788D01*
X162289655Y-63462687D01*
X162298699Y-63354541D01*
X162311261Y-63289475D01*
X162334119Y-63252268D01*
X162374051Y-63227699D01*
X162399138Y-63216819D01*
X162494023Y-63177072D01*
X162493914Y-63854455D01*
G36*
X162493914Y-63854455D02*
G01*
X162493543Y-64072661D01*
X162492108Y-64240519D01*
X162489002Y-64366070D01*
X162483622Y-64457355D01*
X162475362Y-64522415D01*
X162463616Y-64569291D01*
X162447781Y-64606024D01*
X162435790Y-64626991D01*
X162336490Y-64740694D01*
X162210588Y-64811965D01*
X162071291Y-64837538D01*
X161931805Y-64814150D01*
X161848743Y-64772119D01*
X161761545Y-64699411D01*
X161702117Y-64610612D01*
X161666261Y-64494320D01*
X161649781Y-64339135D01*
X161647447Y-64225287D01*
X161647761Y-64217106D01*
X161851724Y-64217106D01*
X161852970Y-64347657D01*
X161858678Y-64434080D01*
X161871804Y-64490618D01*
X161895306Y-64531514D01*
X161923386Y-64562362D01*
X162017688Y-64621905D01*
X162118940Y-64626992D01*
X162214636Y-64577279D01*
X162222084Y-64570543D01*
X162253874Y-64535502D01*
X162273808Y-64493811D01*
X162284600Y-64431762D01*
X162288965Y-64335644D01*
X162289655Y-64229379D01*
X162288159Y-64095880D01*
X162281964Y-64006822D01*
X162268514Y-63948293D01*
X162245251Y-63906382D01*
X162226175Y-63884123D01*
X162137563Y-63827985D01*
X162035508Y-63821235D01*
X161938095Y-63864114D01*
X161919296Y-63880032D01*
X161887293Y-63915382D01*
X161867318Y-63957502D01*
X161856593Y-64020251D01*
X161852339Y-64117487D01*
X161851724Y-64217106D01*
X161647761Y-64217106D01*
X161654504Y-64041947D01*
X161678472Y-63904195D01*
X161723548Y-63800632D01*
X161793928Y-63719856D01*
X161848743Y-63678455D01*
X161948376Y-63633728D01*
X162063855Y-63612967D01*
X162171199Y-63618525D01*
X162231264Y-63640943D01*
X162254835Y-63647323D01*
X162270477Y-63623535D01*
X162281395Y-63559788D01*
X162289655Y-63462687D01*
X162298699Y-63354541D01*
X162311261Y-63289475D01*
X162334119Y-63252268D01*
X162374051Y-63227699D01*
X162399138Y-63216819D01*
X162494023Y-63177072D01*
X162493914Y-63854455D01*
G37*
X156415552Y-63584676D02*
X156530658Y-63662111D01*
X156619611Y-63773949D01*
X156672749Y-63916265D01*
X156683497Y-64021015D01*
X156682276Y-64064726D01*
X156672056Y-64098194D01*
X156643961Y-64128179D01*
X156589116Y-64161440D01*
X156498645Y-64204738D01*
X156363672Y-64264833D01*
X156362989Y-64265134D01*
X156238751Y-64322037D01*
X156136873Y-64372565D01*
X156067767Y-64411280D01*
X156041846Y-64432740D01*
X156041839Y-64432913D01*
X156064685Y-64479644D01*
X156118109Y-64531154D01*
X156179442Y-64568261D01*
X156210515Y-64575632D01*
X156295289Y-64550138D01*
X156368293Y-64486291D01*
X156403913Y-64416094D01*
X156438180Y-64364343D01*
X156505303Y-64305409D01*
X156584208Y-64254496D01*
X156653821Y-64226809D01*
X156668377Y-64225287D01*
X156684763Y-64250321D01*
X156685750Y-64314311D01*
X156673708Y-64400593D01*
X156651007Y-64492501D01*
X156620014Y-64573369D01*
X156618448Y-64576509D01*
X156525181Y-64706734D01*
X156404304Y-64795311D01*
X156267027Y-64838786D01*
X156124560Y-64833706D01*
X155988112Y-64776616D01*
X155982045Y-64772602D01*
X155874710Y-64675326D01*
X155804132Y-64548409D01*
X155765074Y-64381526D01*
X155759832Y-64334639D01*
X155750548Y-64113329D01*
X155761678Y-64010124D01*
X156041839Y-64010124D01*
X156045479Y-64074503D01*
X156065389Y-64093291D01*
X156115026Y-64079235D01*
X156193267Y-64046009D01*
X156280726Y-64004359D01*
X156282899Y-64003256D01*
X156357030Y-63964265D01*
X156386781Y-63938244D01*
X156379445Y-63910965D01*
X156348553Y-63875121D01*
X156269960Y-63823251D01*
X156185323Y-63819439D01*
X156109403Y-63857189D01*
X156056965Y-63930001D01*
X156041839Y-64010124D01*
X155761678Y-64010124D01*
X155769644Y-63936261D01*
X155818634Y-63795829D01*
X155886836Y-63697447D01*
X156009935Y-63598030D01*
X156145528Y-63548711D01*
X156283955Y-63545568D01*
X156415552Y-63584676D01*
G36*
X156415552Y-63584676D02*
G01*
X156530658Y-63662111D01*
X156619611Y-63773949D01*
X156672749Y-63916265D01*
X156683497Y-64021015D01*
X156682276Y-64064726D01*
X156672056Y-64098194D01*
X156643961Y-64128179D01*
X156589116Y-64161440D01*
X156498645Y-64204738D01*
X156363672Y-64264833D01*
X156362989Y-64265134D01*
X156238751Y-64322037D01*
X156136873Y-64372565D01*
X156067767Y-64411280D01*
X156041846Y-64432740D01*
X156041839Y-64432913D01*
X156064685Y-64479644D01*
X156118109Y-64531154D01*
X156179442Y-64568261D01*
X156210515Y-64575632D01*
X156295289Y-64550138D01*
X156368293Y-64486291D01*
X156403913Y-64416094D01*
X156438180Y-64364343D01*
X156505303Y-64305409D01*
X156584208Y-64254496D01*
X156653821Y-64226809D01*
X156668377Y-64225287D01*
X156684763Y-64250321D01*
X156685750Y-64314311D01*
X156673708Y-64400593D01*
X156651007Y-64492501D01*
X156620014Y-64573369D01*
X156618448Y-64576509D01*
X156525181Y-64706734D01*
X156404304Y-64795311D01*
X156267027Y-64838786D01*
X156124560Y-64833706D01*
X155988112Y-64776616D01*
X155982045Y-64772602D01*
X155874710Y-64675326D01*
X155804132Y-64548409D01*
X155765074Y-64381526D01*
X155759832Y-64334639D01*
X155750548Y-64113329D01*
X155761678Y-64010124D01*
X156041839Y-64010124D01*
X156045479Y-64074503D01*
X156065389Y-64093291D01*
X156115026Y-64079235D01*
X156193267Y-64046009D01*
X156280726Y-64004359D01*
X156282899Y-64003256D01*
X156357030Y-63964265D01*
X156386781Y-63938244D01*
X156379445Y-63910965D01*
X156348553Y-63875121D01*
X156269960Y-63823251D01*
X156185323Y-63819439D01*
X156109403Y-63857189D01*
X156056965Y-63930001D01*
X156041839Y-64010124D01*
X155761678Y-64010124D01*
X155769644Y-63936261D01*
X155818634Y-63795829D01*
X155886836Y-63697447D01*
X156009935Y-63598030D01*
X156145528Y-63548711D01*
X156283955Y-63545568D01*
X156415552Y-63584676D01*
G37*
X160179944Y-63624360D02*
X160294343Y-63666842D01*
X160295652Y-63667658D01*
X160366403Y-63719730D01*
X160418636Y-63780584D01*
X160455371Y-63859887D01*
X160479634Y-63967309D01*
X160494445Y-64112517D01*
X160502829Y-64305179D01*
X160503564Y-64332628D01*
X160514120Y-64746521D01*
X160425291Y-64792456D01*
X160361018Y-64823498D01*
X160322210Y-64838206D01*
X160320415Y-64838391D01*
X160313700Y-64811250D01*
X160308365Y-64738041D01*
X160305083Y-64631081D01*
X160304368Y-64544469D01*
X160304351Y-64404162D01*
X160297937Y-64316051D01*
X160275580Y-64274025D01*
X160227732Y-64271975D01*
X160144849Y-64303790D01*
X160019713Y-64362272D01*
X159927697Y-64410845D01*
X159880371Y-64452986D01*
X159866458Y-64498916D01*
X159866437Y-64501189D01*
X159889395Y-64580311D01*
X159957370Y-64623055D01*
X160061398Y-64629246D01*
X160136330Y-64628172D01*
X160175839Y-64649753D01*
X160200478Y-64701591D01*
X160214659Y-64767632D01*
X160194223Y-64805104D01*
X160186528Y-64810467D01*
X160114083Y-64832006D01*
X160012633Y-64835055D01*
X159908157Y-64820778D01*
X159834125Y-64794688D01*
X159731772Y-64707785D01*
X159673591Y-64586816D01*
X159662069Y-64492308D01*
X159670862Y-64407062D01*
X159702680Y-64337476D01*
X159765684Y-64275672D01*
X159868031Y-64213772D01*
X160017882Y-64143897D01*
X160027012Y-64139948D01*
X160161997Y-64077588D01*
X160245294Y-64026446D01*
X160280997Y-63980488D01*
X160273203Y-63933683D01*
X160226007Y-63879998D01*
X160211894Y-63867644D01*
X160117359Y-63819741D01*
X160019406Y-63821758D01*
X159934097Y-63868724D01*
X159877496Y-63955669D01*
X159872237Y-63972734D01*
X159821023Y-64055504D01*
X159756037Y-64095372D01*
X159662069Y-64134882D01*
X159662069Y-64032658D01*
X159690653Y-63884072D01*
X159775495Y-63747784D01*
X159819645Y-63702191D01*
X159920005Y-63643674D01*
X160047635Y-63617184D01*
X160179944Y-63624360D01*
G36*
X160179944Y-63624360D02*
G01*
X160294343Y-63666842D01*
X160295652Y-63667658D01*
X160366403Y-63719730D01*
X160418636Y-63780584D01*
X160455371Y-63859887D01*
X160479634Y-63967309D01*
X160494445Y-64112517D01*
X160502829Y-64305179D01*
X160503564Y-64332628D01*
X160514120Y-64746521D01*
X160425291Y-64792456D01*
X160361018Y-64823498D01*
X160322210Y-64838206D01*
X160320415Y-64838391D01*
X160313700Y-64811250D01*
X160308365Y-64738041D01*
X160305083Y-64631081D01*
X160304368Y-64544469D01*
X160304351Y-64404162D01*
X160297937Y-64316051D01*
X160275580Y-64274025D01*
X160227732Y-64271975D01*
X160144849Y-64303790D01*
X160019713Y-64362272D01*
X159927697Y-64410845D01*
X159880371Y-64452986D01*
X159866458Y-64498916D01*
X159866437Y-64501189D01*
X159889395Y-64580311D01*
X159957370Y-64623055D01*
X160061398Y-64629246D01*
X160136330Y-64628172D01*
X160175839Y-64649753D01*
X160200478Y-64701591D01*
X160214659Y-64767632D01*
X160194223Y-64805104D01*
X160186528Y-64810467D01*
X160114083Y-64832006D01*
X160012633Y-64835055D01*
X159908157Y-64820778D01*
X159834125Y-64794688D01*
X159731772Y-64707785D01*
X159673591Y-64586816D01*
X159662069Y-64492308D01*
X159670862Y-64407062D01*
X159702680Y-64337476D01*
X159765684Y-64275672D01*
X159868031Y-64213772D01*
X160017882Y-64143897D01*
X160027012Y-64139948D01*
X160161997Y-64077588D01*
X160245294Y-64026446D01*
X160280997Y-63980488D01*
X160273203Y-63933683D01*
X160226007Y-63879998D01*
X160211894Y-63867644D01*
X160117359Y-63819741D01*
X160019406Y-63821758D01*
X159934097Y-63868724D01*
X159877496Y-63955669D01*
X159872237Y-63972734D01*
X159821023Y-64055504D01*
X159756037Y-64095372D01*
X159662069Y-64134882D01*
X159662069Y-64032658D01*
X159690653Y-63884072D01*
X159775495Y-63747784D01*
X159819645Y-63702191D01*
X159920005Y-63643674D01*
X160047635Y-63617184D01*
X160179944Y-63624360D01*
G37*
X155271900Y-63561903D02*
X155383450Y-63617522D01*
X155481908Y-63719931D01*
X155509023Y-63757864D01*
X155538562Y-63807500D01*
X155557728Y-63861412D01*
X155568693Y-63933364D01*
X155573629Y-64037122D01*
X155574713Y-64174101D01*
X155569818Y-64361815D01*
X155552804Y-64502758D01*
X155520177Y-64607908D01*
X155468442Y-64688243D01*
X155394104Y-64754741D01*
X155388642Y-64758678D01*
X155315380Y-64798953D01*
X155227160Y-64818880D01*
X155114962Y-64823793D01*
X154932567Y-64823793D01*
X154932491Y-65000857D01*
X154930793Y-65099470D01*
X154920450Y-65157314D01*
X154893422Y-65192006D01*
X154841668Y-65221164D01*
X154829239Y-65227121D01*
X154771077Y-65255039D01*
X154726044Y-65272672D01*
X154692559Y-65274194D01*
X154669038Y-65253781D01*
X154653900Y-65205607D01*
X154645563Y-65123846D01*
X154642444Y-65002672D01*
X154642960Y-64836260D01*
X154645529Y-64618785D01*
X154646332Y-64553736D01*
X154649222Y-64329502D01*
X154651812Y-64182821D01*
X154932414Y-64182821D01*
X154933991Y-64307326D01*
X154941000Y-64388787D01*
X154956858Y-64442515D01*
X154984981Y-64483823D01*
X155004075Y-64503971D01*
X155082135Y-64562921D01*
X155151247Y-64567720D01*
X155222560Y-64519038D01*
X155224368Y-64517241D01*
X155253383Y-64479618D01*
X155271033Y-64428484D01*
X155279936Y-64349738D01*
X155282709Y-64229276D01*
X155282759Y-64202588D01*
X155276058Y-64036583D01*
X155254248Y-63921505D01*
X155214765Y-63851254D01*
X155155044Y-63819729D01*
X155120528Y-63816552D01*
X155038611Y-63831460D01*
X154982421Y-63880548D01*
X154948598Y-63970362D01*
X154933780Y-64107445D01*
X154932414Y-64182821D01*
X154651812Y-64182821D01*
X154652287Y-64155952D01*
X154656247Y-64025382D01*
X154661826Y-63930087D01*
X154669746Y-63862364D01*
X154680731Y-63814507D01*
X154695501Y-63778813D01*
X154714782Y-63747578D01*
X154723049Y-63735824D01*
X154832712Y-63624797D01*
X154971365Y-63561847D01*
X155131754Y-63544297D01*
X155271900Y-63561903D01*
G36*
X155271900Y-63561903D02*
G01*
X155383450Y-63617522D01*
X155481908Y-63719931D01*
X155509023Y-63757864D01*
X155538562Y-63807500D01*
X155557728Y-63861412D01*
X155568693Y-63933364D01*
X155573629Y-64037122D01*
X155574713Y-64174101D01*
X155569818Y-64361815D01*
X155552804Y-64502758D01*
X155520177Y-64607908D01*
X155468442Y-64688243D01*
X155394104Y-64754741D01*
X155388642Y-64758678D01*
X155315380Y-64798953D01*
X155227160Y-64818880D01*
X155114962Y-64823793D01*
X154932567Y-64823793D01*
X154932491Y-65000857D01*
X154930793Y-65099470D01*
X154920450Y-65157314D01*
X154893422Y-65192006D01*
X154841668Y-65221164D01*
X154829239Y-65227121D01*
X154771077Y-65255039D01*
X154726044Y-65272672D01*
X154692559Y-65274194D01*
X154669038Y-65253781D01*
X154653900Y-65205607D01*
X154645563Y-65123846D01*
X154642444Y-65002672D01*
X154642960Y-64836260D01*
X154645529Y-64618785D01*
X154646332Y-64553736D01*
X154649222Y-64329502D01*
X154651812Y-64182821D01*
X154932414Y-64182821D01*
X154933991Y-64307326D01*
X154941000Y-64388787D01*
X154956858Y-64442515D01*
X154984981Y-64483823D01*
X155004075Y-64503971D01*
X155082135Y-64562921D01*
X155151247Y-64567720D01*
X155222560Y-64519038D01*
X155224368Y-64517241D01*
X155253383Y-64479618D01*
X155271033Y-64428484D01*
X155279936Y-64349738D01*
X155282709Y-64229276D01*
X155282759Y-64202588D01*
X155276058Y-64036583D01*
X155254248Y-63921505D01*
X155214765Y-63851254D01*
X155155044Y-63819729D01*
X155120528Y-63816552D01*
X155038611Y-63831460D01*
X154982421Y-63880548D01*
X154948598Y-63970362D01*
X154933780Y-64107445D01*
X154932414Y-64182821D01*
X154651812Y-64182821D01*
X154652287Y-64155952D01*
X154656247Y-64025382D01*
X154661826Y-63930087D01*
X154669746Y-63862364D01*
X154680731Y-63814507D01*
X154695501Y-63778813D01*
X154714782Y-63747578D01*
X154723049Y-63735824D01*
X154832712Y-63624797D01*
X154971365Y-63561847D01*
X155131754Y-63544297D01*
X155271900Y-63561903D01*
G37*
X164414406Y-63635156D02*
X164498469Y-63673393D01*
X164564450Y-63719726D01*
X164612794Y-63771532D01*
X164646172Y-63838363D01*
X164667253Y-63929769D01*
X164678707Y-64055301D01*
X164683203Y-64224508D01*
X164683678Y-64335933D01*
X164683678Y-64770627D01*
X164609316Y-64804509D01*
X164550746Y-64829272D01*
X164521730Y-64838391D01*
X164516179Y-64811257D01*
X164511775Y-64738094D01*
X164509078Y-64631263D01*
X164508506Y-64546437D01*
X164506046Y-64423887D01*
X164499412Y-64326668D01*
X164489726Y-64267134D01*
X164482032Y-64254483D01*
X164430311Y-64267402D01*
X164349117Y-64300539D01*
X164255102Y-64345461D01*
X164164917Y-64393735D01*
X164095215Y-64436928D01*
X164062648Y-64466608D01*
X164062519Y-64466929D01*
X164065320Y-64521857D01*
X164090439Y-64574292D01*
X164134541Y-64616881D01*
X164198909Y-64631126D01*
X164253921Y-64629466D01*
X164331835Y-64628245D01*
X164372732Y-64646498D01*
X164397295Y-64694726D01*
X164400392Y-64703820D01*
X164411040Y-64772598D01*
X164382565Y-64814360D01*
X164308344Y-64834263D01*
X164228168Y-64837944D01*
X164083890Y-64810658D01*
X164009203Y-64771690D01*
X163916963Y-64680148D01*
X163868043Y-64567782D01*
X163863654Y-64449051D01*
X163905001Y-64338411D01*
X163967197Y-64269080D01*
X164029294Y-64230265D01*
X164126895Y-64181125D01*
X164240632Y-64131292D01*
X164259590Y-64123677D01*
X164384521Y-64068545D01*
X164456539Y-64019954D01*
X164479700Y-63971647D01*
X164458064Y-63917370D01*
X164420920Y-63874943D01*
X164333127Y-63822702D01*
X164236530Y-63818784D01*
X164147944Y-63859041D01*
X164084186Y-63939326D01*
X164075817Y-63960040D01*
X164027096Y-64036225D01*
X163955965Y-64092785D01*
X163866207Y-64139201D01*
X163866207Y-64007584D01*
X163871490Y-63927168D01*
X163894142Y-63863786D01*
X163944367Y-63796163D01*
X163992582Y-63744076D01*
X164067554Y-63670322D01*
X164125806Y-63630702D01*
X164188372Y-63614810D01*
X164259193Y-63612184D01*
X164414406Y-63635156D01*
G36*
X164414406Y-63635156D02*
G01*
X164498469Y-63673393D01*
X164564450Y-63719726D01*
X164612794Y-63771532D01*
X164646172Y-63838363D01*
X164667253Y-63929769D01*
X164678707Y-64055301D01*
X164683203Y-64224508D01*
X164683678Y-64335933D01*
X164683678Y-64770627D01*
X164609316Y-64804509D01*
X164550746Y-64829272D01*
X164521730Y-64838391D01*
X164516179Y-64811257D01*
X164511775Y-64738094D01*
X164509078Y-64631263D01*
X164508506Y-64546437D01*
X164506046Y-64423887D01*
X164499412Y-64326668D01*
X164489726Y-64267134D01*
X164482032Y-64254483D01*
X164430311Y-64267402D01*
X164349117Y-64300539D01*
X164255102Y-64345461D01*
X164164917Y-64393735D01*
X164095215Y-64436928D01*
X164062648Y-64466608D01*
X164062519Y-64466929D01*
X164065320Y-64521857D01*
X164090439Y-64574292D01*
X164134541Y-64616881D01*
X164198909Y-64631126D01*
X164253921Y-64629466D01*
X164331835Y-64628245D01*
X164372732Y-64646498D01*
X164397295Y-64694726D01*
X164400392Y-64703820D01*
X164411040Y-64772598D01*
X164382565Y-64814360D01*
X164308344Y-64834263D01*
X164228168Y-64837944D01*
X164083890Y-64810658D01*
X164009203Y-64771690D01*
X163916963Y-64680148D01*
X163868043Y-64567782D01*
X163863654Y-64449051D01*
X163905001Y-64338411D01*
X163967197Y-64269080D01*
X164029294Y-64230265D01*
X164126895Y-64181125D01*
X164240632Y-64131292D01*
X164259590Y-64123677D01*
X164384521Y-64068545D01*
X164456539Y-64019954D01*
X164479700Y-63971647D01*
X164458064Y-63917370D01*
X164420920Y-63874943D01*
X164333127Y-63822702D01*
X164236530Y-63818784D01*
X164147944Y-63859041D01*
X164084186Y-63939326D01*
X164075817Y-63960040D01*
X164027096Y-64036225D01*
X163955965Y-64092785D01*
X163866207Y-64139201D01*
X163866207Y-64007584D01*
X163871490Y-63927168D01*
X163894142Y-63863786D01*
X163944367Y-63796163D01*
X163992582Y-63744076D01*
X164067554Y-63670322D01*
X164125806Y-63630702D01*
X164188372Y-63614810D01*
X164259193Y-63612184D01*
X164414406Y-63635156D01*
G37*
X160309014Y-54152998D02*
X160467006Y-54153863D01*
X160581347Y-54156205D01*
X160659407Y-54160762D01*
X160708554Y-54168270D01*
X160736159Y-54179466D01*
X160749592Y-54195088D01*
X160756221Y-54215873D01*
X160756865Y-54218563D01*
X160766935Y-54267113D01*
X160785575Y-54362905D01*
X160810845Y-54495743D01*
X160840807Y-54655431D01*
X160873522Y-54831774D01*
X160874664Y-54837967D01*
X160907433Y-55010782D01*
X160938093Y-55163469D01*
X160964664Y-55286871D01*
X160985167Y-55371831D01*
X160997626Y-55409190D01*
X160998220Y-55409852D01*
X161034919Y-55428095D01*
X161110586Y-55458497D01*
X161208878Y-55494493D01*
X161209425Y-55494685D01*
X161333233Y-55541222D01*
X161479196Y-55600504D01*
X161616781Y-55660109D01*
X161623293Y-55663056D01*
X161847390Y-55764765D01*
X162343619Y-55425897D01*
X162495846Y-55322592D01*
X162633741Y-55230237D01*
X162749315Y-55154084D01*
X162834579Y-55099385D01*
X162881544Y-55071393D01*
X162886004Y-55069317D01*
X162920134Y-55078560D01*
X162983881Y-55123156D01*
X163079731Y-55205209D01*
X163210169Y-55326821D01*
X163343328Y-55456205D01*
X163471694Y-55583702D01*
X163586581Y-55700046D01*
X163681073Y-55798052D01*
X163748253Y-55870536D01*
X163781206Y-55910313D01*
X163782432Y-55912361D01*
X163786074Y-55939656D01*
X163772350Y-55984234D01*
X163737869Y-56052112D01*
X163679239Y-56149311D01*
X163593070Y-56281851D01*
X163478200Y-56452476D01*
X163376254Y-56602655D01*
X163285123Y-56737350D01*
X163210073Y-56848740D01*
X163156369Y-56929005D01*
X163129280Y-56970325D01*
X163127574Y-56973130D01*
X163130882Y-57012721D01*
X163155953Y-57089669D01*
X163197798Y-57189432D01*
X163212712Y-57221291D01*
X163277786Y-57363226D01*
X163347212Y-57524273D01*
X163403609Y-57663621D01*
X163444247Y-57767044D01*
X163476526Y-57845642D01*
X163495178Y-57886720D01*
X163497497Y-57889885D01*
X163531803Y-57895128D01*
X163612669Y-57909494D01*
X163729343Y-57930937D01*
X163871075Y-57957413D01*
X164027110Y-57986877D01*
X164186698Y-58017283D01*
X164339085Y-58046588D01*
X164473521Y-58072745D01*
X164579252Y-58093710D01*
X164645526Y-58107439D01*
X164661782Y-58111320D01*
X164678573Y-58120900D01*
X164691249Y-58142536D01*
X164700378Y-58183531D01*
X164706531Y-58251189D01*
X164710280Y-58352812D01*
X164712192Y-58495703D01*
X164712840Y-58687165D01*
X164712874Y-58765645D01*
X164712874Y-59403906D01*
X164559598Y-59434160D01*
X164474322Y-59450564D01*
X164347070Y-59474509D01*
X164193315Y-59503107D01*
X164028534Y-59533467D01*
X163982989Y-59541806D01*
X163830932Y-59571370D01*
X163698468Y-59600442D01*
X163596714Y-59626329D01*
X163536788Y-59646337D01*
X163526805Y-59652301D01*
X163502293Y-59694534D01*
X163467148Y-59776370D01*
X163428173Y-59881683D01*
X163420442Y-59904368D01*
X163369360Y-60045018D01*
X163305954Y-60203714D01*
X163243904Y-60346225D01*
X163243598Y-60346886D01*
X163140267Y-60570440D01*
X163819961Y-61570232D01*
X163383621Y-62007300D01*
X163251649Y-62137381D01*
X163131279Y-62252048D01*
X163029273Y-62345181D01*
X162952391Y-62410658D01*
X162907393Y-62442357D01*
X162900938Y-62444368D01*
X162863040Y-62428529D01*
X162785708Y-62384496D01*
X162677389Y-62317490D01*
X162546532Y-62232734D01*
X162405052Y-62137816D01*
X162261461Y-62040998D01*
X162133435Y-61956751D01*
X162029105Y-61890258D01*
X161956600Y-61846702D01*
X161924158Y-61831264D01*
X161884576Y-61844328D01*
X161809519Y-61878750D01*
X161714468Y-61927380D01*
X161704392Y-61932785D01*
X161576391Y-61996980D01*
X161488618Y-62028463D01*
X161434028Y-62028798D01*
X161405575Y-61999548D01*
X161405410Y-61999138D01*
X161391188Y-61964498D01*
X161357269Y-61882269D01*
X161306284Y-61758814D01*
X161240862Y-61600498D01*
X161163634Y-61413686D01*
X161077229Y-61204742D01*
X160993551Y-61002446D01*
X160901588Y-60779200D01*
X160817150Y-60572392D01*
X160742769Y-60388362D01*
X160680974Y-60233451D01*
X160634297Y-60113996D01*
X160605268Y-60036339D01*
X160596322Y-60007356D01*
X160618756Y-59974110D01*
X160677439Y-59921123D01*
X160755689Y-59862704D01*
X160978534Y-59677952D01*
X161152718Y-59466182D01*
X161276154Y-59231856D01*
X161346754Y-58979434D01*
X161362431Y-58713377D01*
X161351036Y-58590575D01*
X161288950Y-58335793D01*
X161182023Y-58110801D01*
X161036889Y-57917817D01*
X160860178Y-57759061D01*
X160658522Y-57636750D01*
X160438554Y-57553105D01*
X160206906Y-57510344D01*
X159970209Y-57510687D01*
X159735095Y-57556352D01*
X159508196Y-57649559D01*
X159296144Y-57792527D01*
X159207636Y-57873383D01*
X159037889Y-58081007D01*
X158919699Y-58307895D01*
X158852278Y-58547433D01*
X158834840Y-58793007D01*
X158866598Y-59038003D01*
X158946765Y-59275808D01*
X159074555Y-59499807D01*
X159249180Y-59703387D01*
X159444312Y-59862704D01*
X159525591Y-59923602D01*
X159583009Y-59976015D01*
X159603678Y-60007406D01*
X159592856Y-60041639D01*
X159562077Y-60123419D01*
X159513874Y-60246407D01*
X159450778Y-60404263D01*
X159375322Y-60590649D01*
X159290038Y-60799226D01*
X159206219Y-61002496D01*
X159113745Y-61225933D01*
X159028089Y-61432984D01*
X158951882Y-61617286D01*
X158887753Y-61772475D01*
X158838332Y-61892188D01*
X158806248Y-61970061D01*
X158794359Y-61999138D01*
X158766274Y-62028677D01*
X158711949Y-62028591D01*
X158624395Y-61997326D01*
X158496619Y-61933329D01*
X158495608Y-61932785D01*
X158399402Y-61883121D01*
X158321631Y-61846945D01*
X158277777Y-61831408D01*
X158275842Y-61831264D01*
X158242829Y-61847024D01*
X158169946Y-61890850D01*
X158065322Y-61957557D01*
X157937090Y-62041964D01*
X157794948Y-62137816D01*
X157650233Y-62234867D01*
X157519804Y-62319270D01*
X157412110Y-62385801D01*
X157335598Y-62429238D01*
X157299062Y-62444368D01*
X157265418Y-62424482D01*
X157197776Y-62368903D01*
X157102893Y-62283754D01*
X156987530Y-62175153D01*
X156858445Y-62049221D01*
X156816229Y-62007149D01*
X156379739Y-61569931D01*
X156711977Y-61082340D01*
X156812946Y-60932605D01*
X156901562Y-60798220D01*
X156972854Y-60686969D01*
X157021850Y-60606639D01*
X157043578Y-60565014D01*
X157044215Y-60562053D01*
X157032760Y-60522818D01*
X157001949Y-60443895D01*
X156957116Y-60338509D01*
X156925647Y-60267954D01*
X156866808Y-60132876D01*
X156811396Y-59996409D01*
X156768436Y-59881103D01*
X156756766Y-59845977D01*
X156723611Y-59752174D01*
X156691201Y-59679694D01*
X156673399Y-59652301D01*
X156634114Y-59635536D01*
X156548374Y-59611770D01*
X156427303Y-59583697D01*
X156282027Y-59554009D01*
X156217012Y-59541806D01*
X156051913Y-59511468D01*
X155893552Y-59482093D01*
X155757404Y-59456569D01*
X155658943Y-59437785D01*
X155640402Y-59434160D01*
X155487127Y-59403906D01*
X155487127Y-58765645D01*
X155487471Y-58555770D01*
X155488884Y-58396980D01*
X155491936Y-58281973D01*
X155497197Y-58203446D01*
X155505237Y-58154096D01*
X155516627Y-58126619D01*
X155531937Y-58113713D01*
X155538218Y-58111320D01*
X155576104Y-58102833D01*
X155659805Y-58085900D01*
X155778567Y-58062566D01*
X155921639Y-58034875D01*
X156078268Y-58004873D01*
X156237703Y-57974604D01*
X156389191Y-57946115D01*
X156521981Y-57921449D01*
X156625319Y-57902651D01*
X156688455Y-57891767D01*
X156702503Y-57889885D01*
X156715230Y-57864704D01*
X156743400Y-57797622D01*
X156781748Y-57701333D01*
X156796391Y-57663621D01*
X156855452Y-57517921D01*
X156925000Y-57356951D01*
X156987288Y-57221291D01*
X157033121Y-57117561D01*
X157063613Y-57032326D01*
X157073792Y-56980126D01*
X157072169Y-56973130D01*
X157050657Y-56940102D01*
X157001535Y-56866643D01*
X156930077Y-56760577D01*
X156841555Y-56629726D01*
X156741241Y-56481912D01*
X156721406Y-56452734D01*
X156605012Y-56279863D01*
X156519452Y-56148226D01*
X156461316Y-56051761D01*
X156427192Y-55984408D01*
X156413669Y-55940106D01*
X156417336Y-55912794D01*
X156417430Y-55912620D01*
X156446293Y-55876746D01*
X156510133Y-55807391D01*
X156602031Y-55711745D01*
X156715067Y-55596999D01*
X156842321Y-55470341D01*
X156856672Y-55456205D01*
X157017043Y-55300903D01*
X157140805Y-55186870D01*
X157230445Y-55112002D01*
X157288448Y-55074196D01*
X157313996Y-55069317D01*
X157351282Y-55090603D01*
X157428657Y-55139773D01*
X157538133Y-55211575D01*
X157671720Y-55300755D01*
X157821430Y-55402063D01*
X157856382Y-55425897D01*
X158352610Y-55764765D01*
X158576707Y-55663056D01*
X158712989Y-55603783D01*
X158859276Y-55544170D01*
X158985035Y-55496640D01*
X158990575Y-55494685D01*
X159088943Y-55458677D01*
X159164771Y-55428229D01*
X159201718Y-55409905D01*
X159201780Y-55409852D01*
X159213504Y-55376729D01*
X159233432Y-55295267D01*
X159259587Y-55174625D01*
X159289990Y-55023959D01*
X159322663Y-54852428D01*
X159325336Y-54837967D01*
X159358110Y-54661235D01*
X159388198Y-54500810D01*
X159413661Y-54366888D01*
X159432559Y-54269663D01*
X159442953Y-54219332D01*
X159443135Y-54218563D01*
X159449461Y-54197153D01*
X159461761Y-54180988D01*
X159487406Y-54169331D01*
X159533765Y-54161445D01*
X159608208Y-54156593D01*
X159718105Y-54154039D01*
X159870825Y-54153045D01*
X160073738Y-54152874D01*
X160100000Y-54152874D01*
X160309014Y-54152998D01*
G36*
X160309014Y-54152998D02*
G01*
X160467006Y-54153863D01*
X160581347Y-54156205D01*
X160659407Y-54160762D01*
X160708554Y-54168270D01*
X160736159Y-54179466D01*
X160749592Y-54195088D01*
X160756221Y-54215873D01*
X160756865Y-54218563D01*
X160766935Y-54267113D01*
X160785575Y-54362905D01*
X160810845Y-54495743D01*
X160840807Y-54655431D01*
X160873522Y-54831774D01*
X160874664Y-54837967D01*
X160907433Y-55010782D01*
X160938093Y-55163469D01*
X160964664Y-55286871D01*
X160985167Y-55371831D01*
X160997626Y-55409190D01*
X160998220Y-55409852D01*
X161034919Y-55428095D01*
X161110586Y-55458497D01*
X161208878Y-55494493D01*
X161209425Y-55494685D01*
X161333233Y-55541222D01*
X161479196Y-55600504D01*
X161616781Y-55660109D01*
X161623293Y-55663056D01*
X161847390Y-55764765D01*
X162343619Y-55425897D01*
X162495846Y-55322592D01*
X162633741Y-55230237D01*
X162749315Y-55154084D01*
X162834579Y-55099385D01*
X162881544Y-55071393D01*
X162886004Y-55069317D01*
X162920134Y-55078560D01*
X162983881Y-55123156D01*
X163079731Y-55205209D01*
X163210169Y-55326821D01*
X163343328Y-55456205D01*
X163471694Y-55583702D01*
X163586581Y-55700046D01*
X163681073Y-55798052D01*
X163748253Y-55870536D01*
X163781206Y-55910313D01*
X163782432Y-55912361D01*
X163786074Y-55939656D01*
X163772350Y-55984234D01*
X163737869Y-56052112D01*
X163679239Y-56149311D01*
X163593070Y-56281851D01*
X163478200Y-56452476D01*
X163376254Y-56602655D01*
X163285123Y-56737350D01*
X163210073Y-56848740D01*
X163156369Y-56929005D01*
X163129280Y-56970325D01*
X163127574Y-56973130D01*
X163130882Y-57012721D01*
X163155953Y-57089669D01*
X163197798Y-57189432D01*
X163212712Y-57221291D01*
X163277786Y-57363226D01*
X163347212Y-57524273D01*
X163403609Y-57663621D01*
X163444247Y-57767044D01*
X163476526Y-57845642D01*
X163495178Y-57886720D01*
X163497497Y-57889885D01*
X163531803Y-57895128D01*
X163612669Y-57909494D01*
X163729343Y-57930937D01*
X163871075Y-57957413D01*
X164027110Y-57986877D01*
X164186698Y-58017283D01*
X164339085Y-58046588D01*
X164473521Y-58072745D01*
X164579252Y-58093710D01*
X164645526Y-58107439D01*
X164661782Y-58111320D01*
X164678573Y-58120900D01*
X164691249Y-58142536D01*
X164700378Y-58183531D01*
X164706531Y-58251189D01*
X164710280Y-58352812D01*
X164712192Y-58495703D01*
X164712840Y-58687165D01*
X164712874Y-58765645D01*
X164712874Y-59403906D01*
X164559598Y-59434160D01*
X164474322Y-59450564D01*
X164347070Y-59474509D01*
X164193315Y-59503107D01*
X164028534Y-59533467D01*
X163982989Y-59541806D01*
X163830932Y-59571370D01*
X163698468Y-59600442D01*
X163596714Y-59626329D01*
X163536788Y-59646337D01*
X163526805Y-59652301D01*
X163502293Y-59694534D01*
X163467148Y-59776370D01*
X163428173Y-59881683D01*
X163420442Y-59904368D01*
X163369360Y-60045018D01*
X163305954Y-60203714D01*
X163243904Y-60346225D01*
X163243598Y-60346886D01*
X163140267Y-60570440D01*
X163819961Y-61570232D01*
X163383621Y-62007300D01*
X163251649Y-62137381D01*
X163131279Y-62252048D01*
X163029273Y-62345181D01*
X162952391Y-62410658D01*
X162907393Y-62442357D01*
X162900938Y-62444368D01*
X162863040Y-62428529D01*
X162785708Y-62384496D01*
X162677389Y-62317490D01*
X162546532Y-62232734D01*
X162405052Y-62137816D01*
X162261461Y-62040998D01*
X162133435Y-61956751D01*
X162029105Y-61890258D01*
X161956600Y-61846702D01*
X161924158Y-61831264D01*
X161884576Y-61844328D01*
X161809519Y-61878750D01*
X161714468Y-61927380D01*
X161704392Y-61932785D01*
X161576391Y-61996980D01*
X161488618Y-62028463D01*
X161434028Y-62028798D01*
X161405575Y-61999548D01*
X161405410Y-61999138D01*
X161391188Y-61964498D01*
X161357269Y-61882269D01*
X161306284Y-61758814D01*
X161240862Y-61600498D01*
X161163634Y-61413686D01*
X161077229Y-61204742D01*
X160993551Y-61002446D01*
X160901588Y-60779200D01*
X160817150Y-60572392D01*
X160742769Y-60388362D01*
X160680974Y-60233451D01*
X160634297Y-60113996D01*
X160605268Y-60036339D01*
X160596322Y-60007356D01*
X160618756Y-59974110D01*
X160677439Y-59921123D01*
X160755689Y-59862704D01*
X160978534Y-59677952D01*
X161152718Y-59466182D01*
X161276154Y-59231856D01*
X161346754Y-58979434D01*
X161362431Y-58713377D01*
X161351036Y-58590575D01*
X161288950Y-58335793D01*
X161182023Y-58110801D01*
X161036889Y-57917817D01*
X160860178Y-57759061D01*
X160658522Y-57636750D01*
X160438554Y-57553105D01*
X160206906Y-57510344D01*
X159970209Y-57510687D01*
X159735095Y-57556352D01*
X159508196Y-57649559D01*
X159296144Y-57792527D01*
X159207636Y-57873383D01*
X159037889Y-58081007D01*
X158919699Y-58307895D01*
X158852278Y-58547433D01*
X158834840Y-58793007D01*
X158866598Y-59038003D01*
X158946765Y-59275808D01*
X159074555Y-59499807D01*
X159249180Y-59703387D01*
X159444312Y-59862704D01*
X159525591Y-59923602D01*
X159583009Y-59976015D01*
X159603678Y-60007406D01*
X159592856Y-60041639D01*
X159562077Y-60123419D01*
X159513874Y-60246407D01*
X159450778Y-60404263D01*
X159375322Y-60590649D01*
X159290038Y-60799226D01*
X159206219Y-61002496D01*
X159113745Y-61225933D01*
X159028089Y-61432984D01*
X158951882Y-61617286D01*
X158887753Y-61772475D01*
X158838332Y-61892188D01*
X158806248Y-61970061D01*
X158794359Y-61999138D01*
X158766274Y-62028677D01*
X158711949Y-62028591D01*
X158624395Y-61997326D01*
X158496619Y-61933329D01*
X158495608Y-61932785D01*
X158399402Y-61883121D01*
X158321631Y-61846945D01*
X158277777Y-61831408D01*
X158275842Y-61831264D01*
X158242829Y-61847024D01*
X158169946Y-61890850D01*
X158065322Y-61957557D01*
X157937090Y-62041964D01*
X157794948Y-62137816D01*
X157650233Y-62234867D01*
X157519804Y-62319270D01*
X157412110Y-62385801D01*
X157335598Y-62429238D01*
X157299062Y-62444368D01*
X157265418Y-62424482D01*
X157197776Y-62368903D01*
X157102893Y-62283754D01*
X156987530Y-62175153D01*
X156858445Y-62049221D01*
X156816229Y-62007149D01*
X156379739Y-61569931D01*
X156711977Y-61082340D01*
X156812946Y-60932605D01*
X156901562Y-60798220D01*
X156972854Y-60686969D01*
X157021850Y-60606639D01*
X157043578Y-60565014D01*
X157044215Y-60562053D01*
X157032760Y-60522818D01*
X157001949Y-60443895D01*
X156957116Y-60338509D01*
X156925647Y-60267954D01*
X156866808Y-60132876D01*
X156811396Y-59996409D01*
X156768436Y-59881103D01*
X156756766Y-59845977D01*
X156723611Y-59752174D01*
X156691201Y-59679694D01*
X156673399Y-59652301D01*
X156634114Y-59635536D01*
X156548374Y-59611770D01*
X156427303Y-59583697D01*
X156282027Y-59554009D01*
X156217012Y-59541806D01*
X156051913Y-59511468D01*
X155893552Y-59482093D01*
X155757404Y-59456569D01*
X155658943Y-59437785D01*
X155640402Y-59434160D01*
X155487127Y-59403906D01*
X155487127Y-58765645D01*
X155487471Y-58555770D01*
X155488884Y-58396980D01*
X155491936Y-58281973D01*
X155497197Y-58203446D01*
X155505237Y-58154096D01*
X155516627Y-58126619D01*
X155531937Y-58113713D01*
X155538218Y-58111320D01*
X155576104Y-58102833D01*
X155659805Y-58085900D01*
X155778567Y-58062566D01*
X155921639Y-58034875D01*
X156078268Y-58004873D01*
X156237703Y-57974604D01*
X156389191Y-57946115D01*
X156521981Y-57921449D01*
X156625319Y-57902651D01*
X156688455Y-57891767D01*
X156702503Y-57889885D01*
X156715230Y-57864704D01*
X156743400Y-57797622D01*
X156781748Y-57701333D01*
X156796391Y-57663621D01*
X156855452Y-57517921D01*
X156925000Y-57356951D01*
X156987288Y-57221291D01*
X157033121Y-57117561D01*
X157063613Y-57032326D01*
X157073792Y-56980126D01*
X157072169Y-56973130D01*
X157050657Y-56940102D01*
X157001535Y-56866643D01*
X156930077Y-56760577D01*
X156841555Y-56629726D01*
X156741241Y-56481912D01*
X156721406Y-56452734D01*
X156605012Y-56279863D01*
X156519452Y-56148226D01*
X156461316Y-56051761D01*
X156427192Y-55984408D01*
X156413669Y-55940106D01*
X156417336Y-55912794D01*
X156417430Y-55912620D01*
X156446293Y-55876746D01*
X156510133Y-55807391D01*
X156602031Y-55711745D01*
X156715067Y-55596999D01*
X156842321Y-55470341D01*
X156856672Y-55456205D01*
X157017043Y-55300903D01*
X157140805Y-55186870D01*
X157230445Y-55112002D01*
X157288448Y-55074196D01*
X157313996Y-55069317D01*
X157351282Y-55090603D01*
X157428657Y-55139773D01*
X157538133Y-55211575D01*
X157671720Y-55300755D01*
X157821430Y-55402063D01*
X157856382Y-55425897D01*
X158352610Y-55764765D01*
X158576707Y-55663056D01*
X158712989Y-55603783D01*
X158859276Y-55544170D01*
X158985035Y-55496640D01*
X158990575Y-55494685D01*
X159088943Y-55458677D01*
X159164771Y-55428229D01*
X159201718Y-55409905D01*
X159201780Y-55409852D01*
X159213504Y-55376729D01*
X159233432Y-55295267D01*
X159259587Y-55174625D01*
X159289990Y-55023959D01*
X159322663Y-54852428D01*
X159325336Y-54837967D01*
X159358110Y-54661235D01*
X159388198Y-54500810D01*
X159413661Y-54366888D01*
X159432559Y-54269663D01*
X159442953Y-54219332D01*
X159443135Y-54218563D01*
X159449461Y-54197153D01*
X159461761Y-54180988D01*
X159487406Y-54169331D01*
X159533765Y-54161445D01*
X159608208Y-54156593D01*
X159718105Y-54154039D01*
X159870825Y-54153045D01*
X160073738Y-54152874D01*
X160100000Y-54152874D01*
X160309014Y-54152998D01*
G37*
D14*
%TO.C,U3*%
X161180000Y-100270000D02*
X161180000Y-110550000D01*
X161180000Y-110550000D02*
X162830000Y-110550000D01*
X164830000Y-110550000D02*
X166480000Y-110550000D01*
X166480000Y-100270000D02*
X161180000Y-100270000D01*
X166480000Y-110550000D02*
X166480000Y-100270000D01*
X162830000Y-110550000D02*
G75*
G02*
X164830000Y-110550000I1000000J0D01*
G01*
%TO.C,SW1*%
X155750000Y-128750000D02*
X155750000Y-133250000D01*
X158250000Y-134500000D02*
X159750000Y-134500000D01*
X159750000Y-127500000D02*
X158250000Y-127500000D01*
X162250000Y-133250000D02*
X162250000Y-128750000D01*
%TO.C,J7*%
X161230000Y-95190000D02*
X162560000Y-95190000D01*
X161230000Y-96520000D02*
X161230000Y-95190000D01*
X161230000Y-97790000D02*
X161230000Y-97850000D01*
X161230000Y-97790000D02*
X163830000Y-97790000D01*
X161230000Y-97850000D02*
X166430000Y-97850000D01*
X163830000Y-95190000D02*
X166430000Y-95190000D01*
X163830000Y-97790000D02*
X163830000Y-95190000D01*
X166430000Y-95190000D02*
X166430000Y-97850000D01*
%TO.C,U5*%
D10*
X199390000Y-49530000D02*
X173990000Y-49530000D01*
X173990000Y-72390000D01*
X199390000Y-72390000D01*
X199390000Y-49530000D01*
X201930000Y-52070000D02*
X176530000Y-52070000D01*
X176530000Y-69850000D01*
X201930000Y-69850000D01*
X201930000Y-52070000D01*
D14*
%TO.C,R1*%
X157480000Y-85190000D02*
X157480000Y-85260000D01*
X158850000Y-83820000D02*
G75*
G02*
X156110000Y-83820000I-1370000J0D01*
G01*
X156110000Y-83820000D02*
G75*
G02*
X158850000Y-83820000I1370000J0D01*
G01*
%TO.C,R4*%
X156310000Y-96520000D02*
X156380000Y-96520000D01*
X156310000Y-96520000D02*
G75*
G02*
X153570000Y-96520000I-1370000J0D01*
G01*
X153570000Y-96520000D02*
G75*
G02*
X156310000Y-96520000I1370000J0D01*
G01*
%TO.C,R2*%
X157480000Y-105510000D02*
X157480000Y-105580000D01*
X158850000Y-104140000D02*
G75*
G02*
X156110000Y-104140000I-1370000J0D01*
G01*
X156110000Y-104140000D02*
G75*
G02*
X158850000Y-104140000I1370000J0D01*
G01*
%TD*%
M02*
