M48
; DRILL file {KiCad 8.0.9-1.fc40} date 2025-07-10T00:17:05+0200
; FORMAT={-:-/ absolute / inch / decimal}
; #@! TF.CreationDate,2025-07-10T00:17:05+02:00
; #@! TF.GenerationSoftware,Kicad,Pcbnew,8.0.9-1.fc40
; #@! TF.FileFunction,Plated,1,2,PTH
FMAT,2
INCH
; #@! TA.AperFunction,Plated,PTH,ViaDrill
T1C0.0118
; #@! TA.AperFunction,Plated,PTH,ComponentDrill
T2C0.0315
; #@! TA.AperFunction,Plated,PTH,ComponentDrill
T3C0.0394
; #@! TA.AperFunction,Plated,PTH,ComponentDrill
T4C0.0433
; #@! TA.AperFunction,Plated,PTH,ComponentDrill
T5C0.1260
%
G90
G05
T1
X6.265Y-3.87
X6.395Y-3.87
X6.395Y-3.96
X6.81Y-3.68
X6.81Y-3.77
X7.5Y-2.8898
X7.5Y-3.57
X7.5Y-3.63
T2
X6.1Y-3.0
X6.1Y-3.8
X6.2Y-3.0
X6.2Y-3.3
X6.2Y-3.4
X6.2Y-3.8
X6.2Y-4.1
X6.2Y-4.2
X6.3Y-3.2
X6.3Y-3.3
X6.3Y-3.4
X6.3Y-3.5
X6.3Y-4.0
X6.3Y-4.1
X6.3Y-4.2
X6.3Y-4.3
X6.6Y-3.2
X6.6Y-3.3
X6.6Y-3.4
X6.6Y-3.5
X6.6Y-4.0
X6.6Y-4.1
X6.6Y-4.2
X6.6Y-4.3
X7.5Y-3.4
X7.5984Y-3.4
X7.7016Y-3.5
X7.8Y-3.5
T3
X6.0Y-3.2
X6.0Y-3.3
X6.0Y-3.4
X6.0Y-4.0
X6.0Y-4.1
X6.0Y-4.2
X6.4Y-3.0
X6.4Y-3.8
X6.5Y-3.0
X6.5Y-3.8
X6.6504Y-5.4331
X6.7504Y-5.4331
X6.8504Y-5.4331
X6.9Y-3.1
X6.9Y-3.2
X6.9Y-3.3
X6.9Y-3.4
X6.9504Y-5.4331
X7.0Y-3.7
X7.0Y-3.8
X7.0Y-3.9
X7.0Y-4.0
X7.0Y-4.1
X7.0Y-4.2
X7.0Y-4.3
X7.0504Y-5.4331
X7.1Y-2.0
X7.1Y-2.8
X7.1Y-3.0
X7.1Y-3.1
X7.1Y-3.2
X7.1Y-3.3
X7.1Y-3.4
X7.1Y-3.7
X7.1Y-4.3
X7.2Y-2.0
X7.2Y-2.8
X7.2Y-3.7
X7.2Y-4.3
X7.3Y-2.0
X7.3Y-2.8
X7.3Y-3.7
X7.3Y-4.3
X7.4Y-2.0
X7.4Y-2.8
X7.4Y-3.7
X7.4Y-4.3
X7.5Y-2.0
X7.5Y-2.8
X7.5Y-3.7
X7.5Y-4.3
X7.6Y-2.0
X7.6Y-2.8
X7.6Y-3.7
X7.6Y-4.3
X7.7Y-3.7
X7.7Y-4.3
X7.8Y-3.7
X7.8Y-4.3
T4
X6.1713Y-5.0295
X6.1713Y-5.2854
X6.3484Y-5.0295
X6.3484Y-5.2854
X6.565Y-5.0295
X6.565Y-5.2854
X6.7421Y-5.0295
X6.7421Y-5.2854
X6.9587Y-5.0295
X6.9587Y-5.2854
X7.1358Y-5.0295
X7.1358Y-5.2854
X7.3524Y-5.0295
X7.3524Y-5.2854
X7.5295Y-5.0295
X7.5295Y-5.2854
T5
X5.9843Y-5.1575
X6.0236Y-1.7717
X6.0236Y-4.5276
X7.6772Y-1.7717
X7.6772Y-4.5276
X7.7165Y-5.1575
M30
