%TF.GenerationSoftware,KiCad,Pcbnew,8.0.9-1.fc40*%
%TF.CreationDate,2025-07-10T00:16:36+02:00*%
%TF.ProjectId,pico-artnet-node,7069636f-2d61-4727-946e-65742d6e6f64,rev?*%
%TF.SameCoordinates,Original*%
%TF.FileFunction,Copper,L1,Top*%
%TF.FilePolarity,Positive*%
%FSLAX46Y46*%
G04 Gerber Fmt 4.6, Leading zero omitted, Abs format (unit mm)*
G04 Created by KiCad (PCBNEW 8.0.9-1.fc40) date 2025-07-10 00:16:36*
%MOMM*%
%LPD*%
G01*
G04 APERTURE LIST*
%TA.AperFunction,ComponentPad*%
%ADD10R,1.800000X1.800000*%
%TD*%
%TA.AperFunction,ComponentPad*%
%ADD11C,1.800000*%
%TD*%
%TA.AperFunction,ComponentPad*%
%ADD12R,1.700000X1.700000*%
%TD*%
%TA.AperFunction,ComponentPad*%
%ADD13O,1.700000X1.700000*%
%TD*%
%TA.AperFunction,ComponentPad*%
%ADD14R,1.600000X1.600000*%
%TD*%
%TA.AperFunction,ComponentPad*%
%ADD15C,1.600000*%
%TD*%
%TA.AperFunction,ComponentPad*%
%ADD16C,5.600000*%
%TD*%
%TA.AperFunction,ComponentPad*%
%ADD17O,1.600000X1.600000*%
%TD*%
%TA.AperFunction,ComponentPad*%
%ADD18C,2.000000*%
%TD*%
%TA.AperFunction,ViaPad*%
%ADD19C,0.600000*%
%TD*%
%TA.AperFunction,Conductor*%
%ADD20C,0.200000*%
%TD*%
%TA.AperFunction,Conductor*%
%ADD21C,1.000000*%
%TD*%
%TA.AperFunction,Conductor*%
%ADD22C,0.500000*%
%TD*%
G04 APERTURE END LIST*
D10*
%TO.P,U1,0,GPIO_0*%
%TO.N,PORT_B_RX*%
X198120000Y-109220000D03*
D11*
%TO.P,U1,1,GPIO_1*%
%TO.N,PORT_B_DIR*%
X195580000Y-109220000D03*
%TO.P,U1,2,GPIO_2*%
%TO.N,PORT_B_TX*%
X193040000Y-109220000D03*
%TO.P,U1,3,GPIO_3*%
%TO.N,PORT_B_LED*%
X190500000Y-109220000D03*
%TO.P,U1,4,GPIO_4*%
%TO.N,PORT_A_RX*%
X187960000Y-109220000D03*
%TO.P,U1,5,GPIO_5*%
%TO.N,PORT_A_DIR*%
X185420000Y-109220000D03*
%TO.P,U1,6,GPIO_6*%
%TO.N,PORT_A_TX*%
X182880000Y-109220000D03*
%TO.P,U1,7,GPIO_7*%
%TO.N,PORT_A_LED*%
X180340000Y-109220000D03*
%TO.P,U1,8,GPIO_8*%
%TO.N,DISPLAY_SDA*%
X177800000Y-109220000D03*
%TO.P,U1,9,GPIO_9*%
%TO.N,DISPLAY_SCL*%
X177800000Y-106680000D03*
%TO.P,U1,10,GPIO_10*%
%TO.N,/BUTTON_MENU*%
X177800000Y-104140000D03*
%TO.P,U1,11,GPIO_11*%
%TO.N,/BUTTON_UP*%
X177800000Y-101600000D03*
%TO.P,U1,12,GPIO_12*%
%TO.N,/BUTTON_DOWN*%
X177800000Y-99060000D03*
%TO.P,U1,13,GPIO_13*%
%TO.N,/BUTTON_EXIT*%
X177800000Y-96520000D03*
%TO.P,U1,14,GPIO_14*%
%TO.N,ETH_RST*%
X177800000Y-93980000D03*
%TO.P,U1,15,GPIO_15*%
%TO.N,ETH_INT*%
X180340000Y-93980000D03*
%TO.P,U1,16,GPIO_26*%
%TO.N,ETH_SCK*%
X182880000Y-93980000D03*
%TO.P,U1,17,GPIO_27*%
%TO.N,ETH_MISO*%
X185420000Y-93980000D03*
%TO.P,U1,18,GPIO_28*%
%TO.N,ETH_MOSI*%
X187960000Y-93980000D03*
%TO.P,U1,19,GPIO_29*%
%TO.N,ETH_CS*%
X190500000Y-93980000D03*
%TO.P,U1,20,3V3*%
%TO.N,+3V3*%
X193040000Y-93980000D03*
%TO.P,U1,21,GND*%
%TO.N,GND*%
X195580000Y-93980000D03*
%TO.P,U1,22,5V*%
%TO.N,+5V*%
X198120000Y-93980000D03*
%TD*%
D12*
%TO.P,J2,1,Pin_1*%
%TO.N,GND*%
X152400000Y-101600000D03*
D13*
%TO.P,J2,2,Pin_2*%
%TO.N,Net-(J2-Pin_2)*%
X152400000Y-104140000D03*
%TO.P,J2,3,Pin_3*%
%TO.N,Net-(J2-Pin_3)*%
X152400000Y-106680000D03*
%TD*%
D14*
%TO.P,C1,1*%
%TO.N,+5V*%
X198120000Y-88900000D03*
D15*
%TO.P,C1,2*%
%TO.N,GND*%
X195620000Y-88900000D03*
%TD*%
D12*
%TO.P,J1,1,Pin_1*%
%TO.N,GND*%
X152400000Y-81280000D03*
D13*
%TO.P,J1,2,Pin_2*%
%TO.N,Net-(J1-Pin_2)*%
X152400000Y-83820000D03*
%TO.P,J1,3,Pin_3*%
%TO.N,Net-(J1-Pin_3)*%
X152400000Y-86360000D03*
%TD*%
D16*
%TO.P,H4,1,1*%
%TO.N,GND*%
X195000000Y-115000000D03*
%TD*%
%TO.P,H1,1,1*%
%TO.N,GND*%
X195000000Y-45000000D03*
%TD*%
D14*
%TO.P,U2,1,RO*%
%TO.N,PORT_A_RX*%
X167640000Y-88900000D03*
D17*
%TO.P,U2,2,~{RE}*%
%TO.N,PORT_A_DIR*%
X167640000Y-86360000D03*
%TO.P,U2,3,DE*%
X167640000Y-83820000D03*
%TO.P,U2,4,DI*%
%TO.N,PORT_A_TX*%
X167640000Y-81280000D03*
%TO.P,U2,5,GND*%
%TO.N,GND*%
X160020000Y-81280000D03*
%TO.P,U2,6,A*%
%TO.N,Net-(J1-Pin_2)*%
X160020000Y-83820000D03*
%TO.P,U2,7,B*%
%TO.N,Net-(J1-Pin_3)*%
X160020000Y-86360000D03*
%TO.P,U2,8,VCC*%
%TO.N,+5V*%
X160020000Y-88900000D03*
%TD*%
D16*
%TO.P,H6,1,1*%
%TO.N,/BUT_3V3*%
X196000000Y-131000000D03*
%TD*%
D18*
%TO.P,SW4,1,A*%
%TO.N,/BUT_3V3*%
X186750000Y-134250000D03*
X186750000Y-127750000D03*
%TO.P,SW4,2,B*%
%TO.N,/BUT_EXIT*%
X191250000Y-134250000D03*
X191250000Y-127750000D03*
%TD*%
D14*
%TO.P,C2,1*%
%TO.N,+3V3*%
X190500000Y-86360000D03*
D15*
%TO.P,C2,2*%
%TO.N,GND*%
X193000000Y-86360000D03*
%TD*%
D18*
%TO.P,SW2,1,A*%
%TO.N,/BUT_3V3*%
X166750000Y-134250000D03*
X166750000Y-127750000D03*
%TO.P,SW2,2,B*%
%TO.N,/BUT_UP*%
X171250000Y-134250000D03*
X171250000Y-127750000D03*
%TD*%
D12*
%TO.P,J6,1,Pin_1*%
%TO.N,Net-(J6-Pin_1)*%
X162560000Y-76200000D03*
D13*
%TO.P,J6,2,Pin_2*%
%TO.N,PORT_A_LED*%
X165100000Y-76200000D03*
%TD*%
D12*
%TO.P,J5,1,Pin_1*%
%TO.N,+3V3*%
X180340000Y-86360000D03*
D13*
%TO.P,J5,2,Pin_2*%
%TO.N,/BUTTON_MENU*%
X180340000Y-83820000D03*
%TO.P,J5,3,Pin_3*%
%TO.N,/BUTTON_UP*%
X180340000Y-81280000D03*
%TO.P,J5,4,Pin_4*%
%TO.N,/BUTTON_DOWN*%
X180340000Y-78740000D03*
%TO.P,J5,5,Pin_5*%
%TO.N,/BUTTON_EXIT*%
X180340000Y-76200000D03*
%TD*%
D15*
%TO.P,R3,1*%
%TO.N,+3V3*%
X154940000Y-76200000D03*
D17*
%TO.P,R3,2*%
%TO.N,Net-(J6-Pin_1)*%
X157480000Y-76200000D03*
%TD*%
D18*
%TO.P,SW3,1,A*%
%TO.N,/BUT_3V3*%
X176750000Y-134250000D03*
X176750000Y-127750000D03*
%TO.P,SW3,2,B*%
%TO.N,/BUT_DOWN*%
X181250000Y-134250000D03*
X181250000Y-127750000D03*
%TD*%
D12*
%TO.P,J3,1,Pin_1*%
%TO.N,GND*%
X175260000Y-86360000D03*
D13*
%TO.P,J3,2,Pin_2*%
%TO.N,+3V3*%
X175260000Y-83820000D03*
%TO.P,J3,3,Pin_3*%
%TO.N,DISPLAY_SDA*%
X175260000Y-81280000D03*
%TO.P,J3,4,Pin_4*%
%TO.N,DISPLAY_SCL*%
X175260000Y-78740000D03*
%TD*%
D16*
%TO.P,H3,1,1*%
%TO.N,GND*%
X153000000Y-115000000D03*
%TD*%
%TO.P,H5,1,1*%
%TO.N,/BUT_3V3*%
X152000000Y-131000000D03*
%TD*%
D14*
%TO.P,U3,1,RO*%
%TO.N,PORT_B_RX*%
X167640000Y-109220000D03*
D17*
%TO.P,U3,2,~{RE}*%
%TO.N,PORT_B_DIR*%
X167640000Y-106680000D03*
%TO.P,U3,3,DE*%
X167640000Y-104140000D03*
%TO.P,U3,4,DI*%
%TO.N,PORT_B_TX*%
X167640000Y-101600000D03*
%TO.P,U3,5,GND*%
%TO.N,GND*%
X160020000Y-101600000D03*
%TO.P,U3,6,A*%
%TO.N,Net-(J2-Pin_2)*%
X160020000Y-104140000D03*
%TO.P,U3,7,B*%
%TO.N,Net-(J2-Pin_3)*%
X160020000Y-106680000D03*
%TO.P,U3,8,VCC*%
%TO.N,+5V*%
X160020000Y-109220000D03*
%TD*%
D18*
%TO.P,SW1,1,A*%
%TO.N,/BUT_3V3*%
X156750000Y-134250000D03*
X156750000Y-127750000D03*
%TO.P,SW1,2,B*%
%TO.N,/BUT_MENU*%
X161250000Y-134250000D03*
X161250000Y-127750000D03*
%TD*%
D12*
%TO.P,J7,1,Pin_1*%
%TO.N,Net-(J7-Pin_1)*%
X162560000Y-96520000D03*
D13*
%TO.P,J7,2,Pin_2*%
%TO.N,PORT_B_LED*%
X165100000Y-96520000D03*
%TD*%
D11*
%TO.P,U5,1,GND*%
%TO.N,GND*%
X193040000Y-50800000D03*
%TO.P,U5,2,GND*%
X190500000Y-50800000D03*
%TO.P,U5,3,MOSI*%
%TO.N,ETH_MOSI*%
X187960000Y-50800000D03*
%TO.P,U5,4,SCK*%
%TO.N,ETH_SCK*%
X185420000Y-50800000D03*
%TO.P,U5,5,CS*%
%TO.N,ETH_CS*%
X182880000Y-50800000D03*
%TO.P,U5,6,INT*%
%TO.N,ETH_INT*%
X180340000Y-50800000D03*
%TO.P,U5,7,MISO*%
%TO.N,ETH_MISO*%
X180340000Y-71120000D03*
%TO.P,U5,8,RST*%
%TO.N,ETH_RST*%
X182880000Y-71120000D03*
%TO.P,U5,9,NC*%
%TO.N,unconnected-(U5-NC-Pad9)*%
X185420000Y-71120000D03*
%TO.P,U5,10,3V3*%
%TO.N,+3V3*%
X187960000Y-71120000D03*
%TO.P,U5,11,3V3*%
X190500000Y-71120000D03*
%TO.P,U5,12,GND*%
%TO.N,GND*%
X193040000Y-71120000D03*
%TD*%
D15*
%TO.P,R1,1*%
%TO.N,Net-(J1-Pin_2)*%
X157480000Y-83820000D03*
D17*
%TO.P,R1,2*%
%TO.N,Net-(J1-Pin_3)*%
X157480000Y-86360000D03*
%TD*%
D16*
%TO.P,H2,1,1*%
%TO.N,GND*%
X153000000Y-45000000D03*
%TD*%
D15*
%TO.P,R4,1*%
%TO.N,+3V3*%
X154940000Y-96520000D03*
D17*
%TO.P,R4,2*%
%TO.N,Net-(J7-Pin_1)*%
X157480000Y-96520000D03*
%TD*%
D15*
%TO.P,R2,1*%
%TO.N,Net-(J2-Pin_2)*%
X157480000Y-104140000D03*
D17*
%TO.P,R2,2*%
%TO.N,Net-(J2-Pin_3)*%
X157480000Y-106680000D03*
%TD*%
D12*
%TO.P,J4,1,Pin_1*%
%TO.N,/BUT_3V3*%
X168920000Y-138000000D03*
D13*
%TO.P,J4,2,Pin_2*%
%TO.N,/BUT_MENU*%
X171460000Y-138000000D03*
%TO.P,J4,3,Pin_3*%
%TO.N,/BUT_UP*%
X174000000Y-138000000D03*
%TO.P,J4,4,Pin_4*%
%TO.N,/BUT_DOWN*%
X176540000Y-138000000D03*
%TO.P,J4,5,Pin_5*%
%TO.N,/BUT_EXIT*%
X179080000Y-138000000D03*
%TD*%
D19*
%TO.N,GND*%
X190500000Y-90678000D03*
X190500000Y-92202000D03*
X172974000Y-93472000D03*
X162433000Y-98298000D03*
X159131000Y-98298000D03*
X162433000Y-100584000D03*
X172974000Y-95758000D03*
%TO.N,+3V3*%
X190500000Y-73400000D03*
%TD*%
D20*
%TO.N,PORT_B_DIR*%
X167640000Y-104140000D02*
X168783000Y-104140000D01*
X168783000Y-104140000D02*
X169200000Y-104557000D01*
X169200000Y-104557000D02*
X169200000Y-106694116D01*
X169200000Y-106694116D02*
X169600000Y-107094116D01*
X167640000Y-106680000D02*
X169185884Y-106680000D01*
X169185884Y-106680000D02*
X169600000Y-107094116D01*
X189725686Y-113100000D02*
X192025686Y-110800000D01*
X169600000Y-107094116D02*
X175600000Y-113094116D01*
X175600000Y-113094116D02*
X175600000Y-113100000D01*
X175600000Y-113100000D02*
X189725686Y-113100000D01*
X192025686Y-110800000D02*
X194000000Y-110800000D01*
X194000000Y-110800000D02*
X195580000Y-109220000D01*
%TO.N,PORT_A_DIR*%
X169500000Y-86360000D02*
X169500000Y-84537000D01*
X169500000Y-84537000D02*
X168783000Y-83820000D01*
X168783000Y-83820000D02*
X167640000Y-83820000D01*
%TO.N,PORT_B_RX*%
X198120000Y-109220000D02*
X196140000Y-111200000D01*
X196140000Y-111200000D02*
X192191372Y-111200000D01*
X189891372Y-113500000D02*
X175434314Y-113500000D01*
X192191372Y-111200000D02*
X189891372Y-113500000D01*
X175434314Y-113500000D02*
X171154314Y-109220000D01*
X171154314Y-109220000D02*
X167640000Y-109220000D01*
D21*
%TO.N,Net-(J1-Pin_2)*%
X152400000Y-83820000D02*
X160020000Y-83820000D01*
D22*
%TO.N,GND*%
X162433000Y-98298000D02*
X159131000Y-98298000D01*
X162433000Y-100584000D02*
X162433000Y-98298000D01*
X190500000Y-92202000D02*
X190500000Y-90678000D01*
X172974000Y-95758000D02*
X172974000Y-93472000D01*
D21*
%TO.N,Net-(J2-Pin_2)*%
X160020000Y-104140000D02*
X152400000Y-104140000D01*
D20*
%TO.N,PORT_A_LED*%
X176600000Y-110700000D02*
X172000000Y-106100000D01*
X170440000Y-76200000D02*
X165100000Y-76200000D01*
X178860000Y-110700000D02*
X176600000Y-110700000D01*
X180340000Y-109220000D02*
X178860000Y-110700000D01*
X172000000Y-77760000D02*
X170440000Y-76200000D01*
X172000000Y-106100000D02*
X172000000Y-77760000D01*
D22*
%TO.N,Net-(J6-Pin_1)*%
X162560000Y-76200000D02*
X157480000Y-76200000D01*
D20*
%TO.N,PORT_B_LED*%
X168520000Y-96520000D02*
X165100000Y-96520000D01*
X170400000Y-106762744D02*
X170400000Y-98400000D01*
X170400000Y-98400000D02*
X168520000Y-96520000D01*
X187420000Y-112300000D02*
X175937256Y-112300000D01*
X190500000Y-109220000D02*
X187420000Y-112300000D01*
X175937256Y-112300000D02*
X170400000Y-106762744D01*
D22*
%TO.N,Net-(J7-Pin_1)*%
X157480000Y-96520000D02*
X162560000Y-96520000D01*
D20*
%TO.N,PORT_A_TX*%
X171600000Y-82960000D02*
X171600000Y-106265686D01*
X181000000Y-111100000D02*
X176434314Y-111100000D01*
X169920000Y-81280000D02*
X167640000Y-81280000D01*
X171600000Y-82960000D02*
X169920000Y-81280000D01*
X182880000Y-109220000D02*
X181000000Y-111100000D01*
X176434314Y-111100000D02*
X171600000Y-106265686D01*
%TO.N,PORT_A_DIR*%
X169500000Y-86360000D02*
X167640000Y-86360000D01*
X171200000Y-88060000D02*
X169500000Y-86360000D01*
X171200000Y-106431372D02*
X171200000Y-88060000D01*
X176268628Y-111500000D02*
X171200000Y-106431372D01*
X183140000Y-111500000D02*
X176268628Y-111500000D01*
X185420000Y-109220000D02*
X183140000Y-111500000D01*
%TO.N,PORT_A_RX*%
X185280000Y-111900000D02*
X176102942Y-111900000D01*
X170800000Y-89960000D02*
X169740000Y-88900000D01*
X170800000Y-89960000D02*
X170800000Y-106597058D01*
X176102942Y-111900000D02*
X170800000Y-106597058D01*
X187960000Y-109220000D02*
X185280000Y-111900000D01*
X169740000Y-88900000D02*
X167640000Y-88900000D01*
%TO.N,PORT_B_TX*%
X170000000Y-106928430D02*
X170000000Y-103960000D01*
X170000000Y-103960000D02*
X167640000Y-101600000D01*
X189560000Y-112700000D02*
X175771570Y-112700000D01*
X175771570Y-112700000D02*
X170000000Y-106928430D01*
X193040000Y-109220000D02*
X189560000Y-112700000D01*
%TO.N,ETH_INT*%
X186300000Y-89994314D02*
X186300000Y-73697057D01*
X183794314Y-92500000D02*
X186300000Y-89994314D01*
X180340000Y-93980000D02*
X181820000Y-92500000D01*
X184150000Y-54610000D02*
X180340000Y-50800000D01*
X181820000Y-92500000D02*
X183794314Y-92500000D01*
X184150000Y-71547057D02*
X184150000Y-54610000D01*
X186300000Y-73697057D02*
X184150000Y-71547057D01*
%TO.N,ETH_SCK*%
X186700000Y-90160000D02*
X186700000Y-54500000D01*
X182880000Y-93980000D02*
X186700000Y-90160000D01*
X186700000Y-54500000D02*
X185420000Y-53220000D01*
X185420000Y-53220000D02*
X185420000Y-50800000D01*
%TO.N,ETH_CS*%
X190900000Y-72800000D02*
X191750000Y-71950000D01*
X189250000Y-51950000D02*
X189250000Y-49550000D01*
X187500000Y-73842743D02*
X188542743Y-72800000D01*
X191750000Y-71950000D02*
X191750000Y-54450000D01*
X189250000Y-49550000D02*
X188500000Y-48800000D01*
X190500000Y-93980000D02*
X187500000Y-90980000D01*
X188500000Y-48800000D02*
X183600000Y-48800000D01*
X183600000Y-48800000D02*
X182880000Y-49520000D01*
X187500000Y-90980000D02*
X187500000Y-73842743D01*
X182880000Y-49520000D02*
X182880000Y-50800000D01*
X191750000Y-54450000D02*
X189250000Y-51950000D01*
X188542743Y-72800000D02*
X190900000Y-72800000D01*
D21*
%TO.N,+5V*%
X198120000Y-88900000D02*
X198120000Y-93980000D01*
D20*
%TO.N,ETH_MOSI*%
X187100000Y-91145686D02*
X187960000Y-92005686D01*
X187960000Y-53160000D02*
X189250000Y-54450000D01*
X189250000Y-71527057D02*
X187100000Y-73677057D01*
X189250000Y-54450000D02*
X189250000Y-71527057D01*
X187960000Y-92005686D02*
X187960000Y-93980000D01*
X187100000Y-73677057D02*
X187100000Y-91145686D01*
X187960000Y-50800000D02*
X187960000Y-53160000D01*
%TO.N,ETH_RST*%
X183600000Y-92100000D02*
X183834314Y-91865685D01*
X179680000Y-92100000D02*
X183600000Y-92100000D01*
X184660000Y-72900000D02*
X182880000Y-71120000D01*
X185565685Y-73805686D02*
X184660000Y-72900000D01*
X177800000Y-93980000D02*
X179680000Y-92100000D01*
X183834314Y-91865685D02*
X185900000Y-89799999D01*
X185900000Y-74140001D02*
X185565685Y-73805686D01*
X185900000Y-89799999D02*
X185900000Y-74140001D01*
D22*
%TO.N,/BUT_MENU*%
X169460000Y-136000000D02*
X171460000Y-138000000D01*
X163000000Y-136000000D02*
X169460000Y-136000000D01*
X161250000Y-134250000D02*
X163000000Y-136000000D01*
X161250000Y-127750000D02*
X161250000Y-134250000D01*
%TO.N,/BUT_UP*%
X174000000Y-138000000D02*
X174000000Y-137000000D01*
X171250000Y-127750000D02*
X171250000Y-134250000D01*
X174000000Y-137000000D02*
X171250000Y-134250000D01*
%TO.N,/BUT_DOWN*%
X181250000Y-134250000D02*
X180290000Y-134250000D01*
X180290000Y-134250000D02*
X176540000Y-138000000D01*
X181250000Y-127750000D02*
X181250000Y-134250000D01*
%TO.N,/BUT_EXIT*%
X181080000Y-136000000D02*
X179080000Y-138000000D01*
X189500000Y-136000000D02*
X181080000Y-136000000D01*
X191250000Y-134250000D02*
X189500000Y-136000000D01*
X191250000Y-134250000D02*
X191250000Y-127750000D01*
D21*
%TO.N,Net-(J1-Pin_3)*%
X160020000Y-86360000D02*
X152400000Y-86360000D01*
%TO.N,Net-(J2-Pin_3)*%
X152400000Y-106680000D02*
X160020000Y-106680000D01*
D20*
%TO.N,DISPLAY_SDA*%
X177800000Y-109220000D02*
X173900000Y-105320000D01*
X173900000Y-105320000D02*
X173900000Y-90468628D01*
X173900000Y-90468628D02*
X176700000Y-87668628D01*
X176700000Y-87668628D02*
X176700000Y-82720000D01*
X176700000Y-82720000D02*
X175260000Y-81280000D01*
%TO.N,DISPLAY_SCL*%
X177800000Y-106680000D02*
X174300000Y-103180000D01*
X174300000Y-103180000D02*
X174300000Y-90634314D01*
X174300000Y-90634314D02*
X177100000Y-87834314D01*
X177100000Y-87834314D02*
X177100000Y-80580000D01*
X177100000Y-80580000D02*
X175260000Y-78740000D01*
%TO.N,/BUTTON_MENU*%
X177800000Y-104140000D02*
X174700000Y-101040000D01*
X177300000Y-88200000D02*
X181162942Y-88200000D01*
X174700000Y-101040000D02*
X174700000Y-90800000D01*
X174700000Y-90800000D02*
X177300000Y-88200000D01*
X181162942Y-88200000D02*
X181800000Y-87562942D01*
X181800000Y-87562942D02*
X181800000Y-85280000D01*
X181800000Y-85280000D02*
X180340000Y-83820000D01*
%TO.N,/BUTTON_UP*%
X177800000Y-101600000D02*
X175100000Y-98900000D01*
X182200000Y-87728628D02*
X182200000Y-83140000D01*
X175100000Y-98900000D02*
X175100000Y-90965686D01*
X175100000Y-90965686D02*
X177465686Y-88600000D01*
X177465686Y-88600000D02*
X181328628Y-88600000D01*
X181328628Y-88600000D02*
X182200000Y-87728628D01*
X182200000Y-83140000D02*
X180340000Y-81280000D01*
%TO.N,/BUTTON_DOWN*%
X180340000Y-78740000D02*
X182600000Y-81000000D01*
X182600000Y-81000000D02*
X182600000Y-87894314D01*
X175500000Y-91131372D02*
X175500000Y-96760000D01*
X182600000Y-87894314D02*
X181494314Y-89000000D01*
X175500000Y-96760000D02*
X177800000Y-99060000D01*
X181494314Y-89000000D02*
X177631372Y-89000000D01*
X177631372Y-89000000D02*
X175500000Y-91131372D01*
%TO.N,/BUTTON_EXIT*%
X177800000Y-96520000D02*
X175900000Y-94620000D01*
X175900000Y-91297058D02*
X177797058Y-89400000D01*
X175900000Y-94620000D02*
X175900000Y-91297058D01*
X177797058Y-89400000D02*
X181660000Y-89400000D01*
X181660000Y-89400000D02*
X183000000Y-88060000D01*
X183000000Y-88060000D02*
X183000000Y-78860000D01*
X183000000Y-78860000D02*
X180340000Y-76200000D01*
%TO.N,ETH_MISO*%
X185420000Y-93980000D02*
X184150000Y-95250000D01*
X176300000Y-92600000D02*
X177200000Y-91700000D01*
X184150000Y-95250000D02*
X177095686Y-95250000D01*
X177200000Y-91700000D02*
X183434314Y-91700000D01*
X183434314Y-91700000D02*
X185500000Y-89634314D01*
X182520000Y-73300000D02*
X180340000Y-71120000D01*
X177095686Y-95250000D02*
X176300000Y-94454314D01*
X185500000Y-74305686D02*
X184494314Y-73300000D01*
X176300000Y-94454314D02*
X176300000Y-92600000D01*
X184494314Y-73300000D02*
X182520000Y-73300000D01*
X185500000Y-89634314D02*
X185500000Y-74305686D01*
%TD*%
%TA.AperFunction,Conductor*%
%TO.N,+3V3*%
G36*
X172479593Y-95884966D02*
G01*
X172489553Y-95902030D01*
X172520823Y-95970500D01*
X172548623Y-96031373D01*
X172626068Y-96120750D01*
X172642873Y-96140144D01*
X172735887Y-96199920D01*
X172763947Y-96217953D01*
X172838962Y-96239979D01*
X172902035Y-96258499D01*
X172902036Y-96258499D01*
X172902039Y-96258500D01*
X172902041Y-96258500D01*
X173045959Y-96258500D01*
X173045961Y-96258500D01*
X173184053Y-96217953D01*
X173305128Y-96140143D01*
X173399377Y-96031373D01*
X173410447Y-96007132D01*
X173451818Y-95962056D01*
X173511785Y-95949905D01*
X173567441Y-95975322D01*
X173597528Y-96028599D01*
X173599500Y-96048260D01*
X173599500Y-105359564D01*
X173619978Y-105435988D01*
X173619980Y-105435992D01*
X173659538Y-105504508D01*
X173659540Y-105504511D01*
X175234279Y-107079250D01*
X176787647Y-108632618D01*
X176815424Y-108687135D01*
X176806265Y-108746749D01*
X176777254Y-108805013D01*
X176769418Y-108820750D01*
X176713603Y-109016917D01*
X176694785Y-109220000D01*
X176713603Y-109423083D01*
X176765287Y-109604732D01*
X176769419Y-109619252D01*
X176848735Y-109778542D01*
X176860327Y-109801821D01*
X176983236Y-109964579D01*
X177133959Y-110101981D01*
X177307363Y-110209348D01*
X177307372Y-110209351D01*
X177311459Y-110211387D01*
X177310545Y-110213221D01*
X177351799Y-110246846D01*
X177367446Y-110305997D01*
X177345337Y-110363048D01*
X177293917Y-110396208D01*
X177268599Y-110399500D01*
X176765479Y-110399500D01*
X176707288Y-110380593D01*
X176695475Y-110370504D01*
X172329496Y-106004525D01*
X172301719Y-105950008D01*
X172300500Y-105934521D01*
X172300500Y-95943157D01*
X172319407Y-95884966D01*
X172368907Y-95849002D01*
X172430093Y-95849002D01*
X172479593Y-95884966D01*
G37*
%TD.AperFunction*%
%TA.AperFunction,Conductor*%
G36*
X190034075Y-71312993D02*
G01*
X190099901Y-71427007D01*
X190192993Y-71520099D01*
X190307007Y-71585925D01*
X190370590Y-71602962D01*
X189919312Y-72054241D01*
X190007581Y-72108895D01*
X190007586Y-72108898D01*
X190197683Y-72182541D01*
X190398070Y-72220000D01*
X190601930Y-72220000D01*
X190802319Y-72182540D01*
X190838366Y-72168576D01*
X190899457Y-72165185D01*
X190950875Y-72198350D01*
X190972978Y-72255403D01*
X190957325Y-72314552D01*
X190944134Y-72330893D01*
X190804525Y-72470503D01*
X190750008Y-72498281D01*
X190734521Y-72499500D01*
X188941536Y-72499500D01*
X188883345Y-72480593D01*
X188847381Y-72431093D01*
X188847381Y-72369907D01*
X188871532Y-72330497D01*
X189302413Y-71899615D01*
X189470418Y-71731609D01*
X189524933Y-71703833D01*
X189547279Y-71702852D01*
X189562532Y-71703911D01*
X190017036Y-71249406D01*
X190034075Y-71312993D01*
G37*
%TD.AperFunction*%
%TA.AperFunction,Conductor*%
G36*
X188891319Y-51520451D02*
G01*
X188936538Y-51561669D01*
X188949500Y-51610644D01*
X188949500Y-51989564D01*
X188969978Y-52065988D01*
X188969980Y-52065992D01*
X189009538Y-52134508D01*
X189009540Y-52134511D01*
X191420505Y-54545476D01*
X191448281Y-54599991D01*
X191449500Y-54615478D01*
X191449500Y-70483046D01*
X191430593Y-70541237D01*
X191420504Y-70553050D01*
X190982962Y-70990591D01*
X190965925Y-70927007D01*
X190900099Y-70812993D01*
X190807007Y-70719901D01*
X190692993Y-70654075D01*
X190629406Y-70637036D01*
X191080686Y-70185757D01*
X190992418Y-70131104D01*
X190992413Y-70131101D01*
X190802316Y-70057458D01*
X190601930Y-70020000D01*
X190398070Y-70020000D01*
X190197683Y-70057458D01*
X190007586Y-70131101D01*
X190007584Y-70131102D01*
X189919312Y-70185757D01*
X190370592Y-70637037D01*
X190307007Y-70654075D01*
X190192993Y-70719901D01*
X190099901Y-70812993D01*
X190034075Y-70927007D01*
X190017037Y-70990591D01*
X189579496Y-70553050D01*
X189551719Y-70498533D01*
X189550500Y-70483046D01*
X189550500Y-54410437D01*
X189550499Y-54410435D01*
X189530021Y-54334011D01*
X189530019Y-54334007D01*
X189490460Y-54265489D01*
X189434511Y-54209539D01*
X189434511Y-54209540D01*
X188289496Y-53064525D01*
X188261719Y-53010008D01*
X188260500Y-52994521D01*
X188260500Y-51931598D01*
X188279407Y-51873407D01*
X188323734Y-51839284D01*
X188452637Y-51789348D01*
X188626041Y-51681981D01*
X188776764Y-51544579D01*
X188776774Y-51544565D01*
X188777335Y-51543951D01*
X188777646Y-51543773D01*
X188780146Y-51541495D01*
X188780659Y-51542058D01*
X188830509Y-51513683D01*
X188891319Y-51520451D01*
G37*
%TD.AperFunction*%
%TA.AperFunction,Conductor*%
G36*
X199458691Y-40519407D02*
G01*
X199494655Y-40568907D01*
X199499500Y-40599500D01*
X199499500Y-119401000D01*
X199480593Y-119459191D01*
X199431093Y-119495155D01*
X199400500Y-119500000D01*
X148599500Y-119500000D01*
X148541309Y-119481093D01*
X148505345Y-119431593D01*
X148500500Y-119401000D01*
X148500500Y-115000000D01*
X149994415Y-115000000D01*
X150014738Y-115348929D01*
X150075430Y-115693133D01*
X150075430Y-115693134D01*
X150075431Y-115693136D01*
X150175674Y-116027971D01*
X150314111Y-116348904D01*
X150488870Y-116651596D01*
X150697588Y-116931953D01*
X150937442Y-117186183D01*
X151205189Y-117410849D01*
X151497207Y-117602913D01*
X151809549Y-117759777D01*
X152137989Y-117879319D01*
X152137992Y-117879319D01*
X152137993Y-117879320D01*
X152478075Y-117959921D01*
X152478080Y-117959921D01*
X152478086Y-117959923D01*
X152825241Y-118000500D01*
X152825244Y-118000500D01*
X153174756Y-118000500D01*
X153174759Y-118000500D01*
X153521914Y-117959923D01*
X153521920Y-117959921D01*
X153521924Y-117959921D01*
X153748645Y-117906187D01*
X153862011Y-117879319D01*
X154190451Y-117759777D01*
X154502793Y-117602913D01*
X154794811Y-117410849D01*
X155062558Y-117186183D01*
X155302412Y-116931953D01*
X155511130Y-116651596D01*
X155685889Y-116348904D01*
X155824326Y-116027971D01*
X155924569Y-115693136D01*
X155985262Y-115348927D01*
X156005585Y-115000000D01*
X191994415Y-115000000D01*
X192014738Y-115348929D01*
X192075430Y-115693133D01*
X192075430Y-115693134D01*
X192075431Y-115693136D01*
X192175674Y-116027971D01*
X192314111Y-116348904D01*
X192488870Y-116651596D01*
X192697588Y-116931953D01*
X192937442Y-117186183D01*
X193205189Y-117410849D01*
X193497207Y-117602913D01*
X193809549Y-117759777D01*
X194137989Y-117879319D01*
X194137992Y-117879319D01*
X194137993Y-117879320D01*
X194478075Y-117959921D01*
X194478080Y-117959921D01*
X194478086Y-117959923D01*
X194825241Y-118000500D01*
X194825244Y-118000500D01*
X195174756Y-118000500D01*
X195174759Y-118000500D01*
X195521914Y-117959923D01*
X195521920Y-117959921D01*
X195521924Y-117959921D01*
X195748645Y-117906187D01*
X195862011Y-117879319D01*
X196190451Y-117759777D01*
X196502793Y-117602913D01*
X196794811Y-117410849D01*
X197062558Y-117186183D01*
X197302412Y-116931953D01*
X197511130Y-116651596D01*
X197685889Y-116348904D01*
X197824326Y-116027971D01*
X197924569Y-115693136D01*
X197985262Y-115348927D01*
X198005585Y-115000000D01*
X197985262Y-114651073D01*
X197924569Y-114306864D01*
X197824326Y-113972029D01*
X197685889Y-113651096D01*
X197511130Y-113348404D01*
X197302412Y-113068047D01*
X197062558Y-112813817D01*
X196794811Y-112589151D01*
X196700157Y-112526896D01*
X196502794Y-112397087D01*
X196190453Y-112240224D01*
X196190452Y-112240223D01*
X196190451Y-112240223D01*
X195862011Y-112120681D01*
X195862012Y-112120681D01*
X195862006Y-112120679D01*
X195521924Y-112040078D01*
X195409089Y-112026889D01*
X195174759Y-111999500D01*
X194825241Y-111999500D01*
X194633950Y-112021858D01*
X194478075Y-112040078D01*
X194137993Y-112120679D01*
X193941191Y-112192309D01*
X193809549Y-112240223D01*
X193809548Y-112240223D01*
X193809546Y-112240224D01*
X193497205Y-112397087D01*
X193205190Y-112589150D01*
X192937443Y-112813815D01*
X192697591Y-113068043D01*
X192488871Y-113348402D01*
X192488869Y-113348405D01*
X192314111Y-113651095D01*
X192314108Y-113651102D01*
X192175674Y-113972027D01*
X192175672Y-113972034D01*
X192075430Y-114306865D01*
X192075430Y-114306866D01*
X192014738Y-114651070D01*
X191994415Y-115000000D01*
X156005585Y-115000000D01*
X155985262Y-114651073D01*
X155924569Y-114306864D01*
X155824326Y-113972029D01*
X155685889Y-113651096D01*
X155511130Y-113348404D01*
X155302412Y-113068047D01*
X155062558Y-112813817D01*
X154794811Y-112589151D01*
X154700157Y-112526896D01*
X154502794Y-112397087D01*
X154190453Y-112240224D01*
X154190452Y-112240223D01*
X154190451Y-112240223D01*
X153862011Y-112120681D01*
X153862012Y-112120681D01*
X153862006Y-112120679D01*
X153521924Y-112040078D01*
X153409089Y-112026889D01*
X153174759Y-111999500D01*
X152825241Y-111999500D01*
X152633950Y-112021858D01*
X152478075Y-112040078D01*
X152137993Y-112120679D01*
X151941191Y-112192309D01*
X151809549Y-112240223D01*
X151809548Y-112240223D01*
X151809546Y-112240224D01*
X151497205Y-112397087D01*
X151205190Y-112589150D01*
X150937443Y-112813815D01*
X150697591Y-113068043D01*
X150488871Y-113348402D01*
X150488869Y-113348405D01*
X150314111Y-113651095D01*
X150314108Y-113651102D01*
X150175674Y-113972027D01*
X150175672Y-113972034D01*
X150075430Y-114306865D01*
X150075430Y-114306866D01*
X150014738Y-114651070D01*
X149994415Y-115000000D01*
X148500500Y-115000000D01*
X148500500Y-109219996D01*
X159014659Y-109219996D01*
X159014659Y-109220003D01*
X159033974Y-109416126D01*
X159033975Y-109416129D01*
X159091187Y-109604730D01*
X159091188Y-109604732D01*
X159099082Y-109619500D01*
X159184090Y-109778538D01*
X159184092Y-109778540D01*
X159184093Y-109778542D01*
X159309112Y-109930878D01*
X159309121Y-109930887D01*
X159441781Y-110039758D01*
X159461462Y-110055910D01*
X159540639Y-110098231D01*
X159618311Y-110139748D01*
X159635273Y-110148814D01*
X159823868Y-110206024D01*
X159823870Y-110206024D01*
X159823873Y-110206025D01*
X160019997Y-110225341D01*
X160020000Y-110225341D01*
X160020003Y-110225341D01*
X160216126Y-110206025D01*
X160216127Y-110206024D01*
X160216132Y-110206024D01*
X160404727Y-110148814D01*
X160578538Y-110055910D01*
X160730883Y-109930883D01*
X160855910Y-109778538D01*
X160948814Y-109604727D01*
X161006024Y-109416132D01*
X161025341Y-109220000D01*
X161025341Y-109219996D01*
X161006025Y-109023873D01*
X161006024Y-109023870D01*
X161006024Y-109023868D01*
X160948814Y-108835273D01*
X160855910Y-108661462D01*
X160836802Y-108638179D01*
X160730887Y-108509121D01*
X160730878Y-108509112D01*
X160578542Y-108384093D01*
X160578540Y-108384092D01*
X160578538Y-108384090D01*
X160499361Y-108341769D01*
X160404732Y-108291188D01*
X160404730Y-108291187D01*
X160216129Y-108233975D01*
X160216126Y-108233974D01*
X160020003Y-108214659D01*
X160019997Y-108214659D01*
X159823873Y-108233974D01*
X159823870Y-108233975D01*
X159635269Y-108291187D01*
X159635267Y-108291188D01*
X159461467Y-108384087D01*
X159461457Y-108384093D01*
X159309121Y-108509112D01*
X159309112Y-108509121D01*
X159184093Y-108661457D01*
X159184087Y-108661467D01*
X159091188Y-108835267D01*
X159091187Y-108835269D01*
X159033975Y-109023870D01*
X159033974Y-109023873D01*
X159014659Y-109219996D01*
X148500500Y-109219996D01*
X148500500Y-106679996D01*
X151344417Y-106679996D01*
X151344417Y-106680003D01*
X151364698Y-106885929D01*
X151364699Y-106885934D01*
X151424768Y-107083954D01*
X151522316Y-107266452D01*
X151532308Y-107278627D01*
X151653590Y-107426410D01*
X151653595Y-107426414D01*
X151813547Y-107557683D01*
X151813548Y-107557683D01*
X151813550Y-107557685D01*
X151996046Y-107655232D01*
X152133997Y-107697078D01*
X152194065Y-107715300D01*
X152194070Y-107715301D01*
X152399997Y-107735583D01*
X152400000Y-107735583D01*
X152400003Y-107735583D01*
X152605929Y-107715301D01*
X152605934Y-107715300D01*
X152803954Y-107655232D01*
X152986450Y-107557685D01*
X153146410Y-107426410D01*
X153154384Y-107416693D01*
X153205915Y-107383707D01*
X153230911Y-107380500D01*
X156721043Y-107380500D01*
X156779234Y-107399407D01*
X156783837Y-107402964D01*
X156921462Y-107515910D01*
X157095273Y-107608814D01*
X157283868Y-107666024D01*
X157283870Y-107666024D01*
X157283873Y-107666025D01*
X157479997Y-107685341D01*
X157480000Y-107685341D01*
X157480003Y-107685341D01*
X157676126Y-107666025D01*
X157676127Y-107666024D01*
X157676132Y-107666024D01*
X157864727Y-107608814D01*
X158038538Y-107515910D01*
X158176153Y-107402971D01*
X158233128Y-107380672D01*
X158238957Y-107380500D01*
X159261043Y-107380500D01*
X159319234Y-107399407D01*
X159323837Y-107402964D01*
X159461462Y-107515910D01*
X159635273Y-107608814D01*
X159823868Y-107666024D01*
X159823870Y-107666024D01*
X159823873Y-107666025D01*
X160019997Y-107685341D01*
X160020000Y-107685341D01*
X160020003Y-107685341D01*
X160216126Y-107666025D01*
X160216127Y-107666024D01*
X160216132Y-107666024D01*
X160404727Y-107608814D01*
X160578538Y-107515910D01*
X160730883Y-107390883D01*
X160855910Y-107238538D01*
X160948814Y-107064727D01*
X161006024Y-106876132D01*
X161016611Y-106768645D01*
X161025341Y-106680003D01*
X161025341Y-106679996D01*
X161006025Y-106483873D01*
X161006024Y-106483870D01*
X161006024Y-106483868D01*
X160948814Y-106295273D01*
X160938536Y-106276045D01*
X160901497Y-106206749D01*
X160855910Y-106121462D01*
X160836802Y-106098179D01*
X160730887Y-105969121D01*
X160730878Y-105969112D01*
X160578542Y-105844093D01*
X160578540Y-105844092D01*
X160578538Y-105844090D01*
X160537618Y-105822218D01*
X160404732Y-105751188D01*
X160404730Y-105751187D01*
X160216129Y-105693975D01*
X160216126Y-105693974D01*
X160020003Y-105674659D01*
X160019997Y-105674659D01*
X159823873Y-105693974D01*
X159823870Y-105693975D01*
X159635269Y-105751187D01*
X159635267Y-105751188D01*
X159461467Y-105844087D01*
X159461457Y-105844093D01*
X159365922Y-105922498D01*
X159323846Y-105957028D01*
X159266872Y-105979328D01*
X159261043Y-105979500D01*
X158238957Y-105979500D01*
X158180766Y-105960593D01*
X158176162Y-105957035D01*
X158038538Y-105844090D01*
X157997618Y-105822218D01*
X157864732Y-105751188D01*
X157864730Y-105751187D01*
X157676129Y-105693975D01*
X157676126Y-105693974D01*
X157480003Y-105674659D01*
X157479997Y-105674659D01*
X157283873Y-105693974D01*
X157283870Y-105693975D01*
X157095269Y-105751187D01*
X157095267Y-105751188D01*
X156921467Y-105844087D01*
X156921457Y-105844093D01*
X156825922Y-105922498D01*
X156783846Y-105957028D01*
X156726872Y-105979328D01*
X156721043Y-105979500D01*
X153230911Y-105979500D01*
X153172720Y-105960593D01*
X153154385Y-105943308D01*
X153146410Y-105933590D01*
X153146404Y-105933585D01*
X152986452Y-105802316D01*
X152803954Y-105704768D01*
X152605934Y-105644699D01*
X152605929Y-105644698D01*
X152400003Y-105624417D01*
X152399997Y-105624417D01*
X152194070Y-105644698D01*
X152194065Y-105644699D01*
X151996045Y-105704768D01*
X151813547Y-105802316D01*
X151653595Y-105933585D01*
X151653585Y-105933595D01*
X151522316Y-106093547D01*
X151424768Y-106276045D01*
X151364699Y-106474065D01*
X151364698Y-106474070D01*
X151344417Y-106679996D01*
X148500500Y-106679996D01*
X148500500Y-104139996D01*
X151344417Y-104139996D01*
X151344417Y-104140003D01*
X151364698Y-104345929D01*
X151364699Y-104345934D01*
X151424768Y-104543954D01*
X151522316Y-104726452D01*
X151615913Y-104840500D01*
X151653590Y-104886410D01*
X151653595Y-104886414D01*
X151813547Y-105017683D01*
X151813548Y-105017683D01*
X151813550Y-105017685D01*
X151996046Y-105115232D01*
X152125566Y-105154521D01*
X152194065Y-105175300D01*
X152194070Y-105175301D01*
X152399997Y-105195583D01*
X152400000Y-105195583D01*
X152400003Y-105195583D01*
X152605929Y-105175301D01*
X152605934Y-105175300D01*
X152803954Y-105115232D01*
X152986450Y-105017685D01*
X153146410Y-104886410D01*
X153154384Y-104876693D01*
X153205915Y-104843707D01*
X153230911Y-104840500D01*
X156721043Y-104840500D01*
X156779234Y-104859407D01*
X156783837Y-104862964D01*
X156921462Y-104975910D01*
X157095273Y-105068814D01*
X157283868Y-105126024D01*
X157283870Y-105126024D01*
X157283873Y-105126025D01*
X157479997Y-105145341D01*
X157480000Y-105145341D01*
X157480003Y-105145341D01*
X157676126Y-105126025D01*
X157676127Y-105126024D01*
X157676132Y-105126024D01*
X157864727Y-105068814D01*
X158038538Y-104975910D01*
X158176153Y-104862971D01*
X158233128Y-104840672D01*
X158238957Y-104840500D01*
X159261043Y-104840500D01*
X159319234Y-104859407D01*
X159323837Y-104862964D01*
X159461462Y-104975910D01*
X159635273Y-105068814D01*
X159823868Y-105126024D01*
X159823870Y-105126024D01*
X159823873Y-105126025D01*
X160019997Y-105145341D01*
X160020000Y-105145341D01*
X160020003Y-105145341D01*
X160216126Y-105126025D01*
X160216127Y-105126024D01*
X160216132Y-105126024D01*
X160404727Y-105068814D01*
X160578538Y-104975910D01*
X160730883Y-104850883D01*
X160855910Y-104698538D01*
X160948814Y-104524727D01*
X161006024Y-104336132D01*
X161025341Y-104140000D01*
X161019872Y-104084471D01*
X161006025Y-103943873D01*
X161006024Y-103943870D01*
X161006024Y-103943868D01*
X160948814Y-103755273D01*
X160943044Y-103744479D01*
X160911941Y-103686288D01*
X160855910Y-103581462D01*
X160836802Y-103558179D01*
X160730887Y-103429121D01*
X160730878Y-103429112D01*
X160578542Y-103304093D01*
X160578540Y-103304092D01*
X160578538Y-103304090D01*
X160537618Y-103282218D01*
X160404732Y-103211188D01*
X160404730Y-103211187D01*
X160216129Y-103153975D01*
X160216126Y-103153974D01*
X160020003Y-103134659D01*
X160019997Y-103134659D01*
X159823873Y-103153974D01*
X159823870Y-103153975D01*
X159635269Y-103211187D01*
X159635267Y-103211188D01*
X159461467Y-103304087D01*
X159461457Y-103304093D01*
X159365922Y-103382498D01*
X159323846Y-103417028D01*
X159266872Y-103439328D01*
X159261043Y-103439500D01*
X158238957Y-103439500D01*
X158180766Y-103420593D01*
X158176162Y-103417035D01*
X158038538Y-103304090D01*
X157997618Y-103282218D01*
X157864732Y-103211188D01*
X157864730Y-103211187D01*
X157676129Y-103153975D01*
X157676126Y-103153974D01*
X157480003Y-103134659D01*
X157479997Y-103134659D01*
X157283873Y-103153974D01*
X157283870Y-103153975D01*
X157095269Y-103211187D01*
X157095267Y-103211188D01*
X156921467Y-103304087D01*
X156921457Y-103304093D01*
X156825922Y-103382498D01*
X156783846Y-103417028D01*
X156726872Y-103439328D01*
X156721043Y-103439500D01*
X153230911Y-103439500D01*
X153172720Y-103420593D01*
X153154385Y-103403308D01*
X153146410Y-103393590D01*
X153146404Y-103393585D01*
X152986452Y-103262316D01*
X152803954Y-103164768D01*
X152605934Y-103104699D01*
X152605929Y-103104698D01*
X152400003Y-103084417D01*
X152399997Y-103084417D01*
X152194070Y-103104698D01*
X152194065Y-103104699D01*
X151996045Y-103164768D01*
X151813547Y-103262316D01*
X151653595Y-103393585D01*
X151653585Y-103393595D01*
X151522316Y-103553547D01*
X151424768Y-103736045D01*
X151364699Y-103934065D01*
X151364698Y-103934070D01*
X151344417Y-104139996D01*
X148500500Y-104139996D01*
X148500500Y-100730253D01*
X151349500Y-100730253D01*
X151349500Y-102469746D01*
X151349501Y-102469758D01*
X151361132Y-102528227D01*
X151361134Y-102528233D01*
X151405445Y-102594548D01*
X151405448Y-102594552D01*
X151471769Y-102638867D01*
X151516231Y-102647711D01*
X151530241Y-102650498D01*
X151530246Y-102650498D01*
X151530252Y-102650500D01*
X151530253Y-102650500D01*
X153269747Y-102650500D01*
X153269748Y-102650500D01*
X153328231Y-102638867D01*
X153394552Y-102594552D01*
X153438867Y-102528231D01*
X153450500Y-102469748D01*
X153450500Y-101599996D01*
X159014659Y-101599996D01*
X159014659Y-101600003D01*
X159033974Y-101796126D01*
X159033975Y-101796129D01*
X159091187Y-101984730D01*
X159091188Y-101984732D01*
X159132677Y-102062351D01*
X159184090Y-102158538D01*
X159184092Y-102158540D01*
X159184093Y-102158542D01*
X159309112Y-102310878D01*
X159309121Y-102310887D01*
X159350175Y-102344579D01*
X159461462Y-102435910D01*
X159547653Y-102481980D01*
X159634174Y-102528227D01*
X159635273Y-102528814D01*
X159823868Y-102586024D01*
X159823870Y-102586024D01*
X159823873Y-102586025D01*
X160019997Y-102605341D01*
X160020000Y-102605341D01*
X160020003Y-102605341D01*
X160216126Y-102586025D01*
X160216127Y-102586024D01*
X160216132Y-102586024D01*
X160404727Y-102528814D01*
X160578538Y-102435910D01*
X160730883Y-102310883D01*
X160855910Y-102158538D01*
X160948814Y-101984727D01*
X161006024Y-101796132D01*
X161025341Y-101600000D01*
X161020051Y-101546288D01*
X161006025Y-101403873D01*
X161006024Y-101403870D01*
X161006024Y-101403868D01*
X160948814Y-101215273D01*
X160855910Y-101041462D01*
X160836802Y-101018179D01*
X160730887Y-100889121D01*
X160730878Y-100889112D01*
X160578542Y-100764093D01*
X160578540Y-100764092D01*
X160578538Y-100764090D01*
X160537618Y-100742218D01*
X160404732Y-100671188D01*
X160404730Y-100671187D01*
X160216129Y-100613975D01*
X160216126Y-100613974D01*
X160020003Y-100594659D01*
X160019997Y-100594659D01*
X159823873Y-100613974D01*
X159823870Y-100613975D01*
X159635269Y-100671187D01*
X159635267Y-100671188D01*
X159461467Y-100764087D01*
X159461457Y-100764093D01*
X159309121Y-100889112D01*
X159309112Y-100889121D01*
X159184093Y-101041457D01*
X159184087Y-101041467D01*
X159091188Y-101215267D01*
X159091187Y-101215269D01*
X159033975Y-101403870D01*
X159033974Y-101403873D01*
X159014659Y-101599996D01*
X153450500Y-101599996D01*
X153450500Y-100730252D01*
X153438867Y-100671769D01*
X153394552Y-100605448D01*
X153394548Y-100605445D01*
X153328233Y-100561134D01*
X153328231Y-100561133D01*
X153328228Y-100561132D01*
X153328227Y-100561132D01*
X153269758Y-100549501D01*
X153269748Y-100549500D01*
X151530252Y-100549500D01*
X151530251Y-100549500D01*
X151530241Y-100549501D01*
X151471772Y-100561132D01*
X151471766Y-100561134D01*
X151405451Y-100605445D01*
X151405445Y-100605451D01*
X151361134Y-100671766D01*
X151361132Y-100671772D01*
X151349501Y-100730241D01*
X151349500Y-100730253D01*
X148500500Y-100730253D01*
X148500500Y-98297997D01*
X158625353Y-98297997D01*
X158625353Y-98298002D01*
X158645834Y-98440456D01*
X158702931Y-98565479D01*
X158705623Y-98571373D01*
X158783068Y-98660750D01*
X158799873Y-98680144D01*
X158920942Y-98757950D01*
X158920947Y-98757953D01*
X159027403Y-98789211D01*
X159059035Y-98798499D01*
X159059036Y-98798499D01*
X159059039Y-98798500D01*
X159059041Y-98798500D01*
X159202959Y-98798500D01*
X159202961Y-98798500D01*
X159341053Y-98757953D01*
X159341056Y-98757950D01*
X159342162Y-98757447D01*
X159344531Y-98756931D01*
X159347847Y-98755958D01*
X159347916Y-98756195D01*
X159383288Y-98748500D01*
X161883500Y-98748500D01*
X161941691Y-98767407D01*
X161977655Y-98816907D01*
X161982500Y-98847500D01*
X161982500Y-100344102D01*
X161973553Y-100385229D01*
X161947834Y-100441543D01*
X161927353Y-100583997D01*
X161927353Y-100584002D01*
X161947834Y-100726456D01*
X162007622Y-100857371D01*
X162007623Y-100857373D01*
X162058015Y-100915529D01*
X162101873Y-100966144D01*
X162222942Y-101043950D01*
X162222947Y-101043953D01*
X162301899Y-101067135D01*
X162361035Y-101084499D01*
X162361036Y-101084499D01*
X162361039Y-101084500D01*
X162361041Y-101084500D01*
X162504959Y-101084500D01*
X162504961Y-101084500D01*
X162643053Y-101043953D01*
X162764128Y-100966143D01*
X162858377Y-100857373D01*
X162918165Y-100726457D01*
X162934337Y-100613975D01*
X162938647Y-100584002D01*
X162938647Y-100583997D01*
X162918165Y-100441543D01*
X162892447Y-100385229D01*
X162883500Y-100344102D01*
X162883500Y-98537897D01*
X162892446Y-98496771D01*
X162918165Y-98440457D01*
X162918165Y-98440455D01*
X162918166Y-98440454D01*
X162938647Y-98298002D01*
X162938647Y-98297997D01*
X162918165Y-98155543D01*
X162858377Y-98024627D01*
X162764128Y-97915857D01*
X162764127Y-97915856D01*
X162764126Y-97915855D01*
X162643057Y-97838049D01*
X162643054Y-97838047D01*
X162643053Y-97838047D01*
X162643050Y-97838046D01*
X162504964Y-97797500D01*
X162504961Y-97797500D01*
X162361039Y-97797500D01*
X162361035Y-97797500D01*
X162222943Y-97838048D01*
X162221838Y-97838553D01*
X162219468Y-97839068D01*
X162216153Y-97840042D01*
X162216083Y-97839804D01*
X162180712Y-97847500D01*
X159383288Y-97847500D01*
X159347916Y-97839804D01*
X159347847Y-97840042D01*
X159344531Y-97839068D01*
X159342162Y-97838553D01*
X159341056Y-97838048D01*
X159341049Y-97838046D01*
X159324605Y-97833217D01*
X159202964Y-97797500D01*
X159202961Y-97797500D01*
X159059039Y-97797500D01*
X159059035Y-97797500D01*
X158920949Y-97838046D01*
X158920942Y-97838049D01*
X158799873Y-97915855D01*
X158705622Y-98024628D01*
X158645834Y-98155543D01*
X158625353Y-98297997D01*
X148500500Y-98297997D01*
X148500500Y-96519996D01*
X153935161Y-96519996D01*
X153935161Y-96520003D01*
X153954467Y-96716029D01*
X153954468Y-96716034D01*
X154011650Y-96904535D01*
X154011652Y-96904540D01*
X154077921Y-97028523D01*
X154540000Y-96566444D01*
X154540000Y-96572661D01*
X154567259Y-96674394D01*
X154619920Y-96765606D01*
X154694394Y-96840080D01*
X154785606Y-96892741D01*
X154887339Y-96920000D01*
X154893553Y-96920000D01*
X154431476Y-97382077D01*
X154555459Y-97448347D01*
X154555464Y-97448349D01*
X154743965Y-97505531D01*
X154743970Y-97505532D01*
X154939997Y-97524839D01*
X154940003Y-97524839D01*
X155136029Y-97505532D01*
X155136034Y-97505531D01*
X155324535Y-97448349D01*
X155324540Y-97448347D01*
X155448522Y-97382077D01*
X154986445Y-96920000D01*
X154992661Y-96920000D01*
X155094394Y-96892741D01*
X155185606Y-96840080D01*
X155260080Y-96765606D01*
X155312741Y-96674394D01*
X155340000Y-96572661D01*
X155340000Y-96566445D01*
X155802077Y-97028522D01*
X155868347Y-96904540D01*
X155868349Y-96904535D01*
X155925531Y-96716034D01*
X155925532Y-96716029D01*
X155944839Y-96520003D01*
X155944839Y-96519996D01*
X156474659Y-96519996D01*
X156474659Y-96520003D01*
X156493974Y-96716126D01*
X156493975Y-96716129D01*
X156551187Y-96904730D01*
X156551188Y-96904732D01*
X156586342Y-96970500D01*
X156644090Y-97078538D01*
X156644092Y-97078540D01*
X156644093Y-97078542D01*
X156769112Y-97230878D01*
X156769121Y-97230887D01*
X156812411Y-97266414D01*
X156921462Y-97355910D01*
X157007653Y-97401980D01*
X157094174Y-97448227D01*
X157095273Y-97448814D01*
X157283868Y-97506024D01*
X157283870Y-97506024D01*
X157283873Y-97506025D01*
X157479997Y-97525341D01*
X157480000Y-97525341D01*
X157480003Y-97525341D01*
X157676126Y-97506025D01*
X157676127Y-97506024D01*
X157676132Y-97506024D01*
X157864727Y-97448814D01*
X158038538Y-97355910D01*
X158190883Y-97230883D01*
X158315910Y-97078538D01*
X158345686Y-97022830D01*
X158389792Y-96980425D01*
X158432996Y-96970500D01*
X161410500Y-96970500D01*
X161468691Y-96989407D01*
X161504655Y-97038907D01*
X161509500Y-97069500D01*
X161509500Y-97389746D01*
X161509501Y-97389758D01*
X161521132Y-97448227D01*
X161521134Y-97448233D01*
X161565445Y-97514548D01*
X161565448Y-97514552D01*
X161631769Y-97558867D01*
X161676231Y-97567711D01*
X161690241Y-97570498D01*
X161690246Y-97570498D01*
X161690252Y-97570500D01*
X161690253Y-97570500D01*
X163429747Y-97570500D01*
X163429748Y-97570500D01*
X163488231Y-97558867D01*
X163554552Y-97514552D01*
X163598867Y-97448231D01*
X163610500Y-97389748D01*
X163610500Y-95650252D01*
X163608921Y-95642316D01*
X163602230Y-95608677D01*
X163598867Y-95591769D01*
X163554552Y-95525448D01*
X163554548Y-95525445D01*
X163488233Y-95481134D01*
X163488231Y-95481133D01*
X163488228Y-95481132D01*
X163488227Y-95481132D01*
X163429758Y-95469501D01*
X163429748Y-95469500D01*
X161690252Y-95469500D01*
X161690251Y-95469500D01*
X161690241Y-95469501D01*
X161631772Y-95481132D01*
X161631766Y-95481134D01*
X161565451Y-95525445D01*
X161565445Y-95525451D01*
X161521134Y-95591766D01*
X161521132Y-95591772D01*
X161509501Y-95650241D01*
X161509500Y-95650253D01*
X161509500Y-95970500D01*
X161490593Y-96028691D01*
X161441093Y-96064655D01*
X161410500Y-96069500D01*
X158432996Y-96069500D01*
X158374805Y-96050593D01*
X158345686Y-96017169D01*
X158340322Y-96007134D01*
X158315910Y-95961462D01*
X158315906Y-95961457D01*
X158190887Y-95809121D01*
X158190878Y-95809112D01*
X158038542Y-95684093D01*
X158038540Y-95684092D01*
X158038538Y-95684090D01*
X157989579Y-95657921D01*
X157864732Y-95591188D01*
X157864730Y-95591187D01*
X157676129Y-95533975D01*
X157676126Y-95533974D01*
X157480003Y-95514659D01*
X157479997Y-95514659D01*
X157283873Y-95533974D01*
X157283870Y-95533975D01*
X157095269Y-95591187D01*
X157095267Y-95591188D01*
X156921467Y-95684087D01*
X156921457Y-95684093D01*
X156769121Y-95809112D01*
X156769112Y-95809121D01*
X156644093Y-95961457D01*
X156644087Y-95961467D01*
X156551188Y-96135267D01*
X156551187Y-96135269D01*
X156493975Y-96323870D01*
X156493974Y-96323873D01*
X156474659Y-96519996D01*
X155944839Y-96519996D01*
X155925532Y-96323970D01*
X155925531Y-96323965D01*
X155868349Y-96135464D01*
X155868347Y-96135459D01*
X155802077Y-96011476D01*
X155340000Y-96473553D01*
X155340000Y-96467339D01*
X155312741Y-96365606D01*
X155260080Y-96274394D01*
X155185606Y-96199920D01*
X155094394Y-96147259D01*
X154992661Y-96120000D01*
X154986444Y-96120000D01*
X155448523Y-95657921D01*
X155324540Y-95591652D01*
X155324535Y-95591650D01*
X155136034Y-95534468D01*
X155136029Y-95534467D01*
X154940003Y-95515161D01*
X154939997Y-95515161D01*
X154743970Y-95534467D01*
X154743965Y-95534468D01*
X154555472Y-95591648D01*
X154555460Y-95591652D01*
X154431476Y-95657922D01*
X154893554Y-96120000D01*
X154887339Y-96120000D01*
X154785606Y-96147259D01*
X154694394Y-96199920D01*
X154619920Y-96274394D01*
X154567259Y-96365606D01*
X154540000Y-96467339D01*
X154540000Y-96473554D01*
X154077922Y-96011476D01*
X154011652Y-96135460D01*
X154011648Y-96135472D01*
X153954468Y-96323965D01*
X153954467Y-96323970D01*
X153935161Y-96519996D01*
X148500500Y-96519996D01*
X148500500Y-88899996D01*
X159014659Y-88899996D01*
X159014659Y-88900003D01*
X159033974Y-89096126D01*
X159033975Y-89096129D01*
X159091187Y-89284730D01*
X159091188Y-89284732D01*
X159099082Y-89299500D01*
X159184090Y-89458538D01*
X159184092Y-89458540D01*
X159184093Y-89458542D01*
X159309112Y-89610878D01*
X159309121Y-89610887D01*
X159461457Y-89735906D01*
X159461462Y-89735910D01*
X159635273Y-89828814D01*
X159823868Y-89886024D01*
X159823870Y-89886024D01*
X159823873Y-89886025D01*
X160019997Y-89905341D01*
X160020000Y-89905341D01*
X160020003Y-89905341D01*
X160216126Y-89886025D01*
X160216127Y-89886024D01*
X160216132Y-89886024D01*
X160404727Y-89828814D01*
X160578538Y-89735910D01*
X160730883Y-89610883D01*
X160855910Y-89458538D01*
X160948814Y-89284727D01*
X161006024Y-89096132D01*
X161025341Y-88900000D01*
X161025341Y-88899996D01*
X161006025Y-88703873D01*
X161006024Y-88703870D01*
X161006024Y-88703868D01*
X160948814Y-88515273D01*
X160855910Y-88341462D01*
X160776344Y-88244511D01*
X160730887Y-88189121D01*
X160730878Y-88189112D01*
X160578542Y-88064093D01*
X160578540Y-88064092D01*
X160578538Y-88064090D01*
X160499361Y-88021769D01*
X160404732Y-87971188D01*
X160404730Y-87971187D01*
X160216129Y-87913975D01*
X160216126Y-87913974D01*
X160020003Y-87894659D01*
X160019997Y-87894659D01*
X159823873Y-87913974D01*
X159823870Y-87913975D01*
X159635269Y-87971187D01*
X159635267Y-87971188D01*
X159461467Y-88064087D01*
X159461457Y-88064093D01*
X159309121Y-88189112D01*
X159309112Y-88189121D01*
X159184093Y-88341457D01*
X159184087Y-88341467D01*
X159091188Y-88515267D01*
X159091187Y-88515269D01*
X159033975Y-88703870D01*
X159033974Y-88703873D01*
X159014659Y-88899996D01*
X148500500Y-88899996D01*
X148500500Y-86359996D01*
X151344417Y-86359996D01*
X151344417Y-86360003D01*
X151364698Y-86565929D01*
X151364699Y-86565934D01*
X151424768Y-86763954D01*
X151522316Y-86946452D01*
X151615913Y-87060500D01*
X151653590Y-87106410D01*
X151653595Y-87106414D01*
X151813547Y-87237683D01*
X151813548Y-87237683D01*
X151813550Y-87237685D01*
X151996046Y-87335232D01*
X152133997Y-87377078D01*
X152194065Y-87395300D01*
X152194070Y-87395301D01*
X152399997Y-87415583D01*
X152400000Y-87415583D01*
X152400003Y-87415583D01*
X152605929Y-87395301D01*
X152605934Y-87395300D01*
X152616641Y-87392052D01*
X152803954Y-87335232D01*
X152986450Y-87237685D01*
X153146410Y-87106410D01*
X153154384Y-87096693D01*
X153205915Y-87063707D01*
X153230911Y-87060500D01*
X156721043Y-87060500D01*
X156779234Y-87079407D01*
X156783837Y-87082964D01*
X156897310Y-87176089D01*
X156901706Y-87179697D01*
X156921462Y-87195910D01*
X157054353Y-87266942D01*
X157094174Y-87288227D01*
X157095273Y-87288814D01*
X157283868Y-87346024D01*
X157283870Y-87346024D01*
X157283873Y-87346025D01*
X157479997Y-87365341D01*
X157480000Y-87365341D01*
X157480003Y-87365341D01*
X157676126Y-87346025D01*
X157676127Y-87346024D01*
X157676132Y-87346024D01*
X157864727Y-87288814D01*
X158038538Y-87195910D01*
X158176153Y-87082971D01*
X158233128Y-87060672D01*
X158238957Y-87060500D01*
X159261043Y-87060500D01*
X159319234Y-87079407D01*
X159323837Y-87082964D01*
X159437310Y-87176089D01*
X159441706Y-87179697D01*
X159461462Y-87195910D01*
X159594353Y-87266942D01*
X159634174Y-87288227D01*
X159635273Y-87288814D01*
X159823868Y-87346024D01*
X159823870Y-87346024D01*
X159823873Y-87346025D01*
X160019997Y-87365341D01*
X160020000Y-87365341D01*
X160020003Y-87365341D01*
X160216126Y-87346025D01*
X160216127Y-87346024D01*
X160216132Y-87346024D01*
X160404727Y-87288814D01*
X160578538Y-87195910D01*
X160730883Y-87070883D01*
X160855910Y-86918538D01*
X160948814Y-86744727D01*
X161006024Y-86556132D01*
X161006334Y-86552993D01*
X161025341Y-86360003D01*
X161025341Y-86359996D01*
X161006025Y-86163873D01*
X161006024Y-86163870D01*
X161006024Y-86163868D01*
X160948814Y-85975273D01*
X160940650Y-85960000D01*
X160887199Y-85860000D01*
X160855910Y-85801462D01*
X160833001Y-85773547D01*
X160730887Y-85649121D01*
X160730878Y-85649112D01*
X160578542Y-85524093D01*
X160578540Y-85524092D01*
X160578538Y-85524090D01*
X160515320Y-85490299D01*
X160404732Y-85431188D01*
X160404730Y-85431187D01*
X160216129Y-85373975D01*
X160216126Y-85373974D01*
X160020003Y-85354659D01*
X160019997Y-85354659D01*
X159823873Y-85373974D01*
X159823870Y-85373975D01*
X159635269Y-85431187D01*
X159635267Y-85431188D01*
X159461467Y-85524087D01*
X159461457Y-85524093D01*
X159365922Y-85602498D01*
X159323846Y-85637028D01*
X159266872Y-85659328D01*
X159261043Y-85659500D01*
X158238957Y-85659500D01*
X158180766Y-85640593D01*
X158176162Y-85637035D01*
X158038538Y-85524090D01*
X157975320Y-85490299D01*
X157864732Y-85431188D01*
X157864730Y-85431187D01*
X157676129Y-85373975D01*
X157676126Y-85373974D01*
X157480003Y-85354659D01*
X157479997Y-85354659D01*
X157283873Y-85373974D01*
X157283870Y-85373975D01*
X157095269Y-85431187D01*
X157095267Y-85431188D01*
X156921467Y-85524087D01*
X156921457Y-85524093D01*
X156825922Y-85602498D01*
X156783846Y-85637028D01*
X156726872Y-85659328D01*
X156721043Y-85659500D01*
X153230911Y-85659500D01*
X153172720Y-85640593D01*
X153154385Y-85623308D01*
X153146410Y-85613590D01*
X153057108Y-85540302D01*
X152986452Y-85482316D01*
X152803954Y-85384768D01*
X152605934Y-85324699D01*
X152605929Y-85324698D01*
X152400003Y-85304417D01*
X152399997Y-85304417D01*
X152194070Y-85324698D01*
X152194065Y-85324699D01*
X151996045Y-85384768D01*
X151813547Y-85482316D01*
X151653595Y-85613585D01*
X151653585Y-85613595D01*
X151522316Y-85773547D01*
X151424768Y-85956045D01*
X151364699Y-86154065D01*
X151364698Y-86154070D01*
X151344417Y-86359996D01*
X148500500Y-86359996D01*
X148500500Y-83819996D01*
X151344417Y-83819996D01*
X151344417Y-83820003D01*
X151364698Y-84025929D01*
X151364699Y-84025934D01*
X151424768Y-84223954D01*
X151522316Y-84406452D01*
X151653302Y-84566059D01*
X151653590Y-84566410D01*
X151653595Y-84566414D01*
X151813547Y-84697683D01*
X151813548Y-84697683D01*
X151813550Y-84697685D01*
X151996046Y-84795232D01*
X152133997Y-84837078D01*
X152194065Y-84855300D01*
X152194070Y-84855301D01*
X152399997Y-84875583D01*
X152400000Y-84875583D01*
X152400003Y-84875583D01*
X152605929Y-84855301D01*
X152605934Y-84855300D01*
X152651720Y-84841411D01*
X152803954Y-84795232D01*
X152986450Y-84697685D01*
X153146410Y-84566410D01*
X153154384Y-84556693D01*
X153205915Y-84523707D01*
X153230911Y-84520500D01*
X156721043Y-84520500D01*
X156779234Y-84539407D01*
X156783837Y-84542964D01*
X156921462Y-84655910D01*
X157095273Y-84748814D01*
X157283868Y-84806024D01*
X157283870Y-84806024D01*
X157283873Y-84806025D01*
X157479997Y-84825341D01*
X157480000Y-84825341D01*
X157480003Y-84825341D01*
X157676126Y-84806025D01*
X157676127Y-84806024D01*
X157676132Y-84806024D01*
X157864727Y-84748814D01*
X158038538Y-84655910D01*
X158176153Y-84542971D01*
X158233128Y-84520672D01*
X158238957Y-84520500D01*
X159261043Y-84520500D01*
X159319234Y-84539407D01*
X159323837Y-84542964D01*
X159461462Y-84655910D01*
X159635273Y-84748814D01*
X159823868Y-84806024D01*
X159823870Y-84806024D01*
X159823873Y-84806025D01*
X160019997Y-84825341D01*
X160020000Y-84825341D01*
X160020003Y-84825341D01*
X160216126Y-84806025D01*
X160216127Y-84806024D01*
X160216132Y-84806024D01*
X160404727Y-84748814D01*
X160578538Y-84655910D01*
X160730883Y-84530883D01*
X160855910Y-84378538D01*
X160948814Y-84204727D01*
X161006024Y-84016132D01*
X161006334Y-84012993D01*
X161025341Y-83820003D01*
X161025341Y-83819996D01*
X161006025Y-83623873D01*
X161006024Y-83623870D01*
X161006024Y-83623868D01*
X160948814Y-83435273D01*
X160940597Y-83419901D01*
X160887199Y-83320000D01*
X160855910Y-83261462D01*
X160833001Y-83233547D01*
X160730887Y-83109121D01*
X160730878Y-83109112D01*
X160578542Y-82984093D01*
X160578540Y-82984092D01*
X160578538Y-82984090D01*
X160501148Y-82942724D01*
X160404732Y-82891188D01*
X160404730Y-82891187D01*
X160385913Y-82885479D01*
X160216132Y-82833976D01*
X160216129Y-82833975D01*
X160216126Y-82833974D01*
X160020003Y-82814659D01*
X160019997Y-82814659D01*
X159823873Y-82833974D01*
X159823870Y-82833975D01*
X159635269Y-82891187D01*
X159635267Y-82891188D01*
X159461467Y-82984087D01*
X159461457Y-82984093D01*
X159365922Y-83062498D01*
X159323846Y-83097028D01*
X159266872Y-83119328D01*
X159261043Y-83119500D01*
X158238957Y-83119500D01*
X158180766Y-83100593D01*
X158176162Y-83097035D01*
X158038538Y-82984090D01*
X157961148Y-82942724D01*
X157864732Y-82891188D01*
X157864730Y-82891187D01*
X157845913Y-82885479D01*
X157676132Y-82833976D01*
X157676129Y-82833975D01*
X157676126Y-82833974D01*
X157480003Y-82814659D01*
X157479997Y-82814659D01*
X157283873Y-82833974D01*
X157283870Y-82833975D01*
X157095269Y-82891187D01*
X157095267Y-82891188D01*
X156921467Y-82984087D01*
X156921457Y-82984093D01*
X156825922Y-83062498D01*
X156783846Y-83097028D01*
X156726872Y-83119328D01*
X156721043Y-83119500D01*
X153230911Y-83119500D01*
X153172720Y-83100593D01*
X153154385Y-83083308D01*
X153146410Y-83073590D01*
X153124337Y-83055475D01*
X152986452Y-82942316D01*
X152803954Y-82844768D01*
X152605934Y-82784699D01*
X152605929Y-82784698D01*
X152400003Y-82764417D01*
X152399997Y-82764417D01*
X152194070Y-82784698D01*
X152194065Y-82784699D01*
X151996045Y-82844768D01*
X151813547Y-82942316D01*
X151653595Y-83073585D01*
X151653585Y-83073595D01*
X151522316Y-83233547D01*
X151424768Y-83416045D01*
X151364699Y-83614065D01*
X151364698Y-83614070D01*
X151344417Y-83819996D01*
X148500500Y-83819996D01*
X148500500Y-80410253D01*
X151349500Y-80410253D01*
X151349500Y-82149746D01*
X151349501Y-82149758D01*
X151361132Y-82208227D01*
X151361134Y-82208233D01*
X151399750Y-82266025D01*
X151405448Y-82274552D01*
X151471769Y-82318867D01*
X151516231Y-82327711D01*
X151530241Y-82330498D01*
X151530246Y-82330498D01*
X151530252Y-82330500D01*
X151530253Y-82330500D01*
X153269747Y-82330500D01*
X153269748Y-82330500D01*
X153328231Y-82318867D01*
X153394552Y-82274552D01*
X153438867Y-82208231D01*
X153450500Y-82149748D01*
X153450500Y-81279996D01*
X159014659Y-81279996D01*
X159014659Y-81280003D01*
X159033974Y-81476126D01*
X159033975Y-81476129D01*
X159091187Y-81664730D01*
X159091188Y-81664732D01*
X159162218Y-81797618D01*
X159184090Y-81838538D01*
X159184092Y-81838540D01*
X159184093Y-81838542D01*
X159309112Y-81990878D01*
X159309121Y-81990887D01*
X159352411Y-82026414D01*
X159461462Y-82115910D01*
X159594353Y-82186942D01*
X159634174Y-82208227D01*
X159635273Y-82208814D01*
X159823868Y-82266024D01*
X159823870Y-82266024D01*
X159823873Y-82266025D01*
X160019997Y-82285341D01*
X160020000Y-82285341D01*
X160020003Y-82285341D01*
X160216126Y-82266025D01*
X160216127Y-82266024D01*
X160216132Y-82266024D01*
X160404727Y-82208814D01*
X160578538Y-82115910D01*
X160730883Y-81990883D01*
X160855910Y-81838538D01*
X160948814Y-81664727D01*
X161006024Y-81476132D01*
X161025341Y-81280000D01*
X161010023Y-81124471D01*
X161006025Y-81083873D01*
X161006024Y-81083870D01*
X161006024Y-81083868D01*
X160948814Y-80895273D01*
X160938536Y-80876045D01*
X160860469Y-80729992D01*
X160855910Y-80721462D01*
X160833001Y-80693547D01*
X160730887Y-80569121D01*
X160730878Y-80569112D01*
X160578542Y-80444093D01*
X160578540Y-80444092D01*
X160578538Y-80444090D01*
X160537618Y-80422218D01*
X160404732Y-80351188D01*
X160404730Y-80351187D01*
X160366335Y-80339540D01*
X160216132Y-80293976D01*
X160216129Y-80293975D01*
X160216126Y-80293974D01*
X160020003Y-80274659D01*
X160019997Y-80274659D01*
X159823873Y-80293974D01*
X159823870Y-80293975D01*
X159635269Y-80351187D01*
X159635267Y-80351188D01*
X159461467Y-80444087D01*
X159461457Y-80444093D01*
X159309121Y-80569112D01*
X159309112Y-80569121D01*
X159184093Y-80721457D01*
X159184087Y-80721467D01*
X159091188Y-80895267D01*
X159091187Y-80895269D01*
X159033975Y-81083870D01*
X159033974Y-81083873D01*
X159014659Y-81279996D01*
X153450500Y-81279996D01*
X153450500Y-80410252D01*
X153448921Y-80402316D01*
X153447563Y-80395489D01*
X153438867Y-80351769D01*
X153394552Y-80285448D01*
X153394548Y-80285445D01*
X153328233Y-80241134D01*
X153328231Y-80241133D01*
X153328228Y-80241132D01*
X153328227Y-80241132D01*
X153269758Y-80229501D01*
X153269748Y-80229500D01*
X151530252Y-80229500D01*
X151530251Y-80229500D01*
X151530241Y-80229501D01*
X151471772Y-80241132D01*
X151471766Y-80241134D01*
X151405451Y-80285445D01*
X151405445Y-80285451D01*
X151361134Y-80351766D01*
X151361132Y-80351772D01*
X151349501Y-80410241D01*
X151349500Y-80410253D01*
X148500500Y-80410253D01*
X148500500Y-76199996D01*
X153935161Y-76199996D01*
X153935161Y-76200003D01*
X153954467Y-76396029D01*
X153954468Y-76396034D01*
X154011650Y-76584535D01*
X154011652Y-76584540D01*
X154077921Y-76708523D01*
X154540000Y-76246444D01*
X154540000Y-76252661D01*
X154567259Y-76354394D01*
X154619920Y-76445606D01*
X154694394Y-76520080D01*
X154785606Y-76572741D01*
X154887339Y-76600000D01*
X154893553Y-76600000D01*
X154431476Y-77062077D01*
X154555459Y-77128347D01*
X154555464Y-77128349D01*
X154743965Y-77185531D01*
X154743970Y-77185532D01*
X154939997Y-77204839D01*
X154940003Y-77204839D01*
X155136029Y-77185532D01*
X155136034Y-77185531D01*
X155324535Y-77128349D01*
X155324540Y-77128347D01*
X155448522Y-77062077D01*
X154986445Y-76600000D01*
X154992661Y-76600000D01*
X155094394Y-76572741D01*
X155185606Y-76520080D01*
X155260080Y-76445606D01*
X155312741Y-76354394D01*
X155340000Y-76252661D01*
X155340000Y-76246445D01*
X155802077Y-76708522D01*
X155868347Y-76584540D01*
X155868349Y-76584535D01*
X155925531Y-76396034D01*
X155925532Y-76396029D01*
X155944839Y-76200003D01*
X155944839Y-76199996D01*
X156474659Y-76199996D01*
X156474659Y-76200003D01*
X156493974Y-76396126D01*
X156493975Y-76396129D01*
X156551187Y-76584730D01*
X156551188Y-76584732D01*
X156614314Y-76702831D01*
X156644090Y-76758538D01*
X156644092Y-76758540D01*
X156644093Y-76758542D01*
X156769112Y-76910878D01*
X156769121Y-76910887D01*
X156812411Y-76946414D01*
X156921462Y-77035910D01*
X157054353Y-77106942D01*
X157094174Y-77128227D01*
X157095273Y-77128814D01*
X157283868Y-77186024D01*
X157283870Y-77186024D01*
X157283873Y-77186025D01*
X157479997Y-77205341D01*
X157480000Y-77205341D01*
X157480003Y-77205341D01*
X157676126Y-77186025D01*
X157676127Y-77186024D01*
X157676132Y-77186024D01*
X157864727Y-77128814D01*
X158038538Y-77035910D01*
X158190883Y-76910883D01*
X158315910Y-76758538D01*
X158345686Y-76702830D01*
X158389792Y-76660425D01*
X158432996Y-76650500D01*
X161410500Y-76650500D01*
X161468691Y-76669407D01*
X161504655Y-76718907D01*
X161509500Y-76749500D01*
X161509500Y-77069746D01*
X161509501Y-77069758D01*
X161521132Y-77128227D01*
X161521134Y-77128233D01*
X161559750Y-77186025D01*
X161565448Y-77194552D01*
X161631769Y-77238867D01*
X161676231Y-77247711D01*
X161690241Y-77250498D01*
X161690246Y-77250498D01*
X161690252Y-77250500D01*
X161690253Y-77250500D01*
X163429747Y-77250500D01*
X163429748Y-77250500D01*
X163488231Y-77238867D01*
X163554552Y-77194552D01*
X163598867Y-77128231D01*
X163610500Y-77069748D01*
X163610500Y-76199996D01*
X164044417Y-76199996D01*
X164044417Y-76200003D01*
X164064698Y-76405929D01*
X164064699Y-76405934D01*
X164124768Y-76603954D01*
X164222316Y-76786452D01*
X164324430Y-76910878D01*
X164353590Y-76946410D01*
X164353595Y-76946414D01*
X164513547Y-77077683D01*
X164513548Y-77077683D01*
X164513550Y-77077685D01*
X164696046Y-77175232D01*
X164833997Y-77217078D01*
X164894065Y-77235300D01*
X164894070Y-77235301D01*
X165099997Y-77255583D01*
X165100000Y-77255583D01*
X165100003Y-77255583D01*
X165305929Y-77235301D01*
X165305934Y-77235300D01*
X165503954Y-77175232D01*
X165686450Y-77077685D01*
X165846410Y-76946410D01*
X165977685Y-76786450D01*
X166075232Y-76603954D01*
X166085300Y-76570762D01*
X166120284Y-76520566D01*
X166178092Y-76500519D01*
X166180037Y-76500500D01*
X170274521Y-76500500D01*
X170332712Y-76519407D01*
X170344525Y-76529496D01*
X171670504Y-77855475D01*
X171698281Y-77909992D01*
X171699500Y-77925479D01*
X171699500Y-82395521D01*
X171680593Y-82453712D01*
X171631093Y-82489676D01*
X171569907Y-82489676D01*
X171530496Y-82465525D01*
X170841670Y-81776699D01*
X170104511Y-81039540D01*
X170104508Y-81039538D01*
X170035992Y-80999980D01*
X170035988Y-80999978D01*
X169959564Y-80979500D01*
X169959562Y-80979500D01*
X168667787Y-80979500D01*
X168609596Y-80960593D01*
X168573632Y-80911093D01*
X168573050Y-80909238D01*
X168568814Y-80895273D01*
X168558536Y-80876045D01*
X168480469Y-80729992D01*
X168475910Y-80721462D01*
X168453001Y-80693547D01*
X168350887Y-80569121D01*
X168350878Y-80569112D01*
X168198542Y-80444093D01*
X168198540Y-80444092D01*
X168198538Y-80444090D01*
X168157618Y-80422218D01*
X168024732Y-80351188D01*
X168024730Y-80351187D01*
X167986335Y-80339540D01*
X167836132Y-80293976D01*
X167836129Y-80293975D01*
X167836126Y-80293974D01*
X167640003Y-80274659D01*
X167639997Y-80274659D01*
X167443873Y-80293974D01*
X167443870Y-80293975D01*
X167255269Y-80351187D01*
X167255267Y-80351188D01*
X167081467Y-80444087D01*
X167081457Y-80444093D01*
X166929121Y-80569112D01*
X166929112Y-80569121D01*
X166804093Y-80721457D01*
X166804087Y-80721467D01*
X166711188Y-80895267D01*
X166711187Y-80895269D01*
X166653975Y-81083870D01*
X166653974Y-81083873D01*
X166634659Y-81279996D01*
X166634659Y-81280003D01*
X166653974Y-81476126D01*
X166653975Y-81476129D01*
X166711187Y-81664730D01*
X166711188Y-81664732D01*
X166782218Y-81797618D01*
X166804090Y-81838538D01*
X166804092Y-81838540D01*
X166804093Y-81838542D01*
X166929112Y-81990878D01*
X166929121Y-81990887D01*
X166972411Y-82026414D01*
X167081462Y-82115910D01*
X167214353Y-82186942D01*
X167254174Y-82208227D01*
X167255273Y-82208814D01*
X167443868Y-82266024D01*
X167443870Y-82266024D01*
X167443873Y-82266025D01*
X167639997Y-82285341D01*
X167640000Y-82285341D01*
X167640003Y-82285341D01*
X167836126Y-82266025D01*
X167836127Y-82266024D01*
X167836132Y-82266024D01*
X168024727Y-82208814D01*
X168198538Y-82115910D01*
X168350883Y-81990883D01*
X168475910Y-81838538D01*
X168568814Y-81664727D01*
X168573050Y-81650761D01*
X168608035Y-81600565D01*
X168665843Y-81580519D01*
X168667787Y-81580500D01*
X169754521Y-81580500D01*
X169812712Y-81599407D01*
X169824525Y-81609496D01*
X171270504Y-83055475D01*
X171298281Y-83109992D01*
X171299500Y-83125479D01*
X171299500Y-87495521D01*
X171280593Y-87553712D01*
X171231093Y-87589676D01*
X171169907Y-87589676D01*
X171130496Y-87565525D01*
X169829496Y-86264525D01*
X169801719Y-86210008D01*
X169800500Y-86194521D01*
X169800500Y-84497437D01*
X169800499Y-84497435D01*
X169780021Y-84421011D01*
X169780019Y-84421007D01*
X169740460Y-84352489D01*
X169684511Y-84296539D01*
X169684511Y-84296540D01*
X168967511Y-83579540D01*
X168967508Y-83579538D01*
X168898992Y-83539980D01*
X168898988Y-83539978D01*
X168822564Y-83519500D01*
X168822562Y-83519500D01*
X168667787Y-83519500D01*
X168609596Y-83500593D01*
X168573632Y-83451093D01*
X168573050Y-83449238D01*
X168568814Y-83435273D01*
X168560597Y-83419901D01*
X168507199Y-83320000D01*
X168475910Y-83261462D01*
X168453001Y-83233547D01*
X168350887Y-83109121D01*
X168350878Y-83109112D01*
X168198542Y-82984093D01*
X168198540Y-82984092D01*
X168198538Y-82984090D01*
X168121148Y-82942724D01*
X168024732Y-82891188D01*
X168024730Y-82891187D01*
X168005913Y-82885479D01*
X167836132Y-82833976D01*
X167836129Y-82833975D01*
X167836126Y-82833974D01*
X167640003Y-82814659D01*
X167639997Y-82814659D01*
X167443873Y-82833974D01*
X167443870Y-82833975D01*
X167255269Y-82891187D01*
X167255267Y-82891188D01*
X167081467Y-82984087D01*
X167081457Y-82984093D01*
X166929121Y-83109112D01*
X166929112Y-83109121D01*
X166804093Y-83261457D01*
X166804087Y-83261467D01*
X166711188Y-83435267D01*
X166711187Y-83435269D01*
X166653975Y-83623870D01*
X166653974Y-83623873D01*
X166634659Y-83819996D01*
X166634659Y-83820003D01*
X166653974Y-84016126D01*
X166653975Y-84016129D01*
X166711187Y-84204730D01*
X166711188Y-84204732D01*
X166772801Y-84320000D01*
X166804090Y-84378538D01*
X166804092Y-84378540D01*
X166804093Y-84378542D01*
X166929112Y-84530878D01*
X166929121Y-84530887D01*
X167081457Y-84655906D01*
X167081462Y-84655910D01*
X167255273Y-84748814D01*
X167443868Y-84806024D01*
X167443870Y-84806024D01*
X167443873Y-84806025D01*
X167639997Y-84825341D01*
X167640000Y-84825341D01*
X167640003Y-84825341D01*
X167836126Y-84806025D01*
X167836127Y-84806024D01*
X167836132Y-84806024D01*
X168024727Y-84748814D01*
X168198538Y-84655910D01*
X168350883Y-84530883D01*
X168475910Y-84378538D01*
X168566478Y-84209096D01*
X168610582Y-84166691D01*
X168671191Y-84158308D01*
X168723791Y-84185762D01*
X169170504Y-84632475D01*
X169198281Y-84686992D01*
X169199500Y-84702479D01*
X169199500Y-85960500D01*
X169180593Y-86018691D01*
X169131093Y-86054655D01*
X169100500Y-86059500D01*
X168667787Y-86059500D01*
X168609596Y-86040593D01*
X168573632Y-85991093D01*
X168573050Y-85989238D01*
X168572450Y-85987259D01*
X168568814Y-85975273D01*
X168560650Y-85960000D01*
X168507199Y-85860000D01*
X168475910Y-85801462D01*
X168453001Y-85773547D01*
X168350887Y-85649121D01*
X168350878Y-85649112D01*
X168198542Y-85524093D01*
X168198540Y-85524092D01*
X168198538Y-85524090D01*
X168135320Y-85490299D01*
X168024732Y-85431188D01*
X168024730Y-85431187D01*
X167836129Y-85373975D01*
X167836126Y-85373974D01*
X167640003Y-85354659D01*
X167639997Y-85354659D01*
X167443873Y-85373974D01*
X167443870Y-85373975D01*
X167255269Y-85431187D01*
X167255267Y-85431188D01*
X167081467Y-85524087D01*
X167081457Y-85524093D01*
X166929121Y-85649112D01*
X166929112Y-85649121D01*
X166804093Y-85801457D01*
X166804087Y-85801467D01*
X166711188Y-85975267D01*
X166711187Y-85975269D01*
X166653975Y-86163870D01*
X166653974Y-86163873D01*
X166634659Y-86359996D01*
X166634659Y-86360003D01*
X166653974Y-86556126D01*
X166653975Y-86556129D01*
X166711187Y-86744730D01*
X166711188Y-86744732D01*
X166754587Y-86825925D01*
X166804090Y-86918538D01*
X166804092Y-86918540D01*
X166804093Y-86918542D01*
X166929112Y-87070878D01*
X166929121Y-87070887D01*
X167061710Y-87179700D01*
X167081462Y-87195910D01*
X167214353Y-87266942D01*
X167254174Y-87288227D01*
X167255273Y-87288814D01*
X167443868Y-87346024D01*
X167443870Y-87346024D01*
X167443873Y-87346025D01*
X167639997Y-87365341D01*
X167640000Y-87365341D01*
X167640003Y-87365341D01*
X167836126Y-87346025D01*
X167836127Y-87346024D01*
X167836132Y-87346024D01*
X168024727Y-87288814D01*
X168198538Y-87195910D01*
X168350883Y-87070883D01*
X168475910Y-86918538D01*
X168568814Y-86744727D01*
X168573050Y-86730761D01*
X168608035Y-86680565D01*
X168665843Y-86660519D01*
X168667787Y-86660500D01*
X169334521Y-86660500D01*
X169392712Y-86679407D01*
X169404525Y-86689496D01*
X170870504Y-88155475D01*
X170898281Y-88209992D01*
X170899500Y-88225479D01*
X170899500Y-89395521D01*
X170880593Y-89453712D01*
X170831093Y-89489676D01*
X170769907Y-89489676D01*
X170730496Y-89465525D01*
X170361097Y-89096126D01*
X169924511Y-88659540D01*
X169924508Y-88659538D01*
X169855992Y-88619980D01*
X169855988Y-88619978D01*
X169779564Y-88599500D01*
X169779562Y-88599500D01*
X168739500Y-88599500D01*
X168681309Y-88580593D01*
X168645345Y-88531093D01*
X168640500Y-88500500D01*
X168640500Y-88080253D01*
X168640498Y-88080241D01*
X168637285Y-88064087D01*
X168628867Y-88021769D01*
X168584552Y-87955448D01*
X168522486Y-87913976D01*
X168518233Y-87911134D01*
X168518231Y-87911133D01*
X168518228Y-87911132D01*
X168518227Y-87911132D01*
X168459758Y-87899501D01*
X168459748Y-87899500D01*
X166820252Y-87899500D01*
X166820251Y-87899500D01*
X166820241Y-87899501D01*
X166761772Y-87911132D01*
X166761766Y-87911134D01*
X166695451Y-87955445D01*
X166695445Y-87955451D01*
X166651134Y-88021766D01*
X166651132Y-88021772D01*
X166639501Y-88080241D01*
X166639500Y-88080253D01*
X166639500Y-89719746D01*
X166639501Y-89719758D01*
X166651132Y-89778227D01*
X166651134Y-89778233D01*
X166684932Y-89828814D01*
X166695448Y-89844552D01*
X166761769Y-89888867D01*
X166806231Y-89897711D01*
X166820241Y-89900498D01*
X166820246Y-89900498D01*
X166820252Y-89900500D01*
X166820253Y-89900500D01*
X168459747Y-89900500D01*
X168459748Y-89900500D01*
X168518231Y-89888867D01*
X168584552Y-89844552D01*
X168628867Y-89778231D01*
X168640500Y-89719748D01*
X168640500Y-89299500D01*
X168659407Y-89241309D01*
X168708907Y-89205345D01*
X168739500Y-89200500D01*
X169574521Y-89200500D01*
X169632712Y-89219407D01*
X169644525Y-89229496D01*
X170470504Y-90055475D01*
X170498281Y-90109992D01*
X170499500Y-90125479D01*
X170499500Y-97835521D01*
X170480593Y-97893712D01*
X170431093Y-97929676D01*
X170369907Y-97929676D01*
X170330496Y-97905525D01*
X169526784Y-97101813D01*
X168704511Y-96279540D01*
X168668068Y-96258500D01*
X168668067Y-96258499D01*
X168668067Y-96258498D01*
X168668065Y-96258498D01*
X168656872Y-96252036D01*
X168635990Y-96239979D01*
X168635988Y-96239978D01*
X168559564Y-96219500D01*
X168559562Y-96219500D01*
X166180037Y-96219500D01*
X166121846Y-96200593D01*
X166085882Y-96151093D01*
X166085300Y-96149237D01*
X166082542Y-96140144D01*
X166075232Y-96116046D01*
X165977685Y-95933550D01*
X165976920Y-95932618D01*
X165846414Y-95773595D01*
X165846410Y-95773590D01*
X165846404Y-95773585D01*
X165686452Y-95642316D01*
X165503954Y-95544768D01*
X165305934Y-95484699D01*
X165305929Y-95484698D01*
X165100003Y-95464417D01*
X165099997Y-95464417D01*
X164894070Y-95484698D01*
X164894065Y-95484699D01*
X164696045Y-95544768D01*
X164513547Y-95642316D01*
X164353595Y-95773585D01*
X164353585Y-95773595D01*
X164222316Y-95933547D01*
X164124768Y-96116045D01*
X164064699Y-96314065D01*
X164064698Y-96314070D01*
X164044417Y-96519996D01*
X164044417Y-96520003D01*
X164064698Y-96725929D01*
X164064699Y-96725934D01*
X164124768Y-96923954D01*
X164222316Y-97106452D01*
X164323975Y-97230324D01*
X164353590Y-97266410D01*
X164353595Y-97266414D01*
X164513547Y-97397683D01*
X164513548Y-97397683D01*
X164513550Y-97397685D01*
X164696046Y-97495232D01*
X164833997Y-97537078D01*
X164894065Y-97555300D01*
X164894070Y-97555301D01*
X165099997Y-97575583D01*
X165100000Y-97575583D01*
X165100003Y-97575583D01*
X165305929Y-97555301D01*
X165305934Y-97555300D01*
X165503954Y-97495232D01*
X165686450Y-97397685D01*
X165846410Y-97266410D01*
X165977685Y-97106450D01*
X166075232Y-96923954D01*
X166085300Y-96890762D01*
X166120284Y-96840566D01*
X166178092Y-96820519D01*
X166180037Y-96820500D01*
X168354521Y-96820500D01*
X168412712Y-96839407D01*
X168424525Y-96849496D01*
X170070504Y-98495475D01*
X170098281Y-98549992D01*
X170099500Y-98565479D01*
X170099500Y-103395521D01*
X170080593Y-103453712D01*
X170031093Y-103489676D01*
X169969907Y-103489676D01*
X169930496Y-103465525D01*
X168579240Y-102114269D01*
X168551463Y-102059752D01*
X168561034Y-101999320D01*
X168561898Y-101997665D01*
X168568814Y-101984727D01*
X168626024Y-101796132D01*
X168645341Y-101600000D01*
X168640051Y-101546288D01*
X168626025Y-101403873D01*
X168626024Y-101403870D01*
X168626024Y-101403868D01*
X168568814Y-101215273D01*
X168475910Y-101041462D01*
X168456802Y-101018179D01*
X168350887Y-100889121D01*
X168350878Y-100889112D01*
X168198542Y-100764093D01*
X168198540Y-100764092D01*
X168198538Y-100764090D01*
X168157618Y-100742218D01*
X168024732Y-100671188D01*
X168024730Y-100671187D01*
X167836129Y-100613975D01*
X167836126Y-100613974D01*
X167640003Y-100594659D01*
X167639997Y-100594659D01*
X167443873Y-100613974D01*
X167443870Y-100613975D01*
X167255269Y-100671187D01*
X167255267Y-100671188D01*
X167081467Y-100764087D01*
X167081457Y-100764093D01*
X166929121Y-100889112D01*
X166929112Y-100889121D01*
X166804093Y-101041457D01*
X166804087Y-101041467D01*
X166711188Y-101215267D01*
X166711187Y-101215269D01*
X166653975Y-101403870D01*
X166653974Y-101403873D01*
X166634659Y-101599996D01*
X166634659Y-101600003D01*
X166653974Y-101796126D01*
X166653975Y-101796129D01*
X166711187Y-101984730D01*
X166711188Y-101984732D01*
X166752677Y-102062351D01*
X166804090Y-102158538D01*
X166804092Y-102158540D01*
X166804093Y-102158542D01*
X166929112Y-102310878D01*
X166929121Y-102310887D01*
X166970175Y-102344579D01*
X167081462Y-102435910D01*
X167167653Y-102481980D01*
X167254174Y-102528227D01*
X167255273Y-102528814D01*
X167443868Y-102586024D01*
X167443870Y-102586024D01*
X167443873Y-102586025D01*
X167639997Y-102605341D01*
X167640000Y-102605341D01*
X167640003Y-102605341D01*
X167836126Y-102586025D01*
X167836132Y-102586024D01*
X168024727Y-102528814D01*
X168037591Y-102521937D01*
X168097821Y-102511176D01*
X168152875Y-102537874D01*
X168154269Y-102539240D01*
X169670504Y-104055475D01*
X169698281Y-104109992D01*
X169699500Y-104125479D01*
X169699500Y-106529637D01*
X169680593Y-106587828D01*
X169631093Y-106623792D01*
X169569907Y-106623792D01*
X169530496Y-106599641D01*
X169529496Y-106598641D01*
X169501719Y-106544124D01*
X169500500Y-106528637D01*
X169500500Y-104517437D01*
X169500499Y-104517435D01*
X169480021Y-104441011D01*
X169480019Y-104441007D01*
X169440460Y-104372489D01*
X169384512Y-104316540D01*
X168967510Y-103899539D01*
X168898992Y-103859980D01*
X168898988Y-103859978D01*
X168822564Y-103839500D01*
X168822562Y-103839500D01*
X168667787Y-103839500D01*
X168609596Y-103820593D01*
X168573632Y-103771093D01*
X168573050Y-103769238D01*
X168568814Y-103755273D01*
X168563044Y-103744479D01*
X168531941Y-103686288D01*
X168475910Y-103581462D01*
X168456802Y-103558179D01*
X168350887Y-103429121D01*
X168350878Y-103429112D01*
X168198542Y-103304093D01*
X168198540Y-103304092D01*
X168198538Y-103304090D01*
X168157618Y-103282218D01*
X168024732Y-103211188D01*
X168024730Y-103211187D01*
X167836129Y-103153975D01*
X167836126Y-103153974D01*
X167640003Y-103134659D01*
X167639997Y-103134659D01*
X167443873Y-103153974D01*
X167443870Y-103153975D01*
X167255269Y-103211187D01*
X167255267Y-103211188D01*
X167081467Y-103304087D01*
X167081457Y-103304093D01*
X166929121Y-103429112D01*
X166929112Y-103429121D01*
X166804093Y-103581457D01*
X166804087Y-103581467D01*
X166711188Y-103755267D01*
X166711187Y-103755269D01*
X166653975Y-103943870D01*
X166653974Y-103943873D01*
X166634659Y-104139996D01*
X166634659Y-104140003D01*
X166653974Y-104336126D01*
X166653975Y-104336129D01*
X166711187Y-104524730D01*
X166711188Y-104524732D01*
X166779469Y-104652475D01*
X166804090Y-104698538D01*
X166804092Y-104698540D01*
X166804093Y-104698542D01*
X166929112Y-104850878D01*
X166929121Y-104850887D01*
X166972411Y-104886414D01*
X167081462Y-104975910D01*
X167255273Y-105068814D01*
X167443868Y-105126024D01*
X167443870Y-105126024D01*
X167443873Y-105126025D01*
X167639997Y-105145341D01*
X167640000Y-105145341D01*
X167640003Y-105145341D01*
X167836126Y-105126025D01*
X167836127Y-105126024D01*
X167836132Y-105126024D01*
X168024727Y-105068814D01*
X168198538Y-104975910D01*
X168350883Y-104850883D01*
X168475910Y-104698538D01*
X168566478Y-104529096D01*
X168610582Y-104486691D01*
X168671191Y-104478308D01*
X168723791Y-104505762D01*
X168870504Y-104652475D01*
X168898281Y-104706992D01*
X168899500Y-104722479D01*
X168899500Y-106280500D01*
X168880593Y-106338691D01*
X168831093Y-106374655D01*
X168800500Y-106379500D01*
X168667787Y-106379500D01*
X168609596Y-106360593D01*
X168573632Y-106311093D01*
X168573050Y-106309238D01*
X168568814Y-106295273D01*
X168558536Y-106276045D01*
X168521497Y-106206749D01*
X168475910Y-106121462D01*
X168456802Y-106098179D01*
X168350887Y-105969121D01*
X168350878Y-105969112D01*
X168198542Y-105844093D01*
X168198540Y-105844092D01*
X168198538Y-105844090D01*
X168157618Y-105822218D01*
X168024732Y-105751188D01*
X168024730Y-105751187D01*
X167836129Y-105693975D01*
X167836126Y-105693974D01*
X167640003Y-105674659D01*
X167639997Y-105674659D01*
X167443873Y-105693974D01*
X167443870Y-105693975D01*
X167255269Y-105751187D01*
X167255267Y-105751188D01*
X167081467Y-105844087D01*
X167081457Y-105844093D01*
X166929121Y-105969112D01*
X166929112Y-105969121D01*
X166804093Y-106121457D01*
X166804087Y-106121467D01*
X166711188Y-106295267D01*
X166711187Y-106295269D01*
X166653975Y-106483870D01*
X166653974Y-106483873D01*
X166634659Y-106679996D01*
X166634659Y-106680003D01*
X166653974Y-106876126D01*
X166653975Y-106876129D01*
X166711187Y-107064730D01*
X166711188Y-107064732D01*
X166782218Y-107197618D01*
X166804090Y-107238538D01*
X166804092Y-107238540D01*
X166804093Y-107238542D01*
X166929112Y-107390878D01*
X166929121Y-107390887D01*
X166972411Y-107426414D01*
X167081462Y-107515910D01*
X167255273Y-107608814D01*
X167443868Y-107666024D01*
X167443870Y-107666024D01*
X167443873Y-107666025D01*
X167639997Y-107685341D01*
X167640000Y-107685341D01*
X167640003Y-107685341D01*
X167836126Y-107666025D01*
X167836127Y-107666024D01*
X167836132Y-107666024D01*
X168024727Y-107608814D01*
X168198538Y-107515910D01*
X168350883Y-107390883D01*
X168475910Y-107238538D01*
X168568814Y-107064727D01*
X168573050Y-107050761D01*
X168608035Y-107000565D01*
X168665843Y-106980519D01*
X168667787Y-106980500D01*
X169020405Y-106980500D01*
X169078596Y-106999407D01*
X169090409Y-107009496D01*
X170831409Y-108750496D01*
X170859186Y-108805013D01*
X170849615Y-108865445D01*
X170806350Y-108908710D01*
X170761405Y-108919500D01*
X168739500Y-108919500D01*
X168681309Y-108900593D01*
X168645345Y-108851093D01*
X168640500Y-108820500D01*
X168640500Y-108400253D01*
X168640498Y-108400241D01*
X168637285Y-108384087D01*
X168628867Y-108341769D01*
X168584552Y-108275448D01*
X168558567Y-108258085D01*
X168518233Y-108231134D01*
X168518231Y-108231133D01*
X168518228Y-108231132D01*
X168518227Y-108231132D01*
X168459758Y-108219501D01*
X168459748Y-108219500D01*
X166820252Y-108219500D01*
X166820251Y-108219500D01*
X166820241Y-108219501D01*
X166761772Y-108231132D01*
X166761766Y-108231134D01*
X166695451Y-108275445D01*
X166695445Y-108275451D01*
X166651134Y-108341766D01*
X166651132Y-108341772D01*
X166639501Y-108400241D01*
X166639500Y-108400253D01*
X166639500Y-110039746D01*
X166639501Y-110039758D01*
X166651132Y-110098227D01*
X166651134Y-110098233D01*
X166684932Y-110148814D01*
X166695448Y-110164552D01*
X166761769Y-110208867D01*
X166806231Y-110217711D01*
X166820241Y-110220498D01*
X166820246Y-110220498D01*
X166820252Y-110220500D01*
X166820253Y-110220500D01*
X168459747Y-110220500D01*
X168459748Y-110220500D01*
X168518231Y-110208867D01*
X168584552Y-110164552D01*
X168628867Y-110098231D01*
X168640500Y-110039748D01*
X168640500Y-109619500D01*
X168659407Y-109561309D01*
X168708907Y-109525345D01*
X168739500Y-109520500D01*
X170988835Y-109520500D01*
X171047026Y-109539407D01*
X171058839Y-109549496D01*
X175193854Y-113684511D01*
X175193853Y-113684511D01*
X175249803Y-113740460D01*
X175318321Y-113780019D01*
X175318325Y-113780021D01*
X175394749Y-113800499D01*
X175394751Y-113800500D01*
X175394752Y-113800500D01*
X189930935Y-113800500D01*
X189930935Y-113800499D01*
X190007361Y-113780021D01*
X190075883Y-113740460D01*
X190131832Y-113684511D01*
X192286847Y-111529496D01*
X192341364Y-111501719D01*
X192356851Y-111500500D01*
X196179563Y-111500500D01*
X196179563Y-111500499D01*
X196255989Y-111480021D01*
X196324511Y-111440460D01*
X196380460Y-111384511D01*
X197415475Y-110349496D01*
X197469992Y-110321719D01*
X197485479Y-110320500D01*
X199039747Y-110320500D01*
X199039748Y-110320500D01*
X199098231Y-110308867D01*
X199164552Y-110264552D01*
X199208867Y-110198231D01*
X199220500Y-110139748D01*
X199220500Y-108300252D01*
X199208867Y-108241769D01*
X199164552Y-108175448D01*
X199164548Y-108175445D01*
X199098233Y-108131134D01*
X199098231Y-108131133D01*
X199098228Y-108131132D01*
X199098227Y-108131132D01*
X199039758Y-108119501D01*
X199039748Y-108119500D01*
X197200252Y-108119500D01*
X197200251Y-108119500D01*
X197200241Y-108119501D01*
X197141772Y-108131132D01*
X197141766Y-108131134D01*
X197075451Y-108175445D01*
X197075445Y-108175451D01*
X197031134Y-108241766D01*
X197031132Y-108241772D01*
X197019501Y-108300241D01*
X197019500Y-108300253D01*
X197019500Y-109854521D01*
X197000593Y-109912712D01*
X196990504Y-109924525D01*
X196044525Y-110870504D01*
X195990008Y-110898281D01*
X195974521Y-110899500D01*
X194564479Y-110899500D01*
X194506288Y-110880593D01*
X194470324Y-110831093D01*
X194470324Y-110769907D01*
X194494475Y-110730497D01*
X194990040Y-110234930D01*
X195044557Y-110207152D01*
X195095802Y-110212617D01*
X195277544Y-110283024D01*
X195478024Y-110320500D01*
X195681976Y-110320500D01*
X195882456Y-110283024D01*
X196072637Y-110209348D01*
X196246041Y-110101981D01*
X196396764Y-109964579D01*
X196519673Y-109801821D01*
X196610582Y-109619250D01*
X196666397Y-109423083D01*
X196685215Y-109220000D01*
X196666397Y-109016917D01*
X196610582Y-108820750D01*
X196519673Y-108638179D01*
X196396764Y-108475421D01*
X196246041Y-108338019D01*
X196072637Y-108230652D01*
X195882456Y-108156976D01*
X195882455Y-108156975D01*
X195882453Y-108156975D01*
X195681976Y-108119500D01*
X195478024Y-108119500D01*
X195277546Y-108156975D01*
X195229862Y-108175448D01*
X195087363Y-108230652D01*
X194913959Y-108338019D01*
X194763237Y-108475420D01*
X194640328Y-108638177D01*
X194640323Y-108638186D01*
X194584400Y-108750496D01*
X194549418Y-108820750D01*
X194524391Y-108908710D01*
X194493603Y-109016917D01*
X194474785Y-109220000D01*
X194493603Y-109423082D01*
X194549419Y-109619254D01*
X194586264Y-109693249D01*
X194595277Y-109753767D01*
X194567647Y-109807379D01*
X193904525Y-110470503D01*
X193850008Y-110498281D01*
X193834521Y-110499500D01*
X193252789Y-110499500D01*
X193194598Y-110480593D01*
X193158634Y-110431093D01*
X193158634Y-110369907D01*
X193194598Y-110320407D01*
X193234598Y-110303186D01*
X193342456Y-110283024D01*
X193532637Y-110209348D01*
X193706041Y-110101981D01*
X193856764Y-109964579D01*
X193979673Y-109801821D01*
X194070582Y-109619250D01*
X194126397Y-109423083D01*
X194145215Y-109220000D01*
X194126397Y-109016917D01*
X194070582Y-108820750D01*
X193979673Y-108638179D01*
X193856764Y-108475421D01*
X193706041Y-108338019D01*
X193532637Y-108230652D01*
X193342456Y-108156976D01*
X193342455Y-108156975D01*
X193342453Y-108156975D01*
X193141976Y-108119500D01*
X192938024Y-108119500D01*
X192737546Y-108156975D01*
X192689862Y-108175448D01*
X192547363Y-108230652D01*
X192373959Y-108338019D01*
X192223237Y-108475420D01*
X192100328Y-108638177D01*
X192100323Y-108638186D01*
X192044400Y-108750496D01*
X192009418Y-108820750D01*
X191984391Y-108908710D01*
X191953603Y-109016917D01*
X191934785Y-109220000D01*
X191953603Y-109423082D01*
X192009419Y-109619254D01*
X192046264Y-109693249D01*
X192055277Y-109753767D01*
X192027647Y-109807380D01*
X189464525Y-112370504D01*
X189410008Y-112398281D01*
X189394521Y-112399500D01*
X187984479Y-112399500D01*
X187926288Y-112380593D01*
X187890324Y-112331093D01*
X187890324Y-112269907D01*
X187914475Y-112230496D01*
X188314475Y-111830496D01*
X189910042Y-110234927D01*
X189964557Y-110207152D01*
X190015802Y-110212617D01*
X190197544Y-110283024D01*
X190398024Y-110320500D01*
X190601976Y-110320500D01*
X190802456Y-110283024D01*
X190992637Y-110209348D01*
X191166041Y-110101981D01*
X191316764Y-109964579D01*
X191439673Y-109801821D01*
X191530582Y-109619250D01*
X191586397Y-109423083D01*
X191605215Y-109220000D01*
X191586397Y-109016917D01*
X191530582Y-108820750D01*
X191439673Y-108638179D01*
X191316764Y-108475421D01*
X191166041Y-108338019D01*
X190992637Y-108230652D01*
X190802456Y-108156976D01*
X190802455Y-108156975D01*
X190802453Y-108156975D01*
X190601976Y-108119500D01*
X190398024Y-108119500D01*
X190197546Y-108156975D01*
X190149862Y-108175448D01*
X190007363Y-108230652D01*
X189833959Y-108338019D01*
X189683237Y-108475420D01*
X189560328Y-108638177D01*
X189560323Y-108638186D01*
X189504400Y-108750496D01*
X189469418Y-108820750D01*
X189444391Y-108908710D01*
X189413603Y-109016917D01*
X189394785Y-109220000D01*
X189413603Y-109423082D01*
X189469419Y-109619254D01*
X189506264Y-109693249D01*
X189515277Y-109753767D01*
X189487647Y-109807380D01*
X187324525Y-111970504D01*
X187270008Y-111998281D01*
X187254521Y-111999500D01*
X185844479Y-111999500D01*
X185786288Y-111980593D01*
X185750324Y-111931093D01*
X185750324Y-111869907D01*
X185774475Y-111830496D01*
X186164511Y-111440460D01*
X187370042Y-110234927D01*
X187424557Y-110207152D01*
X187475802Y-110212617D01*
X187657544Y-110283024D01*
X187858024Y-110320500D01*
X188061976Y-110320500D01*
X188262456Y-110283024D01*
X188452637Y-110209348D01*
X188626041Y-110101981D01*
X188776764Y-109964579D01*
X188899673Y-109801821D01*
X188990582Y-109619250D01*
X189046397Y-109423083D01*
X189065215Y-109220000D01*
X189046397Y-109016917D01*
X188990582Y-108820750D01*
X188899673Y-108638179D01*
X188776764Y-108475421D01*
X188626041Y-108338019D01*
X188452637Y-108230652D01*
X188262456Y-108156976D01*
X188262455Y-108156975D01*
X188262453Y-108156975D01*
X188061976Y-108119500D01*
X187858024Y-108119500D01*
X187657546Y-108156975D01*
X187609862Y-108175448D01*
X187467363Y-108230652D01*
X187293959Y-108338019D01*
X187143237Y-108475420D01*
X187020328Y-108638177D01*
X187020323Y-108638186D01*
X186964400Y-108750496D01*
X186929418Y-108820750D01*
X186904391Y-108908710D01*
X186873603Y-109016917D01*
X186854785Y-109220000D01*
X186873603Y-109423082D01*
X186929419Y-109619254D01*
X186966264Y-109693249D01*
X186975277Y-109753767D01*
X186947647Y-109807380D01*
X185184525Y-111570504D01*
X185130008Y-111598281D01*
X185114521Y-111599500D01*
X183704479Y-111599500D01*
X183646288Y-111580593D01*
X183610324Y-111531093D01*
X183610324Y-111469907D01*
X183634475Y-111430496D01*
X183894467Y-111170504D01*
X184830042Y-110234927D01*
X184884557Y-110207152D01*
X184935802Y-110212617D01*
X185117544Y-110283024D01*
X185318024Y-110320500D01*
X185521976Y-110320500D01*
X185722456Y-110283024D01*
X185912637Y-110209348D01*
X186086041Y-110101981D01*
X186236764Y-109964579D01*
X186359673Y-109801821D01*
X186450582Y-109619250D01*
X186506397Y-109423083D01*
X186525215Y-109220000D01*
X186506397Y-109016917D01*
X186450582Y-108820750D01*
X186359673Y-108638179D01*
X186236764Y-108475421D01*
X186086041Y-108338019D01*
X185912637Y-108230652D01*
X185722456Y-108156976D01*
X185722455Y-108156975D01*
X185722453Y-108156975D01*
X185521976Y-108119500D01*
X185318024Y-108119500D01*
X185117546Y-108156975D01*
X185069862Y-108175448D01*
X184927363Y-108230652D01*
X184753959Y-108338019D01*
X184603237Y-108475420D01*
X184480328Y-108638177D01*
X184480323Y-108638186D01*
X184424400Y-108750496D01*
X184389418Y-108820750D01*
X184364391Y-108908710D01*
X184333603Y-109016917D01*
X184314785Y-109220000D01*
X184333603Y-109423082D01*
X184389419Y-109619254D01*
X184426264Y-109693249D01*
X184435277Y-109753767D01*
X184407647Y-109807380D01*
X183044525Y-111170504D01*
X182990008Y-111198281D01*
X182974521Y-111199500D01*
X181564479Y-111199500D01*
X181506288Y-111180593D01*
X181470324Y-111131093D01*
X181470324Y-111069907D01*
X181494475Y-111030497D01*
X182290040Y-110234930D01*
X182344557Y-110207152D01*
X182395802Y-110212617D01*
X182577544Y-110283024D01*
X182778024Y-110320500D01*
X182981976Y-110320500D01*
X183182456Y-110283024D01*
X183372637Y-110209348D01*
X183546041Y-110101981D01*
X183696764Y-109964579D01*
X183819673Y-109801821D01*
X183910582Y-109619250D01*
X183966397Y-109423083D01*
X183985215Y-109220000D01*
X183966397Y-109016917D01*
X183910582Y-108820750D01*
X183819673Y-108638179D01*
X183696764Y-108475421D01*
X183546041Y-108338019D01*
X183372637Y-108230652D01*
X183182456Y-108156976D01*
X183182455Y-108156975D01*
X183182453Y-108156975D01*
X182981976Y-108119500D01*
X182778024Y-108119500D01*
X182577546Y-108156975D01*
X182529862Y-108175448D01*
X182387363Y-108230652D01*
X182213959Y-108338019D01*
X182063237Y-108475420D01*
X181940328Y-108638177D01*
X181940323Y-108638186D01*
X181884400Y-108750496D01*
X181849418Y-108820750D01*
X181824391Y-108908710D01*
X181793603Y-109016917D01*
X181774785Y-109220000D01*
X181793603Y-109423082D01*
X181849419Y-109619254D01*
X181886264Y-109693249D01*
X181895277Y-109753767D01*
X181867647Y-109807379D01*
X180904525Y-110770503D01*
X180850008Y-110798281D01*
X180834521Y-110799500D01*
X179424479Y-110799500D01*
X179366288Y-110780593D01*
X179330324Y-110731093D01*
X179330324Y-110669907D01*
X179354475Y-110630497D01*
X179750040Y-110234930D01*
X179804557Y-110207152D01*
X179855802Y-110212617D01*
X180037544Y-110283024D01*
X180238024Y-110320500D01*
X180441976Y-110320500D01*
X180642456Y-110283024D01*
X180832637Y-110209348D01*
X181006041Y-110101981D01*
X181156764Y-109964579D01*
X181279673Y-109801821D01*
X181370582Y-109619250D01*
X181426397Y-109423083D01*
X181445215Y-109220000D01*
X181426397Y-109016917D01*
X181370582Y-108820750D01*
X181279673Y-108638179D01*
X181156764Y-108475421D01*
X181006041Y-108338019D01*
X180832637Y-108230652D01*
X180642456Y-108156976D01*
X180642455Y-108156975D01*
X180642453Y-108156975D01*
X180441976Y-108119500D01*
X180238024Y-108119500D01*
X180037546Y-108156975D01*
X179989862Y-108175448D01*
X179847363Y-108230652D01*
X179673959Y-108338019D01*
X179523237Y-108475420D01*
X179400328Y-108638177D01*
X179400323Y-108638186D01*
X179344400Y-108750496D01*
X179309418Y-108820750D01*
X179284391Y-108908710D01*
X179253603Y-109016917D01*
X179234785Y-109220000D01*
X179253603Y-109423082D01*
X179309419Y-109619254D01*
X179346264Y-109693249D01*
X179355277Y-109753767D01*
X179327647Y-109807379D01*
X178764525Y-110370503D01*
X178710008Y-110398281D01*
X178694521Y-110399500D01*
X178331401Y-110399500D01*
X178273210Y-110380593D01*
X178237246Y-110331093D01*
X178237246Y-110269907D01*
X178273210Y-110220407D01*
X178288801Y-110211909D01*
X178288541Y-110211387D01*
X178292623Y-110209353D01*
X178292637Y-110209348D01*
X178466041Y-110101981D01*
X178616764Y-109964579D01*
X178739673Y-109801821D01*
X178830582Y-109619250D01*
X178886397Y-109423083D01*
X178905215Y-109220000D01*
X178886397Y-109016917D01*
X178830582Y-108820750D01*
X178739673Y-108638179D01*
X178616764Y-108475421D01*
X178466041Y-108338019D01*
X178292637Y-108230652D01*
X178102456Y-108156976D01*
X178102455Y-108156975D01*
X178102453Y-108156975D01*
X177901976Y-108119500D01*
X177698024Y-108119500D01*
X177497544Y-108156975D01*
X177315806Y-108227380D01*
X177254715Y-108230770D01*
X177210040Y-108205069D01*
X174229496Y-105224525D01*
X174201719Y-105170008D01*
X174200500Y-105154521D01*
X174200500Y-103744479D01*
X174219407Y-103686288D01*
X174268907Y-103650324D01*
X174330093Y-103650324D01*
X174369504Y-103674475D01*
X176787647Y-106092618D01*
X176815424Y-106147135D01*
X176806265Y-106206749D01*
X176771761Y-106276045D01*
X176769418Y-106280750D01*
X176713603Y-106476917D01*
X176694785Y-106680000D01*
X176713603Y-106883083D01*
X176765287Y-107064732D01*
X176769419Y-107079252D01*
X176848735Y-107238542D01*
X176860327Y-107261821D01*
X176983236Y-107424579D01*
X177133959Y-107561981D01*
X177307363Y-107669348D01*
X177497544Y-107743024D01*
X177698024Y-107780500D01*
X177901976Y-107780500D01*
X178102456Y-107743024D01*
X178292637Y-107669348D01*
X178466041Y-107561981D01*
X178616764Y-107424579D01*
X178739673Y-107261821D01*
X178830582Y-107079250D01*
X178886397Y-106883083D01*
X178905215Y-106680000D01*
X178886397Y-106476917D01*
X178830582Y-106280750D01*
X178739673Y-106098179D01*
X178616764Y-105935421D01*
X178466041Y-105798019D01*
X178292637Y-105690652D01*
X178102456Y-105616976D01*
X178102455Y-105616975D01*
X178102453Y-105616975D01*
X177901976Y-105579500D01*
X177698024Y-105579500D01*
X177497544Y-105616975D01*
X177315806Y-105687380D01*
X177254715Y-105690770D01*
X177210040Y-105665069D01*
X174629496Y-103084525D01*
X174601719Y-103030008D01*
X174600500Y-103014521D01*
X174600500Y-101604479D01*
X174619407Y-101546288D01*
X174668907Y-101510324D01*
X174730093Y-101510324D01*
X174769504Y-101534475D01*
X176787647Y-103552618D01*
X176815424Y-103607135D01*
X176806265Y-103666749D01*
X176771761Y-103736045D01*
X176769418Y-103740750D01*
X176713603Y-103936917D01*
X176694785Y-104140000D01*
X176713603Y-104343083D01*
X176766529Y-104529098D01*
X176769419Y-104539252D01*
X176848735Y-104698542D01*
X176860327Y-104721821D01*
X176983236Y-104884579D01*
X177133959Y-105021981D01*
X177307363Y-105129348D01*
X177497544Y-105203024D01*
X177698024Y-105240500D01*
X177901976Y-105240500D01*
X178102456Y-105203024D01*
X178292637Y-105129348D01*
X178466041Y-105021981D01*
X178616764Y-104884579D01*
X178739673Y-104721821D01*
X178830582Y-104539250D01*
X178886397Y-104343083D01*
X178905215Y-104140000D01*
X178886397Y-103936917D01*
X178830582Y-103740750D01*
X178739673Y-103558179D01*
X178616764Y-103395421D01*
X178466041Y-103258019D01*
X178292637Y-103150652D01*
X178102456Y-103076976D01*
X178102455Y-103076975D01*
X178102453Y-103076975D01*
X177901976Y-103039500D01*
X177698024Y-103039500D01*
X177497544Y-103076975D01*
X177315806Y-103147380D01*
X177254715Y-103150770D01*
X177210040Y-103125069D01*
X175029496Y-100944525D01*
X175001719Y-100890008D01*
X175000500Y-100874521D01*
X175000500Y-99464479D01*
X175019407Y-99406288D01*
X175068907Y-99370324D01*
X175130093Y-99370324D01*
X175169504Y-99394475D01*
X176787647Y-101012618D01*
X176815424Y-101067135D01*
X176806265Y-101126749D01*
X176769418Y-101200750D01*
X176713603Y-101396917D01*
X176694785Y-101600000D01*
X176713603Y-101803083D01*
X176768945Y-101997589D01*
X176769419Y-101999252D01*
X176848735Y-102158542D01*
X176860327Y-102181821D01*
X176983236Y-102344579D01*
X177133959Y-102481981D01*
X177307363Y-102589348D01*
X177497544Y-102663024D01*
X177698024Y-102700500D01*
X177901976Y-102700500D01*
X178102456Y-102663024D01*
X178292637Y-102589348D01*
X178466041Y-102481981D01*
X178616764Y-102344579D01*
X178739673Y-102181821D01*
X178830582Y-101999250D01*
X178886397Y-101803083D01*
X178905215Y-101600000D01*
X178886397Y-101396917D01*
X178830582Y-101200750D01*
X178739673Y-101018179D01*
X178616764Y-100855421D01*
X178466041Y-100718019D01*
X178292637Y-100610652D01*
X178102456Y-100536976D01*
X178102455Y-100536975D01*
X178102453Y-100536975D01*
X177901976Y-100499500D01*
X177698024Y-100499500D01*
X177497544Y-100536975D01*
X177315806Y-100607380D01*
X177254715Y-100610770D01*
X177210040Y-100585069D01*
X175429496Y-98804525D01*
X175401719Y-98750008D01*
X175400500Y-98734521D01*
X175400500Y-97324479D01*
X175419407Y-97266288D01*
X175468907Y-97230324D01*
X175530093Y-97230324D01*
X175569504Y-97254475D01*
X176787647Y-98472618D01*
X176815424Y-98527135D01*
X176806265Y-98586749D01*
X176769418Y-98660750D01*
X176713603Y-98856917D01*
X176694785Y-99060000D01*
X176713603Y-99263083D01*
X176769418Y-99459250D01*
X176860327Y-99641821D01*
X176983236Y-99804579D01*
X177133959Y-99941981D01*
X177307363Y-100049348D01*
X177497544Y-100123024D01*
X177698024Y-100160500D01*
X177901976Y-100160500D01*
X178102456Y-100123024D01*
X178292637Y-100049348D01*
X178466041Y-99941981D01*
X178616764Y-99804579D01*
X178739673Y-99641821D01*
X178830582Y-99459250D01*
X178886397Y-99263083D01*
X178905215Y-99060000D01*
X178886397Y-98856917D01*
X178830582Y-98660750D01*
X178739673Y-98478179D01*
X178616764Y-98315421D01*
X178466041Y-98178019D01*
X178292637Y-98070652D01*
X178102456Y-97996976D01*
X178102455Y-97996975D01*
X178102453Y-97996975D01*
X177901976Y-97959500D01*
X177698024Y-97959500D01*
X177497544Y-97996975D01*
X177315806Y-98067380D01*
X177254715Y-98070770D01*
X177210040Y-98045069D01*
X175829496Y-96664525D01*
X175801719Y-96610008D01*
X175800500Y-96594521D01*
X175800500Y-95184479D01*
X175819407Y-95126288D01*
X175868907Y-95090324D01*
X175930093Y-95090324D01*
X175969504Y-95114475D01*
X176787647Y-95932618D01*
X176815424Y-95987135D01*
X176806265Y-96046749D01*
X176771760Y-96116047D01*
X176769418Y-96120750D01*
X176713603Y-96316917D01*
X176694785Y-96520000D01*
X176713603Y-96723083D01*
X176765287Y-96904732D01*
X176769419Y-96919252D01*
X176848735Y-97078542D01*
X176860327Y-97101821D01*
X176983236Y-97264579D01*
X177133959Y-97401981D01*
X177307363Y-97509348D01*
X177497544Y-97583024D01*
X177698024Y-97620500D01*
X177901976Y-97620500D01*
X178102456Y-97583024D01*
X178292637Y-97509348D01*
X178466041Y-97401981D01*
X178616764Y-97264579D01*
X178739673Y-97101821D01*
X178830582Y-96919250D01*
X178886397Y-96723083D01*
X178905215Y-96520000D01*
X178886397Y-96316917D01*
X178830582Y-96120750D01*
X178739673Y-95938179D01*
X178616764Y-95775421D01*
X178558887Y-95722659D01*
X178528623Y-95669486D01*
X178535394Y-95608677D01*
X178576614Y-95563460D01*
X178625585Y-95550500D01*
X184189563Y-95550500D01*
X184189563Y-95550499D01*
X184265989Y-95530021D01*
X184334511Y-95490460D01*
X184362485Y-95462485D01*
X184390461Y-95434511D01*
X184830040Y-94994930D01*
X184884557Y-94967152D01*
X184935802Y-94972617D01*
X185117544Y-95043024D01*
X185318024Y-95080500D01*
X185521976Y-95080500D01*
X185722456Y-95043024D01*
X185912637Y-94969348D01*
X186086041Y-94861981D01*
X186236764Y-94724579D01*
X186359673Y-94561821D01*
X186450582Y-94379250D01*
X186506397Y-94183083D01*
X186525215Y-93980000D01*
X186506397Y-93776917D01*
X186450582Y-93580750D01*
X186359673Y-93398179D01*
X186236764Y-93235421D01*
X186086041Y-93098019D01*
X185912637Y-92990652D01*
X185722456Y-92916976D01*
X185722455Y-92916975D01*
X185722453Y-92916975D01*
X185521976Y-92879500D01*
X185318024Y-92879500D01*
X185117546Y-92916975D01*
X185047632Y-92944059D01*
X184927363Y-92990652D01*
X184773824Y-93085719D01*
X184753959Y-93098019D01*
X184603237Y-93235420D01*
X184480328Y-93398177D01*
X184480323Y-93398186D01*
X184389419Y-93580747D01*
X184389418Y-93580750D01*
X184379380Y-93616029D01*
X184333603Y-93776917D01*
X184314785Y-93980000D01*
X184333603Y-94183082D01*
X184389418Y-94379250D01*
X184426265Y-94453250D01*
X184435277Y-94513768D01*
X184407647Y-94567380D01*
X184054526Y-94920503D01*
X184000009Y-94948281D01*
X183984522Y-94949500D01*
X183705585Y-94949500D01*
X183647394Y-94930593D01*
X183611430Y-94881093D01*
X183611430Y-94819907D01*
X183638887Y-94777340D01*
X183696764Y-94724579D01*
X183819673Y-94561821D01*
X183910582Y-94379250D01*
X183966397Y-94183083D01*
X183985215Y-93980000D01*
X183966397Y-93776917D01*
X183910582Y-93580750D01*
X183873733Y-93506748D01*
X183864721Y-93446232D01*
X183892349Y-93392620D01*
X186630497Y-90654473D01*
X186685013Y-90626697D01*
X186745445Y-90636268D01*
X186788710Y-90679533D01*
X186799500Y-90724478D01*
X186799500Y-91185248D01*
X186819979Y-91261675D01*
X186830848Y-91280500D01*
X186859540Y-91330197D01*
X187630505Y-92101162D01*
X187658281Y-92155677D01*
X187659500Y-92171164D01*
X187659500Y-92848401D01*
X187640593Y-92906592D01*
X187596263Y-92940716D01*
X187549450Y-92958851D01*
X187467363Y-92990652D01*
X187313824Y-93085719D01*
X187293959Y-93098019D01*
X187143237Y-93235420D01*
X187020328Y-93398177D01*
X187020323Y-93398186D01*
X186929419Y-93580747D01*
X186929418Y-93580750D01*
X186873603Y-93776917D01*
X186854785Y-93980000D01*
X186873603Y-94183083D01*
X186929418Y-94379250D01*
X187020327Y-94561821D01*
X187143236Y-94724579D01*
X187293959Y-94861981D01*
X187467363Y-94969348D01*
X187657544Y-95043024D01*
X187858024Y-95080500D01*
X188061976Y-95080500D01*
X188262456Y-95043024D01*
X188452637Y-94969348D01*
X188626041Y-94861981D01*
X188776764Y-94724579D01*
X188899673Y-94561821D01*
X188990582Y-94379250D01*
X189046397Y-94183083D01*
X189065215Y-93980000D01*
X189046397Y-93776917D01*
X188990582Y-93580750D01*
X188899673Y-93398179D01*
X188776764Y-93235421D01*
X188626041Y-93098019D01*
X188452637Y-92990652D01*
X188352336Y-92951795D01*
X188323737Y-92940716D01*
X188276306Y-92902064D01*
X188260500Y-92848401D01*
X188260500Y-92404479D01*
X188279407Y-92346288D01*
X188328907Y-92310324D01*
X188390093Y-92310324D01*
X188429504Y-92334475D01*
X189487647Y-93392618D01*
X189515424Y-93447135D01*
X189506265Y-93506749D01*
X189469841Y-93579901D01*
X189469418Y-93580750D01*
X189413603Y-93776917D01*
X189394785Y-93980000D01*
X189413603Y-94183083D01*
X189469418Y-94379250D01*
X189560327Y-94561821D01*
X189683236Y-94724579D01*
X189833959Y-94861981D01*
X190007363Y-94969348D01*
X190197544Y-95043024D01*
X190398024Y-95080500D01*
X190601976Y-95080500D01*
X190802456Y-95043024D01*
X190992637Y-94969348D01*
X191166041Y-94861981D01*
X191316764Y-94724579D01*
X191439673Y-94561821D01*
X191530582Y-94379250D01*
X191586397Y-94183083D01*
X191605215Y-93980000D01*
X191935287Y-93980000D01*
X191954097Y-94182989D01*
X192009887Y-94379070D01*
X192100751Y-94561551D01*
X192102532Y-94563911D01*
X192557036Y-94109406D01*
X192574075Y-94172993D01*
X192639901Y-94287007D01*
X192732993Y-94380099D01*
X192847007Y-94445925D01*
X192910590Y-94462962D01*
X192459312Y-94914241D01*
X192547581Y-94968895D01*
X192547586Y-94968898D01*
X192737683Y-95042541D01*
X192938070Y-95080000D01*
X193141930Y-95080000D01*
X193342316Y-95042541D01*
X193532415Y-94968897D01*
X193532416Y-94968897D01*
X193620686Y-94914241D01*
X193169407Y-94462962D01*
X193232993Y-94445925D01*
X193347007Y-94380099D01*
X193440099Y-94287007D01*
X193505925Y-94172993D01*
X193522962Y-94109407D01*
X193977466Y-94563911D01*
X193979245Y-94561556D01*
X193979249Y-94561549D01*
X194070112Y-94379070D01*
X194125902Y-94182989D01*
X194144712Y-93980000D01*
X194474785Y-93980000D01*
X194493603Y-94183083D01*
X194549418Y-94379250D01*
X194640327Y-94561821D01*
X194763236Y-94724579D01*
X194913959Y-94861981D01*
X195087363Y-94969348D01*
X195277544Y-95043024D01*
X195478024Y-95080500D01*
X195681976Y-95080500D01*
X195882456Y-95043024D01*
X196072637Y-94969348D01*
X196246041Y-94861981D01*
X196396764Y-94724579D01*
X196519673Y-94561821D01*
X196610582Y-94379250D01*
X196666397Y-94183083D01*
X196685215Y-93980000D01*
X197014785Y-93980000D01*
X197033603Y-94183083D01*
X197089418Y-94379250D01*
X197180327Y-94561821D01*
X197303236Y-94724579D01*
X197453959Y-94861981D01*
X197627363Y-94969348D01*
X197817544Y-95043024D01*
X198018024Y-95080500D01*
X198221976Y-95080500D01*
X198422456Y-95043024D01*
X198612637Y-94969348D01*
X198786041Y-94861981D01*
X198936764Y-94724579D01*
X199059673Y-94561821D01*
X199150582Y-94379250D01*
X199206397Y-94183083D01*
X199225215Y-93980000D01*
X199206397Y-93776917D01*
X199150582Y-93580750D01*
X199059673Y-93398179D01*
X198936764Y-93235421D01*
X198922992Y-93222866D01*
X198852804Y-93158880D01*
X198822538Y-93105705D01*
X198820500Y-93085719D01*
X198820500Y-89999500D01*
X198839407Y-89941309D01*
X198888907Y-89905345D01*
X198919500Y-89900500D01*
X198939747Y-89900500D01*
X198939748Y-89900500D01*
X198998231Y-89888867D01*
X199064552Y-89844552D01*
X199108867Y-89778231D01*
X199120500Y-89719748D01*
X199120500Y-88080252D01*
X199108867Y-88021769D01*
X199064552Y-87955448D01*
X199002486Y-87913976D01*
X198998233Y-87911134D01*
X198998231Y-87911133D01*
X198998228Y-87911132D01*
X198998227Y-87911132D01*
X198939758Y-87899501D01*
X198939748Y-87899500D01*
X197300252Y-87899500D01*
X197300251Y-87899500D01*
X197300241Y-87899501D01*
X197241772Y-87911132D01*
X197241766Y-87911134D01*
X197175451Y-87955445D01*
X197175445Y-87955451D01*
X197131134Y-88021766D01*
X197131132Y-88021772D01*
X197119501Y-88080241D01*
X197119500Y-88080253D01*
X197119500Y-89719746D01*
X197119501Y-89719758D01*
X197131132Y-89778227D01*
X197131134Y-89778233D01*
X197164932Y-89828814D01*
X197175448Y-89844552D01*
X197241769Y-89888867D01*
X197286231Y-89897711D01*
X197300241Y-89900498D01*
X197300246Y-89900498D01*
X197300252Y-89900500D01*
X197320500Y-89900500D01*
X197378691Y-89919407D01*
X197414655Y-89968907D01*
X197419500Y-89999500D01*
X197419500Y-93085719D01*
X197400593Y-93143910D01*
X197387196Y-93158880D01*
X197303239Y-93235417D01*
X197180328Y-93398177D01*
X197180323Y-93398186D01*
X197089419Y-93580747D01*
X197089418Y-93580750D01*
X197033603Y-93776917D01*
X197014785Y-93980000D01*
X196685215Y-93980000D01*
X196666397Y-93776917D01*
X196610582Y-93580750D01*
X196519673Y-93398179D01*
X196396764Y-93235421D01*
X196246041Y-93098019D01*
X196072637Y-92990652D01*
X195882456Y-92916976D01*
X195882455Y-92916975D01*
X195882453Y-92916975D01*
X195681976Y-92879500D01*
X195478024Y-92879500D01*
X195277546Y-92916975D01*
X195207632Y-92944059D01*
X195087363Y-92990652D01*
X194933824Y-93085719D01*
X194913959Y-93098019D01*
X194763237Y-93235420D01*
X194640328Y-93398177D01*
X194640323Y-93398186D01*
X194549419Y-93580747D01*
X194549418Y-93580750D01*
X194493603Y-93776917D01*
X194474785Y-93980000D01*
X194144712Y-93980000D01*
X194125902Y-93777010D01*
X194070112Y-93580929D01*
X193979249Y-93398450D01*
X193979244Y-93398441D01*
X193977466Y-93396087D01*
X193522962Y-93850590D01*
X193505925Y-93787007D01*
X193440099Y-93672993D01*
X193347007Y-93579901D01*
X193232993Y-93514075D01*
X193169406Y-93497036D01*
X193620686Y-93045757D01*
X193532418Y-92991104D01*
X193532413Y-92991101D01*
X193342316Y-92917458D01*
X193141930Y-92880000D01*
X192938070Y-92880000D01*
X192737683Y-92917458D01*
X192547586Y-92991101D01*
X192547584Y-92991102D01*
X192459312Y-93045757D01*
X192910592Y-93497037D01*
X192847007Y-93514075D01*
X192732993Y-93579901D01*
X192639901Y-93672993D01*
X192574075Y-93787007D01*
X192557037Y-93850591D01*
X192102533Y-93396087D01*
X192100753Y-93398445D01*
X192100750Y-93398449D01*
X192009887Y-93580929D01*
X191954097Y-93777010D01*
X191935287Y-93980000D01*
X191605215Y-93980000D01*
X191586397Y-93776917D01*
X191530582Y-93580750D01*
X191439673Y-93398179D01*
X191316764Y-93235421D01*
X191166041Y-93098019D01*
X190992637Y-92990652D01*
X190802456Y-92916976D01*
X190802455Y-92916975D01*
X190802453Y-92916975D01*
X190621409Y-92883132D01*
X190567683Y-92853854D01*
X190541427Y-92798589D01*
X190552670Y-92738445D01*
X190597117Y-92696396D01*
X190611701Y-92690831D01*
X190710053Y-92661953D01*
X190831128Y-92584143D01*
X190925377Y-92475373D01*
X190985165Y-92344457D01*
X191005647Y-92202000D01*
X190995308Y-92130093D01*
X190985165Y-92059543D01*
X190959447Y-92003229D01*
X190950500Y-91962102D01*
X190950500Y-90917897D01*
X190959446Y-90876771D01*
X190985165Y-90820457D01*
X190985165Y-90820455D01*
X190985166Y-90820454D01*
X191005647Y-90678002D01*
X191005647Y-90677997D01*
X190985165Y-90535543D01*
X190925377Y-90404627D01*
X190831128Y-90295857D01*
X190831127Y-90295856D01*
X190831126Y-90295855D01*
X190710057Y-90218049D01*
X190710054Y-90218047D01*
X190710053Y-90218047D01*
X190710050Y-90218046D01*
X190571964Y-90177500D01*
X190571961Y-90177500D01*
X190428039Y-90177500D01*
X190428035Y-90177500D01*
X190289949Y-90218046D01*
X190289942Y-90218049D01*
X190168873Y-90295855D01*
X190074622Y-90404628D01*
X190014834Y-90535543D01*
X189994353Y-90677997D01*
X189994353Y-90678002D01*
X190014833Y-90820454D01*
X190028286Y-90849911D01*
X190040553Y-90876771D01*
X190049500Y-90917897D01*
X190049500Y-91962102D01*
X190040553Y-92003229D01*
X190014834Y-92059543D01*
X189994353Y-92201997D01*
X189994353Y-92202002D01*
X190014834Y-92344456D01*
X190015671Y-92346288D01*
X190074623Y-92475373D01*
X190168872Y-92584143D01*
X190168873Y-92584144D01*
X190289942Y-92661950D01*
X190289947Y-92661953D01*
X190388291Y-92690829D01*
X190438797Y-92725363D01*
X190459359Y-92782990D01*
X190442121Y-92841697D01*
X190393669Y-92879060D01*
X190378591Y-92883132D01*
X190197543Y-92916976D01*
X190015806Y-92987380D01*
X189954715Y-92990770D01*
X189910040Y-92965069D01*
X187829496Y-90884525D01*
X187801719Y-90830008D01*
X187800500Y-90814521D01*
X187800500Y-88899996D01*
X194614659Y-88899996D01*
X194614659Y-88900003D01*
X194633974Y-89096126D01*
X194633975Y-89096129D01*
X194691187Y-89284730D01*
X194691188Y-89284732D01*
X194699082Y-89299500D01*
X194784090Y-89458538D01*
X194784092Y-89458540D01*
X194784093Y-89458542D01*
X194909112Y-89610878D01*
X194909121Y-89610887D01*
X195061457Y-89735906D01*
X195061462Y-89735910D01*
X195235273Y-89828814D01*
X195423868Y-89886024D01*
X195423870Y-89886024D01*
X195423873Y-89886025D01*
X195619997Y-89905341D01*
X195620000Y-89905341D01*
X195620003Y-89905341D01*
X195816126Y-89886025D01*
X195816127Y-89886024D01*
X195816132Y-89886024D01*
X196004727Y-89828814D01*
X196178538Y-89735910D01*
X196330883Y-89610883D01*
X196455910Y-89458538D01*
X196548814Y-89284727D01*
X196606024Y-89096132D01*
X196625341Y-88900000D01*
X196625341Y-88899996D01*
X196606025Y-88703873D01*
X196606024Y-88703870D01*
X196606024Y-88703868D01*
X196548814Y-88515273D01*
X196455910Y-88341462D01*
X196376344Y-88244511D01*
X196330887Y-88189121D01*
X196330878Y-88189112D01*
X196178542Y-88064093D01*
X196178540Y-88064092D01*
X196178538Y-88064090D01*
X196099361Y-88021769D01*
X196004732Y-87971188D01*
X196004730Y-87971187D01*
X195816129Y-87913975D01*
X195816126Y-87913974D01*
X195620003Y-87894659D01*
X195619997Y-87894659D01*
X195423873Y-87913974D01*
X195423870Y-87913975D01*
X195235269Y-87971187D01*
X195235267Y-87971188D01*
X195061467Y-88064087D01*
X195061457Y-88064093D01*
X194909121Y-88189112D01*
X194909112Y-88189121D01*
X194784093Y-88341457D01*
X194784087Y-88341467D01*
X194691188Y-88515267D01*
X194691187Y-88515269D01*
X194633975Y-88703870D01*
X194633974Y-88703873D01*
X194614659Y-88899996D01*
X187800500Y-88899996D01*
X187800500Y-85540299D01*
X189500000Y-85540299D01*
X189500000Y-86109999D01*
X189500001Y-86110000D01*
X190184314Y-86110000D01*
X190179920Y-86114394D01*
X190127259Y-86205606D01*
X190100000Y-86307339D01*
X190100000Y-86412661D01*
X190127259Y-86514394D01*
X190179920Y-86605606D01*
X190184314Y-86610000D01*
X189500001Y-86610000D01*
X189500000Y-86610001D01*
X189500000Y-87179700D01*
X189511603Y-87238036D01*
X189555806Y-87304189D01*
X189555810Y-87304193D01*
X189621963Y-87348396D01*
X189680299Y-87359999D01*
X189680303Y-87360000D01*
X190249999Y-87360000D01*
X190250000Y-87359999D01*
X190250000Y-86675686D01*
X190254394Y-86680080D01*
X190345606Y-86732741D01*
X190447339Y-86760000D01*
X190552661Y-86760000D01*
X190654394Y-86732741D01*
X190745606Y-86680080D01*
X190750000Y-86675686D01*
X190750000Y-87359999D01*
X190750001Y-87360000D01*
X191319697Y-87360000D01*
X191319700Y-87359999D01*
X191378036Y-87348396D01*
X191444189Y-87304193D01*
X191444193Y-87304189D01*
X191488396Y-87238036D01*
X191499999Y-87179700D01*
X191500000Y-87179697D01*
X191500000Y-86610001D01*
X191499999Y-86610000D01*
X190815686Y-86610000D01*
X190820080Y-86605606D01*
X190872741Y-86514394D01*
X190900000Y-86412661D01*
X190900000Y-86359996D01*
X191994659Y-86359996D01*
X191994659Y-86360003D01*
X192013974Y-86556126D01*
X192013975Y-86556129D01*
X192071187Y-86744730D01*
X192071188Y-86744732D01*
X192114587Y-86825925D01*
X192164090Y-86918538D01*
X192164092Y-86918540D01*
X192164093Y-86918542D01*
X192289112Y-87070878D01*
X192289121Y-87070887D01*
X192421710Y-87179700D01*
X192441462Y-87195910D01*
X192574353Y-87266942D01*
X192614174Y-87288227D01*
X192615273Y-87288814D01*
X192803868Y-87346024D01*
X192803870Y-87346024D01*
X192803873Y-87346025D01*
X192999997Y-87365341D01*
X193000000Y-87365341D01*
X193000003Y-87365341D01*
X193196126Y-87346025D01*
X193196127Y-87346024D01*
X193196132Y-87346024D01*
X193384727Y-87288814D01*
X193558538Y-87195910D01*
X193710883Y-87070883D01*
X193835910Y-86918538D01*
X193928814Y-86744727D01*
X193986024Y-86556132D01*
X193986334Y-86552993D01*
X194005341Y-86360003D01*
X194005341Y-86359996D01*
X193986025Y-86163873D01*
X193986024Y-86163870D01*
X193986024Y-86163868D01*
X193928814Y-85975273D01*
X193920650Y-85960000D01*
X193867199Y-85860000D01*
X193835910Y-85801462D01*
X193813001Y-85773547D01*
X193710887Y-85649121D01*
X193710878Y-85649112D01*
X193558542Y-85524093D01*
X193558540Y-85524092D01*
X193558538Y-85524090D01*
X193495320Y-85490299D01*
X193384732Y-85431188D01*
X193384730Y-85431187D01*
X193196129Y-85373975D01*
X193196126Y-85373974D01*
X193000003Y-85354659D01*
X192999997Y-85354659D01*
X192803873Y-85373974D01*
X192803870Y-85373975D01*
X192615269Y-85431187D01*
X192615267Y-85431188D01*
X192441467Y-85524087D01*
X192441457Y-85524093D01*
X192289121Y-85649112D01*
X192289112Y-85649121D01*
X192164093Y-85801457D01*
X192164087Y-85801467D01*
X192071188Y-85975267D01*
X192071187Y-85975269D01*
X192013975Y-86163870D01*
X192013974Y-86163873D01*
X191994659Y-86359996D01*
X190900000Y-86359996D01*
X190900000Y-86307339D01*
X190872741Y-86205606D01*
X190820080Y-86114394D01*
X190815686Y-86110000D01*
X191499999Y-86110000D01*
X191500000Y-86109999D01*
X191500000Y-85540302D01*
X191499999Y-85540299D01*
X191488396Y-85481963D01*
X191444193Y-85415810D01*
X191444189Y-85415806D01*
X191378036Y-85371603D01*
X191319700Y-85360000D01*
X190750001Y-85360000D01*
X190750000Y-85360001D01*
X190750000Y-86044314D01*
X190745606Y-86039920D01*
X190654394Y-85987259D01*
X190552661Y-85960000D01*
X190447339Y-85960000D01*
X190345606Y-85987259D01*
X190254394Y-86039920D01*
X190250000Y-86044314D01*
X190250000Y-85360001D01*
X190249999Y-85360000D01*
X189680299Y-85360000D01*
X189621963Y-85371603D01*
X189555810Y-85415806D01*
X189555806Y-85415810D01*
X189511603Y-85481963D01*
X189500000Y-85540299D01*
X187800500Y-85540299D01*
X187800500Y-74008222D01*
X187819407Y-73950031D01*
X187829496Y-73938218D01*
X188638218Y-73129496D01*
X188692735Y-73101719D01*
X188708222Y-73100500D01*
X190939563Y-73100500D01*
X190939563Y-73100499D01*
X191015989Y-73080021D01*
X191084511Y-73040460D01*
X191140460Y-72984511D01*
X191990460Y-72134511D01*
X191990463Y-72134506D01*
X192030020Y-72065992D01*
X192030020Y-72065990D01*
X192030022Y-72065988D01*
X192050500Y-71989562D01*
X192050500Y-71930644D01*
X192069407Y-71872453D01*
X192118907Y-71836489D01*
X192180093Y-71836489D01*
X192219485Y-71861899D01*
X192219854Y-71861495D01*
X192222265Y-71863693D01*
X192222665Y-71863951D01*
X192223230Y-71864571D01*
X192223236Y-71864579D01*
X192373959Y-72001981D01*
X192547363Y-72109348D01*
X192737544Y-72183024D01*
X192938024Y-72220500D01*
X193141976Y-72220500D01*
X193342456Y-72183024D01*
X193532637Y-72109348D01*
X193706041Y-72001981D01*
X193856764Y-71864579D01*
X193979673Y-71701821D01*
X194070582Y-71519250D01*
X194126397Y-71323083D01*
X194145215Y-71120000D01*
X194126397Y-70916917D01*
X194070582Y-70720750D01*
X193979673Y-70538179D01*
X193856764Y-70375421D01*
X193706041Y-70238019D01*
X193532637Y-70130652D01*
X193342456Y-70056976D01*
X193342455Y-70056975D01*
X193342453Y-70056975D01*
X193141976Y-70019500D01*
X192938024Y-70019500D01*
X192737546Y-70056975D01*
X192667632Y-70084059D01*
X192547363Y-70130652D01*
X192373959Y-70238019D01*
X192223236Y-70375421D01*
X192222657Y-70376057D01*
X192222343Y-70376235D01*
X192219854Y-70378505D01*
X192219342Y-70377943D01*
X192169479Y-70406318D01*
X192108670Y-70399543D01*
X192063456Y-70358319D01*
X192050500Y-70309355D01*
X192050500Y-54410437D01*
X192050499Y-54410435D01*
X192030021Y-54334011D01*
X192030019Y-54334007D01*
X191990460Y-54265489D01*
X191934511Y-54209539D01*
X191934511Y-54209540D01*
X189579496Y-51854525D01*
X189551719Y-51800008D01*
X189550500Y-51784521D01*
X189550500Y-51647787D01*
X189569407Y-51589596D01*
X189618907Y-51553632D01*
X189680093Y-51553632D01*
X189716193Y-51574623D01*
X189833959Y-51681981D01*
X190007363Y-51789348D01*
X190197544Y-51863024D01*
X190398024Y-51900500D01*
X190601976Y-51900500D01*
X190802456Y-51863024D01*
X190992637Y-51789348D01*
X191166041Y-51681981D01*
X191316764Y-51544579D01*
X191439673Y-51381821D01*
X191530582Y-51199250D01*
X191586397Y-51003083D01*
X191605215Y-50800000D01*
X191934785Y-50800000D01*
X191953603Y-51003083D01*
X192009418Y-51199250D01*
X192100327Y-51381821D01*
X192223236Y-51544579D01*
X192373959Y-51681981D01*
X192547363Y-51789348D01*
X192737544Y-51863024D01*
X192938024Y-51900500D01*
X193141976Y-51900500D01*
X193342456Y-51863024D01*
X193532637Y-51789348D01*
X193706041Y-51681981D01*
X193856764Y-51544579D01*
X193979673Y-51381821D01*
X194070582Y-51199250D01*
X194126397Y-51003083D01*
X194145215Y-50800000D01*
X194126397Y-50596917D01*
X194070582Y-50400750D01*
X193979673Y-50218179D01*
X193856764Y-50055421D01*
X193706041Y-49918019D01*
X193532637Y-49810652D01*
X193342456Y-49736976D01*
X193342455Y-49736975D01*
X193342453Y-49736975D01*
X193141976Y-49699500D01*
X192938024Y-49699500D01*
X192737546Y-49736975D01*
X192667632Y-49764059D01*
X192547363Y-49810652D01*
X192373959Y-49918019D01*
X192223237Y-50055420D01*
X192100328Y-50218177D01*
X192100323Y-50218186D01*
X192090500Y-50237914D01*
X192009418Y-50400750D01*
X191953603Y-50596917D01*
X191934785Y-50800000D01*
X191605215Y-50800000D01*
X191586397Y-50596917D01*
X191530582Y-50400750D01*
X191439673Y-50218179D01*
X191316764Y-50055421D01*
X191166041Y-49918019D01*
X190992637Y-49810652D01*
X190802456Y-49736976D01*
X190802455Y-49736975D01*
X190802453Y-49736975D01*
X190601976Y-49699500D01*
X190398024Y-49699500D01*
X190197546Y-49736975D01*
X190127632Y-49764059D01*
X190007363Y-49810652D01*
X189833959Y-49918019D01*
X189833956Y-49918021D01*
X189716195Y-50025374D01*
X189660454Y-50050604D01*
X189600529Y-50038252D01*
X189559309Y-49993035D01*
X189550500Y-49952212D01*
X189550500Y-49510437D01*
X189550499Y-49510435D01*
X189542460Y-49480435D01*
X189530021Y-49434011D01*
X189490460Y-49365489D01*
X189434511Y-49309539D01*
X189434511Y-49309540D01*
X188684511Y-48559540D01*
X188684508Y-48559538D01*
X188615992Y-48519980D01*
X188615988Y-48519978D01*
X188539564Y-48499500D01*
X188539562Y-48499500D01*
X183639562Y-48499500D01*
X183560438Y-48499500D01*
X183513661Y-48512033D01*
X183484007Y-48519979D01*
X183415493Y-48559536D01*
X182695489Y-49279540D01*
X182695488Y-49279539D01*
X182639539Y-49335489D01*
X182599980Y-49404007D01*
X182599978Y-49404011D01*
X182579500Y-49480435D01*
X182579500Y-49668401D01*
X182560593Y-49726592D01*
X182516263Y-49760716D01*
X182469450Y-49778851D01*
X182387363Y-49810652D01*
X182213959Y-49918019D01*
X182063237Y-50055420D01*
X181940328Y-50218177D01*
X181940323Y-50218186D01*
X181930500Y-50237914D01*
X181849418Y-50400750D01*
X181793603Y-50596917D01*
X181774785Y-50800000D01*
X181793603Y-51003083D01*
X181849418Y-51199250D01*
X181940327Y-51381821D01*
X182063236Y-51544579D01*
X182213959Y-51681981D01*
X182387363Y-51789348D01*
X182577544Y-51863024D01*
X182778024Y-51900500D01*
X182981976Y-51900500D01*
X183182456Y-51863024D01*
X183372637Y-51789348D01*
X183546041Y-51681981D01*
X183696764Y-51544579D01*
X183819673Y-51381821D01*
X183910582Y-51199250D01*
X183966397Y-51003083D01*
X183985215Y-50800000D01*
X183966397Y-50596917D01*
X183910582Y-50400750D01*
X183819673Y-50218179D01*
X183696764Y-50055421D01*
X183546041Y-49918019D01*
X183372637Y-49810652D01*
X183285131Y-49776752D01*
X183256045Y-49765484D01*
X183208615Y-49726832D01*
X183192961Y-49667683D01*
X183215064Y-49610629D01*
X183221806Y-49603165D01*
X183695476Y-49129496D01*
X183749992Y-49101719D01*
X183765479Y-49100500D01*
X188334521Y-49100500D01*
X188392712Y-49119407D01*
X188404525Y-49129496D01*
X188920504Y-49645475D01*
X188948281Y-49699992D01*
X188949500Y-49715479D01*
X188949500Y-49989355D01*
X188930593Y-50047546D01*
X188881093Y-50083510D01*
X188819907Y-50083510D01*
X188780513Y-50058101D01*
X188780146Y-50058505D01*
X188777745Y-50056316D01*
X188777343Y-50056057D01*
X188776768Y-50055427D01*
X188776764Y-50055421D01*
X188626041Y-49918019D01*
X188452637Y-49810652D01*
X188262456Y-49736976D01*
X188262455Y-49736975D01*
X188262453Y-49736975D01*
X188061976Y-49699500D01*
X187858024Y-49699500D01*
X187657546Y-49736975D01*
X187587632Y-49764059D01*
X187467363Y-49810652D01*
X187293959Y-49918019D01*
X187143237Y-50055420D01*
X187020328Y-50218177D01*
X187020323Y-50218186D01*
X187010500Y-50237914D01*
X186929418Y-50400750D01*
X186873603Y-50596917D01*
X186854785Y-50800000D01*
X186873603Y-51003083D01*
X186929418Y-51199250D01*
X187020327Y-51381821D01*
X187143236Y-51544579D01*
X187293959Y-51681981D01*
X187467363Y-51789348D01*
X187596264Y-51839284D01*
X187643694Y-51877934D01*
X187659500Y-51931598D01*
X187659500Y-53199564D01*
X187679977Y-53275985D01*
X187679979Y-53275989D01*
X187714618Y-53335987D01*
X187719537Y-53344507D01*
X187719538Y-53344508D01*
X187719540Y-53344511D01*
X188920505Y-54545476D01*
X188948281Y-54599991D01*
X188949500Y-54615478D01*
X188949500Y-70443046D01*
X188930593Y-70501237D01*
X188920504Y-70513050D01*
X188442962Y-70990591D01*
X188425925Y-70927007D01*
X188360099Y-70812993D01*
X188267007Y-70719901D01*
X188152993Y-70654075D01*
X188089406Y-70637036D01*
X188540686Y-70185757D01*
X188452418Y-70131104D01*
X188452413Y-70131101D01*
X188262316Y-70057458D01*
X188061930Y-70020000D01*
X187858070Y-70020000D01*
X187657683Y-70057458D01*
X187467586Y-70131101D01*
X187467584Y-70131102D01*
X187379312Y-70185757D01*
X187830592Y-70637037D01*
X187767007Y-70654075D01*
X187652993Y-70719901D01*
X187559901Y-70812993D01*
X187494075Y-70927007D01*
X187477037Y-70990591D01*
X187029496Y-70543050D01*
X187001719Y-70488533D01*
X187000500Y-70473046D01*
X187000500Y-54460437D01*
X187000499Y-54460435D01*
X186980021Y-54384011D01*
X186980019Y-54384007D01*
X186940460Y-54315489D01*
X186884511Y-54259539D01*
X186884511Y-54259540D01*
X185749496Y-53124525D01*
X185721719Y-53070008D01*
X185720500Y-53054521D01*
X185720500Y-51931598D01*
X185739407Y-51873407D01*
X185783734Y-51839284D01*
X185912637Y-51789348D01*
X186086041Y-51681981D01*
X186236764Y-51544579D01*
X186359673Y-51381821D01*
X186450582Y-51199250D01*
X186506397Y-51003083D01*
X186525215Y-50800000D01*
X186506397Y-50596917D01*
X186450582Y-50400750D01*
X186359673Y-50218179D01*
X186236764Y-50055421D01*
X186086041Y-49918019D01*
X185912637Y-49810652D01*
X185722456Y-49736976D01*
X185722455Y-49736975D01*
X185722453Y-49736975D01*
X185521976Y-49699500D01*
X185318024Y-49699500D01*
X185117546Y-49736975D01*
X185047632Y-49764059D01*
X184927363Y-49810652D01*
X184753959Y-49918019D01*
X184603237Y-50055420D01*
X184480328Y-50218177D01*
X184480323Y-50218186D01*
X184470500Y-50237914D01*
X184389418Y-50400750D01*
X184333603Y-50596917D01*
X184314785Y-50800000D01*
X184333603Y-51003083D01*
X184389418Y-51199250D01*
X184480327Y-51381821D01*
X184603236Y-51544579D01*
X184753959Y-51681981D01*
X184927363Y-51789348D01*
X185056264Y-51839284D01*
X185103694Y-51877934D01*
X185119500Y-51931598D01*
X185119500Y-53259564D01*
X185139977Y-53335985D01*
X185139978Y-53335987D01*
X185139979Y-53335989D01*
X185177201Y-53400460D01*
X185179540Y-53404511D01*
X186370505Y-54595476D01*
X186398281Y-54649991D01*
X186399500Y-54665478D01*
X186399500Y-70299561D01*
X186380593Y-70357752D01*
X186331093Y-70393716D01*
X186269907Y-70393716D01*
X186233804Y-70372723D01*
X186086041Y-70238019D01*
X185912637Y-70130652D01*
X185722456Y-70056976D01*
X185722455Y-70056975D01*
X185722453Y-70056975D01*
X185521976Y-70019500D01*
X185318024Y-70019500D01*
X185117546Y-70056975D01*
X185047632Y-70084059D01*
X184927363Y-70130652D01*
X184753959Y-70238019D01*
X184616194Y-70363607D01*
X184560454Y-70388837D01*
X184500529Y-70376485D01*
X184459309Y-70331268D01*
X184450500Y-70290445D01*
X184450500Y-54570439D01*
X184450499Y-54570435D01*
X184442227Y-54539560D01*
X184442227Y-54539559D01*
X184430022Y-54494012D01*
X184430020Y-54494008D01*
X184390463Y-54425493D01*
X184390462Y-54425492D01*
X184390461Y-54425491D01*
X184390460Y-54425489D01*
X181352351Y-51387380D01*
X181324574Y-51332863D01*
X181333733Y-51273252D01*
X181370582Y-51199250D01*
X181426397Y-51003083D01*
X181445215Y-50800000D01*
X181426397Y-50596917D01*
X181370582Y-50400750D01*
X181279673Y-50218179D01*
X181156764Y-50055421D01*
X181006041Y-49918019D01*
X180832637Y-49810652D01*
X180642456Y-49736976D01*
X180642455Y-49736975D01*
X180642453Y-49736975D01*
X180441976Y-49699500D01*
X180238024Y-49699500D01*
X180037546Y-49736975D01*
X179967632Y-49764059D01*
X179847363Y-49810652D01*
X179673959Y-49918019D01*
X179523237Y-50055420D01*
X179400328Y-50218177D01*
X179400323Y-50218186D01*
X179390500Y-50237914D01*
X179309418Y-50400750D01*
X179253603Y-50596917D01*
X179234785Y-50800000D01*
X179253603Y-51003083D01*
X179309418Y-51199250D01*
X179400327Y-51381821D01*
X179523236Y-51544579D01*
X179673959Y-51681981D01*
X179847363Y-51789348D01*
X180037544Y-51863024D01*
X180238024Y-51900500D01*
X180441976Y-51900500D01*
X180642456Y-51863024D01*
X180824193Y-51792618D01*
X180885284Y-51789229D01*
X180929959Y-51814930D01*
X183820504Y-54705475D01*
X183848281Y-54759992D01*
X183849500Y-54775479D01*
X183849500Y-70290445D01*
X183830593Y-70348636D01*
X183781093Y-70384600D01*
X183719907Y-70384600D01*
X183683805Y-70363608D01*
X183546041Y-70238019D01*
X183372637Y-70130652D01*
X183182456Y-70056976D01*
X183182455Y-70056975D01*
X183182453Y-70056975D01*
X182981976Y-70019500D01*
X182778024Y-70019500D01*
X182577546Y-70056975D01*
X182507632Y-70084059D01*
X182387363Y-70130652D01*
X182213959Y-70238019D01*
X182066196Y-70372723D01*
X182063236Y-70375421D01*
X182053105Y-70388837D01*
X181940328Y-70538177D01*
X181940323Y-70538186D01*
X181849419Y-70720747D01*
X181849418Y-70720750D01*
X181793603Y-70916917D01*
X181774785Y-71120000D01*
X181793603Y-71323083D01*
X181849418Y-71519250D01*
X181940327Y-71701821D01*
X182063236Y-71864579D01*
X182213959Y-72001981D01*
X182387363Y-72109348D01*
X182577544Y-72183024D01*
X182778024Y-72220500D01*
X182981976Y-72220500D01*
X183182456Y-72183024D01*
X183364193Y-72112618D01*
X183425284Y-72109229D01*
X183469959Y-72134930D01*
X184165525Y-72830496D01*
X184193302Y-72885013D01*
X184183731Y-72945445D01*
X184140466Y-72988710D01*
X184095521Y-72999500D01*
X182685479Y-72999500D01*
X182627288Y-72980593D01*
X182615475Y-72970504D01*
X181352351Y-71707380D01*
X181324574Y-71652863D01*
X181333733Y-71593252D01*
X181370582Y-71519250D01*
X181426397Y-71323083D01*
X181445215Y-71120000D01*
X181426397Y-70916917D01*
X181370582Y-70720750D01*
X181279673Y-70538179D01*
X181156764Y-70375421D01*
X181006041Y-70238019D01*
X180832637Y-70130652D01*
X180642456Y-70056976D01*
X180642455Y-70056975D01*
X180642453Y-70056975D01*
X180441976Y-70019500D01*
X180238024Y-70019500D01*
X180037546Y-70056975D01*
X179967632Y-70084059D01*
X179847363Y-70130652D01*
X179673959Y-70238019D01*
X179526196Y-70372723D01*
X179523236Y-70375421D01*
X179513105Y-70388837D01*
X179400328Y-70538177D01*
X179400323Y-70538186D01*
X179309419Y-70720747D01*
X179309418Y-70720750D01*
X179253603Y-70916917D01*
X179234785Y-71120000D01*
X179253603Y-71323083D01*
X179309418Y-71519250D01*
X179400327Y-71701821D01*
X179523236Y-71864579D01*
X179673959Y-72001981D01*
X179847363Y-72109348D01*
X180037544Y-72183024D01*
X180238024Y-72220500D01*
X180441976Y-72220500D01*
X180642456Y-72183024D01*
X180824193Y-72112618D01*
X180885284Y-72109229D01*
X180929959Y-72134930D01*
X182335489Y-73540460D01*
X182335491Y-73540461D01*
X182335492Y-73540462D01*
X182335493Y-73540463D01*
X182404008Y-73580020D01*
X182404006Y-73580020D01*
X182404010Y-73580021D01*
X182404012Y-73580022D01*
X182480438Y-73600500D01*
X184328835Y-73600500D01*
X184387026Y-73619407D01*
X184398839Y-73629496D01*
X185170504Y-74401161D01*
X185198281Y-74455678D01*
X185199500Y-74471165D01*
X185199500Y-89468835D01*
X185180593Y-89527026D01*
X185170504Y-89538839D01*
X183338839Y-91370504D01*
X183284322Y-91398281D01*
X183268835Y-91399500D01*
X177160435Y-91399500D01*
X177084011Y-91419978D01*
X177084007Y-91419980D01*
X177063412Y-91431870D01*
X177063413Y-91431871D01*
X177015490Y-91459539D01*
X176369504Y-92105525D01*
X176314987Y-92133302D01*
X176254555Y-92123731D01*
X176211290Y-92080466D01*
X176200500Y-92035521D01*
X176200500Y-91462537D01*
X176219407Y-91404346D01*
X176229496Y-91392533D01*
X177892533Y-89729496D01*
X177947050Y-89701719D01*
X177962537Y-89700500D01*
X181699563Y-89700500D01*
X181699563Y-89700499D01*
X181775989Y-89680021D01*
X181844511Y-89640460D01*
X181900460Y-89584511D01*
X183240460Y-88244511D01*
X183269152Y-88194814D01*
X183280021Y-88175989D01*
X183300500Y-88099562D01*
X183300500Y-78820438D01*
X183280021Y-78744011D01*
X183277705Y-78740000D01*
X183240460Y-78675489D01*
X183184511Y-78619539D01*
X183184511Y-78619540D01*
X181316187Y-76751216D01*
X181288410Y-76696699D01*
X181297981Y-76636267D01*
X181298882Y-76634542D01*
X181315230Y-76603957D01*
X181315232Y-76603954D01*
X181375300Y-76405934D01*
X181375301Y-76405929D01*
X181395583Y-76200003D01*
X181395583Y-76199996D01*
X181375301Y-75994070D01*
X181375300Y-75994065D01*
X181357078Y-75933997D01*
X181315232Y-75796046D01*
X181217685Y-75613550D01*
X181086410Y-75453590D01*
X181086404Y-75453585D01*
X180926452Y-75322316D01*
X180743954Y-75224768D01*
X180545934Y-75164699D01*
X180545929Y-75164698D01*
X180340003Y-75144417D01*
X180339997Y-75144417D01*
X180134070Y-75164698D01*
X180134065Y-75164699D01*
X179936045Y-75224768D01*
X179753547Y-75322316D01*
X179593595Y-75453585D01*
X179593585Y-75453595D01*
X179462316Y-75613547D01*
X179364768Y-75796045D01*
X179304699Y-75994065D01*
X179304698Y-75994070D01*
X179284417Y-76199996D01*
X179284417Y-76200003D01*
X179304698Y-76405929D01*
X179304699Y-76405934D01*
X179364768Y-76603954D01*
X179462316Y-76786452D01*
X179564430Y-76910878D01*
X179593590Y-76946410D01*
X179593595Y-76946414D01*
X179753547Y-77077683D01*
X179753548Y-77077683D01*
X179753550Y-77077685D01*
X179936046Y-77175232D01*
X180073997Y-77217078D01*
X180134065Y-77235300D01*
X180134070Y-77235301D01*
X180339997Y-77255583D01*
X180340000Y-77255583D01*
X180340003Y-77255583D01*
X180545929Y-77235301D01*
X180545934Y-77235300D01*
X180743954Y-77175232D01*
X180774542Y-77158881D01*
X180834775Y-77148124D01*
X180889826Y-77174825D01*
X180891216Y-77176187D01*
X182670504Y-78955475D01*
X182698281Y-79009992D01*
X182699500Y-79025479D01*
X182699500Y-80435521D01*
X182680593Y-80493712D01*
X182631093Y-80529676D01*
X182569907Y-80529676D01*
X182530496Y-80505525D01*
X181316187Y-79291216D01*
X181288410Y-79236699D01*
X181297981Y-79176267D01*
X181298882Y-79174542D01*
X181315230Y-79143957D01*
X181315232Y-79143954D01*
X181375300Y-78945934D01*
X181375301Y-78945929D01*
X181395583Y-78740003D01*
X181395583Y-78739996D01*
X181375301Y-78534070D01*
X181375300Y-78534065D01*
X181357078Y-78473997D01*
X181315232Y-78336046D01*
X181217685Y-78153550D01*
X181086410Y-77993590D01*
X180984545Y-77909992D01*
X180926452Y-77862316D01*
X180743954Y-77764768D01*
X180545934Y-77704699D01*
X180545929Y-77704698D01*
X180340003Y-77684417D01*
X180339997Y-77684417D01*
X180134070Y-77704698D01*
X180134065Y-77704699D01*
X179936045Y-77764768D01*
X179753547Y-77862316D01*
X179593595Y-77993585D01*
X179593585Y-77993595D01*
X179462316Y-78153547D01*
X179364768Y-78336045D01*
X179304699Y-78534065D01*
X179304698Y-78534070D01*
X179284417Y-78739996D01*
X179284417Y-78740003D01*
X179304698Y-78945929D01*
X179304699Y-78945934D01*
X179364768Y-79143954D01*
X179462316Y-79326452D01*
X179593585Y-79486404D01*
X179593590Y-79486410D01*
X179593595Y-79486414D01*
X179753547Y-79617683D01*
X179753548Y-79617683D01*
X179753550Y-79617685D01*
X179936046Y-79715232D01*
X180073997Y-79757078D01*
X180134065Y-79775300D01*
X180134070Y-79775301D01*
X180339997Y-79795583D01*
X180340000Y-79795583D01*
X180340003Y-79795583D01*
X180545929Y-79775301D01*
X180545934Y-79775300D01*
X180743954Y-79715232D01*
X180774542Y-79698881D01*
X180834775Y-79688124D01*
X180889826Y-79714825D01*
X180891216Y-79716187D01*
X182270504Y-81095475D01*
X182298281Y-81149992D01*
X182299500Y-81165479D01*
X182299500Y-82575521D01*
X182280593Y-82633712D01*
X182231093Y-82669676D01*
X182169907Y-82669676D01*
X182130496Y-82645525D01*
X181316187Y-81831216D01*
X181288410Y-81776699D01*
X181297981Y-81716267D01*
X181298882Y-81714542D01*
X181315230Y-81683957D01*
X181315232Y-81683954D01*
X181375300Y-81485934D01*
X181375301Y-81485929D01*
X181395583Y-81280003D01*
X181395583Y-81279996D01*
X181375301Y-81074070D01*
X181375300Y-81074065D01*
X181357078Y-81013997D01*
X181315232Y-80876046D01*
X181217685Y-80693550D01*
X181202851Y-80675475D01*
X181092029Y-80540437D01*
X181086410Y-80533590D01*
X181081641Y-80529676D01*
X180926452Y-80402316D01*
X180743954Y-80304768D01*
X180545934Y-80244699D01*
X180545929Y-80244698D01*
X180340003Y-80224417D01*
X180339997Y-80224417D01*
X180134070Y-80244698D01*
X180134065Y-80244699D01*
X179936045Y-80304768D01*
X179753547Y-80402316D01*
X179593595Y-80533585D01*
X179593585Y-80533595D01*
X179462316Y-80693547D01*
X179364768Y-80876045D01*
X179304699Y-81074065D01*
X179304698Y-81074070D01*
X179284417Y-81279996D01*
X179284417Y-81280003D01*
X179304698Y-81485929D01*
X179304699Y-81485934D01*
X179364768Y-81683954D01*
X179462316Y-81866452D01*
X179564430Y-81990878D01*
X179593590Y-82026410D01*
X179593595Y-82026414D01*
X179753547Y-82157683D01*
X179753548Y-82157683D01*
X179753550Y-82157685D01*
X179936046Y-82255232D01*
X180073997Y-82297078D01*
X180134065Y-82315300D01*
X180134070Y-82315301D01*
X180339997Y-82335583D01*
X180340000Y-82335583D01*
X180340003Y-82335583D01*
X180545929Y-82315301D01*
X180545934Y-82315300D01*
X180743954Y-82255232D01*
X180774542Y-82238881D01*
X180834775Y-82228124D01*
X180889826Y-82254825D01*
X180891216Y-82256187D01*
X181870504Y-83235475D01*
X181898281Y-83289992D01*
X181899500Y-83305479D01*
X181899500Y-84715521D01*
X181880593Y-84773712D01*
X181831093Y-84809676D01*
X181769907Y-84809676D01*
X181730496Y-84785525D01*
X181316187Y-84371216D01*
X181288410Y-84316699D01*
X181297981Y-84256267D01*
X181298882Y-84254542D01*
X181315232Y-84223954D01*
X181375300Y-84025934D01*
X181375301Y-84025929D01*
X181395583Y-83820003D01*
X181395583Y-83819996D01*
X181375301Y-83614070D01*
X181375300Y-83614065D01*
X181357078Y-83553997D01*
X181315232Y-83416046D01*
X181217685Y-83233550D01*
X181086410Y-83073590D01*
X181064337Y-83055475D01*
X180926452Y-82942316D01*
X180743954Y-82844768D01*
X180545934Y-82784699D01*
X180545929Y-82784698D01*
X180340003Y-82764417D01*
X180339997Y-82764417D01*
X180134070Y-82784698D01*
X180134065Y-82784699D01*
X179936045Y-82844768D01*
X179753547Y-82942316D01*
X179593595Y-83073585D01*
X179593585Y-83073595D01*
X179462316Y-83233547D01*
X179364768Y-83416045D01*
X179304699Y-83614065D01*
X179304698Y-83614070D01*
X179284417Y-83819996D01*
X179284417Y-83820003D01*
X179304698Y-84025929D01*
X179304699Y-84025934D01*
X179364768Y-84223954D01*
X179462316Y-84406452D01*
X179593302Y-84566059D01*
X179593590Y-84566410D01*
X179593595Y-84566414D01*
X179753547Y-84697683D01*
X179753548Y-84697683D01*
X179753550Y-84697685D01*
X179936046Y-84795232D01*
X180073997Y-84837078D01*
X180134065Y-84855300D01*
X180134070Y-84855301D01*
X180339997Y-84875583D01*
X180340000Y-84875583D01*
X180340003Y-84875583D01*
X180545929Y-84855301D01*
X180545934Y-84855300D01*
X180591720Y-84841411D01*
X180743954Y-84795232D01*
X180774542Y-84778881D01*
X180834775Y-84768124D01*
X180889826Y-84794825D01*
X180891216Y-84796187D01*
X181236025Y-85140996D01*
X181263802Y-85195513D01*
X181254231Y-85255945D01*
X181210966Y-85299210D01*
X181166021Y-85310000D01*
X180590001Y-85310000D01*
X180590000Y-85310001D01*
X180590000Y-85926988D01*
X180532993Y-85894075D01*
X180405826Y-85860000D01*
X180274174Y-85860000D01*
X180147007Y-85894075D01*
X180090000Y-85926988D01*
X180090000Y-85310001D01*
X180089999Y-85310000D01*
X179470299Y-85310000D01*
X179411963Y-85321603D01*
X179345810Y-85365806D01*
X179345806Y-85365810D01*
X179301603Y-85431963D01*
X179290000Y-85490299D01*
X179290000Y-86109999D01*
X179290001Y-86110000D01*
X179906988Y-86110000D01*
X179874075Y-86167007D01*
X179840000Y-86294174D01*
X179840000Y-86425826D01*
X179874075Y-86552993D01*
X179906988Y-86610000D01*
X179290001Y-86610000D01*
X179290000Y-86610001D01*
X179290000Y-87229700D01*
X179301603Y-87288036D01*
X179345806Y-87354189D01*
X179345810Y-87354193D01*
X179411963Y-87398396D01*
X179470299Y-87409999D01*
X179470303Y-87410000D01*
X180089999Y-87410000D01*
X180090000Y-87409999D01*
X180090000Y-86793012D01*
X180147007Y-86825925D01*
X180274174Y-86860000D01*
X180405826Y-86860000D01*
X180532993Y-86825925D01*
X180590000Y-86793012D01*
X180590000Y-87409999D01*
X180590001Y-87410000D01*
X181209697Y-87410000D01*
X181209700Y-87409999D01*
X181268036Y-87398396D01*
X181271754Y-87396856D01*
X181332751Y-87392052D01*
X181384921Y-87424019D01*
X181408338Y-87480546D01*
X181394058Y-87540042D01*
X181379648Y-87558321D01*
X181067467Y-87870503D01*
X181012950Y-87898281D01*
X180997463Y-87899500D01*
X177499500Y-87899500D01*
X177441309Y-87880593D01*
X177405345Y-87831093D01*
X177400500Y-87800500D01*
X177400500Y-80540437D01*
X177400499Y-80540435D01*
X177387979Y-80493712D01*
X177380021Y-80464011D01*
X177368521Y-80444093D01*
X177340460Y-80395489D01*
X177284511Y-80339539D01*
X177284511Y-80339540D01*
X176236187Y-79291216D01*
X176208410Y-79236699D01*
X176217981Y-79176267D01*
X176218882Y-79174542D01*
X176235230Y-79143957D01*
X176235232Y-79143954D01*
X176295300Y-78945934D01*
X176295301Y-78945929D01*
X176315583Y-78740003D01*
X176315583Y-78739996D01*
X176295301Y-78534070D01*
X176295300Y-78534065D01*
X176277078Y-78473997D01*
X176235232Y-78336046D01*
X176137685Y-78153550D01*
X176006410Y-77993590D01*
X175904545Y-77909992D01*
X175846452Y-77862316D01*
X175663954Y-77764768D01*
X175465934Y-77704699D01*
X175465929Y-77704698D01*
X175260003Y-77684417D01*
X175259997Y-77684417D01*
X175054070Y-77704698D01*
X175054065Y-77704699D01*
X174856045Y-77764768D01*
X174673547Y-77862316D01*
X174513595Y-77993585D01*
X174513585Y-77993595D01*
X174382316Y-78153547D01*
X174284768Y-78336045D01*
X174224699Y-78534065D01*
X174224698Y-78534070D01*
X174204417Y-78739996D01*
X174204417Y-78740003D01*
X174224698Y-78945929D01*
X174224699Y-78945934D01*
X174284768Y-79143954D01*
X174382316Y-79326452D01*
X174513585Y-79486404D01*
X174513590Y-79486410D01*
X174513595Y-79486414D01*
X174673547Y-79617683D01*
X174673548Y-79617683D01*
X174673550Y-79617685D01*
X174856046Y-79715232D01*
X174993997Y-79757078D01*
X175054065Y-79775300D01*
X175054070Y-79775301D01*
X175259997Y-79795583D01*
X175260000Y-79795583D01*
X175260003Y-79795583D01*
X175465929Y-79775301D01*
X175465934Y-79775300D01*
X175663954Y-79715232D01*
X175694542Y-79698881D01*
X175754775Y-79688124D01*
X175809826Y-79714825D01*
X175811216Y-79716187D01*
X176770504Y-80675475D01*
X176798281Y-80729992D01*
X176799500Y-80745479D01*
X176799500Y-82155521D01*
X176780593Y-82213712D01*
X176731093Y-82249676D01*
X176669907Y-82249676D01*
X176630496Y-82225525D01*
X176236187Y-81831216D01*
X176208410Y-81776699D01*
X176217981Y-81716267D01*
X176218882Y-81714542D01*
X176235230Y-81683957D01*
X176235232Y-81683954D01*
X176295300Y-81485934D01*
X176295301Y-81485929D01*
X176315583Y-81280003D01*
X176315583Y-81279996D01*
X176295301Y-81074070D01*
X176295300Y-81074065D01*
X176277078Y-81013997D01*
X176235232Y-80876046D01*
X176137685Y-80693550D01*
X176122851Y-80675475D01*
X176012029Y-80540437D01*
X176006410Y-80533590D01*
X176001641Y-80529676D01*
X175846452Y-80402316D01*
X175663954Y-80304768D01*
X175465934Y-80244699D01*
X175465929Y-80244698D01*
X175260003Y-80224417D01*
X175259997Y-80224417D01*
X175054070Y-80244698D01*
X175054065Y-80244699D01*
X174856045Y-80304768D01*
X174673547Y-80402316D01*
X174513595Y-80533585D01*
X174513585Y-80533595D01*
X174382316Y-80693547D01*
X174284768Y-80876045D01*
X174224699Y-81074065D01*
X174224698Y-81074070D01*
X174204417Y-81279996D01*
X174204417Y-81280003D01*
X174224698Y-81485929D01*
X174224699Y-81485934D01*
X174284768Y-81683954D01*
X174382316Y-81866452D01*
X174484430Y-81990878D01*
X174513590Y-82026410D01*
X174513595Y-82026414D01*
X174673547Y-82157683D01*
X174673548Y-82157683D01*
X174673550Y-82157685D01*
X174856046Y-82255232D01*
X174993997Y-82297078D01*
X175054065Y-82315300D01*
X175054070Y-82315301D01*
X175259997Y-82335583D01*
X175260000Y-82335583D01*
X175260003Y-82335583D01*
X175465929Y-82315301D01*
X175465934Y-82315300D01*
X175663954Y-82255232D01*
X175694542Y-82238881D01*
X175754775Y-82228124D01*
X175809826Y-82254825D01*
X175811216Y-82256187D01*
X176370504Y-82815475D01*
X176398281Y-82869992D01*
X176399500Y-82885479D01*
X176399500Y-83329199D01*
X176380593Y-83387390D01*
X176331093Y-83423354D01*
X176269907Y-83423354D01*
X176220407Y-83387390D01*
X176213190Y-83375867D01*
X176137275Y-83233839D01*
X176137268Y-83233829D01*
X176006059Y-83073949D01*
X176006050Y-83073940D01*
X175846170Y-82942731D01*
X175846160Y-82942724D01*
X175663771Y-82845236D01*
X175663758Y-82845231D01*
X175510000Y-82798588D01*
X175510000Y-83386988D01*
X175452993Y-83354075D01*
X175325826Y-83320000D01*
X175194174Y-83320000D01*
X175067007Y-83354075D01*
X175010000Y-83386988D01*
X175010000Y-82798588D01*
X174856241Y-82845231D01*
X174856228Y-82845236D01*
X174673839Y-82942724D01*
X174673829Y-82942731D01*
X174513949Y-83073940D01*
X174513940Y-83073949D01*
X174382731Y-83233829D01*
X174382724Y-83233839D01*
X174285234Y-83416232D01*
X174285232Y-83416237D01*
X174238588Y-83569999D01*
X174238589Y-83570000D01*
X174826988Y-83570000D01*
X174794075Y-83627007D01*
X174760000Y-83754174D01*
X174760000Y-83885826D01*
X174794075Y-84012993D01*
X174826988Y-84070000D01*
X174238589Y-84070000D01*
X174285232Y-84223762D01*
X174285234Y-84223767D01*
X174382724Y-84406160D01*
X174382731Y-84406170D01*
X174513940Y-84566050D01*
X174513949Y-84566059D01*
X174673829Y-84697268D01*
X174673839Y-84697275D01*
X174856232Y-84794765D01*
X174856237Y-84794767D01*
X175009999Y-84841411D01*
X175010000Y-84841411D01*
X175010000Y-84253012D01*
X175067007Y-84285925D01*
X175194174Y-84320000D01*
X175325826Y-84320000D01*
X175452993Y-84285925D01*
X175510000Y-84253012D01*
X175510000Y-84841411D01*
X175663762Y-84794767D01*
X175663767Y-84794765D01*
X175846160Y-84697275D01*
X175846170Y-84697268D01*
X176006050Y-84566059D01*
X176006059Y-84566050D01*
X176137268Y-84406170D01*
X176137275Y-84406160D01*
X176213190Y-84264132D01*
X176257295Y-84221725D01*
X176317903Y-84213342D01*
X176371864Y-84242184D01*
X176398566Y-84297235D01*
X176399500Y-84310800D01*
X176399500Y-85277083D01*
X176380593Y-85335274D01*
X176331093Y-85371238D01*
X176269907Y-85371238D01*
X176245498Y-85359398D01*
X176188233Y-85321134D01*
X176188231Y-85321133D01*
X176188228Y-85321132D01*
X176188227Y-85321132D01*
X176129758Y-85309501D01*
X176129748Y-85309500D01*
X174390252Y-85309500D01*
X174390251Y-85309500D01*
X174390241Y-85309501D01*
X174331772Y-85321132D01*
X174331766Y-85321134D01*
X174265451Y-85365445D01*
X174265445Y-85365451D01*
X174221134Y-85431766D01*
X174221132Y-85431772D01*
X174209501Y-85490241D01*
X174209500Y-85490253D01*
X174209500Y-87229746D01*
X174209501Y-87229758D01*
X174221132Y-87288227D01*
X174221134Y-87288233D01*
X174265205Y-87354189D01*
X174265448Y-87354552D01*
X174331769Y-87398867D01*
X174376231Y-87407711D01*
X174390241Y-87410498D01*
X174390246Y-87410498D01*
X174390252Y-87410500D01*
X174390253Y-87410500D01*
X176129747Y-87410500D01*
X176129748Y-87410500D01*
X176188231Y-87398867D01*
X176245500Y-87360599D01*
X176304385Y-87343992D01*
X176361789Y-87365169D01*
X176395783Y-87416042D01*
X176399500Y-87442916D01*
X176399500Y-87503149D01*
X176380593Y-87561340D01*
X176370504Y-87573153D01*
X173715489Y-90228168D01*
X173715488Y-90228167D01*
X173659539Y-90284117D01*
X173619980Y-90352635D01*
X173619978Y-90352639D01*
X173599500Y-90429063D01*
X173599500Y-93181739D01*
X173580593Y-93239930D01*
X173531093Y-93275894D01*
X173469907Y-93275894D01*
X173420407Y-93239930D01*
X173410447Y-93222866D01*
X173399377Y-93198628D01*
X173399377Y-93198627D01*
X173305128Y-93089857D01*
X173305127Y-93089856D01*
X173305126Y-93089855D01*
X173184057Y-93012049D01*
X173184054Y-93012047D01*
X173184053Y-93012047D01*
X173184050Y-93012046D01*
X173045964Y-92971500D01*
X173045961Y-92971500D01*
X172902039Y-92971500D01*
X172902035Y-92971500D01*
X172763949Y-93012046D01*
X172763942Y-93012049D01*
X172642873Y-93089855D01*
X172548622Y-93198628D01*
X172489553Y-93327969D01*
X172448181Y-93373046D01*
X172388214Y-93385197D01*
X172332558Y-93359779D01*
X172302472Y-93306502D01*
X172300500Y-93286842D01*
X172300500Y-77720437D01*
X172300499Y-77720435D01*
X172296282Y-77704699D01*
X172280021Y-77644011D01*
X172240460Y-77575489D01*
X172184511Y-77519539D01*
X172184511Y-77519540D01*
X170624511Y-75959540D01*
X170615598Y-75954394D01*
X170555992Y-75919980D01*
X170555988Y-75919978D01*
X170479564Y-75899500D01*
X170479562Y-75899500D01*
X166180037Y-75899500D01*
X166121846Y-75880593D01*
X166085882Y-75831093D01*
X166085300Y-75829237D01*
X166084700Y-75827259D01*
X166075232Y-75796046D01*
X165977685Y-75613550D01*
X165846410Y-75453590D01*
X165846404Y-75453585D01*
X165686452Y-75322316D01*
X165503954Y-75224768D01*
X165305934Y-75164699D01*
X165305929Y-75164698D01*
X165100003Y-75144417D01*
X165099997Y-75144417D01*
X164894070Y-75164698D01*
X164894065Y-75164699D01*
X164696045Y-75224768D01*
X164513547Y-75322316D01*
X164353595Y-75453585D01*
X164353585Y-75453595D01*
X164222316Y-75613547D01*
X164124768Y-75796045D01*
X164064699Y-75994065D01*
X164064698Y-75994070D01*
X164044417Y-76199996D01*
X163610500Y-76199996D01*
X163610500Y-75330252D01*
X163608921Y-75322316D01*
X163607711Y-75316231D01*
X163598867Y-75271769D01*
X163554552Y-75205448D01*
X163539157Y-75195161D01*
X163488233Y-75161134D01*
X163488231Y-75161133D01*
X163488228Y-75161132D01*
X163488227Y-75161132D01*
X163429758Y-75149501D01*
X163429748Y-75149500D01*
X161690252Y-75149500D01*
X161690251Y-75149500D01*
X161690241Y-75149501D01*
X161631772Y-75161132D01*
X161631766Y-75161134D01*
X161565451Y-75205445D01*
X161565445Y-75205451D01*
X161521134Y-75271766D01*
X161521132Y-75271772D01*
X161509501Y-75330241D01*
X161509500Y-75330253D01*
X161509500Y-75650500D01*
X161490593Y-75708691D01*
X161441093Y-75744655D01*
X161410500Y-75749500D01*
X158432996Y-75749500D01*
X158374805Y-75730593D01*
X158345686Y-75697169D01*
X158342643Y-75691476D01*
X158315910Y-75641462D01*
X158293001Y-75613547D01*
X158190887Y-75489121D01*
X158190878Y-75489112D01*
X158038542Y-75364093D01*
X158038540Y-75364092D01*
X158038538Y-75364090D01*
X157989579Y-75337921D01*
X157864732Y-75271188D01*
X157864730Y-75271187D01*
X157676129Y-75213975D01*
X157676126Y-75213974D01*
X157480003Y-75194659D01*
X157479997Y-75194659D01*
X157283873Y-75213974D01*
X157283870Y-75213975D01*
X157095269Y-75271187D01*
X157095267Y-75271188D01*
X156921467Y-75364087D01*
X156921457Y-75364093D01*
X156769121Y-75489112D01*
X156769112Y-75489121D01*
X156644093Y-75641457D01*
X156644087Y-75641467D01*
X156551188Y-75815267D01*
X156551187Y-75815269D01*
X156493975Y-76003870D01*
X156493974Y-76003873D01*
X156474659Y-76199996D01*
X155944839Y-76199996D01*
X155925532Y-76003970D01*
X155925531Y-76003965D01*
X155868349Y-75815464D01*
X155868347Y-75815459D01*
X155802077Y-75691476D01*
X155340000Y-76153553D01*
X155340000Y-76147339D01*
X155312741Y-76045606D01*
X155260080Y-75954394D01*
X155185606Y-75879920D01*
X155094394Y-75827259D01*
X154992661Y-75800000D01*
X154986444Y-75800000D01*
X155448523Y-75337921D01*
X155324540Y-75271652D01*
X155324535Y-75271650D01*
X155136034Y-75214468D01*
X155136029Y-75214467D01*
X154940003Y-75195161D01*
X154939997Y-75195161D01*
X154743970Y-75214467D01*
X154743965Y-75214468D01*
X154555472Y-75271648D01*
X154555460Y-75271652D01*
X154431476Y-75337922D01*
X154893554Y-75800000D01*
X154887339Y-75800000D01*
X154785606Y-75827259D01*
X154694394Y-75879920D01*
X154619920Y-75954394D01*
X154567259Y-76045606D01*
X154540000Y-76147339D01*
X154540000Y-76153554D01*
X154077922Y-75691476D01*
X154011652Y-75815460D01*
X154011648Y-75815472D01*
X153954468Y-76003965D01*
X153954467Y-76003970D01*
X153935161Y-76199996D01*
X148500500Y-76199996D01*
X148500500Y-45000000D01*
X149994415Y-45000000D01*
X150014738Y-45348929D01*
X150075430Y-45693133D01*
X150075430Y-45693134D01*
X150075431Y-45693136D01*
X150175674Y-46027971D01*
X150314111Y-46348904D01*
X150488870Y-46651596D01*
X150697588Y-46931953D01*
X150937442Y-47186183D01*
X151205189Y-47410849D01*
X151497207Y-47602913D01*
X151809549Y-47759777D01*
X152137989Y-47879319D01*
X152137992Y-47879319D01*
X152137993Y-47879320D01*
X152478075Y-47959921D01*
X152478080Y-47959921D01*
X152478086Y-47959923D01*
X152825241Y-48000500D01*
X152825244Y-48000500D01*
X153174756Y-48000500D01*
X153174759Y-48000500D01*
X153521914Y-47959923D01*
X153521920Y-47959921D01*
X153521924Y-47959921D01*
X153748645Y-47906187D01*
X153862011Y-47879319D01*
X154190451Y-47759777D01*
X154502793Y-47602913D01*
X154794811Y-47410849D01*
X155062558Y-47186183D01*
X155302412Y-46931953D01*
X155511130Y-46651596D01*
X155685889Y-46348904D01*
X155824326Y-46027971D01*
X155924569Y-45693136D01*
X155985262Y-45348927D01*
X156005585Y-45000000D01*
X191994415Y-45000000D01*
X192014738Y-45348929D01*
X192075430Y-45693133D01*
X192075430Y-45693134D01*
X192075431Y-45693136D01*
X192175674Y-46027971D01*
X192314111Y-46348904D01*
X192488870Y-46651596D01*
X192697588Y-46931953D01*
X192937442Y-47186183D01*
X193205189Y-47410849D01*
X193497207Y-47602913D01*
X193809549Y-47759777D01*
X194137989Y-47879319D01*
X194137992Y-47879319D01*
X194137993Y-47879320D01*
X194478075Y-47959921D01*
X194478080Y-47959921D01*
X194478086Y-47959923D01*
X194825241Y-48000500D01*
X194825244Y-48000500D01*
X195174756Y-48000500D01*
X195174759Y-48000500D01*
X195521914Y-47959923D01*
X195521920Y-47959921D01*
X195521924Y-47959921D01*
X195748645Y-47906187D01*
X195862011Y-47879319D01*
X196190451Y-47759777D01*
X196502793Y-47602913D01*
X196794811Y-47410849D01*
X197062558Y-47186183D01*
X197302412Y-46931953D01*
X197511130Y-46651596D01*
X197685889Y-46348904D01*
X197824326Y-46027971D01*
X197924569Y-45693136D01*
X197985262Y-45348927D01*
X198005585Y-45000000D01*
X197985262Y-44651073D01*
X197924569Y-44306864D01*
X197824326Y-43972029D01*
X197685889Y-43651096D01*
X197511130Y-43348404D01*
X197302412Y-43068047D01*
X197062558Y-42813817D01*
X196794811Y-42589151D01*
X196700157Y-42526896D01*
X196502794Y-42397087D01*
X196190453Y-42240224D01*
X196190452Y-42240223D01*
X196190451Y-42240223D01*
X195862011Y-42120681D01*
X195862012Y-42120681D01*
X195862006Y-42120679D01*
X195521924Y-42040078D01*
X195409089Y-42026889D01*
X195174759Y-41999500D01*
X194825241Y-41999500D01*
X194633950Y-42021858D01*
X194478075Y-42040078D01*
X194137993Y-42120679D01*
X193941191Y-42192309D01*
X193809549Y-42240223D01*
X193809548Y-42240223D01*
X193809546Y-42240224D01*
X193497205Y-42397087D01*
X193205190Y-42589150D01*
X192937443Y-42813815D01*
X192697591Y-43068043D01*
X192488871Y-43348402D01*
X192488869Y-43348405D01*
X192314111Y-43651095D01*
X192314108Y-43651102D01*
X192175674Y-43972027D01*
X192175672Y-43972034D01*
X192075430Y-44306865D01*
X192075430Y-44306866D01*
X192014738Y-44651070D01*
X191994415Y-45000000D01*
X156005585Y-45000000D01*
X155985262Y-44651073D01*
X155924569Y-44306864D01*
X155824326Y-43972029D01*
X155685889Y-43651096D01*
X155511130Y-43348404D01*
X155302412Y-43068047D01*
X155062558Y-42813817D01*
X154794811Y-42589151D01*
X154700157Y-42526896D01*
X154502794Y-42397087D01*
X154190453Y-42240224D01*
X154190452Y-42240223D01*
X154190451Y-42240223D01*
X153862011Y-42120681D01*
X153862012Y-42120681D01*
X153862006Y-42120679D01*
X153521924Y-42040078D01*
X153409089Y-42026889D01*
X153174759Y-41999500D01*
X152825241Y-41999500D01*
X152633950Y-42021858D01*
X152478075Y-42040078D01*
X152137993Y-42120679D01*
X151941191Y-42192309D01*
X151809549Y-42240223D01*
X151809548Y-42240223D01*
X151809546Y-42240224D01*
X151497205Y-42397087D01*
X151205190Y-42589150D01*
X150937443Y-42813815D01*
X150697591Y-43068043D01*
X150488871Y-43348402D01*
X150488869Y-43348405D01*
X150314111Y-43651095D01*
X150314108Y-43651102D01*
X150175674Y-43972027D01*
X150175672Y-43972034D01*
X150075430Y-44306865D01*
X150075430Y-44306866D01*
X150014738Y-44651070D01*
X149994415Y-45000000D01*
X148500500Y-45000000D01*
X148500500Y-40599500D01*
X148519407Y-40541309D01*
X148568907Y-40505345D01*
X148599500Y-40500500D01*
X199400500Y-40500500D01*
X199458691Y-40519407D01*
G37*
%TD.AperFunction*%
%TD*%
%TA.AperFunction,NonConductor*%
G36*
X187494075Y-71312993D02*
G01*
X187559901Y-71427007D01*
X187652993Y-71520099D01*
X187767007Y-71585925D01*
X187830590Y-71602962D01*
X187379312Y-72054241D01*
X187467581Y-72108895D01*
X187467586Y-72108898D01*
X187657683Y-72182541D01*
X187858070Y-72220000D01*
X187893077Y-72220000D01*
X187951268Y-72238907D01*
X187987232Y-72288407D01*
X187987232Y-72349593D01*
X187963081Y-72389004D01*
X187169504Y-73182581D01*
X187114987Y-73210358D01*
X187054555Y-73200787D01*
X187011290Y-73157522D01*
X187000500Y-73112577D01*
X187000500Y-71766952D01*
X187019407Y-71708761D01*
X187029496Y-71696948D01*
X187477036Y-71249407D01*
X187494075Y-71312993D01*
G37*
%TD.AperFunction*%
%TA.AperFunction,Conductor*%
%TO.N,/BUT_3V3*%
G36*
X155869230Y-126519685D02*
G01*
X155889872Y-126536319D01*
X156579766Y-127226212D01*
X156537708Y-127237482D01*
X156412292Y-127309890D01*
X156309890Y-127412292D01*
X156237482Y-127537708D01*
X156226212Y-127579766D01*
X155526563Y-126880117D01*
X155426267Y-127033633D01*
X155426265Y-127033637D01*
X155326412Y-127261282D01*
X155265387Y-127502261D01*
X155265385Y-127502270D01*
X155244859Y-127749994D01*
X155244859Y-127750005D01*
X155265385Y-127997729D01*
X155265387Y-127997738D01*
X155326412Y-128238717D01*
X155426267Y-128466367D01*
X155526562Y-128619881D01*
X156226212Y-127920233D01*
X156237482Y-127962292D01*
X156309890Y-128087708D01*
X156412292Y-128190110D01*
X156537708Y-128262518D01*
X156579766Y-128273787D01*
X155879943Y-128973609D01*
X155926768Y-129010055D01*
X155926771Y-129010057D01*
X156145385Y-129128364D01*
X156145396Y-129128369D01*
X156380506Y-129209083D01*
X156625707Y-129250000D01*
X156874293Y-129250000D01*
X157119493Y-129209083D01*
X157354603Y-129128369D01*
X157354614Y-129128364D01*
X157573230Y-129010056D01*
X157573236Y-129010051D01*
X157620055Y-128973610D01*
X157620056Y-128973609D01*
X156920233Y-128273787D01*
X156962292Y-128262518D01*
X157087708Y-128190110D01*
X157190110Y-128087708D01*
X157262518Y-127962292D01*
X157273787Y-127920234D01*
X157973435Y-128619882D01*
X158073733Y-128466364D01*
X158173587Y-128238717D01*
X158234612Y-127997738D01*
X158234614Y-127997729D01*
X158255141Y-127750005D01*
X158255141Y-127749994D01*
X158234614Y-127502270D01*
X158234612Y-127502261D01*
X158173587Y-127261282D01*
X158073732Y-127033632D01*
X157973435Y-126880116D01*
X157273787Y-127579765D01*
X157262518Y-127537708D01*
X157190110Y-127412292D01*
X157087708Y-127309890D01*
X156962292Y-127237482D01*
X156920234Y-127226212D01*
X157610126Y-126536319D01*
X157671449Y-126502834D01*
X157697807Y-126500000D01*
X160078526Y-126500000D01*
X160145565Y-126519685D01*
X160191320Y-126572489D01*
X160201264Y-126641647D01*
X160172239Y-126705203D01*
X160169756Y-126707983D01*
X160061833Y-126825217D01*
X159925826Y-127033393D01*
X159825936Y-127261118D01*
X159764892Y-127502175D01*
X159764890Y-127502187D01*
X159744357Y-127749994D01*
X159744357Y-127750005D01*
X159764890Y-127997812D01*
X159764892Y-127997824D01*
X159825936Y-128238881D01*
X159925826Y-128466606D01*
X160061833Y-128674782D01*
X160061836Y-128674785D01*
X160230256Y-128857738D01*
X160352764Y-128953090D01*
X160425952Y-129010055D01*
X160426491Y-129010474D01*
X160434513Y-129014815D01*
X160484106Y-129064032D01*
X160499500Y-129123872D01*
X160499500Y-132876128D01*
X160479815Y-132943167D01*
X160434522Y-132985179D01*
X160426491Y-132989526D01*
X160295667Y-133091350D01*
X160230257Y-133142261D01*
X160061833Y-133325217D01*
X159925826Y-133533393D01*
X159825936Y-133761118D01*
X159764892Y-134002175D01*
X159764890Y-134002187D01*
X159744357Y-134249994D01*
X159744357Y-134250000D01*
X159764890Y-134497812D01*
X159764892Y-134497824D01*
X159825936Y-134738881D01*
X159925826Y-134966606D01*
X160061833Y-135174782D01*
X160061836Y-135174785D01*
X160230256Y-135357738D01*
X160426491Y-135510474D01*
X160535840Y-135569651D01*
X160644332Y-135628364D01*
X160645190Y-135628828D01*
X160859101Y-135702264D01*
X160878964Y-135709083D01*
X160880386Y-135709571D01*
X161125665Y-135750500D01*
X161374335Y-135750500D01*
X161377331Y-135750000D01*
X161581158Y-135715988D01*
X161650523Y-135724370D01*
X161689248Y-135750616D01*
X162521586Y-136582954D01*
X162551058Y-136602645D01*
X162595268Y-136632184D01*
X162595270Y-136632187D01*
X162595271Y-136632187D01*
X162644496Y-136665079D01*
X162644511Y-136665087D01*
X162701079Y-136688518D01*
X162701080Y-136688518D01*
X162781088Y-136721659D01*
X162897241Y-136744763D01*
X162916468Y-136748587D01*
X162926081Y-136750500D01*
X162926082Y-136750500D01*
X162926083Y-136750500D01*
X163073918Y-136750500D01*
X169097770Y-136750500D01*
X169164809Y-136770185D01*
X169185451Y-136786819D01*
X170087130Y-137688497D01*
X170120615Y-137749820D01*
X170122977Y-137786985D01*
X170104341Y-137999997D01*
X170104341Y-138000000D01*
X170124936Y-138235403D01*
X170124938Y-138235413D01*
X170186094Y-138463655D01*
X170186096Y-138463659D01*
X170186097Y-138463663D01*
X170190000Y-138472032D01*
X170285965Y-138677830D01*
X170285967Y-138677834D01*
X170394281Y-138832521D01*
X170421505Y-138871401D01*
X170588599Y-139038495D01*
X170685384Y-139106265D01*
X170782165Y-139174032D01*
X170782167Y-139174033D01*
X170782170Y-139174035D01*
X170973209Y-139263118D01*
X171025648Y-139309290D01*
X171044800Y-139376484D01*
X171024584Y-139443365D01*
X170971419Y-139488700D01*
X170920804Y-139499500D01*
X148624500Y-139499500D01*
X148557461Y-139479815D01*
X148511706Y-139427011D01*
X148500500Y-139375500D01*
X148500500Y-131574647D01*
X148520185Y-131507608D01*
X148572989Y-131461853D01*
X148642147Y-131451909D01*
X148705703Y-131480934D01*
X148743477Y-131539712D01*
X148746866Y-131554586D01*
X148772415Y-131710431D01*
X148772421Y-131710457D01*
X148868147Y-132055232D01*
X148868149Y-132055239D01*
X149000597Y-132387659D01*
X149000606Y-132387677D01*
X149168218Y-132703827D01*
X149369033Y-133000007D01*
X149496441Y-133150003D01*
X149496442Y-133150004D01*
X150705748Y-131940698D01*
X150779588Y-132042330D01*
X150957670Y-132220412D01*
X151059300Y-132294251D01*
X149847255Y-133506295D01*
X149847256Y-133506296D01*
X149860485Y-133518828D01*
X149860486Y-133518829D01*
X150145367Y-133735388D01*
X150145370Y-133735390D01*
X150451990Y-133919876D01*
X150776739Y-134070122D01*
X150776744Y-134070123D01*
X151115855Y-134184383D01*
X151465339Y-134261311D01*
X151821075Y-134299999D01*
X151821085Y-134300000D01*
X152178915Y-134300000D01*
X152178924Y-134299999D01*
X152534660Y-134261311D01*
X152586073Y-134249994D01*
X155244859Y-134249994D01*
X155244859Y-134250000D01*
X155265385Y-134497729D01*
X155265387Y-134497738D01*
X155326412Y-134738717D01*
X155426267Y-134966367D01*
X155526562Y-135119881D01*
X156226212Y-134420233D01*
X156237482Y-134462292D01*
X156309890Y-134587708D01*
X156412292Y-134690110D01*
X156537708Y-134762518D01*
X156579766Y-134773787D01*
X155879943Y-135473609D01*
X155926768Y-135510055D01*
X155926771Y-135510057D01*
X156145385Y-135628364D01*
X156145396Y-135628369D01*
X156380506Y-135709083D01*
X156625707Y-135750000D01*
X156874293Y-135750000D01*
X157119493Y-135709083D01*
X157354603Y-135628369D01*
X157354614Y-135628364D01*
X157573230Y-135510056D01*
X157573236Y-135510051D01*
X157620055Y-135473610D01*
X157620056Y-135473609D01*
X156920233Y-134773787D01*
X156962292Y-134762518D01*
X157087708Y-134690110D01*
X157190110Y-134587708D01*
X157262518Y-134462292D01*
X157273787Y-134420234D01*
X157973435Y-135119882D01*
X158073733Y-134966364D01*
X158173587Y-134738717D01*
X158234612Y-134497738D01*
X158234614Y-134497729D01*
X158255141Y-134250000D01*
X158255141Y-134249994D01*
X158234614Y-134002270D01*
X158234612Y-134002261D01*
X158173587Y-133761282D01*
X158073732Y-133533632D01*
X157973435Y-133380116D01*
X157273787Y-134079765D01*
X157262518Y-134037708D01*
X157190110Y-133912292D01*
X157087708Y-133809890D01*
X156962292Y-133737482D01*
X156920233Y-133726212D01*
X157620055Y-133026389D01*
X157620055Y-133026388D01*
X157573236Y-132989947D01*
X157573231Y-132989944D01*
X157354614Y-132871635D01*
X157354603Y-132871630D01*
X157119493Y-132790916D01*
X156874293Y-132750000D01*
X156625707Y-132750000D01*
X156380506Y-132790916D01*
X156145396Y-132871630D01*
X156145385Y-132871635D01*
X155926770Y-132989943D01*
X155879943Y-133026389D01*
X156579766Y-133726212D01*
X156537708Y-133737482D01*
X156412292Y-133809890D01*
X156309890Y-133912292D01*
X156237482Y-134037708D01*
X156226212Y-134079766D01*
X155526563Y-133380117D01*
X155426267Y-133533633D01*
X155426265Y-133533637D01*
X155326412Y-133761282D01*
X155265387Y-134002261D01*
X155265385Y-134002270D01*
X155244859Y-134249994D01*
X152586073Y-134249994D01*
X152884144Y-134184383D01*
X153223255Y-134070123D01*
X153223260Y-134070122D01*
X153548009Y-133919876D01*
X153854629Y-133735390D01*
X153854632Y-133735388D01*
X154139504Y-133518836D01*
X154152742Y-133506294D01*
X152940698Y-132294251D01*
X153042330Y-132220412D01*
X153220412Y-132042330D01*
X153294251Y-131940698D01*
X154503556Y-133150003D01*
X154630964Y-133000008D01*
X154630975Y-132999994D01*
X154831781Y-132703827D01*
X154999393Y-132387677D01*
X154999402Y-132387659D01*
X155131850Y-132055239D01*
X155131852Y-132055232D01*
X155227578Y-131710457D01*
X155227584Y-131710431D01*
X155285472Y-131357331D01*
X155285473Y-131357314D01*
X155304847Y-131000002D01*
X155304847Y-130999997D01*
X155285473Y-130642685D01*
X155285472Y-130642668D01*
X155227584Y-130289568D01*
X155227578Y-130289542D01*
X155131852Y-129944767D01*
X155131850Y-129944760D01*
X154999402Y-129612340D01*
X154999393Y-129612322D01*
X154831781Y-129296172D01*
X154630966Y-128999992D01*
X154503557Y-128849995D01*
X154503556Y-128849994D01*
X153294250Y-130059299D01*
X153220412Y-129957670D01*
X153042330Y-129779588D01*
X152940697Y-129705747D01*
X154152743Y-128493703D01*
X154152742Y-128493702D01*
X154139514Y-128481171D01*
X154139513Y-128481170D01*
X153854632Y-128264611D01*
X153854629Y-128264609D01*
X153548009Y-128080123D01*
X153223260Y-127929877D01*
X153223255Y-127929876D01*
X152884144Y-127815616D01*
X152534660Y-127738688D01*
X152178924Y-127700000D01*
X151821075Y-127700000D01*
X151465339Y-127738688D01*
X151115855Y-127815616D01*
X150776744Y-127929876D01*
X150776739Y-127929877D01*
X150451990Y-128080123D01*
X150145370Y-128264609D01*
X150145367Y-128264611D01*
X149860491Y-128481166D01*
X149847256Y-128493703D01*
X149847255Y-128493703D01*
X151059301Y-129705748D01*
X150957670Y-129779588D01*
X150779588Y-129957670D01*
X150705748Y-130059301D01*
X149496442Y-128849994D01*
X149496441Y-128849995D01*
X149369040Y-128999983D01*
X149369033Y-128999993D01*
X149168218Y-129296172D01*
X149000606Y-129612322D01*
X149000597Y-129612340D01*
X148868149Y-129944760D01*
X148868147Y-129944767D01*
X148772421Y-130289542D01*
X148772415Y-130289568D01*
X148746866Y-130445413D01*
X148716595Y-130508385D01*
X148657085Y-130544994D01*
X148587229Y-130543618D01*
X148529206Y-130504693D01*
X148501438Y-130440578D01*
X148500500Y-130425352D01*
X148500500Y-126624000D01*
X148520185Y-126556961D01*
X148572989Y-126511206D01*
X148624500Y-126500000D01*
X155802191Y-126500000D01*
X155869230Y-126519685D01*
G37*
%TD.AperFunction*%
%TA.AperFunction,Conductor*%
G36*
X199442539Y-126519685D02*
G01*
X199488294Y-126572489D01*
X199499500Y-126624000D01*
X199499500Y-130425352D01*
X199479815Y-130492391D01*
X199427011Y-130538146D01*
X199357853Y-130548090D01*
X199294297Y-130519065D01*
X199256523Y-130460287D01*
X199253134Y-130445413D01*
X199227584Y-130289568D01*
X199227578Y-130289542D01*
X199131852Y-129944767D01*
X199131850Y-129944760D01*
X198999402Y-129612340D01*
X198999393Y-129612322D01*
X198831781Y-129296172D01*
X198630966Y-128999992D01*
X198503557Y-128849995D01*
X198503556Y-128849994D01*
X197294250Y-130059299D01*
X197220412Y-129957670D01*
X197042330Y-129779588D01*
X196940697Y-129705747D01*
X198152743Y-128493703D01*
X198152742Y-128493702D01*
X198139514Y-128481171D01*
X198139513Y-128481170D01*
X197854632Y-128264611D01*
X197854629Y-128264609D01*
X197548009Y-128080123D01*
X197223260Y-127929877D01*
X197223255Y-127929876D01*
X196884144Y-127815616D01*
X196534660Y-127738688D01*
X196178924Y-127700000D01*
X195821075Y-127700000D01*
X195465339Y-127738688D01*
X195115855Y-127815616D01*
X194776744Y-127929876D01*
X194776739Y-127929877D01*
X194451990Y-128080123D01*
X194145370Y-128264609D01*
X194145367Y-128264611D01*
X193860491Y-128481166D01*
X193847256Y-128493703D01*
X193847255Y-128493703D01*
X195059301Y-129705748D01*
X194957670Y-129779588D01*
X194779588Y-129957670D01*
X194705748Y-130059301D01*
X193496442Y-128849994D01*
X193496441Y-128849995D01*
X193369040Y-128999983D01*
X193369033Y-128999993D01*
X193168218Y-129296172D01*
X193000606Y-129612322D01*
X193000597Y-129612340D01*
X192868149Y-129944760D01*
X192868147Y-129944767D01*
X192772421Y-130289542D01*
X192772415Y-130289568D01*
X192714527Y-130642668D01*
X192714526Y-130642685D01*
X192695153Y-130999997D01*
X192695153Y-131000002D01*
X192714526Y-131357314D01*
X192714527Y-131357331D01*
X192772415Y-131710431D01*
X192772421Y-131710457D01*
X192868147Y-132055232D01*
X192868149Y-132055239D01*
X193000597Y-132387659D01*
X193000606Y-132387677D01*
X193168218Y-132703827D01*
X193369033Y-133000007D01*
X193496441Y-133150003D01*
X193496442Y-133150004D01*
X194705748Y-131940698D01*
X194779588Y-132042330D01*
X194957670Y-132220412D01*
X195059300Y-132294251D01*
X193847255Y-133506295D01*
X193847256Y-133506296D01*
X193860485Y-133518828D01*
X193860486Y-133518829D01*
X194145367Y-133735388D01*
X194145370Y-133735390D01*
X194451990Y-133919876D01*
X194776739Y-134070122D01*
X194776744Y-134070123D01*
X195115855Y-134184383D01*
X195465339Y-134261311D01*
X195821075Y-134299999D01*
X195821085Y-134300000D01*
X196178915Y-134300000D01*
X196178924Y-134299999D01*
X196534660Y-134261311D01*
X196884144Y-134184383D01*
X197223255Y-134070123D01*
X197223260Y-134070122D01*
X197548009Y-133919876D01*
X197854629Y-133735390D01*
X197854632Y-133735388D01*
X198139504Y-133518836D01*
X198152742Y-133506294D01*
X196940698Y-132294251D01*
X197042330Y-132220412D01*
X197220412Y-132042330D01*
X197294251Y-131940698D01*
X198503556Y-133150003D01*
X198630964Y-133000008D01*
X198630975Y-132999994D01*
X198831781Y-132703827D01*
X198999393Y-132387677D01*
X198999402Y-132387659D01*
X199131850Y-132055239D01*
X199131852Y-132055232D01*
X199227578Y-131710457D01*
X199227584Y-131710431D01*
X199253134Y-131554586D01*
X199283404Y-131491614D01*
X199342915Y-131455005D01*
X199412771Y-131456381D01*
X199470794Y-131495306D01*
X199498562Y-131559421D01*
X199499500Y-131574647D01*
X199499500Y-139375500D01*
X199479815Y-139442539D01*
X199427011Y-139488294D01*
X199375500Y-139499500D01*
X179619196Y-139499500D01*
X179552157Y-139479815D01*
X179506402Y-139427011D01*
X179496458Y-139357853D01*
X179525483Y-139294297D01*
X179566791Y-139263118D01*
X179757830Y-139174035D01*
X179951401Y-139038495D01*
X180118495Y-138871401D01*
X180254035Y-138677830D01*
X180353903Y-138463663D01*
X180415063Y-138235408D01*
X180435659Y-138000000D01*
X180417022Y-137786984D01*
X180430788Y-137718485D01*
X180452866Y-137688499D01*
X181354548Y-136786819D01*
X181415871Y-136753334D01*
X181442229Y-136750500D01*
X189573920Y-136750500D01*
X189696612Y-136726094D01*
X189718913Y-136721658D01*
X189855495Y-136665084D01*
X189904729Y-136632186D01*
X189904734Y-136632183D01*
X189929071Y-136615921D01*
X189978416Y-136582952D01*
X190810752Y-135750614D01*
X190872073Y-135717131D01*
X190918840Y-135715988D01*
X191125665Y-135750500D01*
X191374335Y-135750500D01*
X191619614Y-135709571D01*
X191854810Y-135628828D01*
X192073509Y-135510474D01*
X192269744Y-135357738D01*
X192438164Y-135174785D01*
X192574173Y-134966607D01*
X192674063Y-134738881D01*
X192735108Y-134497821D01*
X192755643Y-134250000D01*
X192735108Y-134002179D01*
X192714266Y-133919876D01*
X192674063Y-133761118D01*
X192574173Y-133533393D01*
X192438166Y-133325217D01*
X192416557Y-133301744D01*
X192269744Y-133142262D01*
X192073509Y-132989526D01*
X192065477Y-132985179D01*
X192015891Y-132935961D01*
X192000500Y-132876128D01*
X192000500Y-129123872D01*
X192020185Y-129056833D01*
X192065487Y-129014815D01*
X192073509Y-129010474D01*
X192269744Y-128857738D01*
X192438164Y-128674785D01*
X192574173Y-128466607D01*
X192674063Y-128238881D01*
X192735108Y-127997821D01*
X192755643Y-127750000D01*
X192735108Y-127502179D01*
X192735107Y-127502175D01*
X192674063Y-127261118D01*
X192574173Y-127033393D01*
X192438166Y-126825217D01*
X192330244Y-126707983D01*
X192299322Y-126645328D01*
X192307182Y-126575902D01*
X192351329Y-126521747D01*
X192417747Y-126500056D01*
X192421474Y-126500000D01*
X199375500Y-126500000D01*
X199442539Y-126519685D01*
G37*
%TD.AperFunction*%
%TA.AperFunction,Conductor*%
G36*
X165869230Y-126519685D02*
G01*
X165889872Y-126536319D01*
X166579766Y-127226212D01*
X166537708Y-127237482D01*
X166412292Y-127309890D01*
X166309890Y-127412292D01*
X166237482Y-127537708D01*
X166226212Y-127579766D01*
X165526563Y-126880117D01*
X165426267Y-127033633D01*
X165426265Y-127033637D01*
X165326412Y-127261282D01*
X165265387Y-127502261D01*
X165265385Y-127502270D01*
X165244859Y-127749994D01*
X165244859Y-127750005D01*
X165265385Y-127997729D01*
X165265387Y-127997738D01*
X165326412Y-128238717D01*
X165426267Y-128466367D01*
X165526562Y-128619881D01*
X166226212Y-127920233D01*
X166237482Y-127962292D01*
X166309890Y-128087708D01*
X166412292Y-128190110D01*
X166537708Y-128262518D01*
X166579766Y-128273787D01*
X165879943Y-128973609D01*
X165926768Y-129010055D01*
X165926771Y-129010057D01*
X166145385Y-129128364D01*
X166145396Y-129128369D01*
X166380506Y-129209083D01*
X166625707Y-129250000D01*
X166874293Y-129250000D01*
X167119493Y-129209083D01*
X167354603Y-129128369D01*
X167354614Y-129128364D01*
X167573230Y-129010056D01*
X167573236Y-129010051D01*
X167620055Y-128973610D01*
X167620056Y-128973609D01*
X166920233Y-128273787D01*
X166962292Y-128262518D01*
X167087708Y-128190110D01*
X167190110Y-128087708D01*
X167262518Y-127962292D01*
X167273787Y-127920234D01*
X167973435Y-128619882D01*
X168073733Y-128466364D01*
X168173587Y-128238717D01*
X168234612Y-127997738D01*
X168234614Y-127997729D01*
X168255141Y-127750005D01*
X168255141Y-127749994D01*
X168234614Y-127502270D01*
X168234612Y-127502261D01*
X168173587Y-127261282D01*
X168073732Y-127033632D01*
X167973435Y-126880116D01*
X167273787Y-127579765D01*
X167262518Y-127537708D01*
X167190110Y-127412292D01*
X167087708Y-127309890D01*
X166962292Y-127237482D01*
X166920234Y-127226212D01*
X167610126Y-126536319D01*
X167671449Y-126502834D01*
X167697807Y-126500000D01*
X170078526Y-126500000D01*
X170145565Y-126519685D01*
X170191320Y-126572489D01*
X170201264Y-126641647D01*
X170172239Y-126705203D01*
X170169756Y-126707983D01*
X170061833Y-126825217D01*
X169925826Y-127033393D01*
X169825936Y-127261118D01*
X169764892Y-127502175D01*
X169764890Y-127502187D01*
X169744357Y-127749994D01*
X169744357Y-127750005D01*
X169764890Y-127997812D01*
X169764892Y-127997824D01*
X169825936Y-128238881D01*
X169925826Y-128466606D01*
X170061833Y-128674782D01*
X170061836Y-128674785D01*
X170230256Y-128857738D01*
X170352764Y-128953090D01*
X170425952Y-129010055D01*
X170426491Y-129010474D01*
X170434513Y-129014815D01*
X170484106Y-129064032D01*
X170499500Y-129123872D01*
X170499500Y-132876128D01*
X170479815Y-132943167D01*
X170434522Y-132985179D01*
X170426491Y-132989526D01*
X170295667Y-133091350D01*
X170230257Y-133142261D01*
X170061833Y-133325217D01*
X169925826Y-133533393D01*
X169825936Y-133761118D01*
X169764892Y-134002175D01*
X169764890Y-134002187D01*
X169744357Y-134249994D01*
X169744357Y-134250000D01*
X169764890Y-134497812D01*
X169764892Y-134497824D01*
X169825936Y-134738881D01*
X169925826Y-134966606D01*
X170061833Y-135174782D01*
X170061836Y-135174785D01*
X170230256Y-135357738D01*
X170426491Y-135510474D01*
X170535840Y-135569651D01*
X170644332Y-135628364D01*
X170645190Y-135628828D01*
X170859101Y-135702264D01*
X170878964Y-135709083D01*
X170880386Y-135709571D01*
X171125665Y-135750500D01*
X171374335Y-135750500D01*
X171377331Y-135750000D01*
X171581158Y-135715988D01*
X171650523Y-135724370D01*
X171689248Y-135750616D01*
X172931473Y-136992840D01*
X172964958Y-137054163D01*
X172959974Y-137123855D01*
X172945367Y-137151644D01*
X172831575Y-137314158D01*
X172776999Y-137357783D01*
X172707500Y-137364977D01*
X172645145Y-137333455D01*
X172628425Y-137314158D01*
X172498494Y-137128597D01*
X172331402Y-136961506D01*
X172331395Y-136961501D01*
X172137834Y-136825967D01*
X172137830Y-136825965D01*
X172041589Y-136781087D01*
X171923663Y-136726097D01*
X171923659Y-136726096D01*
X171923655Y-136726094D01*
X171695413Y-136664938D01*
X171695403Y-136664936D01*
X171460001Y-136644341D01*
X171459998Y-136644341D01*
X171246985Y-136662977D01*
X171178485Y-136649210D01*
X171148497Y-136627130D01*
X169938421Y-135417052D01*
X169938414Y-135417046D01*
X169864729Y-135367812D01*
X169864729Y-135367813D01*
X169815491Y-135334913D01*
X169678917Y-135278343D01*
X169678907Y-135278340D01*
X169533920Y-135249500D01*
X169533918Y-135249500D01*
X168117885Y-135249500D01*
X168050846Y-135229815D01*
X168005091Y-135177011D01*
X167995147Y-135107853D01*
X168014076Y-135057679D01*
X168073732Y-134966367D01*
X168173587Y-134738717D01*
X168234612Y-134497738D01*
X168234614Y-134497729D01*
X168255141Y-134250000D01*
X168255141Y-134249994D01*
X168234614Y-134002270D01*
X168234612Y-134002261D01*
X168173587Y-133761282D01*
X168073732Y-133533632D01*
X167973435Y-133380116D01*
X167273787Y-134079764D01*
X167262518Y-134037708D01*
X167190110Y-133912292D01*
X167087708Y-133809890D01*
X166962292Y-133737482D01*
X166920233Y-133726212D01*
X167620055Y-133026389D01*
X167620055Y-133026388D01*
X167573236Y-132989947D01*
X167573231Y-132989944D01*
X167354614Y-132871635D01*
X167354603Y-132871630D01*
X167119493Y-132790916D01*
X166874293Y-132750000D01*
X166625707Y-132750000D01*
X166380506Y-132790916D01*
X166145396Y-132871630D01*
X166145385Y-132871635D01*
X165926770Y-132989943D01*
X165879943Y-133026389D01*
X166579766Y-133726212D01*
X166537708Y-133737482D01*
X166412292Y-133809890D01*
X166309890Y-133912292D01*
X166237482Y-134037708D01*
X166226212Y-134079766D01*
X165526563Y-133380117D01*
X165426267Y-133533633D01*
X165426265Y-133533637D01*
X165326412Y-133761282D01*
X165265387Y-134002261D01*
X165265385Y-134002270D01*
X165244859Y-134249994D01*
X165244859Y-134250000D01*
X165265385Y-134497729D01*
X165265387Y-134497738D01*
X165326412Y-134738717D01*
X165426267Y-134966367D01*
X165485924Y-135057679D01*
X165506111Y-135124568D01*
X165486931Y-135191754D01*
X165434473Y-135237904D01*
X165382115Y-135249500D01*
X163362230Y-135249500D01*
X163295191Y-135229815D01*
X163274549Y-135213181D01*
X162749381Y-134688013D01*
X162715896Y-134626690D01*
X162716857Y-134569890D01*
X162735106Y-134497829D01*
X162735107Y-134497824D01*
X162735108Y-134497821D01*
X162755643Y-134250000D01*
X162735108Y-134002179D01*
X162714266Y-133919876D01*
X162674063Y-133761118D01*
X162574173Y-133533393D01*
X162438166Y-133325217D01*
X162416557Y-133301744D01*
X162269744Y-133142262D01*
X162073509Y-132989526D01*
X162065477Y-132985179D01*
X162015891Y-132935961D01*
X162000500Y-132876128D01*
X162000500Y-129123872D01*
X162020185Y-129056833D01*
X162065487Y-129014815D01*
X162073509Y-129010474D01*
X162269744Y-128857738D01*
X162438164Y-128674785D01*
X162574173Y-128466607D01*
X162674063Y-128238881D01*
X162735108Y-127997821D01*
X162755643Y-127750000D01*
X162735108Y-127502179D01*
X162735107Y-127502175D01*
X162674063Y-127261118D01*
X162574173Y-127033393D01*
X162438166Y-126825217D01*
X162330244Y-126707983D01*
X162299322Y-126645328D01*
X162307182Y-126575902D01*
X162351329Y-126521747D01*
X162417747Y-126500056D01*
X162421474Y-126500000D01*
X165802191Y-126500000D01*
X165869230Y-126519685D01*
G37*
%TD.AperFunction*%
%TA.AperFunction,Conductor*%
G36*
X175869230Y-126519685D02*
G01*
X175889872Y-126536319D01*
X176579766Y-127226212D01*
X176537708Y-127237482D01*
X176412292Y-127309890D01*
X176309890Y-127412292D01*
X176237482Y-127537708D01*
X176226212Y-127579765D01*
X175526563Y-126880117D01*
X175426267Y-127033633D01*
X175426265Y-127033637D01*
X175326412Y-127261282D01*
X175265387Y-127502261D01*
X175265385Y-127502270D01*
X175244859Y-127749994D01*
X175244859Y-127750005D01*
X175265385Y-127997729D01*
X175265387Y-127997738D01*
X175326412Y-128238717D01*
X175426267Y-128466367D01*
X175526562Y-128619881D01*
X176226212Y-127920233D01*
X176237482Y-127962292D01*
X176309890Y-128087708D01*
X176412292Y-128190110D01*
X176537708Y-128262518D01*
X176579766Y-128273787D01*
X175879943Y-128973609D01*
X175926768Y-129010055D01*
X175926771Y-129010057D01*
X176145385Y-129128364D01*
X176145396Y-129128369D01*
X176380506Y-129209083D01*
X176625707Y-129250000D01*
X176874293Y-129250000D01*
X177119493Y-129209083D01*
X177354603Y-129128369D01*
X177354614Y-129128364D01*
X177573230Y-129010056D01*
X177573236Y-129010051D01*
X177620055Y-128973610D01*
X177620056Y-128973609D01*
X176920233Y-128273787D01*
X176962292Y-128262518D01*
X177087708Y-128190110D01*
X177190110Y-128087708D01*
X177262518Y-127962292D01*
X177273787Y-127920234D01*
X177973435Y-128619882D01*
X178073733Y-128466364D01*
X178173587Y-128238717D01*
X178234612Y-127997738D01*
X178234614Y-127997729D01*
X178255141Y-127750005D01*
X178255141Y-127749994D01*
X178234614Y-127502270D01*
X178234612Y-127502261D01*
X178173587Y-127261282D01*
X178073732Y-127033632D01*
X177973435Y-126880116D01*
X177273787Y-127579765D01*
X177262518Y-127537708D01*
X177190110Y-127412292D01*
X177087708Y-127309890D01*
X176962292Y-127237482D01*
X176920234Y-127226212D01*
X177610126Y-126536319D01*
X177671449Y-126502834D01*
X177697807Y-126500000D01*
X180078526Y-126500000D01*
X180145565Y-126519685D01*
X180191320Y-126572489D01*
X180201264Y-126641647D01*
X180172239Y-126705203D01*
X180169756Y-126707983D01*
X180061833Y-126825217D01*
X179925826Y-127033393D01*
X179825936Y-127261118D01*
X179764892Y-127502175D01*
X179764890Y-127502187D01*
X179744357Y-127749994D01*
X179744357Y-127750005D01*
X179764890Y-127997812D01*
X179764892Y-127997824D01*
X179825936Y-128238881D01*
X179925826Y-128466606D01*
X180061833Y-128674782D01*
X180061836Y-128674785D01*
X180230256Y-128857738D01*
X180352764Y-128953090D01*
X180425952Y-129010055D01*
X180426491Y-129010474D01*
X180434513Y-129014815D01*
X180484106Y-129064032D01*
X180499500Y-129123872D01*
X180499500Y-132876128D01*
X180479815Y-132943167D01*
X180434522Y-132985179D01*
X180426491Y-132989526D01*
X180295667Y-133091350D01*
X180230257Y-133142261D01*
X180061833Y-133325217D01*
X179925830Y-133533387D01*
X179925825Y-133533395D01*
X179904807Y-133581312D01*
X179860142Y-133634603D01*
X179811581Y-133667049D01*
X176851500Y-136627130D01*
X176790177Y-136660615D01*
X176753012Y-136662977D01*
X176540002Y-136644341D01*
X176539999Y-136644341D01*
X176304596Y-136664936D01*
X176304586Y-136664938D01*
X176076344Y-136726094D01*
X176076335Y-136726098D01*
X175862171Y-136825964D01*
X175862169Y-136825965D01*
X175668597Y-136961505D01*
X175501505Y-137128597D01*
X175371575Y-137314158D01*
X175316998Y-137357783D01*
X175247500Y-137364977D01*
X175185145Y-137333454D01*
X175168425Y-137314158D01*
X175038494Y-137128597D01*
X174871402Y-136961505D01*
X174779903Y-136897437D01*
X174736278Y-136842860D01*
X174729409Y-136820053D01*
X174722798Y-136786819D01*
X174721658Y-136781087D01*
X174676899Y-136673028D01*
X174665087Y-136644511D01*
X174665080Y-136644498D01*
X174582952Y-136521585D01*
X174567186Y-136505819D01*
X174478416Y-136417049D01*
X172749380Y-134688013D01*
X172715896Y-134626691D01*
X172716857Y-134569891D01*
X172735106Y-134497829D01*
X172735107Y-134497824D01*
X172735108Y-134497821D01*
X172755643Y-134250000D01*
X172755643Y-134249994D01*
X175244859Y-134249994D01*
X175244859Y-134250000D01*
X175265385Y-134497729D01*
X175265387Y-134497738D01*
X175326412Y-134738717D01*
X175426267Y-134966367D01*
X175526562Y-135119881D01*
X176226212Y-134420233D01*
X176237482Y-134462292D01*
X176309890Y-134587708D01*
X176412292Y-134690110D01*
X176537708Y-134762518D01*
X176579766Y-134773787D01*
X175879943Y-135473609D01*
X175926768Y-135510055D01*
X175926771Y-135510057D01*
X176145385Y-135628364D01*
X176145396Y-135628369D01*
X176380506Y-135709083D01*
X176625707Y-135750000D01*
X176874293Y-135750000D01*
X177119493Y-135709083D01*
X177354603Y-135628369D01*
X177354614Y-135628364D01*
X177573230Y-135510056D01*
X177573236Y-135510051D01*
X177620055Y-135473610D01*
X177620056Y-135473609D01*
X176920233Y-134773787D01*
X176962292Y-134762518D01*
X177087708Y-134690110D01*
X177190110Y-134587708D01*
X177262518Y-134462292D01*
X177273787Y-134420234D01*
X177973435Y-135119882D01*
X178073733Y-134966364D01*
X178173587Y-134738717D01*
X178234612Y-134497738D01*
X178234614Y-134497729D01*
X178255141Y-134250000D01*
X178255141Y-134249994D01*
X178234614Y-134002270D01*
X178234612Y-134002261D01*
X178173587Y-133761282D01*
X178073732Y-133533632D01*
X177973435Y-133380116D01*
X177273787Y-134079765D01*
X177262518Y-134037708D01*
X177190110Y-133912292D01*
X177087708Y-133809890D01*
X176962292Y-133737482D01*
X176920233Y-133726212D01*
X177620055Y-133026389D01*
X177620055Y-133026388D01*
X177573236Y-132989947D01*
X177573231Y-132989944D01*
X177354614Y-132871635D01*
X177354603Y-132871630D01*
X177119493Y-132790916D01*
X176874293Y-132750000D01*
X176625707Y-132750000D01*
X176380506Y-132790916D01*
X176145396Y-132871630D01*
X176145385Y-132871635D01*
X175926770Y-132989943D01*
X175879943Y-133026389D01*
X176579766Y-133726212D01*
X176537708Y-133737482D01*
X176412292Y-133809890D01*
X176309890Y-133912292D01*
X176237482Y-134037708D01*
X176226212Y-134079765D01*
X175526563Y-133380117D01*
X175426267Y-133533633D01*
X175426265Y-133533637D01*
X175326412Y-133761282D01*
X175265387Y-134002261D01*
X175265385Y-134002270D01*
X175244859Y-134249994D01*
X172755643Y-134249994D01*
X172735108Y-134002179D01*
X172714266Y-133919876D01*
X172674063Y-133761118D01*
X172574173Y-133533393D01*
X172438166Y-133325217D01*
X172416557Y-133301744D01*
X172269744Y-133142262D01*
X172073509Y-132989526D01*
X172065477Y-132985179D01*
X172015891Y-132935961D01*
X172000500Y-132876128D01*
X172000500Y-129123872D01*
X172020185Y-129056833D01*
X172065487Y-129014815D01*
X172073509Y-129010474D01*
X172269744Y-128857738D01*
X172438164Y-128674785D01*
X172574173Y-128466607D01*
X172674063Y-128238881D01*
X172735108Y-127997821D01*
X172755643Y-127750000D01*
X172735108Y-127502179D01*
X172735107Y-127502175D01*
X172674063Y-127261118D01*
X172574173Y-127033393D01*
X172438166Y-126825217D01*
X172330244Y-126707983D01*
X172299322Y-126645328D01*
X172307182Y-126575902D01*
X172351329Y-126521747D01*
X172417747Y-126500056D01*
X172421474Y-126500000D01*
X175802191Y-126500000D01*
X175869230Y-126519685D01*
G37*
%TD.AperFunction*%
%TA.AperFunction,Conductor*%
G36*
X185869230Y-126519685D02*
G01*
X185889872Y-126536319D01*
X186579766Y-127226212D01*
X186537708Y-127237482D01*
X186412292Y-127309890D01*
X186309890Y-127412292D01*
X186237482Y-127537708D01*
X186226212Y-127579765D01*
X185526563Y-126880117D01*
X185426267Y-127033633D01*
X185426265Y-127033637D01*
X185326412Y-127261282D01*
X185265387Y-127502261D01*
X185265385Y-127502270D01*
X185244859Y-127749994D01*
X185244859Y-127750005D01*
X185265385Y-127997729D01*
X185265387Y-127997738D01*
X185326412Y-128238717D01*
X185426267Y-128466367D01*
X185526562Y-128619881D01*
X186226212Y-127920233D01*
X186237482Y-127962292D01*
X186309890Y-128087708D01*
X186412292Y-128190110D01*
X186537708Y-128262518D01*
X186579766Y-128273787D01*
X185879943Y-128973609D01*
X185926768Y-129010055D01*
X185926771Y-129010057D01*
X186145385Y-129128364D01*
X186145396Y-129128369D01*
X186380506Y-129209083D01*
X186625707Y-129250000D01*
X186874293Y-129250000D01*
X187119493Y-129209083D01*
X187354603Y-129128369D01*
X187354614Y-129128364D01*
X187573230Y-129010056D01*
X187573236Y-129010051D01*
X187620055Y-128973610D01*
X187620056Y-128973609D01*
X186920233Y-128273787D01*
X186962292Y-128262518D01*
X187087708Y-128190110D01*
X187190110Y-128087708D01*
X187262518Y-127962292D01*
X187273787Y-127920234D01*
X187973435Y-128619882D01*
X188073733Y-128466364D01*
X188173587Y-128238717D01*
X188234612Y-127997738D01*
X188234614Y-127997729D01*
X188255141Y-127750005D01*
X188255141Y-127749994D01*
X188234614Y-127502270D01*
X188234612Y-127502261D01*
X188173587Y-127261282D01*
X188073732Y-127033632D01*
X187973435Y-126880116D01*
X187273787Y-127579765D01*
X187262518Y-127537708D01*
X187190110Y-127412292D01*
X187087708Y-127309890D01*
X186962292Y-127237482D01*
X186920234Y-127226212D01*
X187610126Y-126536319D01*
X187671449Y-126502834D01*
X187697807Y-126500000D01*
X190078526Y-126500000D01*
X190145565Y-126519685D01*
X190191320Y-126572489D01*
X190201264Y-126641647D01*
X190172239Y-126705203D01*
X190169756Y-126707983D01*
X190061833Y-126825217D01*
X189925826Y-127033393D01*
X189825936Y-127261118D01*
X189764892Y-127502175D01*
X189764890Y-127502187D01*
X189744357Y-127749994D01*
X189744357Y-127750005D01*
X189764890Y-127997812D01*
X189764892Y-127997824D01*
X189825936Y-128238881D01*
X189925826Y-128466606D01*
X190061833Y-128674782D01*
X190061836Y-128674785D01*
X190230256Y-128857738D01*
X190352764Y-128953090D01*
X190425952Y-129010055D01*
X190426491Y-129010474D01*
X190434513Y-129014815D01*
X190484106Y-129064032D01*
X190499500Y-129123872D01*
X190499500Y-132876128D01*
X190479815Y-132943167D01*
X190434522Y-132985179D01*
X190426491Y-132989526D01*
X190295667Y-133091350D01*
X190230257Y-133142261D01*
X190061833Y-133325217D01*
X189925826Y-133533393D01*
X189825936Y-133761118D01*
X189764892Y-134002175D01*
X189764890Y-134002187D01*
X189744357Y-134249994D01*
X189744357Y-134250000D01*
X189764890Y-134497812D01*
X189764893Y-134497828D01*
X189783142Y-134569893D01*
X189780516Y-134639713D01*
X189750617Y-134688013D01*
X189225451Y-135213181D01*
X189164128Y-135246666D01*
X189137770Y-135249500D01*
X188117885Y-135249500D01*
X188050846Y-135229815D01*
X188005091Y-135177011D01*
X187995147Y-135107853D01*
X188014076Y-135057679D01*
X188073732Y-134966367D01*
X188173587Y-134738717D01*
X188234612Y-134497738D01*
X188234614Y-134497729D01*
X188255141Y-134250000D01*
X188255141Y-134249994D01*
X188234614Y-134002270D01*
X188234612Y-134002261D01*
X188173587Y-133761282D01*
X188073732Y-133533632D01*
X187973435Y-133380116D01*
X187273787Y-134079764D01*
X187262518Y-134037708D01*
X187190110Y-133912292D01*
X187087708Y-133809890D01*
X186962292Y-133737482D01*
X186920233Y-133726212D01*
X187620055Y-133026389D01*
X187620055Y-133026388D01*
X187573236Y-132989947D01*
X187573231Y-132989944D01*
X187354614Y-132871635D01*
X187354603Y-132871630D01*
X187119493Y-132790916D01*
X186874293Y-132750000D01*
X186625707Y-132750000D01*
X186380506Y-132790916D01*
X186145396Y-132871630D01*
X186145385Y-132871635D01*
X185926770Y-132989943D01*
X185879943Y-133026389D01*
X186579766Y-133726212D01*
X186537708Y-133737482D01*
X186412292Y-133809890D01*
X186309890Y-133912292D01*
X186237482Y-134037708D01*
X186226212Y-134079766D01*
X185526563Y-133380117D01*
X185426267Y-133533633D01*
X185426265Y-133533637D01*
X185326412Y-133761282D01*
X185265387Y-134002261D01*
X185265385Y-134002270D01*
X185244859Y-134249994D01*
X185244859Y-134250000D01*
X185265385Y-134497729D01*
X185265387Y-134497738D01*
X185326412Y-134738717D01*
X185426267Y-134966367D01*
X185485924Y-135057679D01*
X185506111Y-135124568D01*
X185486931Y-135191754D01*
X185434473Y-135237904D01*
X185382115Y-135249500D01*
X182618482Y-135249500D01*
X182551443Y-135229815D01*
X182505688Y-135177011D01*
X182495744Y-135107853D01*
X182514673Y-135057679D01*
X182574173Y-134966607D01*
X182674063Y-134738881D01*
X182735108Y-134497821D01*
X182755643Y-134250000D01*
X182735108Y-134002179D01*
X182714266Y-133919876D01*
X182674063Y-133761118D01*
X182574173Y-133533393D01*
X182438166Y-133325217D01*
X182416557Y-133301744D01*
X182269744Y-133142262D01*
X182073509Y-132989526D01*
X182065477Y-132985179D01*
X182015891Y-132935961D01*
X182000500Y-132876128D01*
X182000500Y-129123872D01*
X182020185Y-129056833D01*
X182065487Y-129014815D01*
X182073509Y-129010474D01*
X182269744Y-128857738D01*
X182438164Y-128674785D01*
X182574173Y-128466607D01*
X182674063Y-128238881D01*
X182735108Y-127997821D01*
X182755643Y-127750000D01*
X182735108Y-127502179D01*
X182735107Y-127502175D01*
X182674063Y-127261118D01*
X182574173Y-127033393D01*
X182438166Y-126825217D01*
X182330244Y-126707983D01*
X182299322Y-126645328D01*
X182307182Y-126575902D01*
X182351329Y-126521747D01*
X182417747Y-126500056D01*
X182421474Y-126500000D01*
X185802191Y-126500000D01*
X185869230Y-126519685D01*
G37*
%TD.AperFunction*%
%TD*%
M02*
