%TF.GenerationSoftware,KiCad,Pcbnew,8.0.9-1.fc40*%
%TF.CreationDate,2025-07-10T00:16:36+02:00*%
%TF.ProjectId,pico-artnet-node,7069636f-2d61-4727-946e-65742d6e6f64,rev?*%
%TF.SameCoordinates,Original*%
%TF.FileFunction,Copper,L2,Bot*%
%TF.FilePolarity,Positive*%
%FSLAX46Y46*%
G04 Gerber Fmt 4.6, Leading zero omitted, Abs format (unit mm)*
G04 Created by KiCad (PCBNEW 8.0.9-1.fc40) date 2025-07-10 00:16:36*
%MOMM*%
%LPD*%
G01*
G04 APERTURE LIST*
%TA.AperFunction,ComponentPad*%
%ADD10R,1.800000X1.800000*%
%TD*%
%TA.AperFunction,ComponentPad*%
%ADD11C,1.800000*%
%TD*%
%TA.AperFunction,ComponentPad*%
%ADD12R,1.700000X1.700000*%
%TD*%
%TA.AperFunction,ComponentPad*%
%ADD13O,1.700000X1.700000*%
%TD*%
%TA.AperFunction,ComponentPad*%
%ADD14R,1.600000X1.600000*%
%TD*%
%TA.AperFunction,ComponentPad*%
%ADD15C,1.600000*%
%TD*%
%TA.AperFunction,ComponentPad*%
%ADD16C,5.600000*%
%TD*%
%TA.AperFunction,ComponentPad*%
%ADD17O,1.600000X1.600000*%
%TD*%
%TA.AperFunction,ComponentPad*%
%ADD18C,2.000000*%
%TD*%
%TA.AperFunction,ViaPad*%
%ADD19C,0.600000*%
%TD*%
%TA.AperFunction,Conductor*%
%ADD20C,0.500000*%
%TD*%
G04 APERTURE END LIST*
D10*
%TO.P,U1,0,GPIO_0*%
%TO.N,PORT_B_RX*%
X198120000Y-109220000D03*
D11*
%TO.P,U1,1,GPIO_1*%
%TO.N,PORT_B_DIR*%
X195580000Y-109220000D03*
%TO.P,U1,2,GPIO_2*%
%TO.N,PORT_B_TX*%
X193040000Y-109220000D03*
%TO.P,U1,3,GPIO_3*%
%TO.N,PORT_B_LED*%
X190500000Y-109220000D03*
%TO.P,U1,4,GPIO_4*%
%TO.N,PORT_A_RX*%
X187960000Y-109220000D03*
%TO.P,U1,5,GPIO_5*%
%TO.N,PORT_A_DIR*%
X185420000Y-109220000D03*
%TO.P,U1,6,GPIO_6*%
%TO.N,PORT_A_TX*%
X182880000Y-109220000D03*
%TO.P,U1,7,GPIO_7*%
%TO.N,PORT_A_LED*%
X180340000Y-109220000D03*
%TO.P,U1,8,GPIO_8*%
%TO.N,DISPLAY_SDA*%
X177800000Y-109220000D03*
%TO.P,U1,9,GPIO_9*%
%TO.N,DISPLAY_SCL*%
X177800000Y-106680000D03*
%TO.P,U1,10,GPIO_10*%
%TO.N,/BUTTON_MENU*%
X177800000Y-104140000D03*
%TO.P,U1,11,GPIO_11*%
%TO.N,/BUTTON_UP*%
X177800000Y-101600000D03*
%TO.P,U1,12,GPIO_12*%
%TO.N,/BUTTON_DOWN*%
X177800000Y-99060000D03*
%TO.P,U1,13,GPIO_13*%
%TO.N,/BUTTON_EXIT*%
X177800000Y-96520000D03*
%TO.P,U1,14,GPIO_14*%
%TO.N,ETH_RST*%
X177800000Y-93980000D03*
%TO.P,U1,15,GPIO_15*%
%TO.N,ETH_INT*%
X180340000Y-93980000D03*
%TO.P,U1,16,GPIO_26*%
%TO.N,ETH_SCK*%
X182880000Y-93980000D03*
%TO.P,U1,17,GPIO_27*%
%TO.N,ETH_MISO*%
X185420000Y-93980000D03*
%TO.P,U1,18,GPIO_28*%
%TO.N,ETH_MOSI*%
X187960000Y-93980000D03*
%TO.P,U1,19,GPIO_29*%
%TO.N,ETH_CS*%
X190500000Y-93980000D03*
%TO.P,U1,20,3V3*%
%TO.N,+3V3*%
X193040000Y-93980000D03*
%TO.P,U1,21,GND*%
%TO.N,GND*%
X195580000Y-93980000D03*
%TO.P,U1,22,5V*%
%TO.N,+5V*%
X198120000Y-93980000D03*
%TD*%
D12*
%TO.P,J2,1,Pin_1*%
%TO.N,GND*%
X152400000Y-101600000D03*
D13*
%TO.P,J2,2,Pin_2*%
%TO.N,Net-(J2-Pin_2)*%
X152400000Y-104140000D03*
%TO.P,J2,3,Pin_3*%
%TO.N,Net-(J2-Pin_3)*%
X152400000Y-106680000D03*
%TD*%
D14*
%TO.P,C1,1*%
%TO.N,+5V*%
X198120000Y-88900000D03*
D15*
%TO.P,C1,2*%
%TO.N,GND*%
X195620000Y-88900000D03*
%TD*%
D12*
%TO.P,J1,1,Pin_1*%
%TO.N,GND*%
X152400000Y-81280000D03*
D13*
%TO.P,J1,2,Pin_2*%
%TO.N,Net-(J1-Pin_2)*%
X152400000Y-83820000D03*
%TO.P,J1,3,Pin_3*%
%TO.N,Net-(J1-Pin_3)*%
X152400000Y-86360000D03*
%TD*%
D16*
%TO.P,H4,1,1*%
%TO.N,GND*%
X195000000Y-115000000D03*
%TD*%
%TO.P,H1,1,1*%
%TO.N,GND*%
X195000000Y-45000000D03*
%TD*%
D14*
%TO.P,U2,1,RO*%
%TO.N,PORT_A_RX*%
X167640000Y-88900000D03*
D17*
%TO.P,U2,2,~{RE}*%
%TO.N,PORT_A_DIR*%
X167640000Y-86360000D03*
%TO.P,U2,3,DE*%
X167640000Y-83820000D03*
%TO.P,U2,4,DI*%
%TO.N,PORT_A_TX*%
X167640000Y-81280000D03*
%TO.P,U2,5,GND*%
%TO.N,GND*%
X160020000Y-81280000D03*
%TO.P,U2,6,A*%
%TO.N,Net-(J1-Pin_2)*%
X160020000Y-83820000D03*
%TO.P,U2,7,B*%
%TO.N,Net-(J1-Pin_3)*%
X160020000Y-86360000D03*
%TO.P,U2,8,VCC*%
%TO.N,+5V*%
X160020000Y-88900000D03*
%TD*%
D16*
%TO.P,H6,1,1*%
%TO.N,/BUT_3V3*%
X196000000Y-131000000D03*
%TD*%
D18*
%TO.P,SW4,1,A*%
%TO.N,/BUT_3V3*%
X186750000Y-134250000D03*
X186750000Y-127750000D03*
%TO.P,SW4,2,B*%
%TO.N,/BUT_EXIT*%
X191250000Y-134250000D03*
X191250000Y-127750000D03*
%TD*%
D14*
%TO.P,C2,1*%
%TO.N,+3V3*%
X190500000Y-86360000D03*
D15*
%TO.P,C2,2*%
%TO.N,GND*%
X193000000Y-86360000D03*
%TD*%
D18*
%TO.P,SW2,1,A*%
%TO.N,/BUT_3V3*%
X166750000Y-134250000D03*
X166750000Y-127750000D03*
%TO.P,SW2,2,B*%
%TO.N,/BUT_UP*%
X171250000Y-134250000D03*
X171250000Y-127750000D03*
%TD*%
D12*
%TO.P,J6,1,Pin_1*%
%TO.N,Net-(J6-Pin_1)*%
X162560000Y-76200000D03*
D13*
%TO.P,J6,2,Pin_2*%
%TO.N,PORT_A_LED*%
X165100000Y-76200000D03*
%TD*%
D12*
%TO.P,J5,1,Pin_1*%
%TO.N,+3V3*%
X180340000Y-86360000D03*
D13*
%TO.P,J5,2,Pin_2*%
%TO.N,/BUTTON_MENU*%
X180340000Y-83820000D03*
%TO.P,J5,3,Pin_3*%
%TO.N,/BUTTON_UP*%
X180340000Y-81280000D03*
%TO.P,J5,4,Pin_4*%
%TO.N,/BUTTON_DOWN*%
X180340000Y-78740000D03*
%TO.P,J5,5,Pin_5*%
%TO.N,/BUTTON_EXIT*%
X180340000Y-76200000D03*
%TD*%
D15*
%TO.P,R3,1*%
%TO.N,+3V3*%
X154940000Y-76200000D03*
D17*
%TO.P,R3,2*%
%TO.N,Net-(J6-Pin_1)*%
X157480000Y-76200000D03*
%TD*%
D18*
%TO.P,SW3,1,A*%
%TO.N,/BUT_3V3*%
X176750000Y-134250000D03*
X176750000Y-127750000D03*
%TO.P,SW3,2,B*%
%TO.N,/BUT_DOWN*%
X181250000Y-134250000D03*
X181250000Y-127750000D03*
%TD*%
D12*
%TO.P,J3,1,Pin_1*%
%TO.N,GND*%
X175260000Y-86360000D03*
D13*
%TO.P,J3,2,Pin_2*%
%TO.N,+3V3*%
X175260000Y-83820000D03*
%TO.P,J3,3,Pin_3*%
%TO.N,DISPLAY_SDA*%
X175260000Y-81280000D03*
%TO.P,J3,4,Pin_4*%
%TO.N,DISPLAY_SCL*%
X175260000Y-78740000D03*
%TD*%
D16*
%TO.P,H3,1,1*%
%TO.N,GND*%
X153000000Y-115000000D03*
%TD*%
%TO.P,H5,1,1*%
%TO.N,/BUT_3V3*%
X152000000Y-131000000D03*
%TD*%
D14*
%TO.P,U3,1,RO*%
%TO.N,PORT_B_RX*%
X167640000Y-109220000D03*
D17*
%TO.P,U3,2,~{RE}*%
%TO.N,PORT_B_DIR*%
X167640000Y-106680000D03*
%TO.P,U3,3,DE*%
X167640000Y-104140000D03*
%TO.P,U3,4,DI*%
%TO.N,PORT_B_TX*%
X167640000Y-101600000D03*
%TO.P,U3,5,GND*%
%TO.N,GND*%
X160020000Y-101600000D03*
%TO.P,U3,6,A*%
%TO.N,Net-(J2-Pin_2)*%
X160020000Y-104140000D03*
%TO.P,U3,7,B*%
%TO.N,Net-(J2-Pin_3)*%
X160020000Y-106680000D03*
%TO.P,U3,8,VCC*%
%TO.N,+5V*%
X160020000Y-109220000D03*
%TD*%
D18*
%TO.P,SW1,1,A*%
%TO.N,/BUT_3V3*%
X156750000Y-134250000D03*
X156750000Y-127750000D03*
%TO.P,SW1,2,B*%
%TO.N,/BUT_MENU*%
X161250000Y-134250000D03*
X161250000Y-127750000D03*
%TD*%
D12*
%TO.P,J7,1,Pin_1*%
%TO.N,Net-(J7-Pin_1)*%
X162560000Y-96520000D03*
D13*
%TO.P,J7,2,Pin_2*%
%TO.N,PORT_B_LED*%
X165100000Y-96520000D03*
%TD*%
D11*
%TO.P,U5,1,GND*%
%TO.N,GND*%
X193040000Y-50800000D03*
%TO.P,U5,2,GND*%
X190500000Y-50800000D03*
%TO.P,U5,3,MOSI*%
%TO.N,ETH_MOSI*%
X187960000Y-50800000D03*
%TO.P,U5,4,SCK*%
%TO.N,ETH_SCK*%
X185420000Y-50800000D03*
%TO.P,U5,5,CS*%
%TO.N,ETH_CS*%
X182880000Y-50800000D03*
%TO.P,U5,6,INT*%
%TO.N,ETH_INT*%
X180340000Y-50800000D03*
%TO.P,U5,7,MISO*%
%TO.N,ETH_MISO*%
X180340000Y-71120000D03*
%TO.P,U5,8,RST*%
%TO.N,ETH_RST*%
X182880000Y-71120000D03*
%TO.P,U5,9,NC*%
%TO.N,unconnected-(U5-NC-Pad9)*%
X185420000Y-71120000D03*
%TO.P,U5,10,3V3*%
%TO.N,+3V3*%
X187960000Y-71120000D03*
%TO.P,U5,11,3V3*%
X190500000Y-71120000D03*
%TO.P,U5,12,GND*%
%TO.N,GND*%
X193040000Y-71120000D03*
%TD*%
D15*
%TO.P,R1,1*%
%TO.N,Net-(J1-Pin_2)*%
X157480000Y-83820000D03*
D17*
%TO.P,R1,2*%
%TO.N,Net-(J1-Pin_3)*%
X157480000Y-86360000D03*
%TD*%
D16*
%TO.P,H2,1,1*%
%TO.N,GND*%
X153000000Y-45000000D03*
%TD*%
D15*
%TO.P,R4,1*%
%TO.N,+3V3*%
X154940000Y-96520000D03*
D17*
%TO.P,R4,2*%
%TO.N,Net-(J7-Pin_1)*%
X157480000Y-96520000D03*
%TD*%
D15*
%TO.P,R2,1*%
%TO.N,Net-(J2-Pin_2)*%
X157480000Y-104140000D03*
D17*
%TO.P,R2,2*%
%TO.N,Net-(J2-Pin_3)*%
X157480000Y-106680000D03*
%TD*%
D12*
%TO.P,J4,1,Pin_1*%
%TO.N,/BUT_3V3*%
X168920000Y-138000000D03*
D13*
%TO.P,J4,2,Pin_2*%
%TO.N,/BUT_MENU*%
X171460000Y-138000000D03*
%TO.P,J4,3,Pin_3*%
%TO.N,/BUT_UP*%
X174000000Y-138000000D03*
%TO.P,J4,4,Pin_4*%
%TO.N,/BUT_DOWN*%
X176540000Y-138000000D03*
%TO.P,J4,5,Pin_5*%
%TO.N,/BUT_EXIT*%
X179080000Y-138000000D03*
%TD*%
D19*
%TO.N,GND*%
X190500000Y-90678000D03*
X190500000Y-92202000D03*
X172974000Y-93472000D03*
X162433000Y-98298000D03*
X159131000Y-98298000D03*
X162433000Y-100584000D03*
X172974000Y-95758000D03*
%TO.N,+3V3*%
X190500000Y-73400000D03*
%TD*%
D20*
%TO.N,+3V3*%
X187960000Y-71120000D02*
X190500000Y-71120000D01*
X190500000Y-71120000D02*
X190500000Y-73400000D01*
%TO.N,+5V*%
X161400000Y-99400000D02*
X168189000Y-99400000D01*
X196215000Y-92075000D02*
X198120000Y-93980000D01*
X195580000Y-91440000D02*
X198120000Y-88900000D01*
X160020000Y-109220000D02*
X161400000Y-107840000D01*
X168189000Y-99400000D02*
X176149000Y-91440000D01*
X176149000Y-91440000D02*
X195580000Y-91440000D01*
X161400000Y-107840000D02*
X161400000Y-99400000D01*
X161400000Y-99400000D02*
X160020000Y-98020000D01*
X196215000Y-92075000D02*
X195580000Y-91440000D01*
X160020000Y-98020000D02*
X160020000Y-88900000D01*
%TD*%
%TA.AperFunction,Conductor*%
%TO.N,/BUT_3V3*%
G36*
X155869230Y-126519685D02*
G01*
X155889872Y-126536319D01*
X156579766Y-127226212D01*
X156537708Y-127237482D01*
X156412292Y-127309890D01*
X156309890Y-127412292D01*
X156237482Y-127537708D01*
X156226212Y-127579766D01*
X155526563Y-126880117D01*
X155426267Y-127033633D01*
X155426265Y-127033637D01*
X155326412Y-127261282D01*
X155265387Y-127502261D01*
X155265385Y-127502270D01*
X155244859Y-127749994D01*
X155244859Y-127750005D01*
X155265385Y-127997729D01*
X155265387Y-127997738D01*
X155326412Y-128238717D01*
X155426267Y-128466367D01*
X155526562Y-128619881D01*
X156226212Y-127920233D01*
X156237482Y-127962292D01*
X156309890Y-128087708D01*
X156412292Y-128190110D01*
X156537708Y-128262518D01*
X156579766Y-128273787D01*
X155879943Y-128973609D01*
X155926768Y-129010055D01*
X155926771Y-129010057D01*
X156145385Y-129128364D01*
X156145396Y-129128369D01*
X156380506Y-129209083D01*
X156625707Y-129250000D01*
X156874293Y-129250000D01*
X157119493Y-129209083D01*
X157354603Y-129128369D01*
X157354614Y-129128364D01*
X157573230Y-129010056D01*
X157573236Y-129010051D01*
X157620055Y-128973610D01*
X157620056Y-128973609D01*
X156920233Y-128273787D01*
X156962292Y-128262518D01*
X157087708Y-128190110D01*
X157190110Y-128087708D01*
X157262518Y-127962292D01*
X157273787Y-127920234D01*
X157973435Y-128619882D01*
X158073733Y-128466364D01*
X158173587Y-128238717D01*
X158234612Y-127997738D01*
X158234614Y-127997729D01*
X158255141Y-127750005D01*
X158255141Y-127749994D01*
X158234614Y-127502270D01*
X158234612Y-127502261D01*
X158173587Y-127261282D01*
X158073732Y-127033632D01*
X157973435Y-126880116D01*
X157273787Y-127579765D01*
X157262518Y-127537708D01*
X157190110Y-127412292D01*
X157087708Y-127309890D01*
X156962292Y-127237482D01*
X156920234Y-127226212D01*
X157610126Y-126536319D01*
X157671449Y-126502834D01*
X157697807Y-126500000D01*
X160078526Y-126500000D01*
X160145565Y-126519685D01*
X160191320Y-126572489D01*
X160201264Y-126641647D01*
X160172239Y-126705203D01*
X160169756Y-126707983D01*
X160061833Y-126825217D01*
X159925826Y-127033393D01*
X159825936Y-127261118D01*
X159764892Y-127502175D01*
X159764890Y-127502187D01*
X159744357Y-127749994D01*
X159744357Y-127750005D01*
X159764890Y-127997812D01*
X159764892Y-127997824D01*
X159825936Y-128238881D01*
X159925826Y-128466606D01*
X160061833Y-128674782D01*
X160061836Y-128674785D01*
X160230256Y-128857738D01*
X160426491Y-129010474D01*
X160426493Y-129010475D01*
X160644332Y-129128364D01*
X160645190Y-129128828D01*
X160864141Y-129203994D01*
X160878964Y-129209083D01*
X160880386Y-129209571D01*
X161125665Y-129250500D01*
X161374335Y-129250500D01*
X161619614Y-129209571D01*
X161854810Y-129128828D01*
X162073509Y-129010474D01*
X162269744Y-128857738D01*
X162438164Y-128674785D01*
X162574173Y-128466607D01*
X162674063Y-128238881D01*
X162735108Y-127997821D01*
X162755643Y-127750000D01*
X162735108Y-127502179D01*
X162735107Y-127502175D01*
X162674063Y-127261118D01*
X162574173Y-127033393D01*
X162438166Y-126825217D01*
X162330244Y-126707983D01*
X162299322Y-126645328D01*
X162307182Y-126575902D01*
X162351329Y-126521747D01*
X162417747Y-126500056D01*
X162421474Y-126500000D01*
X165802191Y-126500000D01*
X165869230Y-126519685D01*
X165889872Y-126536319D01*
X166579766Y-127226212D01*
X166537708Y-127237482D01*
X166412292Y-127309890D01*
X166309890Y-127412292D01*
X166237482Y-127537708D01*
X166226212Y-127579766D01*
X165526563Y-126880117D01*
X165426267Y-127033633D01*
X165426265Y-127033637D01*
X165326412Y-127261282D01*
X165265387Y-127502261D01*
X165265385Y-127502270D01*
X165244859Y-127749994D01*
X165244859Y-127750005D01*
X165265385Y-127997729D01*
X165265387Y-127997738D01*
X165326412Y-128238717D01*
X165426267Y-128466367D01*
X165526562Y-128619881D01*
X166226212Y-127920233D01*
X166237482Y-127962292D01*
X166309890Y-128087708D01*
X166412292Y-128190110D01*
X166537708Y-128262518D01*
X166579766Y-128273787D01*
X165879943Y-128973609D01*
X165926768Y-129010055D01*
X165926771Y-129010057D01*
X166145385Y-129128364D01*
X166145396Y-129128369D01*
X166380506Y-129209083D01*
X166625707Y-129250000D01*
X166874293Y-129250000D01*
X167119493Y-129209083D01*
X167354603Y-129128369D01*
X167354614Y-129128364D01*
X167573230Y-129010056D01*
X167573236Y-129010051D01*
X167620055Y-128973610D01*
X167620056Y-128973609D01*
X166920233Y-128273787D01*
X166962292Y-128262518D01*
X167087708Y-128190110D01*
X167190110Y-128087708D01*
X167262518Y-127962292D01*
X167273787Y-127920234D01*
X167973435Y-128619882D01*
X168073733Y-128466364D01*
X168173587Y-128238717D01*
X168234612Y-127997738D01*
X168234614Y-127997729D01*
X168255141Y-127750005D01*
X168255141Y-127749994D01*
X168234614Y-127502270D01*
X168234612Y-127502261D01*
X168173587Y-127261282D01*
X168073732Y-127033632D01*
X167973435Y-126880116D01*
X167273787Y-127579765D01*
X167262518Y-127537708D01*
X167190110Y-127412292D01*
X167087708Y-127309890D01*
X166962292Y-127237482D01*
X166920234Y-127226212D01*
X167610126Y-126536319D01*
X167671449Y-126502834D01*
X167697807Y-126500000D01*
X170078526Y-126500000D01*
X170145565Y-126519685D01*
X170191320Y-126572489D01*
X170201264Y-126641647D01*
X170172239Y-126705203D01*
X170169756Y-126707983D01*
X170061833Y-126825217D01*
X169925826Y-127033393D01*
X169825936Y-127261118D01*
X169764892Y-127502175D01*
X169764890Y-127502187D01*
X169744357Y-127749994D01*
X169744357Y-127750005D01*
X169764890Y-127997812D01*
X169764892Y-127997824D01*
X169825936Y-128238881D01*
X169925826Y-128466606D01*
X170061833Y-128674782D01*
X170061836Y-128674785D01*
X170230256Y-128857738D01*
X170426491Y-129010474D01*
X170426493Y-129010475D01*
X170644332Y-129128364D01*
X170645190Y-129128828D01*
X170864141Y-129203994D01*
X170878964Y-129209083D01*
X170880386Y-129209571D01*
X171125665Y-129250500D01*
X171374335Y-129250500D01*
X171619614Y-129209571D01*
X171854810Y-129128828D01*
X172073509Y-129010474D01*
X172269744Y-128857738D01*
X172438164Y-128674785D01*
X172574173Y-128466607D01*
X172674063Y-128238881D01*
X172735108Y-127997821D01*
X172755643Y-127750000D01*
X172735108Y-127502179D01*
X172735107Y-127502175D01*
X172674063Y-127261118D01*
X172574173Y-127033393D01*
X172438166Y-126825217D01*
X172330244Y-126707983D01*
X172299322Y-126645328D01*
X172307182Y-126575902D01*
X172351329Y-126521747D01*
X172417747Y-126500056D01*
X172421474Y-126500000D01*
X175802191Y-126500000D01*
X175869230Y-126519685D01*
X175889872Y-126536319D01*
X176579766Y-127226212D01*
X176537708Y-127237482D01*
X176412292Y-127309890D01*
X176309890Y-127412292D01*
X176237482Y-127537708D01*
X176226212Y-127579765D01*
X175526563Y-126880117D01*
X175426267Y-127033633D01*
X175426265Y-127033637D01*
X175326412Y-127261282D01*
X175265387Y-127502261D01*
X175265385Y-127502270D01*
X175244859Y-127749994D01*
X175244859Y-127750005D01*
X175265385Y-127997729D01*
X175265387Y-127997738D01*
X175326412Y-128238717D01*
X175426267Y-128466367D01*
X175526562Y-128619881D01*
X176226212Y-127920233D01*
X176237482Y-127962292D01*
X176309890Y-128087708D01*
X176412292Y-128190110D01*
X176537708Y-128262518D01*
X176579766Y-128273787D01*
X175879943Y-128973609D01*
X175926768Y-129010055D01*
X175926771Y-129010057D01*
X176145385Y-129128364D01*
X176145396Y-129128369D01*
X176380506Y-129209083D01*
X176625707Y-129250000D01*
X176874293Y-129250000D01*
X177119493Y-129209083D01*
X177354603Y-129128369D01*
X177354614Y-129128364D01*
X177573230Y-129010056D01*
X177573236Y-129010051D01*
X177620055Y-128973610D01*
X177620056Y-128973609D01*
X176920233Y-128273787D01*
X176962292Y-128262518D01*
X177087708Y-128190110D01*
X177190110Y-128087708D01*
X177262518Y-127962292D01*
X177273787Y-127920234D01*
X177973435Y-128619882D01*
X178073733Y-128466364D01*
X178173587Y-128238717D01*
X178234612Y-127997738D01*
X178234614Y-127997729D01*
X178255141Y-127750005D01*
X178255141Y-127749994D01*
X178234614Y-127502270D01*
X178234612Y-127502261D01*
X178173587Y-127261282D01*
X178073732Y-127033632D01*
X177973435Y-126880116D01*
X177273787Y-127579765D01*
X177262518Y-127537708D01*
X177190110Y-127412292D01*
X177087708Y-127309890D01*
X176962292Y-127237482D01*
X176920234Y-127226212D01*
X177610126Y-126536319D01*
X177671449Y-126502834D01*
X177697807Y-126500000D01*
X180078526Y-126500000D01*
X180145565Y-126519685D01*
X180191320Y-126572489D01*
X180201264Y-126641647D01*
X180172239Y-126705203D01*
X180169756Y-126707983D01*
X180061833Y-126825217D01*
X179925826Y-127033393D01*
X179825936Y-127261118D01*
X179764892Y-127502175D01*
X179764890Y-127502187D01*
X179744357Y-127749994D01*
X179744357Y-127750005D01*
X179764890Y-127997812D01*
X179764892Y-127997824D01*
X179825936Y-128238881D01*
X179925826Y-128466606D01*
X180061833Y-128674782D01*
X180061836Y-128674785D01*
X180230256Y-128857738D01*
X180426491Y-129010474D01*
X180426493Y-129010475D01*
X180644332Y-129128364D01*
X180645190Y-129128828D01*
X180864141Y-129203994D01*
X180878964Y-129209083D01*
X180880386Y-129209571D01*
X181125665Y-129250500D01*
X181374335Y-129250500D01*
X181619614Y-129209571D01*
X181854810Y-129128828D01*
X182073509Y-129010474D01*
X182269744Y-128857738D01*
X182438164Y-128674785D01*
X182574173Y-128466607D01*
X182674063Y-128238881D01*
X182735108Y-127997821D01*
X182755643Y-127750000D01*
X182735108Y-127502179D01*
X182735107Y-127502175D01*
X182674063Y-127261118D01*
X182574173Y-127033393D01*
X182438166Y-126825217D01*
X182330244Y-126707983D01*
X182299322Y-126645328D01*
X182307182Y-126575902D01*
X182351329Y-126521747D01*
X182417747Y-126500056D01*
X182421474Y-126500000D01*
X185802191Y-126500000D01*
X185869230Y-126519685D01*
X185889872Y-126536319D01*
X186579766Y-127226212D01*
X186537708Y-127237482D01*
X186412292Y-127309890D01*
X186309890Y-127412292D01*
X186237482Y-127537708D01*
X186226212Y-127579765D01*
X185526563Y-126880117D01*
X185426267Y-127033633D01*
X185426265Y-127033637D01*
X185326412Y-127261282D01*
X185265387Y-127502261D01*
X185265385Y-127502270D01*
X185244859Y-127749994D01*
X185244859Y-127750005D01*
X185265385Y-127997729D01*
X185265387Y-127997738D01*
X185326412Y-128238717D01*
X185426267Y-128466367D01*
X185526562Y-128619881D01*
X186226212Y-127920233D01*
X186237482Y-127962292D01*
X186309890Y-128087708D01*
X186412292Y-128190110D01*
X186537708Y-128262518D01*
X186579766Y-128273787D01*
X185879943Y-128973609D01*
X185926768Y-129010055D01*
X185926771Y-129010057D01*
X186145385Y-129128364D01*
X186145396Y-129128369D01*
X186380506Y-129209083D01*
X186625707Y-129250000D01*
X186874293Y-129250000D01*
X187119493Y-129209083D01*
X187354603Y-129128369D01*
X187354614Y-129128364D01*
X187573230Y-129010056D01*
X187573236Y-129010051D01*
X187620055Y-128973610D01*
X187620056Y-128973609D01*
X186920233Y-128273787D01*
X186962292Y-128262518D01*
X187087708Y-128190110D01*
X187190110Y-128087708D01*
X187262518Y-127962292D01*
X187273787Y-127920234D01*
X187973435Y-128619882D01*
X188073733Y-128466364D01*
X188173587Y-128238717D01*
X188234612Y-127997738D01*
X188234614Y-127997729D01*
X188255141Y-127750005D01*
X188255141Y-127749994D01*
X188234614Y-127502270D01*
X188234612Y-127502261D01*
X188173587Y-127261282D01*
X188073732Y-127033632D01*
X187973435Y-126880116D01*
X187273787Y-127579765D01*
X187262518Y-127537708D01*
X187190110Y-127412292D01*
X187087708Y-127309890D01*
X186962292Y-127237482D01*
X186920234Y-127226212D01*
X187610126Y-126536319D01*
X187671449Y-126502834D01*
X187697807Y-126500000D01*
X190078526Y-126500000D01*
X190145565Y-126519685D01*
X190191320Y-126572489D01*
X190201264Y-126641647D01*
X190172239Y-126705203D01*
X190169756Y-126707983D01*
X190061833Y-126825217D01*
X189925826Y-127033393D01*
X189825936Y-127261118D01*
X189764892Y-127502175D01*
X189764890Y-127502187D01*
X189744357Y-127749994D01*
X189744357Y-127750005D01*
X189764890Y-127997812D01*
X189764892Y-127997824D01*
X189825936Y-128238881D01*
X189925826Y-128466606D01*
X190061833Y-128674782D01*
X190061836Y-128674785D01*
X190230256Y-128857738D01*
X190426491Y-129010474D01*
X190426493Y-129010475D01*
X190644332Y-129128364D01*
X190645190Y-129128828D01*
X190864141Y-129203994D01*
X190878964Y-129209083D01*
X190880386Y-129209571D01*
X191125665Y-129250500D01*
X191374335Y-129250500D01*
X191619614Y-129209571D01*
X191854810Y-129128828D01*
X192073509Y-129010474D01*
X192269744Y-128857738D01*
X192438164Y-128674785D01*
X192574173Y-128466607D01*
X192674063Y-128238881D01*
X192735108Y-127997821D01*
X192755643Y-127750000D01*
X192735108Y-127502179D01*
X192735107Y-127502175D01*
X192674063Y-127261118D01*
X192574173Y-127033393D01*
X192438166Y-126825217D01*
X192330244Y-126707983D01*
X192299322Y-126645328D01*
X192307182Y-126575902D01*
X192351329Y-126521747D01*
X192417747Y-126500056D01*
X192421474Y-126500000D01*
X199375500Y-126500000D01*
X199442539Y-126519685D01*
X199488294Y-126572489D01*
X199499500Y-126624000D01*
X199499500Y-130425352D01*
X199479815Y-130492391D01*
X199427011Y-130538146D01*
X199357853Y-130548090D01*
X199294297Y-130519065D01*
X199256523Y-130460287D01*
X199253134Y-130445413D01*
X199227584Y-130289568D01*
X199227578Y-130289542D01*
X199131852Y-129944767D01*
X199131850Y-129944760D01*
X198999402Y-129612340D01*
X198999393Y-129612322D01*
X198831781Y-129296172D01*
X198630966Y-128999992D01*
X198503557Y-128849995D01*
X198503556Y-128849994D01*
X197294250Y-130059299D01*
X197220412Y-129957670D01*
X197042330Y-129779588D01*
X196940697Y-129705747D01*
X198152743Y-128493703D01*
X198152742Y-128493702D01*
X198139514Y-128481171D01*
X198139513Y-128481170D01*
X197854632Y-128264611D01*
X197854629Y-128264609D01*
X197548009Y-128080123D01*
X197223260Y-127929877D01*
X197223255Y-127929876D01*
X196884144Y-127815616D01*
X196534660Y-127738688D01*
X196178924Y-127700000D01*
X195821075Y-127700000D01*
X195465339Y-127738688D01*
X195115855Y-127815616D01*
X194776744Y-127929876D01*
X194776739Y-127929877D01*
X194451990Y-128080123D01*
X194145370Y-128264609D01*
X194145367Y-128264611D01*
X193860491Y-128481166D01*
X193847256Y-128493703D01*
X193847255Y-128493703D01*
X195059301Y-129705748D01*
X194957670Y-129779588D01*
X194779588Y-129957670D01*
X194705748Y-130059301D01*
X193496442Y-128849994D01*
X193496441Y-128849995D01*
X193369040Y-128999983D01*
X193369033Y-128999993D01*
X193168218Y-129296172D01*
X193000606Y-129612322D01*
X193000597Y-129612340D01*
X192868149Y-129944760D01*
X192868147Y-129944767D01*
X192772421Y-130289542D01*
X192772415Y-130289568D01*
X192714527Y-130642668D01*
X192714526Y-130642685D01*
X192695153Y-130999997D01*
X192695153Y-131000002D01*
X192714526Y-131357314D01*
X192714527Y-131357331D01*
X192772415Y-131710431D01*
X192772421Y-131710457D01*
X192868147Y-132055232D01*
X192868149Y-132055239D01*
X193000597Y-132387659D01*
X193000606Y-132387677D01*
X193168218Y-132703827D01*
X193369033Y-133000007D01*
X193496441Y-133150003D01*
X193496442Y-133150004D01*
X194705748Y-131940698D01*
X194779588Y-132042330D01*
X194957670Y-132220412D01*
X195059300Y-132294251D01*
X193847255Y-133506295D01*
X193847256Y-133506296D01*
X193860485Y-133518828D01*
X193860486Y-133518829D01*
X194145367Y-133735388D01*
X194145370Y-133735390D01*
X194451990Y-133919876D01*
X194776739Y-134070122D01*
X194776744Y-134070123D01*
X195115855Y-134184383D01*
X195465339Y-134261311D01*
X195821075Y-134299999D01*
X195821085Y-134300000D01*
X196178915Y-134300000D01*
X196178924Y-134299999D01*
X196534660Y-134261311D01*
X196884144Y-134184383D01*
X197223255Y-134070123D01*
X197223260Y-134070122D01*
X197548009Y-133919876D01*
X197854629Y-133735390D01*
X197854632Y-133735388D01*
X198139504Y-133518836D01*
X198152742Y-133506294D01*
X196940698Y-132294251D01*
X197042330Y-132220412D01*
X197220412Y-132042330D01*
X197294251Y-131940698D01*
X198503556Y-133150003D01*
X198630964Y-133000008D01*
X198630975Y-132999994D01*
X198831781Y-132703827D01*
X198999393Y-132387677D01*
X198999402Y-132387659D01*
X199131850Y-132055239D01*
X199131852Y-132055232D01*
X199227578Y-131710457D01*
X199227584Y-131710431D01*
X199253134Y-131554586D01*
X199283404Y-131491614D01*
X199342915Y-131455005D01*
X199412771Y-131456381D01*
X199470794Y-131495306D01*
X199498562Y-131559421D01*
X199499500Y-131574647D01*
X199499500Y-139375500D01*
X199479815Y-139442539D01*
X199427011Y-139488294D01*
X199375500Y-139499500D01*
X179619196Y-139499500D01*
X179552157Y-139479815D01*
X179506402Y-139427011D01*
X179496458Y-139357853D01*
X179525483Y-139294297D01*
X179566791Y-139263118D01*
X179757830Y-139174035D01*
X179951401Y-139038495D01*
X180118495Y-138871401D01*
X180254035Y-138677830D01*
X180353903Y-138463663D01*
X180415063Y-138235408D01*
X180435659Y-138000000D01*
X180415063Y-137764592D01*
X180353903Y-137536337D01*
X180254035Y-137322171D01*
X180248425Y-137314158D01*
X180118494Y-137128597D01*
X179951402Y-136961506D01*
X179951395Y-136961501D01*
X179757834Y-136825967D01*
X179757830Y-136825965D01*
X179757828Y-136825964D01*
X179543663Y-136726097D01*
X179543659Y-136726096D01*
X179543655Y-136726094D01*
X179315413Y-136664938D01*
X179315403Y-136664936D01*
X179080001Y-136644341D01*
X179079999Y-136644341D01*
X178844596Y-136664936D01*
X178844586Y-136664938D01*
X178616344Y-136726094D01*
X178616335Y-136726098D01*
X178402171Y-136825964D01*
X178402169Y-136825965D01*
X178208597Y-136961505D01*
X178041505Y-137128597D01*
X177911575Y-137314158D01*
X177856998Y-137357783D01*
X177787500Y-137364977D01*
X177725145Y-137333454D01*
X177708425Y-137314158D01*
X177578494Y-137128597D01*
X177411402Y-136961506D01*
X177411395Y-136961501D01*
X177217834Y-136825967D01*
X177217830Y-136825965D01*
X177217828Y-136825964D01*
X177003663Y-136726097D01*
X177003659Y-136726096D01*
X177003655Y-136726094D01*
X176775413Y-136664938D01*
X176775403Y-136664936D01*
X176540001Y-136644341D01*
X176539999Y-136644341D01*
X176304596Y-136664936D01*
X176304586Y-136664938D01*
X176076344Y-136726094D01*
X176076335Y-136726098D01*
X175862171Y-136825964D01*
X175862169Y-136825965D01*
X175668597Y-136961505D01*
X175501505Y-137128597D01*
X175371575Y-137314158D01*
X175316998Y-137357783D01*
X175247500Y-137364977D01*
X175185145Y-137333454D01*
X175168425Y-137314158D01*
X175038494Y-137128597D01*
X174871402Y-136961506D01*
X174871395Y-136961501D01*
X174677834Y-136825967D01*
X174677830Y-136825965D01*
X174677828Y-136825964D01*
X174463663Y-136726097D01*
X174463659Y-136726096D01*
X174463655Y-136726094D01*
X174235413Y-136664938D01*
X174235403Y-136664936D01*
X174000001Y-136644341D01*
X173999999Y-136644341D01*
X173764596Y-136664936D01*
X173764586Y-136664938D01*
X173536344Y-136726094D01*
X173536335Y-136726098D01*
X173322171Y-136825964D01*
X173322169Y-136825965D01*
X173128597Y-136961505D01*
X172961505Y-137128597D01*
X172831575Y-137314158D01*
X172776998Y-137357783D01*
X172707500Y-137364977D01*
X172645145Y-137333454D01*
X172628425Y-137314158D01*
X172498494Y-137128597D01*
X172331402Y-136961506D01*
X172331395Y-136961501D01*
X172137834Y-136825967D01*
X172137830Y-136825965D01*
X172137828Y-136825964D01*
X171923663Y-136726097D01*
X171923659Y-136726096D01*
X171923655Y-136726094D01*
X171695413Y-136664938D01*
X171695403Y-136664936D01*
X171460001Y-136644341D01*
X171459999Y-136644341D01*
X171224596Y-136664936D01*
X171224586Y-136664938D01*
X170996344Y-136726094D01*
X170996335Y-136726098D01*
X170782171Y-136825964D01*
X170782169Y-136825965D01*
X170588597Y-136961505D01*
X170421505Y-137128597D01*
X170285965Y-137322169D01*
X170285964Y-137322171D01*
X170186098Y-137536335D01*
X170186094Y-137536344D01*
X170124938Y-137764586D01*
X170124936Y-137764596D01*
X170104341Y-137999999D01*
X170104341Y-138000000D01*
X170124936Y-138235403D01*
X170124938Y-138235413D01*
X170186094Y-138463655D01*
X170186096Y-138463659D01*
X170186097Y-138463663D01*
X170190000Y-138472032D01*
X170285965Y-138677830D01*
X170285967Y-138677834D01*
X170394281Y-138832521D01*
X170421505Y-138871401D01*
X170588599Y-139038495D01*
X170685384Y-139106265D01*
X170782165Y-139174032D01*
X170782167Y-139174033D01*
X170782170Y-139174035D01*
X170973209Y-139263118D01*
X171025648Y-139309290D01*
X171044800Y-139376484D01*
X171024584Y-139443365D01*
X170971419Y-139488700D01*
X170920804Y-139499500D01*
X148624500Y-139499500D01*
X148557461Y-139479815D01*
X148511706Y-139427011D01*
X148500500Y-139375500D01*
X148500500Y-131574647D01*
X148520185Y-131507608D01*
X148572989Y-131461853D01*
X148642147Y-131451909D01*
X148705703Y-131480934D01*
X148743477Y-131539712D01*
X148746866Y-131554586D01*
X148772415Y-131710431D01*
X148772421Y-131710457D01*
X148868147Y-132055232D01*
X148868149Y-132055239D01*
X149000597Y-132387659D01*
X149000606Y-132387677D01*
X149168218Y-132703827D01*
X149369033Y-133000007D01*
X149496441Y-133150003D01*
X149496442Y-133150004D01*
X150705748Y-131940698D01*
X150779588Y-132042330D01*
X150957670Y-132220412D01*
X151059300Y-132294251D01*
X149847255Y-133506295D01*
X149847256Y-133506296D01*
X149860485Y-133518828D01*
X149860486Y-133518829D01*
X150145367Y-133735388D01*
X150145370Y-133735390D01*
X150451990Y-133919876D01*
X150776739Y-134070122D01*
X150776744Y-134070123D01*
X151115855Y-134184383D01*
X151465339Y-134261311D01*
X151821075Y-134299999D01*
X151821085Y-134300000D01*
X152178915Y-134300000D01*
X152178924Y-134299999D01*
X152534660Y-134261311D01*
X152586073Y-134249994D01*
X155244859Y-134249994D01*
X155244859Y-134250005D01*
X155265385Y-134497729D01*
X155265387Y-134497738D01*
X155326412Y-134738717D01*
X155426267Y-134966367D01*
X155526562Y-135119881D01*
X156226212Y-134420233D01*
X156237482Y-134462292D01*
X156309890Y-134587708D01*
X156412292Y-134690110D01*
X156537708Y-134762518D01*
X156579766Y-134773787D01*
X155879943Y-135473609D01*
X155926768Y-135510055D01*
X155926771Y-135510057D01*
X156145385Y-135628364D01*
X156145396Y-135628369D01*
X156380506Y-135709083D01*
X156625707Y-135750000D01*
X156874293Y-135750000D01*
X157119493Y-135709083D01*
X157354603Y-135628369D01*
X157354614Y-135628364D01*
X157573230Y-135510056D01*
X157573236Y-135510051D01*
X157620055Y-135473610D01*
X157620056Y-135473609D01*
X156920233Y-134773787D01*
X156962292Y-134762518D01*
X157087708Y-134690110D01*
X157190110Y-134587708D01*
X157262518Y-134462292D01*
X157273787Y-134420234D01*
X157973435Y-135119882D01*
X158073733Y-134966364D01*
X158173587Y-134738717D01*
X158234612Y-134497738D01*
X158234614Y-134497729D01*
X158255141Y-134250005D01*
X158255141Y-134249994D01*
X159744357Y-134249994D01*
X159744357Y-134250005D01*
X159764890Y-134497812D01*
X159764892Y-134497824D01*
X159825936Y-134738881D01*
X159925826Y-134966606D01*
X160061833Y-135174782D01*
X160061836Y-135174785D01*
X160230256Y-135357738D01*
X160426491Y-135510474D01*
X160426493Y-135510475D01*
X160644332Y-135628364D01*
X160645190Y-135628828D01*
X160864141Y-135703994D01*
X160878964Y-135709083D01*
X160880386Y-135709571D01*
X161125665Y-135750500D01*
X161374335Y-135750500D01*
X161619614Y-135709571D01*
X161854810Y-135628828D01*
X162073509Y-135510474D01*
X162269744Y-135357738D01*
X162438164Y-135174785D01*
X162574173Y-134966607D01*
X162674063Y-134738881D01*
X162735108Y-134497821D01*
X162755643Y-134250000D01*
X162755643Y-134249994D01*
X165244859Y-134249994D01*
X165244859Y-134250005D01*
X165265385Y-134497729D01*
X165265387Y-134497738D01*
X165326412Y-134738717D01*
X165426267Y-134966367D01*
X165526562Y-135119881D01*
X166226212Y-134420233D01*
X166237482Y-134462292D01*
X166309890Y-134587708D01*
X166412292Y-134690110D01*
X166537708Y-134762518D01*
X166579766Y-134773787D01*
X165879943Y-135473609D01*
X165926768Y-135510055D01*
X165926771Y-135510057D01*
X166145385Y-135628364D01*
X166145396Y-135628369D01*
X166380506Y-135709083D01*
X166625707Y-135750000D01*
X166874293Y-135750000D01*
X167119493Y-135709083D01*
X167354603Y-135628369D01*
X167354614Y-135628364D01*
X167573230Y-135510056D01*
X167573236Y-135510051D01*
X167620055Y-135473610D01*
X167620056Y-135473609D01*
X166920233Y-134773787D01*
X166962292Y-134762518D01*
X167087708Y-134690110D01*
X167190110Y-134587708D01*
X167262518Y-134462292D01*
X167273787Y-134420234D01*
X167973435Y-135119882D01*
X168073733Y-134966364D01*
X168173587Y-134738717D01*
X168234612Y-134497738D01*
X168234614Y-134497729D01*
X168255141Y-134250005D01*
X168255141Y-134249994D01*
X169744357Y-134249994D01*
X169744357Y-134250005D01*
X169764890Y-134497812D01*
X169764892Y-134497824D01*
X169825936Y-134738881D01*
X169925826Y-134966606D01*
X170061833Y-135174782D01*
X170061836Y-135174785D01*
X170230256Y-135357738D01*
X170426491Y-135510474D01*
X170426493Y-135510475D01*
X170644332Y-135628364D01*
X170645190Y-135628828D01*
X170864141Y-135703994D01*
X170878964Y-135709083D01*
X170880386Y-135709571D01*
X171125665Y-135750500D01*
X171374335Y-135750500D01*
X171619614Y-135709571D01*
X171854810Y-135628828D01*
X172073509Y-135510474D01*
X172269744Y-135357738D01*
X172438164Y-135174785D01*
X172574173Y-134966607D01*
X172674063Y-134738881D01*
X172735108Y-134497821D01*
X172755643Y-134250000D01*
X172755643Y-134249994D01*
X175244859Y-134249994D01*
X175244859Y-134250005D01*
X175265385Y-134497729D01*
X175265387Y-134497738D01*
X175326412Y-134738717D01*
X175426267Y-134966367D01*
X175526562Y-135119881D01*
X176226212Y-134420233D01*
X176237482Y-134462292D01*
X176309890Y-134587708D01*
X176412292Y-134690110D01*
X176537708Y-134762518D01*
X176579766Y-134773787D01*
X175879943Y-135473609D01*
X175926768Y-135510055D01*
X175926771Y-135510057D01*
X176145385Y-135628364D01*
X176145396Y-135628369D01*
X176380506Y-135709083D01*
X176625707Y-135750000D01*
X176874293Y-135750000D01*
X177119493Y-135709083D01*
X177354603Y-135628369D01*
X177354614Y-135628364D01*
X177573230Y-135510056D01*
X177573236Y-135510051D01*
X177620055Y-135473610D01*
X177620056Y-135473609D01*
X176920233Y-134773787D01*
X176962292Y-134762518D01*
X177087708Y-134690110D01*
X177190110Y-134587708D01*
X177262518Y-134462292D01*
X177273787Y-134420234D01*
X177973435Y-135119882D01*
X178073733Y-134966364D01*
X178173587Y-134738717D01*
X178234612Y-134497738D01*
X178234614Y-134497729D01*
X178255141Y-134250005D01*
X178255141Y-134249994D01*
X179744357Y-134249994D01*
X179744357Y-134250005D01*
X179764890Y-134497812D01*
X179764892Y-134497824D01*
X179825936Y-134738881D01*
X179925826Y-134966606D01*
X180061833Y-135174782D01*
X180061836Y-135174785D01*
X180230256Y-135357738D01*
X180426491Y-135510474D01*
X180426493Y-135510475D01*
X180644332Y-135628364D01*
X180645190Y-135628828D01*
X180864141Y-135703994D01*
X180878964Y-135709083D01*
X180880386Y-135709571D01*
X181125665Y-135750500D01*
X181374335Y-135750500D01*
X181619614Y-135709571D01*
X181854810Y-135628828D01*
X182073509Y-135510474D01*
X182269744Y-135357738D01*
X182438164Y-135174785D01*
X182574173Y-134966607D01*
X182674063Y-134738881D01*
X182735108Y-134497821D01*
X182755643Y-134250000D01*
X182755643Y-134249994D01*
X185244859Y-134249994D01*
X185244859Y-134250005D01*
X185265385Y-134497729D01*
X185265387Y-134497738D01*
X185326412Y-134738717D01*
X185426267Y-134966367D01*
X185526562Y-135119881D01*
X186226212Y-134420233D01*
X186237482Y-134462292D01*
X186309890Y-134587708D01*
X186412292Y-134690110D01*
X186537708Y-134762518D01*
X186579766Y-134773787D01*
X185879943Y-135473609D01*
X185926768Y-135510055D01*
X185926771Y-135510057D01*
X186145385Y-135628364D01*
X186145396Y-135628369D01*
X186380506Y-135709083D01*
X186625707Y-135750000D01*
X186874293Y-135750000D01*
X187119493Y-135709083D01*
X187354603Y-135628369D01*
X187354614Y-135628364D01*
X187573230Y-135510056D01*
X187573236Y-135510051D01*
X187620055Y-135473610D01*
X187620056Y-135473609D01*
X186920233Y-134773787D01*
X186962292Y-134762518D01*
X187087708Y-134690110D01*
X187190110Y-134587708D01*
X187262518Y-134462292D01*
X187273787Y-134420234D01*
X187973435Y-135119882D01*
X188073733Y-134966364D01*
X188173587Y-134738717D01*
X188234612Y-134497738D01*
X188234614Y-134497729D01*
X188255141Y-134250005D01*
X188255141Y-134249994D01*
X189744357Y-134249994D01*
X189744357Y-134250005D01*
X189764890Y-134497812D01*
X189764892Y-134497824D01*
X189825936Y-134738881D01*
X189925826Y-134966606D01*
X190061833Y-135174782D01*
X190061836Y-135174785D01*
X190230256Y-135357738D01*
X190426491Y-135510474D01*
X190426493Y-135510475D01*
X190644332Y-135628364D01*
X190645190Y-135628828D01*
X190864141Y-135703994D01*
X190878964Y-135709083D01*
X190880386Y-135709571D01*
X191125665Y-135750500D01*
X191374335Y-135750500D01*
X191619614Y-135709571D01*
X191854810Y-135628828D01*
X192073509Y-135510474D01*
X192269744Y-135357738D01*
X192438164Y-135174785D01*
X192574173Y-134966607D01*
X192674063Y-134738881D01*
X192735108Y-134497821D01*
X192755643Y-134250000D01*
X192735108Y-134002179D01*
X192714266Y-133919876D01*
X192674063Y-133761118D01*
X192574173Y-133533393D01*
X192438166Y-133325217D01*
X192416557Y-133301744D01*
X192269744Y-133142262D01*
X192073509Y-132989526D01*
X192073507Y-132989525D01*
X192073506Y-132989524D01*
X191854811Y-132871172D01*
X191854802Y-132871169D01*
X191619616Y-132790429D01*
X191374335Y-132749500D01*
X191125665Y-132749500D01*
X190880383Y-132790429D01*
X190645197Y-132871169D01*
X190645188Y-132871172D01*
X190426493Y-132989524D01*
X190230257Y-133142261D01*
X190061833Y-133325217D01*
X189925826Y-133533393D01*
X189825936Y-133761118D01*
X189764892Y-134002175D01*
X189764890Y-134002187D01*
X189744357Y-134249994D01*
X188255141Y-134249994D01*
X188234614Y-134002270D01*
X188234612Y-134002261D01*
X188173587Y-133761282D01*
X188073732Y-133533632D01*
X187973435Y-133380116D01*
X187273787Y-134079765D01*
X187262518Y-134037708D01*
X187190110Y-133912292D01*
X187087708Y-133809890D01*
X186962292Y-133737482D01*
X186920233Y-133726212D01*
X187620055Y-133026389D01*
X187620055Y-133026388D01*
X187573236Y-132989947D01*
X187573231Y-132989944D01*
X187354614Y-132871635D01*
X187354603Y-132871630D01*
X187119493Y-132790916D01*
X186874293Y-132750000D01*
X186625707Y-132750000D01*
X186380506Y-132790916D01*
X186145396Y-132871630D01*
X186145385Y-132871635D01*
X185926770Y-132989943D01*
X185879943Y-133026389D01*
X186579766Y-133726212D01*
X186537708Y-133737482D01*
X186412292Y-133809890D01*
X186309890Y-133912292D01*
X186237482Y-134037708D01*
X186226212Y-134079765D01*
X185526563Y-133380117D01*
X185426267Y-133533633D01*
X185426265Y-133533637D01*
X185326412Y-133761282D01*
X185265387Y-134002261D01*
X185265385Y-134002270D01*
X185244859Y-134249994D01*
X182755643Y-134249994D01*
X182735108Y-134002179D01*
X182714266Y-133919876D01*
X182674063Y-133761118D01*
X182574173Y-133533393D01*
X182438166Y-133325217D01*
X182416557Y-133301744D01*
X182269744Y-133142262D01*
X182073509Y-132989526D01*
X182073507Y-132989525D01*
X182073506Y-132989524D01*
X181854811Y-132871172D01*
X181854802Y-132871169D01*
X181619616Y-132790429D01*
X181374335Y-132749500D01*
X181125665Y-132749500D01*
X180880383Y-132790429D01*
X180645197Y-132871169D01*
X180645188Y-132871172D01*
X180426493Y-132989524D01*
X180230257Y-133142261D01*
X180061833Y-133325217D01*
X179925826Y-133533393D01*
X179825936Y-133761118D01*
X179764892Y-134002175D01*
X179764890Y-134002187D01*
X179744357Y-134249994D01*
X178255141Y-134249994D01*
X178234614Y-134002270D01*
X178234612Y-134002261D01*
X178173587Y-133761282D01*
X178073732Y-133533632D01*
X177973435Y-133380116D01*
X177273787Y-134079765D01*
X177262518Y-134037708D01*
X177190110Y-133912292D01*
X177087708Y-133809890D01*
X176962292Y-133737482D01*
X176920233Y-133726212D01*
X177620055Y-133026389D01*
X177620055Y-133026388D01*
X177573236Y-132989947D01*
X177573231Y-132989944D01*
X177354614Y-132871635D01*
X177354603Y-132871630D01*
X177119493Y-132790916D01*
X176874293Y-132750000D01*
X176625707Y-132750000D01*
X176380506Y-132790916D01*
X176145396Y-132871630D01*
X176145385Y-132871635D01*
X175926770Y-132989943D01*
X175879943Y-133026389D01*
X176579766Y-133726212D01*
X176537708Y-133737482D01*
X176412292Y-133809890D01*
X176309890Y-133912292D01*
X176237482Y-134037708D01*
X176226212Y-134079765D01*
X175526563Y-133380117D01*
X175426267Y-133533633D01*
X175426265Y-133533637D01*
X175326412Y-133761282D01*
X175265387Y-134002261D01*
X175265385Y-134002270D01*
X175244859Y-134249994D01*
X172755643Y-134249994D01*
X172735108Y-134002179D01*
X172714266Y-133919876D01*
X172674063Y-133761118D01*
X172574173Y-133533393D01*
X172438166Y-133325217D01*
X172416557Y-133301744D01*
X172269744Y-133142262D01*
X172073509Y-132989526D01*
X172073507Y-132989525D01*
X172073506Y-132989524D01*
X171854811Y-132871172D01*
X171854802Y-132871169D01*
X171619616Y-132790429D01*
X171374335Y-132749500D01*
X171125665Y-132749500D01*
X170880383Y-132790429D01*
X170645197Y-132871169D01*
X170645188Y-132871172D01*
X170426493Y-132989524D01*
X170230257Y-133142261D01*
X170061833Y-133325217D01*
X169925826Y-133533393D01*
X169825936Y-133761118D01*
X169764892Y-134002175D01*
X169764890Y-134002187D01*
X169744357Y-134249994D01*
X168255141Y-134249994D01*
X168234614Y-134002270D01*
X168234612Y-134002261D01*
X168173587Y-133761282D01*
X168073732Y-133533632D01*
X167973435Y-133380116D01*
X167273787Y-134079765D01*
X167262518Y-134037708D01*
X167190110Y-133912292D01*
X167087708Y-133809890D01*
X166962292Y-133737482D01*
X166920233Y-133726212D01*
X167620055Y-133026389D01*
X167620055Y-133026388D01*
X167573236Y-132989947D01*
X167573231Y-132989944D01*
X167354614Y-132871635D01*
X167354603Y-132871630D01*
X167119493Y-132790916D01*
X166874293Y-132750000D01*
X166625707Y-132750000D01*
X166380506Y-132790916D01*
X166145396Y-132871630D01*
X166145385Y-132871635D01*
X165926770Y-132989943D01*
X165879943Y-133026389D01*
X166579766Y-133726212D01*
X166537708Y-133737482D01*
X166412292Y-133809890D01*
X166309890Y-133912292D01*
X166237482Y-134037708D01*
X166226212Y-134079766D01*
X165526563Y-133380117D01*
X165426267Y-133533633D01*
X165426265Y-133533637D01*
X165326412Y-133761282D01*
X165265387Y-134002261D01*
X165265385Y-134002270D01*
X165244859Y-134249994D01*
X162755643Y-134249994D01*
X162735108Y-134002179D01*
X162714266Y-133919876D01*
X162674063Y-133761118D01*
X162574173Y-133533393D01*
X162438166Y-133325217D01*
X162416557Y-133301744D01*
X162269744Y-133142262D01*
X162073509Y-132989526D01*
X162073507Y-132989525D01*
X162073506Y-132989524D01*
X161854811Y-132871172D01*
X161854802Y-132871169D01*
X161619616Y-132790429D01*
X161374335Y-132749500D01*
X161125665Y-132749500D01*
X160880383Y-132790429D01*
X160645197Y-132871169D01*
X160645188Y-132871172D01*
X160426493Y-132989524D01*
X160230257Y-133142261D01*
X160061833Y-133325217D01*
X159925826Y-133533393D01*
X159825936Y-133761118D01*
X159764892Y-134002175D01*
X159764890Y-134002187D01*
X159744357Y-134249994D01*
X158255141Y-134249994D01*
X158234614Y-134002270D01*
X158234612Y-134002261D01*
X158173587Y-133761282D01*
X158073732Y-133533632D01*
X157973435Y-133380116D01*
X157273787Y-134079765D01*
X157262518Y-134037708D01*
X157190110Y-133912292D01*
X157087708Y-133809890D01*
X156962292Y-133737482D01*
X156920233Y-133726212D01*
X157620055Y-133026389D01*
X157620055Y-133026388D01*
X157573236Y-132989947D01*
X157573231Y-132989944D01*
X157354614Y-132871635D01*
X157354603Y-132871630D01*
X157119493Y-132790916D01*
X156874293Y-132750000D01*
X156625707Y-132750000D01*
X156380506Y-132790916D01*
X156145396Y-132871630D01*
X156145385Y-132871635D01*
X155926770Y-132989943D01*
X155879943Y-133026389D01*
X156579766Y-133726212D01*
X156537708Y-133737482D01*
X156412292Y-133809890D01*
X156309890Y-133912292D01*
X156237482Y-134037708D01*
X156226212Y-134079766D01*
X155526563Y-133380117D01*
X155426267Y-133533633D01*
X155426265Y-133533637D01*
X155326412Y-133761282D01*
X155265387Y-134002261D01*
X155265385Y-134002270D01*
X155244859Y-134249994D01*
X152586073Y-134249994D01*
X152884144Y-134184383D01*
X153223255Y-134070123D01*
X153223260Y-134070122D01*
X153548009Y-133919876D01*
X153854629Y-133735390D01*
X153854632Y-133735388D01*
X154139504Y-133518836D01*
X154152742Y-133506294D01*
X152940698Y-132294251D01*
X153042330Y-132220412D01*
X153220412Y-132042330D01*
X153294251Y-131940698D01*
X154503556Y-133150003D01*
X154630964Y-133000008D01*
X154630975Y-132999994D01*
X154831781Y-132703827D01*
X154999393Y-132387677D01*
X154999402Y-132387659D01*
X155131850Y-132055239D01*
X155131852Y-132055232D01*
X155227578Y-131710457D01*
X155227584Y-131710431D01*
X155285472Y-131357331D01*
X155285473Y-131357314D01*
X155304847Y-131000002D01*
X155304847Y-130999997D01*
X155285473Y-130642685D01*
X155285472Y-130642668D01*
X155227584Y-130289568D01*
X155227578Y-130289542D01*
X155131852Y-129944767D01*
X155131850Y-129944760D01*
X154999402Y-129612340D01*
X154999393Y-129612322D01*
X154831781Y-129296172D01*
X154630966Y-128999992D01*
X154503557Y-128849995D01*
X154503556Y-128849994D01*
X153294250Y-130059299D01*
X153220412Y-129957670D01*
X153042330Y-129779588D01*
X152940697Y-129705747D01*
X154152743Y-128493703D01*
X154152742Y-128493702D01*
X154139514Y-128481171D01*
X154139513Y-128481170D01*
X153854632Y-128264611D01*
X153854629Y-128264609D01*
X153548009Y-128080123D01*
X153223260Y-127929877D01*
X153223255Y-127929876D01*
X152884144Y-127815616D01*
X152534660Y-127738688D01*
X152178924Y-127700000D01*
X151821075Y-127700000D01*
X151465339Y-127738688D01*
X151115855Y-127815616D01*
X150776744Y-127929876D01*
X150776739Y-127929877D01*
X150451990Y-128080123D01*
X150145370Y-128264609D01*
X150145367Y-128264611D01*
X149860491Y-128481166D01*
X149847256Y-128493703D01*
X149847255Y-128493703D01*
X151059301Y-129705748D01*
X150957670Y-129779588D01*
X150779588Y-129957670D01*
X150705748Y-130059301D01*
X149496442Y-128849994D01*
X149496441Y-128849995D01*
X149369040Y-128999983D01*
X149369033Y-128999993D01*
X149168218Y-129296172D01*
X149000606Y-129612322D01*
X149000597Y-129612340D01*
X148868149Y-129944760D01*
X148868147Y-129944767D01*
X148772421Y-130289542D01*
X148772415Y-130289568D01*
X148746866Y-130445413D01*
X148716595Y-130508385D01*
X148657085Y-130544994D01*
X148587229Y-130543618D01*
X148529206Y-130504693D01*
X148501438Y-130440578D01*
X148500500Y-130425352D01*
X148500500Y-126624000D01*
X148520185Y-126556961D01*
X148572989Y-126511206D01*
X148624500Y-126500000D01*
X155802191Y-126500000D01*
X155869230Y-126519685D01*
G37*
%TD.AperFunction*%
%TD*%
%TA.AperFunction,Conductor*%
%TO.N,GND*%
G36*
X199458691Y-40519407D02*
G01*
X199494655Y-40568907D01*
X199499500Y-40599500D01*
X199499500Y-119401000D01*
X199480593Y-119459191D01*
X199431093Y-119495155D01*
X199400500Y-119500000D01*
X148599500Y-119500000D01*
X148541309Y-119481093D01*
X148505345Y-119431593D01*
X148500500Y-119401000D01*
X148500500Y-115000000D01*
X149994916Y-115000000D01*
X150015235Y-115348871D01*
X150075917Y-115693015D01*
X150176144Y-116027798D01*
X150176145Y-116027800D01*
X150314556Y-116348672D01*
X150314559Y-116348679D01*
X150489288Y-116651319D01*
X150489290Y-116651322D01*
X150697973Y-116931632D01*
X150697975Y-116931635D01*
X150706147Y-116940297D01*
X151705747Y-115940696D01*
X151779588Y-116042330D01*
X151957670Y-116220412D01*
X152059300Y-116294251D01*
X151062818Y-117290734D01*
X151205493Y-117410451D01*
X151497452Y-117602476D01*
X151809744Y-117759315D01*
X151809748Y-117759316D01*
X152138136Y-117878840D01*
X152478162Y-117959428D01*
X152825273Y-118000000D01*
X153174727Y-118000000D01*
X153521837Y-117959428D01*
X153861863Y-117878840D01*
X154190251Y-117759316D01*
X154190255Y-117759315D01*
X154502547Y-117602476D01*
X154794509Y-117410449D01*
X154794514Y-117410445D01*
X154937180Y-117290734D01*
X153940698Y-116294252D01*
X154042330Y-116220412D01*
X154220412Y-116042330D01*
X154294252Y-115940698D01*
X155293851Y-116940297D01*
X155302026Y-116931632D01*
X155302030Y-116931626D01*
X155510709Y-116651322D01*
X155510711Y-116651319D01*
X155685440Y-116348679D01*
X155685443Y-116348672D01*
X155823854Y-116027800D01*
X155823855Y-116027798D01*
X155924082Y-115693015D01*
X155984764Y-115348871D01*
X156005083Y-115000000D01*
X191994916Y-115000000D01*
X192015235Y-115348871D01*
X192075917Y-115693015D01*
X192176144Y-116027798D01*
X192176145Y-116027800D01*
X192314556Y-116348672D01*
X192314559Y-116348679D01*
X192489288Y-116651319D01*
X192489290Y-116651322D01*
X192697973Y-116931632D01*
X192697975Y-116931635D01*
X192706147Y-116940297D01*
X193705747Y-115940696D01*
X193779588Y-116042330D01*
X193957670Y-116220412D01*
X194059300Y-116294251D01*
X193062818Y-117290734D01*
X193205493Y-117410451D01*
X193497452Y-117602476D01*
X193809744Y-117759315D01*
X193809748Y-117759316D01*
X194138136Y-117878840D01*
X194478162Y-117959428D01*
X194825273Y-118000000D01*
X195174727Y-118000000D01*
X195521837Y-117959428D01*
X195861863Y-117878840D01*
X196190251Y-117759316D01*
X196190255Y-117759315D01*
X196502547Y-117602476D01*
X196794509Y-117410449D01*
X196794514Y-117410445D01*
X196937180Y-117290734D01*
X195940698Y-116294252D01*
X196042330Y-116220412D01*
X196220412Y-116042330D01*
X196294252Y-115940698D01*
X197293851Y-116940297D01*
X197302026Y-116931632D01*
X197302030Y-116931626D01*
X197510709Y-116651322D01*
X197510711Y-116651319D01*
X197685440Y-116348679D01*
X197685443Y-116348672D01*
X197823854Y-116027800D01*
X197823855Y-116027798D01*
X197924082Y-115693015D01*
X197984764Y-115348871D01*
X198005083Y-115000000D01*
X197984764Y-114651128D01*
X197924082Y-114306984D01*
X197823855Y-113972201D01*
X197823854Y-113972199D01*
X197685443Y-113651327D01*
X197685440Y-113651320D01*
X197510711Y-113348680D01*
X197510709Y-113348677D01*
X197302029Y-113068370D01*
X197293851Y-113059701D01*
X196294251Y-114059300D01*
X196220412Y-113957670D01*
X196042330Y-113779588D01*
X195940696Y-113705747D01*
X196937180Y-112709264D01*
X196794506Y-112589548D01*
X196502547Y-112397523D01*
X196190255Y-112240684D01*
X196190251Y-112240683D01*
X195861863Y-112121159D01*
X195521837Y-112040571D01*
X195174727Y-112000000D01*
X194825273Y-112000000D01*
X194478162Y-112040571D01*
X194138136Y-112121159D01*
X193809748Y-112240683D01*
X193809744Y-112240684D01*
X193497452Y-112397524D01*
X193205498Y-112589543D01*
X193205490Y-112589550D01*
X193062818Y-112709264D01*
X194059301Y-113705747D01*
X193957670Y-113779588D01*
X193779588Y-113957670D01*
X193705748Y-114059301D01*
X192706148Y-113059701D01*
X192697966Y-113068375D01*
X192489290Y-113348677D01*
X192489288Y-113348680D01*
X192314559Y-113651320D01*
X192314556Y-113651327D01*
X192176145Y-113972199D01*
X192176144Y-113972201D01*
X192075917Y-114306984D01*
X192015235Y-114651128D01*
X191994916Y-115000000D01*
X156005083Y-115000000D01*
X155984764Y-114651128D01*
X155924082Y-114306984D01*
X155823855Y-113972201D01*
X155823854Y-113972199D01*
X155685443Y-113651327D01*
X155685440Y-113651320D01*
X155510711Y-113348680D01*
X155510709Y-113348677D01*
X155302029Y-113068370D01*
X155293851Y-113059701D01*
X154294251Y-114059300D01*
X154220412Y-113957670D01*
X154042330Y-113779588D01*
X153940696Y-113705747D01*
X154937180Y-112709264D01*
X154794506Y-112589548D01*
X154502547Y-112397523D01*
X154190255Y-112240684D01*
X154190251Y-112240683D01*
X153861863Y-112121159D01*
X153521837Y-112040571D01*
X153174727Y-112000000D01*
X152825273Y-112000000D01*
X152478162Y-112040571D01*
X152138136Y-112121159D01*
X151809748Y-112240683D01*
X151809744Y-112240684D01*
X151497452Y-112397524D01*
X151205498Y-112589543D01*
X151205490Y-112589550D01*
X151062818Y-112709264D01*
X152059301Y-113705747D01*
X151957670Y-113779588D01*
X151779588Y-113957670D01*
X151705748Y-114059301D01*
X150706148Y-113059701D01*
X150697966Y-113068375D01*
X150489290Y-113348677D01*
X150489288Y-113348680D01*
X150314559Y-113651320D01*
X150314556Y-113651327D01*
X150176145Y-113972199D01*
X150176144Y-113972201D01*
X150075917Y-114306984D01*
X150015235Y-114651128D01*
X149994916Y-115000000D01*
X148500500Y-115000000D01*
X148500500Y-106679996D01*
X151344417Y-106679996D01*
X151344417Y-106680003D01*
X151364698Y-106885929D01*
X151364699Y-106885934D01*
X151424768Y-107083954D01*
X151522316Y-107266452D01*
X151624430Y-107390878D01*
X151653590Y-107426410D01*
X151653595Y-107426414D01*
X151813547Y-107557683D01*
X151813548Y-107557683D01*
X151813550Y-107557685D01*
X151996046Y-107655232D01*
X152133997Y-107697078D01*
X152194065Y-107715300D01*
X152194070Y-107715301D01*
X152399997Y-107735583D01*
X152400000Y-107735583D01*
X152400003Y-107735583D01*
X152605929Y-107715301D01*
X152605934Y-107715300D01*
X152803954Y-107655232D01*
X152986450Y-107557685D01*
X153146410Y-107426410D01*
X153277685Y-107266450D01*
X153375232Y-107083954D01*
X153435300Y-106885934D01*
X153435301Y-106885929D01*
X153455583Y-106680003D01*
X153455583Y-106679996D01*
X156474659Y-106679996D01*
X156474659Y-106680003D01*
X156493974Y-106876126D01*
X156493975Y-106876129D01*
X156551187Y-107064730D01*
X156551188Y-107064732D01*
X156622218Y-107197618D01*
X156644090Y-107238538D01*
X156644092Y-107238540D01*
X156644093Y-107238542D01*
X156769112Y-107390878D01*
X156769121Y-107390887D01*
X156812411Y-107426414D01*
X156921462Y-107515910D01*
X157095273Y-107608814D01*
X157283868Y-107666024D01*
X157283870Y-107666024D01*
X157283873Y-107666025D01*
X157479997Y-107685341D01*
X157480000Y-107685341D01*
X157480003Y-107685341D01*
X157676126Y-107666025D01*
X157676127Y-107666024D01*
X157676132Y-107666024D01*
X157864727Y-107608814D01*
X158038538Y-107515910D01*
X158190883Y-107390883D01*
X158315910Y-107238538D01*
X158408814Y-107064727D01*
X158466024Y-106876132D01*
X158485341Y-106680000D01*
X158485341Y-106679996D01*
X158466025Y-106483873D01*
X158466024Y-106483870D01*
X158466024Y-106483868D01*
X158408814Y-106295273D01*
X158398536Y-106276045D01*
X158386942Y-106254353D01*
X158315910Y-106121462D01*
X158296802Y-106098179D01*
X158190887Y-105969121D01*
X158190878Y-105969112D01*
X158038542Y-105844093D01*
X158038540Y-105844092D01*
X158038538Y-105844090D01*
X157997618Y-105822218D01*
X157864732Y-105751188D01*
X157864730Y-105751187D01*
X157676129Y-105693975D01*
X157676126Y-105693974D01*
X157480003Y-105674659D01*
X157479997Y-105674659D01*
X157283873Y-105693974D01*
X157283870Y-105693975D01*
X157095269Y-105751187D01*
X157095267Y-105751188D01*
X156921467Y-105844087D01*
X156921457Y-105844093D01*
X156769121Y-105969112D01*
X156769112Y-105969121D01*
X156644093Y-106121457D01*
X156644087Y-106121467D01*
X156551188Y-106295267D01*
X156551187Y-106295269D01*
X156493975Y-106483870D01*
X156493974Y-106483873D01*
X156474659Y-106679996D01*
X153455583Y-106679996D01*
X153435301Y-106474070D01*
X153435300Y-106474065D01*
X153381063Y-106295269D01*
X153375232Y-106276046D01*
X153277685Y-106093550D01*
X153214867Y-106017006D01*
X153146414Y-105933595D01*
X153146410Y-105933590D01*
X153146404Y-105933585D01*
X152986452Y-105802316D01*
X152803954Y-105704768D01*
X152605934Y-105644699D01*
X152605929Y-105644698D01*
X152400003Y-105624417D01*
X152399997Y-105624417D01*
X152194070Y-105644698D01*
X152194065Y-105644699D01*
X151996045Y-105704768D01*
X151813547Y-105802316D01*
X151653595Y-105933585D01*
X151653585Y-105933595D01*
X151522316Y-106093547D01*
X151424768Y-106276045D01*
X151364699Y-106474065D01*
X151364698Y-106474070D01*
X151344417Y-106679996D01*
X148500500Y-106679996D01*
X148500500Y-104139996D01*
X151344417Y-104139996D01*
X151344417Y-104140003D01*
X151364698Y-104345929D01*
X151364699Y-104345934D01*
X151424768Y-104543954D01*
X151522316Y-104726452D01*
X151624430Y-104850878D01*
X151653590Y-104886410D01*
X151653595Y-104886414D01*
X151813547Y-105017683D01*
X151813548Y-105017683D01*
X151813550Y-105017685D01*
X151996046Y-105115232D01*
X152133997Y-105157078D01*
X152194065Y-105175300D01*
X152194070Y-105175301D01*
X152399997Y-105195583D01*
X152400000Y-105195583D01*
X152400003Y-105195583D01*
X152605929Y-105175301D01*
X152605934Y-105175300D01*
X152803954Y-105115232D01*
X152986450Y-105017685D01*
X153146410Y-104886410D01*
X153277685Y-104726450D01*
X153375232Y-104543954D01*
X153435300Y-104345934D01*
X153435301Y-104345929D01*
X153455583Y-104140003D01*
X153455583Y-104139996D01*
X156474659Y-104139996D01*
X156474659Y-104140003D01*
X156493974Y-104336126D01*
X156493975Y-104336129D01*
X156551187Y-104524730D01*
X156551188Y-104524732D01*
X156622218Y-104657618D01*
X156644090Y-104698538D01*
X156644092Y-104698540D01*
X156644093Y-104698542D01*
X156769112Y-104850878D01*
X156769121Y-104850887D01*
X156812411Y-104886414D01*
X156921462Y-104975910D01*
X157095273Y-105068814D01*
X157283868Y-105126024D01*
X157283870Y-105126024D01*
X157283873Y-105126025D01*
X157479997Y-105145341D01*
X157480000Y-105145341D01*
X157480003Y-105145341D01*
X157676126Y-105126025D01*
X157676127Y-105126024D01*
X157676132Y-105126024D01*
X157864727Y-105068814D01*
X158038538Y-104975910D01*
X158190883Y-104850883D01*
X158315910Y-104698538D01*
X158408814Y-104524727D01*
X158466024Y-104336132D01*
X158485341Y-104140000D01*
X158485341Y-104139996D01*
X158466025Y-103943873D01*
X158466024Y-103943870D01*
X158466024Y-103943868D01*
X158408814Y-103755273D01*
X158398536Y-103736045D01*
X158386942Y-103714353D01*
X158315910Y-103581462D01*
X158296802Y-103558179D01*
X158190887Y-103429121D01*
X158190878Y-103429112D01*
X158038542Y-103304093D01*
X158038540Y-103304092D01*
X158038538Y-103304090D01*
X157997618Y-103282218D01*
X157864732Y-103211188D01*
X157864730Y-103211187D01*
X157676129Y-103153975D01*
X157676126Y-103153974D01*
X157480003Y-103134659D01*
X157479997Y-103134659D01*
X157283873Y-103153974D01*
X157283870Y-103153975D01*
X157095269Y-103211187D01*
X157095267Y-103211188D01*
X156921467Y-103304087D01*
X156921457Y-103304093D01*
X156769121Y-103429112D01*
X156769112Y-103429121D01*
X156644093Y-103581457D01*
X156644087Y-103581467D01*
X156551188Y-103755267D01*
X156551187Y-103755269D01*
X156493975Y-103943870D01*
X156493974Y-103943873D01*
X156474659Y-104139996D01*
X153455583Y-104139996D01*
X153435301Y-103934070D01*
X153435300Y-103934065D01*
X153381063Y-103755269D01*
X153375232Y-103736046D01*
X153277685Y-103553550D01*
X153214867Y-103477006D01*
X153146414Y-103393595D01*
X153146410Y-103393590D01*
X153146404Y-103393585D01*
X152986452Y-103262316D01*
X152803954Y-103164768D01*
X152605934Y-103104699D01*
X152605929Y-103104698D01*
X152400003Y-103084417D01*
X152399997Y-103084417D01*
X152194070Y-103104698D01*
X152194065Y-103104699D01*
X151996045Y-103164768D01*
X151813547Y-103262316D01*
X151653595Y-103393585D01*
X151653585Y-103393595D01*
X151522316Y-103553547D01*
X151424768Y-103736045D01*
X151364699Y-103934065D01*
X151364698Y-103934070D01*
X151344417Y-104139996D01*
X148500500Y-104139996D01*
X148500500Y-100730299D01*
X151350000Y-100730299D01*
X151350000Y-101349999D01*
X151350001Y-101350000D01*
X151966988Y-101350000D01*
X151934075Y-101407007D01*
X151900000Y-101534174D01*
X151900000Y-101665826D01*
X151934075Y-101792993D01*
X151966988Y-101850000D01*
X151350001Y-101850000D01*
X151350000Y-101850001D01*
X151350000Y-102469700D01*
X151361603Y-102528036D01*
X151405806Y-102594189D01*
X151405810Y-102594193D01*
X151471963Y-102638396D01*
X151530299Y-102649999D01*
X151530303Y-102650000D01*
X152149999Y-102650000D01*
X152150000Y-102649999D01*
X152150000Y-102033012D01*
X152207007Y-102065925D01*
X152334174Y-102100000D01*
X152465826Y-102100000D01*
X152592993Y-102065925D01*
X152650000Y-102033012D01*
X152650000Y-102649999D01*
X152650001Y-102650000D01*
X153269697Y-102650000D01*
X153269700Y-102649999D01*
X153328036Y-102638396D01*
X153394189Y-102594193D01*
X153394193Y-102594189D01*
X153438396Y-102528036D01*
X153449999Y-102469700D01*
X153450000Y-102469697D01*
X153450000Y-101850001D01*
X153449999Y-101850000D01*
X152833012Y-101850000D01*
X152865925Y-101792993D01*
X152900000Y-101665826D01*
X152900000Y-101534174D01*
X152865925Y-101407007D01*
X152833012Y-101350000D01*
X153449999Y-101350000D01*
X153450000Y-101349999D01*
X153450000Y-100730302D01*
X153449999Y-100730299D01*
X153438396Y-100671963D01*
X153394193Y-100605810D01*
X153394189Y-100605806D01*
X153328036Y-100561603D01*
X153269700Y-100550000D01*
X152650001Y-100550000D01*
X152650000Y-100550001D01*
X152650000Y-101166988D01*
X152592993Y-101134075D01*
X152465826Y-101100000D01*
X152334174Y-101100000D01*
X152207007Y-101134075D01*
X152150000Y-101166988D01*
X152150000Y-100550001D01*
X152149999Y-100550000D01*
X151530299Y-100550000D01*
X151471963Y-100561603D01*
X151405810Y-100605806D01*
X151405806Y-100605810D01*
X151361603Y-100671963D01*
X151350000Y-100730299D01*
X148500500Y-100730299D01*
X148500500Y-96519996D01*
X153934659Y-96519996D01*
X153934659Y-96520003D01*
X153953974Y-96716126D01*
X153953975Y-96716129D01*
X154011187Y-96904730D01*
X154011188Y-96904732D01*
X154082218Y-97037618D01*
X154104090Y-97078538D01*
X154104092Y-97078540D01*
X154104093Y-97078542D01*
X154229112Y-97230878D01*
X154229121Y-97230887D01*
X154272411Y-97266414D01*
X154381462Y-97355910D01*
X154467653Y-97401980D01*
X154554174Y-97448227D01*
X154555273Y-97448814D01*
X154743868Y-97506024D01*
X154743870Y-97506024D01*
X154743873Y-97506025D01*
X154939997Y-97525341D01*
X154940000Y-97525341D01*
X154940003Y-97525341D01*
X155136126Y-97506025D01*
X155136127Y-97506024D01*
X155136132Y-97506024D01*
X155324727Y-97448814D01*
X155498538Y-97355910D01*
X155650883Y-97230883D01*
X155775910Y-97078538D01*
X155868814Y-96904727D01*
X155926024Y-96716132D01*
X155945341Y-96520000D01*
X155945341Y-96519996D01*
X156474659Y-96519996D01*
X156474659Y-96520003D01*
X156493974Y-96716126D01*
X156493975Y-96716129D01*
X156551187Y-96904730D01*
X156551188Y-96904732D01*
X156622218Y-97037618D01*
X156644090Y-97078538D01*
X156644092Y-97078540D01*
X156644093Y-97078542D01*
X156769112Y-97230878D01*
X156769121Y-97230887D01*
X156812411Y-97266414D01*
X156921462Y-97355910D01*
X157007653Y-97401980D01*
X157094174Y-97448227D01*
X157095273Y-97448814D01*
X157283868Y-97506024D01*
X157283870Y-97506024D01*
X157283873Y-97506025D01*
X157479997Y-97525341D01*
X157480000Y-97525341D01*
X157480003Y-97525341D01*
X157676126Y-97506025D01*
X157676127Y-97506024D01*
X157676132Y-97506024D01*
X157864727Y-97448814D01*
X158038538Y-97355910D01*
X158190883Y-97230883D01*
X158315910Y-97078538D01*
X158408814Y-96904727D01*
X158466024Y-96716132D01*
X158485341Y-96520000D01*
X158485341Y-96519996D01*
X158466025Y-96323873D01*
X158466024Y-96323870D01*
X158466024Y-96323868D01*
X158408814Y-96135273D01*
X158398536Y-96116045D01*
X158386942Y-96094353D01*
X158315910Y-95961462D01*
X158296802Y-95938179D01*
X158190887Y-95809121D01*
X158190878Y-95809112D01*
X158038542Y-95684093D01*
X158038540Y-95684092D01*
X158038538Y-95684090D01*
X157997618Y-95662218D01*
X157864732Y-95591188D01*
X157864730Y-95591187D01*
X157676129Y-95533975D01*
X157676126Y-95533974D01*
X157480003Y-95514659D01*
X157479997Y-95514659D01*
X157283873Y-95533974D01*
X157283870Y-95533975D01*
X157095269Y-95591187D01*
X157095267Y-95591188D01*
X156921467Y-95684087D01*
X156921457Y-95684093D01*
X156769121Y-95809112D01*
X156769112Y-95809121D01*
X156644093Y-95961457D01*
X156644087Y-95961467D01*
X156551188Y-96135267D01*
X156551187Y-96135269D01*
X156493975Y-96323870D01*
X156493974Y-96323873D01*
X156474659Y-96519996D01*
X155945341Y-96519996D01*
X155926025Y-96323873D01*
X155926024Y-96323870D01*
X155926024Y-96323868D01*
X155868814Y-96135273D01*
X155858536Y-96116045D01*
X155846942Y-96094353D01*
X155775910Y-95961462D01*
X155756802Y-95938179D01*
X155650887Y-95809121D01*
X155650878Y-95809112D01*
X155498542Y-95684093D01*
X155498540Y-95684092D01*
X155498538Y-95684090D01*
X155457618Y-95662218D01*
X155324732Y-95591188D01*
X155324730Y-95591187D01*
X155136129Y-95533975D01*
X155136126Y-95533974D01*
X154940003Y-95514659D01*
X154939997Y-95514659D01*
X154743873Y-95533974D01*
X154743870Y-95533975D01*
X154555269Y-95591187D01*
X154555267Y-95591188D01*
X154381467Y-95684087D01*
X154381457Y-95684093D01*
X154229121Y-95809112D01*
X154229112Y-95809121D01*
X154104093Y-95961457D01*
X154104087Y-95961467D01*
X154011188Y-96135267D01*
X154011187Y-96135269D01*
X153953975Y-96323870D01*
X153953974Y-96323873D01*
X153934659Y-96519996D01*
X148500500Y-96519996D01*
X148500500Y-88899996D01*
X159014659Y-88899996D01*
X159014659Y-88900003D01*
X159033974Y-89096126D01*
X159033975Y-89096129D01*
X159091187Y-89284730D01*
X159091188Y-89284732D01*
X159157356Y-89408522D01*
X159184090Y-89458538D01*
X159184092Y-89458540D01*
X159184093Y-89458542D01*
X159309112Y-89610878D01*
X159309121Y-89610887D01*
X159380170Y-89669195D01*
X159461462Y-89735910D01*
X159517168Y-89765685D01*
X159559575Y-89809789D01*
X159569500Y-89852995D01*
X159569500Y-98079309D01*
X159593713Y-98169673D01*
X159593712Y-98169673D01*
X159600200Y-98193886D01*
X159600202Y-98193890D01*
X159659507Y-98296609D01*
X159659509Y-98296611D01*
X159659511Y-98296614D01*
X160920505Y-99557608D01*
X160948281Y-99612123D01*
X160949500Y-99627610D01*
X160949500Y-100879603D01*
X160930593Y-100937794D01*
X160881093Y-100973758D01*
X160819907Y-100973758D01*
X160773972Y-100942409D01*
X160730526Y-100889471D01*
X160730523Y-100889468D01*
X160578258Y-100764506D01*
X160578252Y-100764502D01*
X160404540Y-100671652D01*
X160404538Y-100671651D01*
X160270000Y-100630838D01*
X160270000Y-101284314D01*
X160265606Y-101279920D01*
X160174394Y-101227259D01*
X160072661Y-101200000D01*
X159967339Y-101200000D01*
X159865606Y-101227259D01*
X159774394Y-101279920D01*
X159770000Y-101284314D01*
X159770000Y-100630838D01*
X159635461Y-100671651D01*
X159635459Y-100671652D01*
X159461747Y-100764502D01*
X159461741Y-100764506D01*
X159309476Y-100889468D01*
X159309468Y-100889476D01*
X159184506Y-101041741D01*
X159184502Y-101041747D01*
X159091652Y-101215459D01*
X159091651Y-101215461D01*
X159050839Y-101350000D01*
X159704314Y-101350000D01*
X159699920Y-101354394D01*
X159647259Y-101445606D01*
X159620000Y-101547339D01*
X159620000Y-101652661D01*
X159647259Y-101754394D01*
X159699920Y-101845606D01*
X159704314Y-101850000D01*
X159050839Y-101850000D01*
X159091651Y-101984538D01*
X159091652Y-101984540D01*
X159184502Y-102158252D01*
X159184506Y-102158258D01*
X159309468Y-102310523D01*
X159309476Y-102310531D01*
X159461741Y-102435493D01*
X159461747Y-102435497D01*
X159635459Y-102528347D01*
X159635464Y-102528349D01*
X159769999Y-102569160D01*
X159770000Y-102569160D01*
X159770000Y-101915686D01*
X159774394Y-101920080D01*
X159865606Y-101972741D01*
X159967339Y-102000000D01*
X160072661Y-102000000D01*
X160174394Y-101972741D01*
X160265606Y-101920080D01*
X160270000Y-101915686D01*
X160270000Y-102569160D01*
X160404535Y-102528349D01*
X160404540Y-102528347D01*
X160578252Y-102435497D01*
X160578258Y-102435493D01*
X160730523Y-102310531D01*
X160730531Y-102310523D01*
X160773972Y-102257591D01*
X160825503Y-102224604D01*
X160886583Y-102228206D01*
X160933879Y-102267021D01*
X160949500Y-102320396D01*
X160949500Y-103418815D01*
X160930593Y-103477006D01*
X160881093Y-103512970D01*
X160819907Y-103512970D01*
X160773972Y-103481620D01*
X160730887Y-103429121D01*
X160730878Y-103429112D01*
X160578542Y-103304093D01*
X160578540Y-103304092D01*
X160578538Y-103304090D01*
X160537618Y-103282218D01*
X160404732Y-103211188D01*
X160404730Y-103211187D01*
X160216129Y-103153975D01*
X160216126Y-103153974D01*
X160020003Y-103134659D01*
X160019997Y-103134659D01*
X159823873Y-103153974D01*
X159823870Y-103153975D01*
X159635269Y-103211187D01*
X159635267Y-103211188D01*
X159461467Y-103304087D01*
X159461457Y-103304093D01*
X159309121Y-103429112D01*
X159309112Y-103429121D01*
X159184093Y-103581457D01*
X159184087Y-103581467D01*
X159091188Y-103755267D01*
X159091187Y-103755269D01*
X159033975Y-103943870D01*
X159033974Y-103943873D01*
X159014659Y-104139996D01*
X159014659Y-104140003D01*
X159033974Y-104336126D01*
X159033975Y-104336129D01*
X159091187Y-104524730D01*
X159091188Y-104524732D01*
X159162218Y-104657618D01*
X159184090Y-104698538D01*
X159184092Y-104698540D01*
X159184093Y-104698542D01*
X159309112Y-104850878D01*
X159309121Y-104850887D01*
X159352411Y-104886414D01*
X159461462Y-104975910D01*
X159635273Y-105068814D01*
X159823868Y-105126024D01*
X159823870Y-105126024D01*
X159823873Y-105126025D01*
X160019997Y-105145341D01*
X160020000Y-105145341D01*
X160020003Y-105145341D01*
X160216126Y-105126025D01*
X160216127Y-105126024D01*
X160216132Y-105126024D01*
X160404727Y-105068814D01*
X160578538Y-104975910D01*
X160730883Y-104850883D01*
X160730887Y-104850877D01*
X160730891Y-104850874D01*
X160773972Y-104798380D01*
X160825503Y-104765392D01*
X160886582Y-104768993D01*
X160933879Y-104807809D01*
X160949500Y-104861184D01*
X160949500Y-105958815D01*
X160930593Y-106017006D01*
X160881093Y-106052970D01*
X160819907Y-106052970D01*
X160773972Y-106021620D01*
X160730887Y-105969121D01*
X160730878Y-105969112D01*
X160578542Y-105844093D01*
X160578540Y-105844092D01*
X160578538Y-105844090D01*
X160537618Y-105822218D01*
X160404732Y-105751188D01*
X160404730Y-105751187D01*
X160216129Y-105693975D01*
X160216126Y-105693974D01*
X160020003Y-105674659D01*
X160019997Y-105674659D01*
X159823873Y-105693974D01*
X159823870Y-105693975D01*
X159635269Y-105751187D01*
X159635267Y-105751188D01*
X159461467Y-105844087D01*
X159461457Y-105844093D01*
X159309121Y-105969112D01*
X159309112Y-105969121D01*
X159184093Y-106121457D01*
X159184087Y-106121467D01*
X159091188Y-106295267D01*
X159091187Y-106295269D01*
X159033975Y-106483870D01*
X159033974Y-106483873D01*
X159014659Y-106679996D01*
X159014659Y-106680003D01*
X159033974Y-106876126D01*
X159033975Y-106876129D01*
X159091187Y-107064730D01*
X159091188Y-107064732D01*
X159162218Y-107197618D01*
X159184090Y-107238538D01*
X159184092Y-107238540D01*
X159184093Y-107238542D01*
X159309112Y-107390878D01*
X159309121Y-107390887D01*
X159352411Y-107426414D01*
X159461462Y-107515910D01*
X159635273Y-107608814D01*
X159823868Y-107666024D01*
X159823870Y-107666024D01*
X159823873Y-107666025D01*
X160019997Y-107685341D01*
X160020000Y-107685341D01*
X160020003Y-107685341D01*
X160216126Y-107666025D01*
X160216127Y-107666024D01*
X160216132Y-107666024D01*
X160404727Y-107608814D01*
X160578538Y-107515910D01*
X160730883Y-107390883D01*
X160730887Y-107390877D01*
X160730891Y-107390874D01*
X160773972Y-107338380D01*
X160825503Y-107305392D01*
X160886582Y-107308993D01*
X160933879Y-107347809D01*
X160949500Y-107401184D01*
X160949500Y-107612387D01*
X160930593Y-107670578D01*
X160920504Y-107682391D01*
X160375317Y-108227577D01*
X160320800Y-108255354D01*
X160276576Y-108252310D01*
X160216135Y-108233976D01*
X160216126Y-108233974D01*
X160020003Y-108214659D01*
X160019997Y-108214659D01*
X159823873Y-108233974D01*
X159823870Y-108233975D01*
X159635269Y-108291187D01*
X159635267Y-108291188D01*
X159461467Y-108384087D01*
X159461457Y-108384093D01*
X159309121Y-108509112D01*
X159309112Y-108509121D01*
X159184093Y-108661457D01*
X159184087Y-108661467D01*
X159091188Y-108835267D01*
X159091187Y-108835269D01*
X159033975Y-109023870D01*
X159033974Y-109023873D01*
X159014659Y-109219996D01*
X159014659Y-109220003D01*
X159033974Y-109416126D01*
X159033975Y-109416129D01*
X159091187Y-109604730D01*
X159091188Y-109604732D01*
X159162218Y-109737618D01*
X159184090Y-109778538D01*
X159184092Y-109778540D01*
X159184093Y-109778542D01*
X159309112Y-109930878D01*
X159309121Y-109930887D01*
X159441781Y-110039758D01*
X159461462Y-110055910D01*
X159540639Y-110098231D01*
X159618311Y-110139748D01*
X159635273Y-110148814D01*
X159823868Y-110206024D01*
X159823870Y-110206024D01*
X159823873Y-110206025D01*
X160019997Y-110225341D01*
X160020000Y-110225341D01*
X160020003Y-110225341D01*
X160216126Y-110206025D01*
X160216127Y-110206024D01*
X160216132Y-110206024D01*
X160404727Y-110148814D01*
X160578538Y-110055910D01*
X160730883Y-109930883D01*
X160855910Y-109778538D01*
X160948814Y-109604727D01*
X161006024Y-109416132D01*
X161025341Y-109220000D01*
X161025341Y-109219996D01*
X161006025Y-109023873D01*
X161006024Y-109023871D01*
X161006024Y-109023870D01*
X161006024Y-109023868D01*
X160987688Y-108963422D01*
X160988889Y-108902250D01*
X161012419Y-108864683D01*
X161476850Y-108400253D01*
X166639500Y-108400253D01*
X166639500Y-110039746D01*
X166639501Y-110039758D01*
X166651132Y-110098227D01*
X166651134Y-110098233D01*
X166684932Y-110148814D01*
X166695448Y-110164552D01*
X166761769Y-110208867D01*
X166806231Y-110217711D01*
X166820241Y-110220498D01*
X166820246Y-110220498D01*
X166820252Y-110220500D01*
X166820253Y-110220500D01*
X168459747Y-110220500D01*
X168459748Y-110220500D01*
X168518231Y-110208867D01*
X168584552Y-110164552D01*
X168628867Y-110098231D01*
X168640500Y-110039748D01*
X168640500Y-109220000D01*
X176694785Y-109220000D01*
X176713603Y-109423083D01*
X176765287Y-109604732D01*
X176769419Y-109619252D01*
X176848735Y-109778542D01*
X176860327Y-109801821D01*
X176983236Y-109964579D01*
X177133959Y-110101981D01*
X177307363Y-110209348D01*
X177497544Y-110283024D01*
X177698024Y-110320500D01*
X177901976Y-110320500D01*
X178102456Y-110283024D01*
X178292637Y-110209348D01*
X178466041Y-110101981D01*
X178616764Y-109964579D01*
X178739673Y-109801821D01*
X178830582Y-109619250D01*
X178886397Y-109423083D01*
X178905215Y-109220000D01*
X179234785Y-109220000D01*
X179253603Y-109423083D01*
X179305287Y-109604732D01*
X179309419Y-109619252D01*
X179388735Y-109778542D01*
X179400327Y-109801821D01*
X179523236Y-109964579D01*
X179673959Y-110101981D01*
X179847363Y-110209348D01*
X180037544Y-110283024D01*
X180238024Y-110320500D01*
X180441976Y-110320500D01*
X180642456Y-110283024D01*
X180832637Y-110209348D01*
X181006041Y-110101981D01*
X181156764Y-109964579D01*
X181279673Y-109801821D01*
X181370582Y-109619250D01*
X181426397Y-109423083D01*
X181445215Y-109220000D01*
X181774785Y-109220000D01*
X181793603Y-109423083D01*
X181845287Y-109604732D01*
X181849419Y-109619252D01*
X181928735Y-109778542D01*
X181940327Y-109801821D01*
X182063236Y-109964579D01*
X182213959Y-110101981D01*
X182387363Y-110209348D01*
X182577544Y-110283024D01*
X182778024Y-110320500D01*
X182981976Y-110320500D01*
X183182456Y-110283024D01*
X183372637Y-110209348D01*
X183546041Y-110101981D01*
X183696764Y-109964579D01*
X183819673Y-109801821D01*
X183910582Y-109619250D01*
X183966397Y-109423083D01*
X183985215Y-109220000D01*
X184314785Y-109220000D01*
X184333603Y-109423083D01*
X184385287Y-109604732D01*
X184389419Y-109619252D01*
X184468735Y-109778542D01*
X184480327Y-109801821D01*
X184603236Y-109964579D01*
X184753959Y-110101981D01*
X184927363Y-110209348D01*
X185117544Y-110283024D01*
X185318024Y-110320500D01*
X185521976Y-110320500D01*
X185722456Y-110283024D01*
X185912637Y-110209348D01*
X186086041Y-110101981D01*
X186236764Y-109964579D01*
X186359673Y-109801821D01*
X186450582Y-109619250D01*
X186506397Y-109423083D01*
X186525215Y-109220000D01*
X186854785Y-109220000D01*
X186873603Y-109423083D01*
X186925287Y-109604732D01*
X186929419Y-109619252D01*
X187008735Y-109778542D01*
X187020327Y-109801821D01*
X187143236Y-109964579D01*
X187293959Y-110101981D01*
X187467363Y-110209348D01*
X187657544Y-110283024D01*
X187858024Y-110320500D01*
X188061976Y-110320500D01*
X188262456Y-110283024D01*
X188452637Y-110209348D01*
X188626041Y-110101981D01*
X188776764Y-109964579D01*
X188899673Y-109801821D01*
X188990582Y-109619250D01*
X189046397Y-109423083D01*
X189065215Y-109220000D01*
X189394785Y-109220000D01*
X189413603Y-109423083D01*
X189465287Y-109604732D01*
X189469419Y-109619252D01*
X189548735Y-109778542D01*
X189560327Y-109801821D01*
X189683236Y-109964579D01*
X189833959Y-110101981D01*
X190007363Y-110209348D01*
X190197544Y-110283024D01*
X190398024Y-110320500D01*
X190601976Y-110320500D01*
X190802456Y-110283024D01*
X190992637Y-110209348D01*
X191166041Y-110101981D01*
X191316764Y-109964579D01*
X191439673Y-109801821D01*
X191530582Y-109619250D01*
X191586397Y-109423083D01*
X191605215Y-109220000D01*
X191934785Y-109220000D01*
X191953603Y-109423083D01*
X192005287Y-109604732D01*
X192009419Y-109619252D01*
X192088735Y-109778542D01*
X192100327Y-109801821D01*
X192223236Y-109964579D01*
X192373959Y-110101981D01*
X192547363Y-110209348D01*
X192737544Y-110283024D01*
X192938024Y-110320500D01*
X193141976Y-110320500D01*
X193342456Y-110283024D01*
X193532637Y-110209348D01*
X193706041Y-110101981D01*
X193856764Y-109964579D01*
X193979673Y-109801821D01*
X194070582Y-109619250D01*
X194126397Y-109423083D01*
X194145215Y-109220000D01*
X194474785Y-109220000D01*
X194493603Y-109423083D01*
X194545287Y-109604732D01*
X194549419Y-109619252D01*
X194628735Y-109778542D01*
X194640327Y-109801821D01*
X194763236Y-109964579D01*
X194913959Y-110101981D01*
X195087363Y-110209348D01*
X195277544Y-110283024D01*
X195478024Y-110320500D01*
X195681976Y-110320500D01*
X195882456Y-110283024D01*
X196072637Y-110209348D01*
X196246041Y-110101981D01*
X196396764Y-109964579D01*
X196519673Y-109801821D01*
X196610582Y-109619250D01*
X196666397Y-109423083D01*
X196685215Y-109220000D01*
X196666397Y-109016917D01*
X196610582Y-108820750D01*
X196519673Y-108638179D01*
X196396764Y-108475421D01*
X196246041Y-108338019D01*
X196185047Y-108300253D01*
X197019500Y-108300253D01*
X197019500Y-110139746D01*
X197019501Y-110139758D01*
X197031132Y-110198227D01*
X197031134Y-110198233D01*
X197075445Y-110264548D01*
X197075448Y-110264552D01*
X197141769Y-110308867D01*
X197186231Y-110317711D01*
X197200241Y-110320498D01*
X197200246Y-110320498D01*
X197200252Y-110320500D01*
X197200253Y-110320500D01*
X199039747Y-110320500D01*
X199039748Y-110320500D01*
X199098231Y-110308867D01*
X199164552Y-110264552D01*
X199208867Y-110198231D01*
X199220500Y-110139748D01*
X199220500Y-108300252D01*
X199208867Y-108241769D01*
X199164552Y-108175448D01*
X199164548Y-108175445D01*
X199098233Y-108131134D01*
X199098231Y-108131133D01*
X199098228Y-108131132D01*
X199098227Y-108131132D01*
X199039758Y-108119501D01*
X199039748Y-108119500D01*
X197200252Y-108119500D01*
X197200251Y-108119500D01*
X197200241Y-108119501D01*
X197141772Y-108131132D01*
X197141766Y-108131134D01*
X197075451Y-108175445D01*
X197075445Y-108175451D01*
X197031134Y-108241766D01*
X197031132Y-108241772D01*
X197019501Y-108300241D01*
X197019500Y-108300253D01*
X196185047Y-108300253D01*
X196072637Y-108230652D01*
X195882456Y-108156976D01*
X195882455Y-108156975D01*
X195882453Y-108156975D01*
X195681976Y-108119500D01*
X195478024Y-108119500D01*
X195277546Y-108156975D01*
X195229862Y-108175448D01*
X195087363Y-108230652D01*
X194913959Y-108338019D01*
X194763237Y-108475420D01*
X194640328Y-108638177D01*
X194640323Y-108638186D01*
X194628731Y-108661467D01*
X194549418Y-108820750D01*
X194493603Y-109016917D01*
X194474785Y-109220000D01*
X194145215Y-109220000D01*
X194126397Y-109016917D01*
X194070582Y-108820750D01*
X193979673Y-108638179D01*
X193856764Y-108475421D01*
X193706041Y-108338019D01*
X193532637Y-108230652D01*
X193342456Y-108156976D01*
X193342455Y-108156975D01*
X193342453Y-108156975D01*
X193141976Y-108119500D01*
X192938024Y-108119500D01*
X192737546Y-108156975D01*
X192689862Y-108175448D01*
X192547363Y-108230652D01*
X192373959Y-108338019D01*
X192223237Y-108475420D01*
X192100328Y-108638177D01*
X192100323Y-108638186D01*
X192088731Y-108661467D01*
X192009418Y-108820750D01*
X191953603Y-109016917D01*
X191934785Y-109220000D01*
X191605215Y-109220000D01*
X191586397Y-109016917D01*
X191530582Y-108820750D01*
X191439673Y-108638179D01*
X191316764Y-108475421D01*
X191166041Y-108338019D01*
X190992637Y-108230652D01*
X190802456Y-108156976D01*
X190802455Y-108156975D01*
X190802453Y-108156975D01*
X190601976Y-108119500D01*
X190398024Y-108119500D01*
X190197546Y-108156975D01*
X190149862Y-108175448D01*
X190007363Y-108230652D01*
X189833959Y-108338019D01*
X189683237Y-108475420D01*
X189560328Y-108638177D01*
X189560323Y-108638186D01*
X189548731Y-108661467D01*
X189469418Y-108820750D01*
X189413603Y-109016917D01*
X189394785Y-109220000D01*
X189065215Y-109220000D01*
X189046397Y-109016917D01*
X188990582Y-108820750D01*
X188899673Y-108638179D01*
X188776764Y-108475421D01*
X188626041Y-108338019D01*
X188452637Y-108230652D01*
X188262456Y-108156976D01*
X188262455Y-108156975D01*
X188262453Y-108156975D01*
X188061976Y-108119500D01*
X187858024Y-108119500D01*
X187657546Y-108156975D01*
X187609862Y-108175448D01*
X187467363Y-108230652D01*
X187293959Y-108338019D01*
X187143237Y-108475420D01*
X187020328Y-108638177D01*
X187020323Y-108638186D01*
X187008731Y-108661467D01*
X186929418Y-108820750D01*
X186873603Y-109016917D01*
X186854785Y-109220000D01*
X186525215Y-109220000D01*
X186506397Y-109016917D01*
X186450582Y-108820750D01*
X186359673Y-108638179D01*
X186236764Y-108475421D01*
X186086041Y-108338019D01*
X185912637Y-108230652D01*
X185722456Y-108156976D01*
X185722455Y-108156975D01*
X185722453Y-108156975D01*
X185521976Y-108119500D01*
X185318024Y-108119500D01*
X185117546Y-108156975D01*
X185069862Y-108175448D01*
X184927363Y-108230652D01*
X184753959Y-108338019D01*
X184603237Y-108475420D01*
X184480328Y-108638177D01*
X184480323Y-108638186D01*
X184468731Y-108661467D01*
X184389418Y-108820750D01*
X184333603Y-109016917D01*
X184314785Y-109220000D01*
X183985215Y-109220000D01*
X183966397Y-109016917D01*
X183910582Y-108820750D01*
X183819673Y-108638179D01*
X183696764Y-108475421D01*
X183546041Y-108338019D01*
X183372637Y-108230652D01*
X183182456Y-108156976D01*
X183182455Y-108156975D01*
X183182453Y-108156975D01*
X182981976Y-108119500D01*
X182778024Y-108119500D01*
X182577546Y-108156975D01*
X182529862Y-108175448D01*
X182387363Y-108230652D01*
X182213959Y-108338019D01*
X182063237Y-108475420D01*
X181940328Y-108638177D01*
X181940323Y-108638186D01*
X181928731Y-108661467D01*
X181849418Y-108820750D01*
X181793603Y-109016917D01*
X181774785Y-109220000D01*
X181445215Y-109220000D01*
X181426397Y-109016917D01*
X181370582Y-108820750D01*
X181279673Y-108638179D01*
X181156764Y-108475421D01*
X181006041Y-108338019D01*
X180832637Y-108230652D01*
X180642456Y-108156976D01*
X180642455Y-108156975D01*
X180642453Y-108156975D01*
X180441976Y-108119500D01*
X180238024Y-108119500D01*
X180037546Y-108156975D01*
X179989862Y-108175448D01*
X179847363Y-108230652D01*
X179673959Y-108338019D01*
X179523237Y-108475420D01*
X179400328Y-108638177D01*
X179400323Y-108638186D01*
X179388731Y-108661467D01*
X179309418Y-108820750D01*
X179253603Y-109016917D01*
X179234785Y-109220000D01*
X178905215Y-109220000D01*
X178886397Y-109016917D01*
X178830582Y-108820750D01*
X178739673Y-108638179D01*
X178616764Y-108475421D01*
X178466041Y-108338019D01*
X178292637Y-108230652D01*
X178102456Y-108156976D01*
X178102455Y-108156975D01*
X178102453Y-108156975D01*
X177901976Y-108119500D01*
X177698024Y-108119500D01*
X177497546Y-108156975D01*
X177449862Y-108175448D01*
X177307363Y-108230652D01*
X177133959Y-108338019D01*
X176983237Y-108475420D01*
X176860328Y-108638177D01*
X176860323Y-108638186D01*
X176848731Y-108661467D01*
X176769418Y-108820750D01*
X176713603Y-109016917D01*
X176694785Y-109220000D01*
X168640500Y-109220000D01*
X168640500Y-108400252D01*
X168628867Y-108341769D01*
X168584552Y-108275448D01*
X168584548Y-108275445D01*
X168518233Y-108231134D01*
X168518231Y-108231133D01*
X168518228Y-108231132D01*
X168518227Y-108231132D01*
X168459758Y-108219501D01*
X168459748Y-108219500D01*
X166820252Y-108219500D01*
X166820251Y-108219500D01*
X166820241Y-108219501D01*
X166761772Y-108231132D01*
X166761766Y-108231134D01*
X166695451Y-108275445D01*
X166695445Y-108275451D01*
X166651134Y-108341766D01*
X166651132Y-108341772D01*
X166639501Y-108400241D01*
X166639500Y-108400253D01*
X161476850Y-108400253D01*
X161760490Y-108116614D01*
X161819799Y-108013887D01*
X161826287Y-107989672D01*
X161826287Y-107989669D01*
X161850500Y-107899309D01*
X161850500Y-106679996D01*
X166634659Y-106679996D01*
X166634659Y-106680003D01*
X166653974Y-106876126D01*
X166653975Y-106876129D01*
X166711187Y-107064730D01*
X166711188Y-107064732D01*
X166782218Y-107197618D01*
X166804090Y-107238538D01*
X166804092Y-107238540D01*
X166804093Y-107238542D01*
X166929112Y-107390878D01*
X166929121Y-107390887D01*
X166972411Y-107426414D01*
X167081462Y-107515910D01*
X167255273Y-107608814D01*
X167443868Y-107666024D01*
X167443870Y-107666024D01*
X167443873Y-107666025D01*
X167639997Y-107685341D01*
X167640000Y-107685341D01*
X167640003Y-107685341D01*
X167836126Y-107666025D01*
X167836127Y-107666024D01*
X167836132Y-107666024D01*
X168024727Y-107608814D01*
X168198538Y-107515910D01*
X168350883Y-107390883D01*
X168475910Y-107238538D01*
X168568814Y-107064727D01*
X168626024Y-106876132D01*
X168645341Y-106680000D01*
X176694785Y-106680000D01*
X176713603Y-106883083D01*
X176765287Y-107064732D01*
X176769419Y-107079252D01*
X176848735Y-107238542D01*
X176860327Y-107261821D01*
X176983236Y-107424579D01*
X177133959Y-107561981D01*
X177307363Y-107669348D01*
X177497544Y-107743024D01*
X177698024Y-107780500D01*
X177901976Y-107780500D01*
X178102456Y-107743024D01*
X178292637Y-107669348D01*
X178466041Y-107561981D01*
X178616764Y-107424579D01*
X178739673Y-107261821D01*
X178830582Y-107079250D01*
X178886397Y-106883083D01*
X178905215Y-106680000D01*
X178886397Y-106476917D01*
X178830582Y-106280750D01*
X178739673Y-106098179D01*
X178616764Y-105935421D01*
X178466041Y-105798019D01*
X178292637Y-105690652D01*
X178102456Y-105616976D01*
X178102455Y-105616975D01*
X178102453Y-105616975D01*
X177901976Y-105579500D01*
X177698024Y-105579500D01*
X177497546Y-105616975D01*
X177478336Y-105624417D01*
X177307363Y-105690652D01*
X177209594Y-105751188D01*
X177133959Y-105798019D01*
X176983237Y-105935420D01*
X176860328Y-106098177D01*
X176860323Y-106098186D01*
X176771760Y-106276046D01*
X176769418Y-106280750D01*
X176713603Y-106476917D01*
X176694785Y-106680000D01*
X168645341Y-106680000D01*
X168645341Y-106679996D01*
X168626025Y-106483873D01*
X168626024Y-106483870D01*
X168626024Y-106483868D01*
X168568814Y-106295273D01*
X168558536Y-106276045D01*
X168546942Y-106254353D01*
X168475910Y-106121462D01*
X168456802Y-106098179D01*
X168350887Y-105969121D01*
X168350878Y-105969112D01*
X168198542Y-105844093D01*
X168198540Y-105844092D01*
X168198538Y-105844090D01*
X168157618Y-105822218D01*
X168024732Y-105751188D01*
X168024730Y-105751187D01*
X167836129Y-105693975D01*
X167836126Y-105693974D01*
X167640003Y-105674659D01*
X167639997Y-105674659D01*
X167443873Y-105693974D01*
X167443870Y-105693975D01*
X167255269Y-105751187D01*
X167255267Y-105751188D01*
X167081467Y-105844087D01*
X167081457Y-105844093D01*
X166929121Y-105969112D01*
X166929112Y-105969121D01*
X166804093Y-106121457D01*
X166804087Y-106121467D01*
X166711188Y-106295267D01*
X166711187Y-106295269D01*
X166653975Y-106483870D01*
X166653974Y-106483873D01*
X166634659Y-106679996D01*
X161850500Y-106679996D01*
X161850500Y-104139996D01*
X166634659Y-104139996D01*
X166634659Y-104140003D01*
X166653974Y-104336126D01*
X166653975Y-104336129D01*
X166711187Y-104524730D01*
X166711188Y-104524732D01*
X166782218Y-104657618D01*
X166804090Y-104698538D01*
X166804092Y-104698540D01*
X166804093Y-104698542D01*
X166929112Y-104850878D01*
X166929121Y-104850887D01*
X166972411Y-104886414D01*
X167081462Y-104975910D01*
X167255273Y-105068814D01*
X167443868Y-105126024D01*
X167443870Y-105126024D01*
X167443873Y-105126025D01*
X167639997Y-105145341D01*
X167640000Y-105145341D01*
X167640003Y-105145341D01*
X167836126Y-105126025D01*
X167836127Y-105126024D01*
X167836132Y-105126024D01*
X168024727Y-105068814D01*
X168198538Y-104975910D01*
X168350883Y-104850883D01*
X168475910Y-104698538D01*
X168568814Y-104524727D01*
X168626024Y-104336132D01*
X168645341Y-104140000D01*
X176694785Y-104140000D01*
X176713603Y-104343083D01*
X176765287Y-104524732D01*
X176769419Y-104539252D01*
X176848735Y-104698542D01*
X176860327Y-104721821D01*
X176983236Y-104884579D01*
X177133959Y-105021981D01*
X177307363Y-105129348D01*
X177497544Y-105203024D01*
X177698024Y-105240500D01*
X177901976Y-105240500D01*
X178102456Y-105203024D01*
X178292637Y-105129348D01*
X178466041Y-105021981D01*
X178616764Y-104884579D01*
X178739673Y-104721821D01*
X178830582Y-104539250D01*
X178886397Y-104343083D01*
X178905215Y-104140000D01*
X178886397Y-103936917D01*
X178830582Y-103740750D01*
X178739673Y-103558179D01*
X178616764Y-103395421D01*
X178466041Y-103258019D01*
X178292637Y-103150652D01*
X178102456Y-103076976D01*
X178102455Y-103076975D01*
X178102453Y-103076975D01*
X177901976Y-103039500D01*
X177698024Y-103039500D01*
X177497546Y-103076975D01*
X177478336Y-103084417D01*
X177307363Y-103150652D01*
X177209594Y-103211188D01*
X177133959Y-103258019D01*
X176983237Y-103395420D01*
X176860328Y-103558177D01*
X176860323Y-103558186D01*
X176771760Y-103736046D01*
X176769418Y-103740750D01*
X176713603Y-103936917D01*
X176694785Y-104140000D01*
X168645341Y-104140000D01*
X168645341Y-104139996D01*
X168626025Y-103943873D01*
X168626024Y-103943870D01*
X168626024Y-103943868D01*
X168568814Y-103755273D01*
X168558536Y-103736045D01*
X168546942Y-103714353D01*
X168475910Y-103581462D01*
X168456802Y-103558179D01*
X168350887Y-103429121D01*
X168350878Y-103429112D01*
X168198542Y-103304093D01*
X168198540Y-103304092D01*
X168198538Y-103304090D01*
X168157618Y-103282218D01*
X168024732Y-103211188D01*
X168024730Y-103211187D01*
X167836129Y-103153975D01*
X167836126Y-103153974D01*
X167640003Y-103134659D01*
X167639997Y-103134659D01*
X167443873Y-103153974D01*
X167443870Y-103153975D01*
X167255269Y-103211187D01*
X167255267Y-103211188D01*
X167081467Y-103304087D01*
X167081457Y-103304093D01*
X166929121Y-103429112D01*
X166929112Y-103429121D01*
X166804093Y-103581457D01*
X166804087Y-103581467D01*
X166711188Y-103755267D01*
X166711187Y-103755269D01*
X166653975Y-103943870D01*
X166653974Y-103943873D01*
X166634659Y-104139996D01*
X161850500Y-104139996D01*
X161850500Y-101599996D01*
X166634659Y-101599996D01*
X166634659Y-101600003D01*
X166653974Y-101796126D01*
X166653975Y-101796129D01*
X166711187Y-101984730D01*
X166711188Y-101984732D01*
X166754587Y-102065925D01*
X166804090Y-102158538D01*
X166804092Y-102158540D01*
X166804093Y-102158542D01*
X166929112Y-102310878D01*
X166929121Y-102310887D01*
X166970175Y-102344579D01*
X167081462Y-102435910D01*
X167255273Y-102528814D01*
X167443868Y-102586024D01*
X167443870Y-102586024D01*
X167443873Y-102586025D01*
X167639997Y-102605341D01*
X167640000Y-102605341D01*
X167640003Y-102605341D01*
X167836126Y-102586025D01*
X167836127Y-102586024D01*
X167836132Y-102586024D01*
X168024727Y-102528814D01*
X168198538Y-102435910D01*
X168350883Y-102310883D01*
X168475910Y-102158538D01*
X168568814Y-101984727D01*
X168626024Y-101796132D01*
X168626334Y-101792993D01*
X168645341Y-101600003D01*
X168645341Y-101600000D01*
X176694785Y-101600000D01*
X176713603Y-101803083D01*
X176765287Y-101984732D01*
X176769419Y-101999252D01*
X176848735Y-102158542D01*
X176860327Y-102181821D01*
X176983236Y-102344579D01*
X177133959Y-102481981D01*
X177307363Y-102589348D01*
X177497544Y-102663024D01*
X177698024Y-102700500D01*
X177901976Y-102700500D01*
X178102456Y-102663024D01*
X178292637Y-102589348D01*
X178466041Y-102481981D01*
X178616764Y-102344579D01*
X178739673Y-102181821D01*
X178830582Y-101999250D01*
X178886397Y-101803083D01*
X178905215Y-101600000D01*
X178886397Y-101396917D01*
X178830582Y-101200750D01*
X178739673Y-101018179D01*
X178616764Y-100855421D01*
X178466041Y-100718019D01*
X178292637Y-100610652D01*
X178102456Y-100536976D01*
X178102455Y-100536975D01*
X178102453Y-100536975D01*
X177901976Y-100499500D01*
X177698024Y-100499500D01*
X177497546Y-100536975D01*
X177463925Y-100550000D01*
X177307363Y-100610652D01*
X177133959Y-100718019D01*
X176983237Y-100855420D01*
X176860328Y-101018177D01*
X176860323Y-101018186D01*
X176769791Y-101200000D01*
X176769418Y-101200750D01*
X176713603Y-101396917D01*
X176694785Y-101600000D01*
X168645341Y-101600000D01*
X168645341Y-101599996D01*
X168626025Y-101403873D01*
X168626024Y-101403870D01*
X168626024Y-101403868D01*
X168568814Y-101215273D01*
X168560650Y-101200000D01*
X168476062Y-101041747D01*
X168475910Y-101041462D01*
X168456802Y-101018179D01*
X168350887Y-100889121D01*
X168350878Y-100889112D01*
X168198542Y-100764093D01*
X168198540Y-100764092D01*
X168198538Y-100764090D01*
X168135320Y-100730299D01*
X168024732Y-100671188D01*
X168024730Y-100671187D01*
X167836129Y-100613975D01*
X167836126Y-100613974D01*
X167640003Y-100594659D01*
X167639997Y-100594659D01*
X167443873Y-100613974D01*
X167443870Y-100613975D01*
X167255269Y-100671187D01*
X167255267Y-100671188D01*
X167081467Y-100764087D01*
X167081457Y-100764093D01*
X166929121Y-100889112D01*
X166929112Y-100889121D01*
X166804093Y-101041457D01*
X166804087Y-101041467D01*
X166711188Y-101215267D01*
X166711187Y-101215269D01*
X166653975Y-101403870D01*
X166653974Y-101403873D01*
X166634659Y-101599996D01*
X161850500Y-101599996D01*
X161850500Y-99949500D01*
X161869407Y-99891309D01*
X161918907Y-99855345D01*
X161949500Y-99850500D01*
X168248309Y-99850500D01*
X168338669Y-99826287D01*
X168338672Y-99826287D01*
X168351903Y-99822741D01*
X168362887Y-99819799D01*
X168465614Y-99760489D01*
X169166103Y-99060000D01*
X176694785Y-99060000D01*
X176713603Y-99263083D01*
X176769418Y-99459250D01*
X176860327Y-99641821D01*
X176983236Y-99804579D01*
X177133959Y-99941981D01*
X177307363Y-100049348D01*
X177497544Y-100123024D01*
X177698024Y-100160500D01*
X177901976Y-100160500D01*
X178102456Y-100123024D01*
X178292637Y-100049348D01*
X178466041Y-99941981D01*
X178616764Y-99804579D01*
X178739673Y-99641821D01*
X178830582Y-99459250D01*
X178886397Y-99263083D01*
X178905215Y-99060000D01*
X178886397Y-98856917D01*
X178830582Y-98660750D01*
X178739673Y-98478179D01*
X178616764Y-98315421D01*
X178466041Y-98178019D01*
X178292637Y-98070652D01*
X178102456Y-97996976D01*
X178102455Y-97996975D01*
X178102453Y-97996975D01*
X177901976Y-97959500D01*
X177698024Y-97959500D01*
X177497546Y-97996975D01*
X177427632Y-98024059D01*
X177307363Y-98070652D01*
X177147438Y-98169673D01*
X177133959Y-98178019D01*
X176983237Y-98315420D01*
X176860328Y-98478177D01*
X176860323Y-98478186D01*
X176769419Y-98660747D01*
X176769418Y-98660750D01*
X176713603Y-98856917D01*
X176694785Y-99060000D01*
X169166103Y-99060000D01*
X171706103Y-96520000D01*
X176694785Y-96520000D01*
X176713603Y-96723083D01*
X176765287Y-96904732D01*
X176769419Y-96919252D01*
X176848735Y-97078542D01*
X176860327Y-97101821D01*
X176983236Y-97264579D01*
X177133959Y-97401981D01*
X177307363Y-97509348D01*
X177497544Y-97583024D01*
X177698024Y-97620500D01*
X177901976Y-97620500D01*
X178102456Y-97583024D01*
X178292637Y-97509348D01*
X178466041Y-97401981D01*
X178616764Y-97264579D01*
X178739673Y-97101821D01*
X178830582Y-96919250D01*
X178886397Y-96723083D01*
X178905215Y-96520000D01*
X178886397Y-96316917D01*
X178830582Y-96120750D01*
X178739673Y-95938179D01*
X178616764Y-95775421D01*
X178466041Y-95638019D01*
X178292637Y-95530652D01*
X178102456Y-95456976D01*
X178102455Y-95456975D01*
X178102453Y-95456975D01*
X177901976Y-95419500D01*
X177698024Y-95419500D01*
X177497546Y-95456975D01*
X177465213Y-95469501D01*
X177307363Y-95530652D01*
X177208651Y-95591772D01*
X177133959Y-95638019D01*
X176983237Y-95775420D01*
X176860328Y-95938177D01*
X176860323Y-95938186D01*
X176771760Y-96116046D01*
X176769418Y-96120750D01*
X176713603Y-96316917D01*
X176694785Y-96520000D01*
X171706103Y-96520000D01*
X174246103Y-93980000D01*
X176694785Y-93980000D01*
X176713603Y-94183083D01*
X176769418Y-94379250D01*
X176860327Y-94561821D01*
X176983236Y-94724579D01*
X177133959Y-94861981D01*
X177307363Y-94969348D01*
X177497544Y-95043024D01*
X177698024Y-95080500D01*
X177901976Y-95080500D01*
X178102456Y-95043024D01*
X178292637Y-94969348D01*
X178466041Y-94861981D01*
X178616764Y-94724579D01*
X178739673Y-94561821D01*
X178830582Y-94379250D01*
X178886397Y-94183083D01*
X178905215Y-93980000D01*
X179234785Y-93980000D01*
X179253603Y-94183083D01*
X179309418Y-94379250D01*
X179400327Y-94561821D01*
X179523236Y-94724579D01*
X179673959Y-94861981D01*
X179847363Y-94969348D01*
X180037544Y-95043024D01*
X180238024Y-95080500D01*
X180441976Y-95080500D01*
X180642456Y-95043024D01*
X180832637Y-94969348D01*
X181006041Y-94861981D01*
X181156764Y-94724579D01*
X181279673Y-94561821D01*
X181370582Y-94379250D01*
X181426397Y-94183083D01*
X181445215Y-93980000D01*
X181774785Y-93980000D01*
X181793603Y-94183083D01*
X181849418Y-94379250D01*
X181940327Y-94561821D01*
X182063236Y-94724579D01*
X182213959Y-94861981D01*
X182387363Y-94969348D01*
X182577544Y-95043024D01*
X182778024Y-95080500D01*
X182981976Y-95080500D01*
X183182456Y-95043024D01*
X183372637Y-94969348D01*
X183546041Y-94861981D01*
X183696764Y-94724579D01*
X183819673Y-94561821D01*
X183910582Y-94379250D01*
X183966397Y-94183083D01*
X183985215Y-93980000D01*
X184314785Y-93980000D01*
X184333603Y-94183083D01*
X184389418Y-94379250D01*
X184480327Y-94561821D01*
X184603236Y-94724579D01*
X184753959Y-94861981D01*
X184927363Y-94969348D01*
X185117544Y-95043024D01*
X185318024Y-95080500D01*
X185521976Y-95080500D01*
X185722456Y-95043024D01*
X185912637Y-94969348D01*
X186086041Y-94861981D01*
X186236764Y-94724579D01*
X186359673Y-94561821D01*
X186450582Y-94379250D01*
X186506397Y-94183083D01*
X186525215Y-93980000D01*
X186854785Y-93980000D01*
X186873603Y-94183083D01*
X186929418Y-94379250D01*
X187020327Y-94561821D01*
X187143236Y-94724579D01*
X187293959Y-94861981D01*
X187467363Y-94969348D01*
X187657544Y-95043024D01*
X187858024Y-95080500D01*
X188061976Y-95080500D01*
X188262456Y-95043024D01*
X188452637Y-94969348D01*
X188626041Y-94861981D01*
X188776764Y-94724579D01*
X188899673Y-94561821D01*
X188990582Y-94379250D01*
X189046397Y-94183083D01*
X189065215Y-93980000D01*
X189394785Y-93980000D01*
X189413603Y-94183083D01*
X189469418Y-94379250D01*
X189560327Y-94561821D01*
X189683236Y-94724579D01*
X189833959Y-94861981D01*
X190007363Y-94969348D01*
X190197544Y-95043024D01*
X190398024Y-95080500D01*
X190601976Y-95080500D01*
X190802456Y-95043024D01*
X190992637Y-94969348D01*
X191166041Y-94861981D01*
X191316764Y-94724579D01*
X191439673Y-94561821D01*
X191530582Y-94379250D01*
X191586397Y-94183083D01*
X191605215Y-93980000D01*
X191934785Y-93980000D01*
X191953603Y-94183083D01*
X192009418Y-94379250D01*
X192100327Y-94561821D01*
X192223236Y-94724579D01*
X192373959Y-94861981D01*
X192547363Y-94969348D01*
X192737544Y-95043024D01*
X192938024Y-95080500D01*
X193141976Y-95080500D01*
X193342456Y-95043024D01*
X193532637Y-94969348D01*
X193706041Y-94861981D01*
X193856764Y-94724579D01*
X193979673Y-94561821D01*
X194070582Y-94379250D01*
X194126397Y-94183083D01*
X194145215Y-93980000D01*
X194475287Y-93980000D01*
X194494097Y-94182989D01*
X194549887Y-94379070D01*
X194640751Y-94561551D01*
X194642532Y-94563911D01*
X195097036Y-94109406D01*
X195114075Y-94172993D01*
X195179901Y-94287007D01*
X195272993Y-94380099D01*
X195387007Y-94445925D01*
X195450590Y-94462962D01*
X194999312Y-94914241D01*
X195087581Y-94968895D01*
X195087586Y-94968898D01*
X195277683Y-95042541D01*
X195478070Y-95080000D01*
X195681930Y-95080000D01*
X195882316Y-95042541D01*
X196072415Y-94968897D01*
X196072416Y-94968897D01*
X196160686Y-94914241D01*
X195709407Y-94462962D01*
X195772993Y-94445925D01*
X195887007Y-94380099D01*
X195980099Y-94287007D01*
X196045925Y-94172993D01*
X196062962Y-94109407D01*
X196517466Y-94563911D01*
X196519245Y-94561556D01*
X196519249Y-94561549D01*
X196610112Y-94379070D01*
X196665902Y-94182989D01*
X196684712Y-93980000D01*
X196665902Y-93777010D01*
X196610112Y-93580929D01*
X196519249Y-93398450D01*
X196519244Y-93398441D01*
X196517466Y-93396087D01*
X196062962Y-93850590D01*
X196045925Y-93787007D01*
X195980099Y-93672993D01*
X195887007Y-93579901D01*
X195772993Y-93514075D01*
X195709406Y-93497036D01*
X196160686Y-93045757D01*
X196072418Y-92991104D01*
X196072413Y-92991101D01*
X195882316Y-92917458D01*
X195681930Y-92880000D01*
X195478070Y-92880000D01*
X195277683Y-92917458D01*
X195087586Y-92991101D01*
X195087584Y-92991102D01*
X194999312Y-93045757D01*
X195450592Y-93497037D01*
X195387007Y-93514075D01*
X195272993Y-93579901D01*
X195179901Y-93672993D01*
X195114075Y-93787007D01*
X195097037Y-93850591D01*
X194642533Y-93396087D01*
X194640753Y-93398445D01*
X194640750Y-93398449D01*
X194549887Y-93580929D01*
X194494097Y-93777010D01*
X194475287Y-93980000D01*
X194145215Y-93980000D01*
X194126397Y-93776917D01*
X194070582Y-93580750D01*
X193979673Y-93398179D01*
X193856764Y-93235421D01*
X193706041Y-93098019D01*
X193532637Y-92990652D01*
X193342456Y-92916976D01*
X193342455Y-92916975D01*
X193342453Y-92916975D01*
X193141976Y-92879500D01*
X192938024Y-92879500D01*
X192737546Y-92916975D01*
X192699960Y-92931536D01*
X192547363Y-92990652D01*
X192373959Y-93098019D01*
X192223237Y-93235420D01*
X192100328Y-93398177D01*
X192100323Y-93398186D01*
X192009419Y-93580747D01*
X192009418Y-93580750D01*
X191953603Y-93776917D01*
X191934785Y-93980000D01*
X191605215Y-93980000D01*
X191586397Y-93776917D01*
X191530582Y-93580750D01*
X191439673Y-93398179D01*
X191316764Y-93235421D01*
X191166041Y-93098019D01*
X190992637Y-92990652D01*
X190802456Y-92916976D01*
X190802455Y-92916975D01*
X190802453Y-92916975D01*
X190601976Y-92879500D01*
X190398024Y-92879500D01*
X190197546Y-92916975D01*
X190159960Y-92931536D01*
X190007363Y-92990652D01*
X189833959Y-93098019D01*
X189683237Y-93235420D01*
X189560328Y-93398177D01*
X189560323Y-93398186D01*
X189469419Y-93580747D01*
X189469418Y-93580750D01*
X189413603Y-93776917D01*
X189394785Y-93980000D01*
X189065215Y-93980000D01*
X189046397Y-93776917D01*
X188990582Y-93580750D01*
X188899673Y-93398179D01*
X188776764Y-93235421D01*
X188626041Y-93098019D01*
X188452637Y-92990652D01*
X188262456Y-92916976D01*
X188262455Y-92916975D01*
X188262453Y-92916975D01*
X188061976Y-92879500D01*
X187858024Y-92879500D01*
X187657546Y-92916975D01*
X187619960Y-92931536D01*
X187467363Y-92990652D01*
X187293959Y-93098019D01*
X187143237Y-93235420D01*
X187020328Y-93398177D01*
X187020323Y-93398186D01*
X186929419Y-93580747D01*
X186929418Y-93580750D01*
X186873603Y-93776917D01*
X186854785Y-93980000D01*
X186525215Y-93980000D01*
X186506397Y-93776917D01*
X186450582Y-93580750D01*
X186359673Y-93398179D01*
X186236764Y-93235421D01*
X186086041Y-93098019D01*
X185912637Y-92990652D01*
X185722456Y-92916976D01*
X185722455Y-92916975D01*
X185722453Y-92916975D01*
X185521976Y-92879500D01*
X185318024Y-92879500D01*
X185117546Y-92916975D01*
X185079960Y-92931536D01*
X184927363Y-92990652D01*
X184753959Y-93098019D01*
X184603237Y-93235420D01*
X184480328Y-93398177D01*
X184480323Y-93398186D01*
X184389419Y-93580747D01*
X184389418Y-93580750D01*
X184333603Y-93776917D01*
X184314785Y-93980000D01*
X183985215Y-93980000D01*
X183966397Y-93776917D01*
X183910582Y-93580750D01*
X183819673Y-93398179D01*
X183696764Y-93235421D01*
X183546041Y-93098019D01*
X183372637Y-92990652D01*
X183182456Y-92916976D01*
X183182455Y-92916975D01*
X183182453Y-92916975D01*
X182981976Y-92879500D01*
X182778024Y-92879500D01*
X182577546Y-92916975D01*
X182539960Y-92931536D01*
X182387363Y-92990652D01*
X182213959Y-93098019D01*
X182063237Y-93235420D01*
X181940328Y-93398177D01*
X181940323Y-93398186D01*
X181849419Y-93580747D01*
X181849418Y-93580750D01*
X181793603Y-93776917D01*
X181774785Y-93980000D01*
X181445215Y-93980000D01*
X181426397Y-93776917D01*
X181370582Y-93580750D01*
X181279673Y-93398179D01*
X181156764Y-93235421D01*
X181006041Y-93098019D01*
X180832637Y-92990652D01*
X180642456Y-92916976D01*
X180642455Y-92916975D01*
X180642453Y-92916975D01*
X180441976Y-92879500D01*
X180238024Y-92879500D01*
X180037546Y-92916975D01*
X179999960Y-92931536D01*
X179847363Y-92990652D01*
X179673959Y-93098019D01*
X179523237Y-93235420D01*
X179400328Y-93398177D01*
X179400323Y-93398186D01*
X179309419Y-93580747D01*
X179309418Y-93580750D01*
X179253603Y-93776917D01*
X179234785Y-93980000D01*
X178905215Y-93980000D01*
X178886397Y-93776917D01*
X178830582Y-93580750D01*
X178739673Y-93398179D01*
X178616764Y-93235421D01*
X178466041Y-93098019D01*
X178292637Y-92990652D01*
X178102456Y-92916976D01*
X178102455Y-92916975D01*
X178102453Y-92916975D01*
X177901976Y-92879500D01*
X177698024Y-92879500D01*
X177497546Y-92916975D01*
X177459960Y-92931536D01*
X177307363Y-92990652D01*
X177133959Y-93098019D01*
X176983237Y-93235420D01*
X176860328Y-93398177D01*
X176860323Y-93398186D01*
X176769419Y-93580747D01*
X176769418Y-93580750D01*
X176713603Y-93776917D01*
X176694785Y-93980000D01*
X174246103Y-93980000D01*
X176306607Y-91919496D01*
X176361124Y-91891719D01*
X176376611Y-91890500D01*
X195352389Y-91890500D01*
X195410580Y-91909407D01*
X195422393Y-91919496D01*
X195944026Y-92441130D01*
X195944032Y-92441135D01*
X197047000Y-93544104D01*
X197074777Y-93598621D01*
X197072217Y-93641200D01*
X197033603Y-93776915D01*
X197014785Y-93979999D01*
X197014785Y-93980000D01*
X197033603Y-94183083D01*
X197089418Y-94379250D01*
X197180327Y-94561821D01*
X197303236Y-94724579D01*
X197453959Y-94861981D01*
X197627363Y-94969348D01*
X197817544Y-95043024D01*
X198018024Y-95080500D01*
X198221976Y-95080500D01*
X198422456Y-95043024D01*
X198612637Y-94969348D01*
X198786041Y-94861981D01*
X198936764Y-94724579D01*
X199059673Y-94561821D01*
X199150582Y-94379250D01*
X199206397Y-94183083D01*
X199225215Y-93980000D01*
X199206397Y-93776917D01*
X199150582Y-93580750D01*
X199059673Y-93398179D01*
X198936764Y-93235421D01*
X198786041Y-93098019D01*
X198612637Y-92990652D01*
X198422456Y-92916976D01*
X198422455Y-92916975D01*
X198422453Y-92916975D01*
X198221976Y-92879500D01*
X198018024Y-92879500D01*
X197817552Y-92916974D01*
X197817546Y-92916975D01*
X197817544Y-92916976D01*
X197817542Y-92916976D01*
X197817541Y-92916977D01*
X197788704Y-92928148D01*
X197727612Y-92931536D01*
X197682940Y-92905836D01*
X196575491Y-91798388D01*
X196575490Y-91798386D01*
X196287104Y-91510000D01*
X196259329Y-91455486D01*
X196268900Y-91395054D01*
X196287103Y-91369998D01*
X197727607Y-89929496D01*
X197782124Y-89901719D01*
X197797611Y-89900500D01*
X198939747Y-89900500D01*
X198939748Y-89900500D01*
X198998231Y-89888867D01*
X199064552Y-89844552D01*
X199108867Y-89778231D01*
X199120500Y-89719748D01*
X199120500Y-88080252D01*
X199108867Y-88021769D01*
X199064552Y-87955448D01*
X199064548Y-87955445D01*
X198998233Y-87911134D01*
X198998231Y-87911133D01*
X198998228Y-87911132D01*
X198998227Y-87911132D01*
X198939758Y-87899501D01*
X198939748Y-87899500D01*
X197300252Y-87899500D01*
X197300251Y-87899500D01*
X197300241Y-87899501D01*
X197241772Y-87911132D01*
X197241766Y-87911134D01*
X197175451Y-87955445D01*
X197175445Y-87955451D01*
X197131134Y-88021766D01*
X197131132Y-88021772D01*
X197119501Y-88080241D01*
X197119500Y-88080253D01*
X197119500Y-89222389D01*
X197100593Y-89280580D01*
X197090504Y-89292393D01*
X195422393Y-90960504D01*
X195367876Y-90988281D01*
X195352389Y-90989500D01*
X176089691Y-90989500D01*
X176044508Y-91001606D01*
X175999325Y-91013713D01*
X175999324Y-91013712D01*
X175975112Y-91020201D01*
X175975109Y-91020202D01*
X175872390Y-91079507D01*
X168031393Y-98920504D01*
X167976876Y-98948281D01*
X167961389Y-98949500D01*
X161627612Y-98949500D01*
X161569421Y-98930593D01*
X161557608Y-98920504D01*
X160499496Y-97862392D01*
X160471719Y-97807875D01*
X160470500Y-97792388D01*
X160470500Y-95650253D01*
X161509500Y-95650253D01*
X161509500Y-97389746D01*
X161509501Y-97389758D01*
X161521132Y-97448227D01*
X161521134Y-97448233D01*
X161565445Y-97514548D01*
X161565448Y-97514552D01*
X161631769Y-97558867D01*
X161676231Y-97567711D01*
X161690241Y-97570498D01*
X161690246Y-97570498D01*
X161690252Y-97570500D01*
X161690253Y-97570500D01*
X163429747Y-97570500D01*
X163429748Y-97570500D01*
X163488231Y-97558867D01*
X163554552Y-97514552D01*
X163598867Y-97448231D01*
X163610500Y-97389748D01*
X163610500Y-96519996D01*
X164044417Y-96519996D01*
X164044417Y-96520003D01*
X164064698Y-96725929D01*
X164064699Y-96725934D01*
X164124768Y-96923954D01*
X164222316Y-97106452D01*
X164324430Y-97230878D01*
X164353590Y-97266410D01*
X164353595Y-97266414D01*
X164513547Y-97397683D01*
X164513548Y-97397683D01*
X164513550Y-97397685D01*
X164696046Y-97495232D01*
X164833997Y-97537078D01*
X164894065Y-97555300D01*
X164894070Y-97555301D01*
X165099997Y-97575583D01*
X165100000Y-97575583D01*
X165100003Y-97575583D01*
X165305929Y-97555301D01*
X165305934Y-97555300D01*
X165503954Y-97495232D01*
X165686450Y-97397685D01*
X165846410Y-97266410D01*
X165977685Y-97106450D01*
X166075232Y-96923954D01*
X166135300Y-96725934D01*
X166135301Y-96725929D01*
X166155583Y-96520003D01*
X166155583Y-96519996D01*
X166135301Y-96314070D01*
X166135300Y-96314065D01*
X166081063Y-96135269D01*
X166075232Y-96116046D01*
X165977685Y-95933550D01*
X165846410Y-95773590D01*
X165846404Y-95773585D01*
X165686452Y-95642316D01*
X165503954Y-95544768D01*
X165305934Y-95484699D01*
X165305929Y-95484698D01*
X165100003Y-95464417D01*
X165099997Y-95464417D01*
X164894070Y-95484698D01*
X164894065Y-95484699D01*
X164696045Y-95544768D01*
X164513547Y-95642316D01*
X164353595Y-95773585D01*
X164353585Y-95773595D01*
X164222316Y-95933547D01*
X164124768Y-96116045D01*
X164064699Y-96314065D01*
X164064698Y-96314070D01*
X164044417Y-96519996D01*
X163610500Y-96519996D01*
X163610500Y-95650252D01*
X163608921Y-95642316D01*
X163607711Y-95636231D01*
X163598867Y-95591769D01*
X163554552Y-95525448D01*
X163554548Y-95525445D01*
X163488233Y-95481134D01*
X163488231Y-95481133D01*
X163488228Y-95481132D01*
X163488227Y-95481132D01*
X163429758Y-95469501D01*
X163429748Y-95469500D01*
X161690252Y-95469500D01*
X161690251Y-95469500D01*
X161690241Y-95469501D01*
X161631772Y-95481132D01*
X161631766Y-95481134D01*
X161565451Y-95525445D01*
X161565445Y-95525451D01*
X161521134Y-95591766D01*
X161521132Y-95591772D01*
X161509501Y-95650241D01*
X161509500Y-95650253D01*
X160470500Y-95650253D01*
X160470500Y-89852995D01*
X160489407Y-89794804D01*
X160522830Y-89765685D01*
X160578538Y-89735910D01*
X160730883Y-89610883D01*
X160855910Y-89458538D01*
X160948814Y-89284727D01*
X161006024Y-89096132D01*
X161006035Y-89096029D01*
X161025341Y-88900003D01*
X161025341Y-88899996D01*
X161006025Y-88703873D01*
X161006024Y-88703870D01*
X161006024Y-88703868D01*
X160948814Y-88515273D01*
X160940650Y-88500000D01*
X160882643Y-88391476D01*
X160855910Y-88341462D01*
X160855906Y-88341457D01*
X160730887Y-88189121D01*
X160730878Y-88189112D01*
X160598233Y-88080253D01*
X166639500Y-88080253D01*
X166639500Y-89719746D01*
X166639501Y-89719758D01*
X166651132Y-89778227D01*
X166651134Y-89778233D01*
X166684620Y-89828347D01*
X166695448Y-89844552D01*
X166761769Y-89888867D01*
X166806231Y-89897711D01*
X166820241Y-89900498D01*
X166820246Y-89900498D01*
X166820252Y-89900500D01*
X166820253Y-89900500D01*
X168459747Y-89900500D01*
X168459748Y-89900500D01*
X168518231Y-89888867D01*
X168584552Y-89844552D01*
X168628867Y-89778231D01*
X168640500Y-89719748D01*
X168640500Y-88899996D01*
X194615161Y-88899996D01*
X194615161Y-88900003D01*
X194634467Y-89096029D01*
X194634468Y-89096034D01*
X194691650Y-89284535D01*
X194691652Y-89284540D01*
X194757921Y-89408523D01*
X195220000Y-88946444D01*
X195220000Y-88952661D01*
X195247259Y-89054394D01*
X195299920Y-89145606D01*
X195374394Y-89220080D01*
X195465606Y-89272741D01*
X195567339Y-89300000D01*
X195573553Y-89300000D01*
X195111476Y-89762077D01*
X195235459Y-89828347D01*
X195235464Y-89828349D01*
X195423965Y-89885531D01*
X195423970Y-89885532D01*
X195619997Y-89904839D01*
X195620003Y-89904839D01*
X195816029Y-89885532D01*
X195816034Y-89885531D01*
X196004535Y-89828349D01*
X196004540Y-89828347D01*
X196128522Y-89762077D01*
X195666445Y-89300000D01*
X195672661Y-89300000D01*
X195774394Y-89272741D01*
X195865606Y-89220080D01*
X195940080Y-89145606D01*
X195992741Y-89054394D01*
X196020000Y-88952661D01*
X196020000Y-88946445D01*
X196482077Y-89408522D01*
X196548347Y-89284540D01*
X196548349Y-89284535D01*
X196605531Y-89096034D01*
X196605532Y-89096029D01*
X196624839Y-88900003D01*
X196624839Y-88899996D01*
X196605532Y-88703970D01*
X196605531Y-88703965D01*
X196548349Y-88515464D01*
X196548347Y-88515459D01*
X196482077Y-88391476D01*
X196020000Y-88853553D01*
X196020000Y-88847339D01*
X195992741Y-88745606D01*
X195940080Y-88654394D01*
X195865606Y-88579920D01*
X195774394Y-88527259D01*
X195672661Y-88500000D01*
X195666444Y-88500000D01*
X196128523Y-88037921D01*
X196004540Y-87971652D01*
X196004535Y-87971650D01*
X195816034Y-87914468D01*
X195816029Y-87914467D01*
X195620003Y-87895161D01*
X195619997Y-87895161D01*
X195423970Y-87914467D01*
X195423965Y-87914468D01*
X195235472Y-87971648D01*
X195235460Y-87971652D01*
X195111476Y-88037922D01*
X195573554Y-88500000D01*
X195567339Y-88500000D01*
X195465606Y-88527259D01*
X195374394Y-88579920D01*
X195299920Y-88654394D01*
X195247259Y-88745606D01*
X195220000Y-88847339D01*
X195220000Y-88853554D01*
X194757922Y-88391476D01*
X194691652Y-88515460D01*
X194691648Y-88515472D01*
X194634468Y-88703965D01*
X194634467Y-88703970D01*
X194615161Y-88899996D01*
X168640500Y-88899996D01*
X168640500Y-88080252D01*
X168628867Y-88021769D01*
X168584552Y-87955448D01*
X168584548Y-87955445D01*
X168518233Y-87911134D01*
X168518231Y-87911133D01*
X168518228Y-87911132D01*
X168518227Y-87911132D01*
X168459758Y-87899501D01*
X168459748Y-87899500D01*
X166820252Y-87899500D01*
X166820251Y-87899500D01*
X166820241Y-87899501D01*
X166761772Y-87911132D01*
X166761766Y-87911134D01*
X166695451Y-87955445D01*
X166695445Y-87955451D01*
X166651134Y-88021766D01*
X166651132Y-88021772D01*
X166639501Y-88080241D01*
X166639500Y-88080253D01*
X160598233Y-88080253D01*
X160578542Y-88064093D01*
X160578540Y-88064092D01*
X160578538Y-88064090D01*
X160499361Y-88021769D01*
X160404732Y-87971188D01*
X160404730Y-87971187D01*
X160216129Y-87913975D01*
X160216126Y-87913974D01*
X160020003Y-87894659D01*
X160019997Y-87894659D01*
X159823873Y-87913974D01*
X159823870Y-87913975D01*
X159635269Y-87971187D01*
X159635267Y-87971188D01*
X159461467Y-88064087D01*
X159461457Y-88064093D01*
X159309121Y-88189112D01*
X159309112Y-88189121D01*
X159184093Y-88341457D01*
X159184087Y-88341467D01*
X159091188Y-88515267D01*
X159091187Y-88515269D01*
X159033975Y-88703870D01*
X159033974Y-88703873D01*
X159014659Y-88899996D01*
X148500500Y-88899996D01*
X148500500Y-86359996D01*
X151344417Y-86359996D01*
X151344417Y-86360003D01*
X151364698Y-86565929D01*
X151364699Y-86565934D01*
X151424768Y-86763954D01*
X151522316Y-86946452D01*
X151624430Y-87070878D01*
X151653590Y-87106410D01*
X151653595Y-87106414D01*
X151813547Y-87237683D01*
X151813548Y-87237683D01*
X151813550Y-87237685D01*
X151996046Y-87335232D01*
X152133997Y-87377078D01*
X152194065Y-87395300D01*
X152194070Y-87395301D01*
X152399997Y-87415583D01*
X152400000Y-87415583D01*
X152400003Y-87415583D01*
X152605929Y-87395301D01*
X152605934Y-87395300D01*
X152803954Y-87335232D01*
X152986450Y-87237685D01*
X153146410Y-87106410D01*
X153277685Y-86946450D01*
X153375232Y-86763954D01*
X153435300Y-86565934D01*
X153435301Y-86565929D01*
X153455583Y-86360003D01*
X153455583Y-86359996D01*
X156474659Y-86359996D01*
X156474659Y-86360003D01*
X156493974Y-86556126D01*
X156493975Y-86556129D01*
X156551187Y-86744730D01*
X156551188Y-86744732D01*
X156594587Y-86825925D01*
X156644090Y-86918538D01*
X156644092Y-86918540D01*
X156644093Y-86918542D01*
X156769112Y-87070878D01*
X156769121Y-87070887D01*
X156901781Y-87179758D01*
X156921462Y-87195910D01*
X157000639Y-87238231D01*
X157094174Y-87288227D01*
X157095273Y-87288814D01*
X157283868Y-87346024D01*
X157283870Y-87346024D01*
X157283873Y-87346025D01*
X157479997Y-87365341D01*
X157480000Y-87365341D01*
X157480003Y-87365341D01*
X157676126Y-87346025D01*
X157676127Y-87346024D01*
X157676132Y-87346024D01*
X157864727Y-87288814D01*
X158038538Y-87195910D01*
X158190883Y-87070883D01*
X158315910Y-86918538D01*
X158408814Y-86744727D01*
X158466024Y-86556132D01*
X158466035Y-86556029D01*
X158485341Y-86360003D01*
X158485341Y-86359996D01*
X159014659Y-86359996D01*
X159014659Y-86360003D01*
X159033974Y-86556126D01*
X159033975Y-86556129D01*
X159091187Y-86744730D01*
X159091188Y-86744732D01*
X159134587Y-86825925D01*
X159184090Y-86918538D01*
X159184092Y-86918540D01*
X159184093Y-86918542D01*
X159309112Y-87070878D01*
X159309121Y-87070887D01*
X159441781Y-87179758D01*
X159461462Y-87195910D01*
X159540639Y-87238231D01*
X159634174Y-87288227D01*
X159635273Y-87288814D01*
X159823868Y-87346024D01*
X159823870Y-87346024D01*
X159823873Y-87346025D01*
X160019997Y-87365341D01*
X160020000Y-87365341D01*
X160020003Y-87365341D01*
X160216126Y-87346025D01*
X160216127Y-87346024D01*
X160216132Y-87346024D01*
X160404727Y-87288814D01*
X160578538Y-87195910D01*
X160730883Y-87070883D01*
X160855910Y-86918538D01*
X160948814Y-86744727D01*
X161006024Y-86556132D01*
X161006035Y-86556029D01*
X161025341Y-86360003D01*
X161025341Y-86359996D01*
X166634659Y-86359996D01*
X166634659Y-86360003D01*
X166653974Y-86556126D01*
X166653975Y-86556129D01*
X166711187Y-86744730D01*
X166711188Y-86744732D01*
X166754587Y-86825925D01*
X166804090Y-86918538D01*
X166804092Y-86918540D01*
X166804093Y-86918542D01*
X166929112Y-87070878D01*
X166929121Y-87070887D01*
X167061781Y-87179758D01*
X167081462Y-87195910D01*
X167160639Y-87238231D01*
X167254174Y-87288227D01*
X167255273Y-87288814D01*
X167443868Y-87346024D01*
X167443870Y-87346024D01*
X167443873Y-87346025D01*
X167639997Y-87365341D01*
X167640000Y-87365341D01*
X167640003Y-87365341D01*
X167836126Y-87346025D01*
X167836127Y-87346024D01*
X167836132Y-87346024D01*
X168024727Y-87288814D01*
X168198538Y-87195910D01*
X168350883Y-87070883D01*
X168475910Y-86918538D01*
X168568814Y-86744727D01*
X168626024Y-86556132D01*
X168626035Y-86556029D01*
X168645341Y-86360003D01*
X168645341Y-86359996D01*
X168626025Y-86163873D01*
X168626024Y-86163870D01*
X168626024Y-86163868D01*
X168568814Y-85975273D01*
X168560650Y-85960000D01*
X168502643Y-85851476D01*
X168475910Y-85801462D01*
X168453001Y-85773547D01*
X168350887Y-85649121D01*
X168350878Y-85649112D01*
X168198542Y-85524093D01*
X168198540Y-85524092D01*
X168198538Y-85524090D01*
X168135320Y-85490299D01*
X174210000Y-85490299D01*
X174210000Y-86109999D01*
X174210001Y-86110000D01*
X174826988Y-86110000D01*
X174794075Y-86167007D01*
X174760000Y-86294174D01*
X174760000Y-86425826D01*
X174794075Y-86552993D01*
X174826988Y-86610000D01*
X174210001Y-86610000D01*
X174210000Y-86610001D01*
X174210000Y-87229700D01*
X174221603Y-87288036D01*
X174265806Y-87354189D01*
X174265810Y-87354193D01*
X174331963Y-87398396D01*
X174390299Y-87409999D01*
X174390303Y-87410000D01*
X175009999Y-87410000D01*
X175010000Y-87409999D01*
X175010000Y-86793012D01*
X175067007Y-86825925D01*
X175194174Y-86860000D01*
X175325826Y-86860000D01*
X175452993Y-86825925D01*
X175510000Y-86793012D01*
X175510000Y-87409999D01*
X175510001Y-87410000D01*
X176129697Y-87410000D01*
X176129700Y-87409999D01*
X176188036Y-87398396D01*
X176254189Y-87354193D01*
X176254193Y-87354189D01*
X176298396Y-87288036D01*
X176309999Y-87229700D01*
X176310000Y-87229697D01*
X176310000Y-86610001D01*
X176309999Y-86610000D01*
X175693012Y-86610000D01*
X175725925Y-86552993D01*
X175760000Y-86425826D01*
X175760000Y-86294174D01*
X175725925Y-86167007D01*
X175693012Y-86110000D01*
X176309999Y-86110000D01*
X176310000Y-86109999D01*
X176310000Y-85490302D01*
X176309999Y-85490299D01*
X176309990Y-85490253D01*
X179289500Y-85490253D01*
X179289500Y-87229746D01*
X179289501Y-87229758D01*
X179301132Y-87288227D01*
X179301134Y-87288233D01*
X179339750Y-87346025D01*
X179345448Y-87354552D01*
X179411769Y-87398867D01*
X179456231Y-87407711D01*
X179470241Y-87410498D01*
X179470246Y-87410498D01*
X179470252Y-87410500D01*
X179470253Y-87410500D01*
X181209747Y-87410500D01*
X181209748Y-87410500D01*
X181268231Y-87398867D01*
X181334552Y-87354552D01*
X181378867Y-87288231D01*
X181390500Y-87229748D01*
X181390500Y-85540253D01*
X189499500Y-85540253D01*
X189499500Y-87179746D01*
X189499501Y-87179758D01*
X189511132Y-87238227D01*
X189511134Y-87238233D01*
X189544932Y-87288814D01*
X189555448Y-87304552D01*
X189621769Y-87348867D01*
X189666231Y-87357711D01*
X189680241Y-87360498D01*
X189680246Y-87360498D01*
X189680252Y-87360500D01*
X189680253Y-87360500D01*
X191319747Y-87360500D01*
X191319748Y-87360500D01*
X191378231Y-87348867D01*
X191444552Y-87304552D01*
X191488867Y-87238231D01*
X191500500Y-87179748D01*
X191500500Y-86359996D01*
X191995161Y-86359996D01*
X191995161Y-86360003D01*
X192014467Y-86556029D01*
X192014468Y-86556034D01*
X192071650Y-86744535D01*
X192071652Y-86744540D01*
X192137921Y-86868523D01*
X192600000Y-86406444D01*
X192600000Y-86412661D01*
X192627259Y-86514394D01*
X192679920Y-86605606D01*
X192754394Y-86680080D01*
X192845606Y-86732741D01*
X192947339Y-86760000D01*
X192953553Y-86760000D01*
X192491476Y-87222077D01*
X192615459Y-87288347D01*
X192615464Y-87288349D01*
X192803965Y-87345531D01*
X192803970Y-87345532D01*
X192999997Y-87364839D01*
X193000003Y-87364839D01*
X193196029Y-87345532D01*
X193196034Y-87345531D01*
X193384535Y-87288349D01*
X193384540Y-87288347D01*
X193508522Y-87222077D01*
X193046445Y-86760000D01*
X193052661Y-86760000D01*
X193154394Y-86732741D01*
X193245606Y-86680080D01*
X193320080Y-86605606D01*
X193372741Y-86514394D01*
X193400000Y-86412661D01*
X193400000Y-86406445D01*
X193862077Y-86868522D01*
X193928347Y-86744540D01*
X193928349Y-86744535D01*
X193985531Y-86556034D01*
X193985532Y-86556029D01*
X194004839Y-86360003D01*
X194004839Y-86359996D01*
X193985532Y-86163970D01*
X193985531Y-86163965D01*
X193928349Y-85975464D01*
X193928347Y-85975459D01*
X193862077Y-85851476D01*
X193400000Y-86313553D01*
X193400000Y-86307339D01*
X193372741Y-86205606D01*
X193320080Y-86114394D01*
X193245606Y-86039920D01*
X193154394Y-85987259D01*
X193052661Y-85960000D01*
X193046444Y-85960000D01*
X193508523Y-85497921D01*
X193384540Y-85431652D01*
X193384535Y-85431650D01*
X193196034Y-85374468D01*
X193196029Y-85374467D01*
X193000003Y-85355161D01*
X192999997Y-85355161D01*
X192803970Y-85374467D01*
X192803965Y-85374468D01*
X192615472Y-85431648D01*
X192615460Y-85431652D01*
X192491476Y-85497922D01*
X192953554Y-85960000D01*
X192947339Y-85960000D01*
X192845606Y-85987259D01*
X192754394Y-86039920D01*
X192679920Y-86114394D01*
X192627259Y-86205606D01*
X192600000Y-86307339D01*
X192600000Y-86313554D01*
X192137922Y-85851476D01*
X192071652Y-85975460D01*
X192071648Y-85975472D01*
X192014468Y-86163965D01*
X192014467Y-86163970D01*
X191995161Y-86359996D01*
X191500500Y-86359996D01*
X191500500Y-85540252D01*
X191488867Y-85481769D01*
X191444552Y-85415448D01*
X191398637Y-85384768D01*
X191378233Y-85371134D01*
X191378231Y-85371133D01*
X191378228Y-85371132D01*
X191378227Y-85371132D01*
X191319758Y-85359501D01*
X191319748Y-85359500D01*
X189680252Y-85359500D01*
X189680251Y-85359500D01*
X189680241Y-85359501D01*
X189621772Y-85371132D01*
X189621766Y-85371134D01*
X189555451Y-85415445D01*
X189555445Y-85415451D01*
X189511134Y-85481766D01*
X189511132Y-85481772D01*
X189499501Y-85540241D01*
X189499500Y-85540253D01*
X181390500Y-85540253D01*
X181390500Y-85490252D01*
X181388921Y-85482316D01*
X181387711Y-85476231D01*
X181378867Y-85431769D01*
X181334552Y-85365448D01*
X181325652Y-85359501D01*
X181268233Y-85321134D01*
X181268231Y-85321133D01*
X181268228Y-85321132D01*
X181268227Y-85321132D01*
X181209758Y-85309501D01*
X181209748Y-85309500D01*
X179470252Y-85309500D01*
X179470251Y-85309500D01*
X179470241Y-85309501D01*
X179411772Y-85321132D01*
X179411766Y-85321134D01*
X179345451Y-85365445D01*
X179345445Y-85365451D01*
X179301134Y-85431766D01*
X179301132Y-85431772D01*
X179289501Y-85490241D01*
X179289500Y-85490253D01*
X176309990Y-85490253D01*
X176298396Y-85431963D01*
X176254193Y-85365810D01*
X176254189Y-85365806D01*
X176188036Y-85321603D01*
X176129700Y-85310000D01*
X175510001Y-85310000D01*
X175510000Y-85310001D01*
X175510000Y-85926988D01*
X175452993Y-85894075D01*
X175325826Y-85860000D01*
X175194174Y-85860000D01*
X175067007Y-85894075D01*
X175010000Y-85926988D01*
X175010000Y-85310001D01*
X175009999Y-85310000D01*
X174390299Y-85310000D01*
X174331963Y-85321603D01*
X174265810Y-85365806D01*
X174265806Y-85365810D01*
X174221603Y-85431963D01*
X174210000Y-85490299D01*
X168135320Y-85490299D01*
X168024732Y-85431188D01*
X168024730Y-85431187D01*
X167836129Y-85373975D01*
X167836126Y-85373974D01*
X167640003Y-85354659D01*
X167639997Y-85354659D01*
X167443873Y-85373974D01*
X167443870Y-85373975D01*
X167255269Y-85431187D01*
X167255267Y-85431188D01*
X167081467Y-85524087D01*
X167081457Y-85524093D01*
X166929121Y-85649112D01*
X166929112Y-85649121D01*
X166804093Y-85801457D01*
X166804087Y-85801467D01*
X166711188Y-85975267D01*
X166711187Y-85975269D01*
X166653975Y-86163870D01*
X166653974Y-86163873D01*
X166634659Y-86359996D01*
X161025341Y-86359996D01*
X161006025Y-86163873D01*
X161006024Y-86163870D01*
X161006024Y-86163868D01*
X160948814Y-85975273D01*
X160940650Y-85960000D01*
X160882643Y-85851476D01*
X160855910Y-85801462D01*
X160833001Y-85773547D01*
X160730887Y-85649121D01*
X160730878Y-85649112D01*
X160578542Y-85524093D01*
X160578540Y-85524092D01*
X160578538Y-85524090D01*
X160515320Y-85490299D01*
X160404732Y-85431188D01*
X160404730Y-85431187D01*
X160216129Y-85373975D01*
X160216126Y-85373974D01*
X160020003Y-85354659D01*
X160019997Y-85354659D01*
X159823873Y-85373974D01*
X159823870Y-85373975D01*
X159635269Y-85431187D01*
X159635267Y-85431188D01*
X159461467Y-85524087D01*
X159461457Y-85524093D01*
X159309121Y-85649112D01*
X159309112Y-85649121D01*
X159184093Y-85801457D01*
X159184087Y-85801467D01*
X159091188Y-85975267D01*
X159091187Y-85975269D01*
X159033975Y-86163870D01*
X159033974Y-86163873D01*
X159014659Y-86359996D01*
X158485341Y-86359996D01*
X158466025Y-86163873D01*
X158466024Y-86163870D01*
X158466024Y-86163868D01*
X158408814Y-85975273D01*
X158400650Y-85960000D01*
X158342643Y-85851476D01*
X158315910Y-85801462D01*
X158293001Y-85773547D01*
X158190887Y-85649121D01*
X158190878Y-85649112D01*
X158038542Y-85524093D01*
X158038540Y-85524092D01*
X158038538Y-85524090D01*
X157975320Y-85490299D01*
X157864732Y-85431188D01*
X157864730Y-85431187D01*
X157676129Y-85373975D01*
X157676126Y-85373974D01*
X157480003Y-85354659D01*
X157479997Y-85354659D01*
X157283873Y-85373974D01*
X157283870Y-85373975D01*
X157095269Y-85431187D01*
X157095267Y-85431188D01*
X156921467Y-85524087D01*
X156921457Y-85524093D01*
X156769121Y-85649112D01*
X156769112Y-85649121D01*
X156644093Y-85801457D01*
X156644087Y-85801467D01*
X156551188Y-85975267D01*
X156551187Y-85975269D01*
X156493975Y-86163870D01*
X156493974Y-86163873D01*
X156474659Y-86359996D01*
X153455583Y-86359996D01*
X153435301Y-86154070D01*
X153435300Y-86154065D01*
X153404640Y-86052993D01*
X153375232Y-85956046D01*
X153277685Y-85773550D01*
X153146410Y-85613590D01*
X153146404Y-85613585D01*
X152986452Y-85482316D01*
X152803954Y-85384768D01*
X152605934Y-85324699D01*
X152605929Y-85324698D01*
X152400003Y-85304417D01*
X152399997Y-85304417D01*
X152194070Y-85324698D01*
X152194065Y-85324699D01*
X151996045Y-85384768D01*
X151813547Y-85482316D01*
X151653595Y-85613585D01*
X151653585Y-85613595D01*
X151522316Y-85773547D01*
X151424768Y-85956045D01*
X151364699Y-86154065D01*
X151364698Y-86154070D01*
X151344417Y-86359996D01*
X148500500Y-86359996D01*
X148500500Y-83819996D01*
X151344417Y-83819996D01*
X151344417Y-83820003D01*
X151364698Y-84025929D01*
X151364699Y-84025934D01*
X151424768Y-84223954D01*
X151522316Y-84406452D01*
X151624430Y-84530878D01*
X151653590Y-84566410D01*
X151653595Y-84566414D01*
X151813547Y-84697683D01*
X151813548Y-84697683D01*
X151813550Y-84697685D01*
X151996046Y-84795232D01*
X152133997Y-84837078D01*
X152194065Y-84855300D01*
X152194070Y-84855301D01*
X152399997Y-84875583D01*
X152400000Y-84875583D01*
X152400003Y-84875583D01*
X152605929Y-84855301D01*
X152605934Y-84855300D01*
X152803954Y-84795232D01*
X152986450Y-84697685D01*
X153146410Y-84566410D01*
X153277685Y-84406450D01*
X153375232Y-84223954D01*
X153435300Y-84025934D01*
X153435301Y-84025929D01*
X153455583Y-83820003D01*
X153455583Y-83819996D01*
X156474659Y-83819996D01*
X156474659Y-83820003D01*
X156493974Y-84016126D01*
X156493975Y-84016129D01*
X156551187Y-84204730D01*
X156551188Y-84204732D01*
X156622218Y-84337618D01*
X156644090Y-84378538D01*
X156644092Y-84378540D01*
X156644093Y-84378542D01*
X156769112Y-84530878D01*
X156769121Y-84530887D01*
X156812411Y-84566414D01*
X156921462Y-84655910D01*
X157095273Y-84748814D01*
X157283868Y-84806024D01*
X157283870Y-84806024D01*
X157283873Y-84806025D01*
X157479997Y-84825341D01*
X157480000Y-84825341D01*
X157480003Y-84825341D01*
X157676126Y-84806025D01*
X157676127Y-84806024D01*
X157676132Y-84806024D01*
X157864727Y-84748814D01*
X158038538Y-84655910D01*
X158190883Y-84530883D01*
X158315910Y-84378538D01*
X158408814Y-84204727D01*
X158466024Y-84016132D01*
X158485341Y-83820000D01*
X158485341Y-83819996D01*
X159014659Y-83819996D01*
X159014659Y-83820003D01*
X159033974Y-84016126D01*
X159033975Y-84016129D01*
X159091187Y-84204730D01*
X159091188Y-84204732D01*
X159162218Y-84337618D01*
X159184090Y-84378538D01*
X159184092Y-84378540D01*
X159184093Y-84378542D01*
X159309112Y-84530878D01*
X159309121Y-84530887D01*
X159352411Y-84566414D01*
X159461462Y-84655910D01*
X159635273Y-84748814D01*
X159823868Y-84806024D01*
X159823870Y-84806024D01*
X159823873Y-84806025D01*
X160019997Y-84825341D01*
X160020000Y-84825341D01*
X160020003Y-84825341D01*
X160216126Y-84806025D01*
X160216127Y-84806024D01*
X160216132Y-84806024D01*
X160404727Y-84748814D01*
X160578538Y-84655910D01*
X160730883Y-84530883D01*
X160855910Y-84378538D01*
X160948814Y-84204727D01*
X161006024Y-84016132D01*
X161025341Y-83820000D01*
X161025341Y-83819996D01*
X166634659Y-83819996D01*
X166634659Y-83820003D01*
X166653974Y-84016126D01*
X166653975Y-84016129D01*
X166711187Y-84204730D01*
X166711188Y-84204732D01*
X166782218Y-84337618D01*
X166804090Y-84378538D01*
X166804092Y-84378540D01*
X166804093Y-84378542D01*
X166929112Y-84530878D01*
X166929121Y-84530887D01*
X166972411Y-84566414D01*
X167081462Y-84655910D01*
X167255273Y-84748814D01*
X167443868Y-84806024D01*
X167443870Y-84806024D01*
X167443873Y-84806025D01*
X167639997Y-84825341D01*
X167640000Y-84825341D01*
X167640003Y-84825341D01*
X167836126Y-84806025D01*
X167836127Y-84806024D01*
X167836132Y-84806024D01*
X168024727Y-84748814D01*
X168198538Y-84655910D01*
X168350883Y-84530883D01*
X168475910Y-84378538D01*
X168568814Y-84204727D01*
X168626024Y-84016132D01*
X168645341Y-83820000D01*
X168645341Y-83819996D01*
X174204417Y-83819996D01*
X174204417Y-83820003D01*
X174224698Y-84025929D01*
X174224699Y-84025934D01*
X174284768Y-84223954D01*
X174382316Y-84406452D01*
X174484430Y-84530878D01*
X174513590Y-84566410D01*
X174513595Y-84566414D01*
X174673547Y-84697683D01*
X174673548Y-84697683D01*
X174673550Y-84697685D01*
X174856046Y-84795232D01*
X174993997Y-84837078D01*
X175054065Y-84855300D01*
X175054070Y-84855301D01*
X175259997Y-84875583D01*
X175260000Y-84875583D01*
X175260003Y-84875583D01*
X175465929Y-84855301D01*
X175465934Y-84855300D01*
X175663954Y-84795232D01*
X175846450Y-84697685D01*
X176006410Y-84566410D01*
X176137685Y-84406450D01*
X176235232Y-84223954D01*
X176295300Y-84025934D01*
X176295301Y-84025929D01*
X176315583Y-83820003D01*
X176315583Y-83819996D01*
X179284417Y-83819996D01*
X179284417Y-83820003D01*
X179304698Y-84025929D01*
X179304699Y-84025934D01*
X179364768Y-84223954D01*
X179462316Y-84406452D01*
X179564430Y-84530878D01*
X179593590Y-84566410D01*
X179593595Y-84566414D01*
X179753547Y-84697683D01*
X179753548Y-84697683D01*
X179753550Y-84697685D01*
X179936046Y-84795232D01*
X180073997Y-84837078D01*
X180134065Y-84855300D01*
X180134070Y-84855301D01*
X180339997Y-84875583D01*
X180340000Y-84875583D01*
X180340003Y-84875583D01*
X180545929Y-84855301D01*
X180545934Y-84855300D01*
X180743954Y-84795232D01*
X180926450Y-84697685D01*
X181086410Y-84566410D01*
X181217685Y-84406450D01*
X181315232Y-84223954D01*
X181375300Y-84025934D01*
X181375301Y-84025929D01*
X181395583Y-83820003D01*
X181395583Y-83819996D01*
X181375301Y-83614070D01*
X181375300Y-83614065D01*
X181321063Y-83435269D01*
X181315232Y-83416046D01*
X181217685Y-83233550D01*
X181086410Y-83073590D01*
X181086404Y-83073585D01*
X180926452Y-82942316D01*
X180743954Y-82844768D01*
X180545934Y-82784699D01*
X180545929Y-82784698D01*
X180340003Y-82764417D01*
X180339997Y-82764417D01*
X180134070Y-82784698D01*
X180134065Y-82784699D01*
X179936045Y-82844768D01*
X179753547Y-82942316D01*
X179593595Y-83073585D01*
X179593585Y-83073595D01*
X179462316Y-83233547D01*
X179364768Y-83416045D01*
X179304699Y-83614065D01*
X179304698Y-83614070D01*
X179284417Y-83819996D01*
X176315583Y-83819996D01*
X176295301Y-83614070D01*
X176295300Y-83614065D01*
X176241063Y-83435269D01*
X176235232Y-83416046D01*
X176137685Y-83233550D01*
X176006410Y-83073590D01*
X176006404Y-83073585D01*
X175846452Y-82942316D01*
X175663954Y-82844768D01*
X175465934Y-82784699D01*
X175465929Y-82784698D01*
X175260003Y-82764417D01*
X175259997Y-82764417D01*
X175054070Y-82784698D01*
X175054065Y-82784699D01*
X174856045Y-82844768D01*
X174673547Y-82942316D01*
X174513595Y-83073585D01*
X174513585Y-83073595D01*
X174382316Y-83233547D01*
X174284768Y-83416045D01*
X174224699Y-83614065D01*
X174224698Y-83614070D01*
X174204417Y-83819996D01*
X168645341Y-83819996D01*
X168626025Y-83623873D01*
X168626024Y-83623870D01*
X168626024Y-83623868D01*
X168568814Y-83435273D01*
X168558536Y-83416045D01*
X168546942Y-83394353D01*
X168475910Y-83261462D01*
X168453001Y-83233547D01*
X168350887Y-83109121D01*
X168350878Y-83109112D01*
X168198542Y-82984093D01*
X168198540Y-82984092D01*
X168198538Y-82984090D01*
X168157618Y-82962218D01*
X168024732Y-82891188D01*
X168024730Y-82891187D01*
X167836129Y-82833975D01*
X167836126Y-82833974D01*
X167640003Y-82814659D01*
X167639997Y-82814659D01*
X167443873Y-82833974D01*
X167443870Y-82833975D01*
X167255269Y-82891187D01*
X167255267Y-82891188D01*
X167081467Y-82984087D01*
X167081457Y-82984093D01*
X166929121Y-83109112D01*
X166929112Y-83109121D01*
X166804093Y-83261457D01*
X166804087Y-83261467D01*
X166711188Y-83435267D01*
X166711187Y-83435269D01*
X166653975Y-83623870D01*
X166653974Y-83623873D01*
X166634659Y-83819996D01*
X161025341Y-83819996D01*
X161006025Y-83623873D01*
X161006024Y-83623870D01*
X161006024Y-83623868D01*
X160948814Y-83435273D01*
X160938536Y-83416045D01*
X160926942Y-83394353D01*
X160855910Y-83261462D01*
X160833001Y-83233547D01*
X160730887Y-83109121D01*
X160730878Y-83109112D01*
X160578542Y-82984093D01*
X160578540Y-82984092D01*
X160578538Y-82984090D01*
X160537618Y-82962218D01*
X160404732Y-82891188D01*
X160404730Y-82891187D01*
X160216129Y-82833975D01*
X160216126Y-82833974D01*
X160020003Y-82814659D01*
X160019997Y-82814659D01*
X159823873Y-82833974D01*
X159823870Y-82833975D01*
X159635269Y-82891187D01*
X159635267Y-82891188D01*
X159461467Y-82984087D01*
X159461457Y-82984093D01*
X159309121Y-83109112D01*
X159309112Y-83109121D01*
X159184093Y-83261457D01*
X159184087Y-83261467D01*
X159091188Y-83435267D01*
X159091187Y-83435269D01*
X159033975Y-83623870D01*
X159033974Y-83623873D01*
X159014659Y-83819996D01*
X158485341Y-83819996D01*
X158466025Y-83623873D01*
X158466024Y-83623870D01*
X158466024Y-83623868D01*
X158408814Y-83435273D01*
X158398536Y-83416045D01*
X158386942Y-83394353D01*
X158315910Y-83261462D01*
X158293001Y-83233547D01*
X158190887Y-83109121D01*
X158190878Y-83109112D01*
X158038542Y-82984093D01*
X158038540Y-82984092D01*
X158038538Y-82984090D01*
X157997618Y-82962218D01*
X157864732Y-82891188D01*
X157864730Y-82891187D01*
X157676129Y-82833975D01*
X157676126Y-82833974D01*
X157480003Y-82814659D01*
X157479997Y-82814659D01*
X157283873Y-82833974D01*
X157283870Y-82833975D01*
X157095269Y-82891187D01*
X157095267Y-82891188D01*
X156921467Y-82984087D01*
X156921457Y-82984093D01*
X156769121Y-83109112D01*
X156769112Y-83109121D01*
X156644093Y-83261457D01*
X156644087Y-83261467D01*
X156551188Y-83435267D01*
X156551187Y-83435269D01*
X156493975Y-83623870D01*
X156493974Y-83623873D01*
X156474659Y-83819996D01*
X153455583Y-83819996D01*
X153435301Y-83614070D01*
X153435300Y-83614065D01*
X153381063Y-83435269D01*
X153375232Y-83416046D01*
X153277685Y-83233550D01*
X153146410Y-83073590D01*
X153146404Y-83073585D01*
X152986452Y-82942316D01*
X152803954Y-82844768D01*
X152605934Y-82784699D01*
X152605929Y-82784698D01*
X152400003Y-82764417D01*
X152399997Y-82764417D01*
X152194070Y-82784698D01*
X152194065Y-82784699D01*
X151996045Y-82844768D01*
X151813547Y-82942316D01*
X151653595Y-83073585D01*
X151653585Y-83073595D01*
X151522316Y-83233547D01*
X151424768Y-83416045D01*
X151364699Y-83614065D01*
X151364698Y-83614070D01*
X151344417Y-83819996D01*
X148500500Y-83819996D01*
X148500500Y-80410299D01*
X151350000Y-80410299D01*
X151350000Y-81029999D01*
X151350001Y-81030000D01*
X151966988Y-81030000D01*
X151934075Y-81087007D01*
X151900000Y-81214174D01*
X151900000Y-81345826D01*
X151934075Y-81472993D01*
X151966988Y-81530000D01*
X151350001Y-81530000D01*
X151350000Y-81530001D01*
X151350000Y-82149700D01*
X151361603Y-82208036D01*
X151405806Y-82274189D01*
X151405810Y-82274193D01*
X151471963Y-82318396D01*
X151530299Y-82329999D01*
X151530303Y-82330000D01*
X152149999Y-82330000D01*
X152150000Y-82329999D01*
X152150000Y-81713012D01*
X152207007Y-81745925D01*
X152334174Y-81780000D01*
X152465826Y-81780000D01*
X152592993Y-81745925D01*
X152650000Y-81713012D01*
X152650000Y-82329999D01*
X152650001Y-82330000D01*
X153269697Y-82330000D01*
X153269700Y-82329999D01*
X153328036Y-82318396D01*
X153394189Y-82274193D01*
X153394193Y-82274189D01*
X153438396Y-82208036D01*
X153449999Y-82149700D01*
X153450000Y-82149697D01*
X153450000Y-81530001D01*
X153449999Y-81530000D01*
X152833012Y-81530000D01*
X152865925Y-81472993D01*
X152900000Y-81345826D01*
X152900000Y-81214174D01*
X152865925Y-81087007D01*
X152833012Y-81030000D01*
X153449999Y-81030000D01*
X159050839Y-81030000D01*
X159704314Y-81030000D01*
X159699920Y-81034394D01*
X159647259Y-81125606D01*
X159620000Y-81227339D01*
X159620000Y-81332661D01*
X159647259Y-81434394D01*
X159699920Y-81525606D01*
X159704314Y-81530000D01*
X159050839Y-81530000D01*
X159091651Y-81664538D01*
X159091652Y-81664540D01*
X159184502Y-81838252D01*
X159184506Y-81838258D01*
X159309468Y-81990523D01*
X159309476Y-81990531D01*
X159461741Y-82115493D01*
X159461747Y-82115497D01*
X159635459Y-82208347D01*
X159635464Y-82208349D01*
X159769999Y-82249160D01*
X159770000Y-82249160D01*
X159770000Y-81595686D01*
X159774394Y-81600080D01*
X159865606Y-81652741D01*
X159967339Y-81680000D01*
X160072661Y-81680000D01*
X160174394Y-81652741D01*
X160265606Y-81600080D01*
X160270000Y-81595686D01*
X160270000Y-82249160D01*
X160404535Y-82208349D01*
X160404540Y-82208347D01*
X160578252Y-82115497D01*
X160578258Y-82115493D01*
X160730523Y-81990531D01*
X160730531Y-81990523D01*
X160855493Y-81838258D01*
X160855497Y-81838252D01*
X160948347Y-81664540D01*
X160948348Y-81664538D01*
X160989161Y-81530000D01*
X160335686Y-81530000D01*
X160340080Y-81525606D01*
X160392741Y-81434394D01*
X160420000Y-81332661D01*
X160420000Y-81279996D01*
X166634659Y-81279996D01*
X166634659Y-81280003D01*
X166653974Y-81476126D01*
X166653975Y-81476129D01*
X166711187Y-81664730D01*
X166711188Y-81664732D01*
X166754587Y-81745925D01*
X166804090Y-81838538D01*
X166804092Y-81838540D01*
X166804093Y-81838542D01*
X166929112Y-81990878D01*
X166929121Y-81990887D01*
X166972411Y-82026414D01*
X167081462Y-82115910D01*
X167255273Y-82208814D01*
X167443868Y-82266024D01*
X167443870Y-82266024D01*
X167443873Y-82266025D01*
X167639997Y-82285341D01*
X167640000Y-82285341D01*
X167640003Y-82285341D01*
X167836126Y-82266025D01*
X167836127Y-82266024D01*
X167836132Y-82266024D01*
X168024727Y-82208814D01*
X168198538Y-82115910D01*
X168350883Y-81990883D01*
X168475910Y-81838538D01*
X168568814Y-81664727D01*
X168626024Y-81476132D01*
X168626334Y-81472993D01*
X168645341Y-81280003D01*
X168645341Y-81279996D01*
X174204417Y-81279996D01*
X174204417Y-81280003D01*
X174224698Y-81485929D01*
X174224699Y-81485934D01*
X174284768Y-81683954D01*
X174382316Y-81866452D01*
X174484138Y-81990523D01*
X174513590Y-82026410D01*
X174513595Y-82026414D01*
X174673547Y-82157683D01*
X174673548Y-82157683D01*
X174673550Y-82157685D01*
X174856046Y-82255232D01*
X174993997Y-82297078D01*
X175054065Y-82315300D01*
X175054070Y-82315301D01*
X175259997Y-82335583D01*
X175260000Y-82335583D01*
X175260003Y-82335583D01*
X175465929Y-82315301D01*
X175465934Y-82315300D01*
X175663954Y-82255232D01*
X175846450Y-82157685D01*
X176006410Y-82026410D01*
X176137685Y-81866450D01*
X176235232Y-81683954D01*
X176295300Y-81485934D01*
X176295301Y-81485929D01*
X176315583Y-81280003D01*
X176315583Y-81279996D01*
X179284417Y-81279996D01*
X179284417Y-81280003D01*
X179304698Y-81485929D01*
X179304699Y-81485934D01*
X179364768Y-81683954D01*
X179462316Y-81866452D01*
X179564138Y-81990523D01*
X179593590Y-82026410D01*
X179593595Y-82026414D01*
X179753547Y-82157683D01*
X179753548Y-82157683D01*
X179753550Y-82157685D01*
X179936046Y-82255232D01*
X180073997Y-82297078D01*
X180134065Y-82315300D01*
X180134070Y-82315301D01*
X180339997Y-82335583D01*
X180340000Y-82335583D01*
X180340003Y-82335583D01*
X180545929Y-82315301D01*
X180545934Y-82315300D01*
X180743954Y-82255232D01*
X180926450Y-82157685D01*
X181086410Y-82026410D01*
X181217685Y-81866450D01*
X181315232Y-81683954D01*
X181375300Y-81485934D01*
X181375301Y-81485929D01*
X181395583Y-81280003D01*
X181395583Y-81279996D01*
X181375301Y-81074070D01*
X181375300Y-81074065D01*
X181344640Y-80972993D01*
X181315232Y-80876046D01*
X181217685Y-80693550D01*
X181086410Y-80533590D01*
X181086404Y-80533585D01*
X180926452Y-80402316D01*
X180743954Y-80304768D01*
X180545934Y-80244699D01*
X180545929Y-80244698D01*
X180340003Y-80224417D01*
X180339997Y-80224417D01*
X180134070Y-80244698D01*
X180134065Y-80244699D01*
X179936045Y-80304768D01*
X179753547Y-80402316D01*
X179593595Y-80533585D01*
X179593585Y-80533595D01*
X179462316Y-80693547D01*
X179364768Y-80876045D01*
X179304699Y-81074065D01*
X179304698Y-81074070D01*
X179284417Y-81279996D01*
X176315583Y-81279996D01*
X176295301Y-81074070D01*
X176295300Y-81074065D01*
X176264640Y-80972993D01*
X176235232Y-80876046D01*
X176137685Y-80693550D01*
X176006410Y-80533590D01*
X176006404Y-80533585D01*
X175846452Y-80402316D01*
X175663954Y-80304768D01*
X175465934Y-80244699D01*
X175465929Y-80244698D01*
X175260003Y-80224417D01*
X175259997Y-80224417D01*
X175054070Y-80244698D01*
X175054065Y-80244699D01*
X174856045Y-80304768D01*
X174673547Y-80402316D01*
X174513595Y-80533585D01*
X174513585Y-80533595D01*
X174382316Y-80693547D01*
X174284768Y-80876045D01*
X174224699Y-81074065D01*
X174224698Y-81074070D01*
X174204417Y-81279996D01*
X168645341Y-81279996D01*
X168626025Y-81083873D01*
X168626024Y-81083870D01*
X168626024Y-81083868D01*
X168568814Y-80895273D01*
X168560650Y-80880000D01*
X168476062Y-80721747D01*
X168475910Y-80721462D01*
X168351178Y-80569476D01*
X168350887Y-80569121D01*
X168350878Y-80569112D01*
X168198542Y-80444093D01*
X168198540Y-80444092D01*
X168198538Y-80444090D01*
X168135320Y-80410299D01*
X168024732Y-80351188D01*
X168024730Y-80351187D01*
X167836129Y-80293975D01*
X167836126Y-80293974D01*
X167640003Y-80274659D01*
X167639997Y-80274659D01*
X167443873Y-80293974D01*
X167443870Y-80293975D01*
X167255269Y-80351187D01*
X167255267Y-80351188D01*
X167081467Y-80444087D01*
X167081457Y-80444093D01*
X166929121Y-80569112D01*
X166929112Y-80569121D01*
X166804093Y-80721457D01*
X166804087Y-80721467D01*
X166711188Y-80895267D01*
X166711187Y-80895269D01*
X166653975Y-81083870D01*
X166653974Y-81083873D01*
X166634659Y-81279996D01*
X160420000Y-81279996D01*
X160420000Y-81227339D01*
X160392741Y-81125606D01*
X160340080Y-81034394D01*
X160335686Y-81030000D01*
X160989161Y-81030000D01*
X160948348Y-80895461D01*
X160948347Y-80895459D01*
X160855497Y-80721747D01*
X160855493Y-80721741D01*
X160730531Y-80569476D01*
X160730523Y-80569468D01*
X160578258Y-80444506D01*
X160578252Y-80444502D01*
X160404540Y-80351652D01*
X160404538Y-80351651D01*
X160270000Y-80310838D01*
X160270000Y-80964314D01*
X160265606Y-80959920D01*
X160174394Y-80907259D01*
X160072661Y-80880000D01*
X159967339Y-80880000D01*
X159865606Y-80907259D01*
X159774394Y-80959920D01*
X159770000Y-80964314D01*
X159770000Y-80310838D01*
X159635461Y-80351651D01*
X159635459Y-80351652D01*
X159461747Y-80444502D01*
X159461741Y-80444506D01*
X159309476Y-80569468D01*
X159309468Y-80569476D01*
X159184506Y-80721741D01*
X159184502Y-80721747D01*
X159091652Y-80895459D01*
X159091651Y-80895461D01*
X159050839Y-81030000D01*
X153449999Y-81030000D01*
X153450000Y-81029999D01*
X153450000Y-80410302D01*
X153449999Y-80410299D01*
X153438396Y-80351963D01*
X153394193Y-80285810D01*
X153394189Y-80285806D01*
X153328036Y-80241603D01*
X153269700Y-80230000D01*
X152650001Y-80230000D01*
X152650000Y-80230001D01*
X152650000Y-80846988D01*
X152592993Y-80814075D01*
X152465826Y-80780000D01*
X152334174Y-80780000D01*
X152207007Y-80814075D01*
X152150000Y-80846988D01*
X152150000Y-80230001D01*
X152149999Y-80230000D01*
X151530299Y-80230000D01*
X151471963Y-80241603D01*
X151405810Y-80285806D01*
X151405806Y-80285810D01*
X151361603Y-80351963D01*
X151350000Y-80410299D01*
X148500500Y-80410299D01*
X148500500Y-78739996D01*
X174204417Y-78739996D01*
X174204417Y-78740003D01*
X174224698Y-78945929D01*
X174224699Y-78945934D01*
X174284768Y-79143954D01*
X174382316Y-79326452D01*
X174513585Y-79486404D01*
X174513590Y-79486410D01*
X174513595Y-79486414D01*
X174673547Y-79617683D01*
X174673548Y-79617683D01*
X174673550Y-79617685D01*
X174856046Y-79715232D01*
X174993997Y-79757078D01*
X175054065Y-79775300D01*
X175054070Y-79775301D01*
X175259997Y-79795583D01*
X175260000Y-79795583D01*
X175260003Y-79795583D01*
X175465929Y-79775301D01*
X175465934Y-79775300D01*
X175663954Y-79715232D01*
X175846450Y-79617685D01*
X176006410Y-79486410D01*
X176137685Y-79326450D01*
X176235232Y-79143954D01*
X176295300Y-78945934D01*
X176295301Y-78945929D01*
X176315583Y-78740003D01*
X176315583Y-78739996D01*
X179284417Y-78739996D01*
X179284417Y-78740003D01*
X179304698Y-78945929D01*
X179304699Y-78945934D01*
X179364768Y-79143954D01*
X179462316Y-79326452D01*
X179593585Y-79486404D01*
X179593590Y-79486410D01*
X179593595Y-79486414D01*
X179753547Y-79617683D01*
X179753548Y-79617683D01*
X179753550Y-79617685D01*
X179936046Y-79715232D01*
X180073997Y-79757078D01*
X180134065Y-79775300D01*
X180134070Y-79775301D01*
X180339997Y-79795583D01*
X180340000Y-79795583D01*
X180340003Y-79795583D01*
X180545929Y-79775301D01*
X180545934Y-79775300D01*
X180743954Y-79715232D01*
X180926450Y-79617685D01*
X181086410Y-79486410D01*
X181217685Y-79326450D01*
X181315232Y-79143954D01*
X181375300Y-78945934D01*
X181375301Y-78945929D01*
X181395583Y-78740003D01*
X181395583Y-78739996D01*
X181375301Y-78534070D01*
X181375300Y-78534065D01*
X181357078Y-78473997D01*
X181315232Y-78336046D01*
X181217685Y-78153550D01*
X181086410Y-77993590D01*
X181086404Y-77993585D01*
X180926452Y-77862316D01*
X180743954Y-77764768D01*
X180545934Y-77704699D01*
X180545929Y-77704698D01*
X180340003Y-77684417D01*
X180339997Y-77684417D01*
X180134070Y-77704698D01*
X180134065Y-77704699D01*
X179936045Y-77764768D01*
X179753547Y-77862316D01*
X179593595Y-77993585D01*
X179593585Y-77993595D01*
X179462316Y-78153547D01*
X179364768Y-78336045D01*
X179304699Y-78534065D01*
X179304698Y-78534070D01*
X179284417Y-78739996D01*
X176315583Y-78739996D01*
X176295301Y-78534070D01*
X176295300Y-78534065D01*
X176277078Y-78473997D01*
X176235232Y-78336046D01*
X176137685Y-78153550D01*
X176006410Y-77993590D01*
X176006404Y-77993585D01*
X175846452Y-77862316D01*
X175663954Y-77764768D01*
X175465934Y-77704699D01*
X175465929Y-77704698D01*
X175260003Y-77684417D01*
X175259997Y-77684417D01*
X175054070Y-77704698D01*
X175054065Y-77704699D01*
X174856045Y-77764768D01*
X174673547Y-77862316D01*
X174513595Y-77993585D01*
X174513585Y-77993595D01*
X174382316Y-78153547D01*
X174284768Y-78336045D01*
X174224699Y-78534065D01*
X174224698Y-78534070D01*
X174204417Y-78739996D01*
X148500500Y-78739996D01*
X148500500Y-76199996D01*
X153934659Y-76199996D01*
X153934659Y-76200003D01*
X153953974Y-76396126D01*
X153953975Y-76396129D01*
X154011187Y-76584730D01*
X154011188Y-76584732D01*
X154082218Y-76717618D01*
X154104090Y-76758538D01*
X154104092Y-76758540D01*
X154104093Y-76758542D01*
X154229112Y-76910878D01*
X154229121Y-76910887D01*
X154272411Y-76946414D01*
X154381462Y-77035910D01*
X154514353Y-77106942D01*
X154554174Y-77128227D01*
X154555273Y-77128814D01*
X154743868Y-77186024D01*
X154743870Y-77186024D01*
X154743873Y-77186025D01*
X154939997Y-77205341D01*
X154940000Y-77205341D01*
X154940003Y-77205341D01*
X155136126Y-77186025D01*
X155136127Y-77186024D01*
X155136132Y-77186024D01*
X155324727Y-77128814D01*
X155498538Y-77035910D01*
X155650883Y-76910883D01*
X155775910Y-76758538D01*
X155868814Y-76584727D01*
X155926024Y-76396132D01*
X155945341Y-76200000D01*
X155945341Y-76199996D01*
X156474659Y-76199996D01*
X156474659Y-76200003D01*
X156493974Y-76396126D01*
X156493975Y-76396129D01*
X156551187Y-76584730D01*
X156551188Y-76584732D01*
X156622218Y-76717618D01*
X156644090Y-76758538D01*
X156644092Y-76758540D01*
X156644093Y-76758542D01*
X156769112Y-76910878D01*
X156769121Y-76910887D01*
X156812411Y-76946414D01*
X156921462Y-77035910D01*
X157054353Y-77106942D01*
X157094174Y-77128227D01*
X157095273Y-77128814D01*
X157283868Y-77186024D01*
X157283870Y-77186024D01*
X157283873Y-77186025D01*
X157479997Y-77205341D01*
X157480000Y-77205341D01*
X157480003Y-77205341D01*
X157676126Y-77186025D01*
X157676127Y-77186024D01*
X157676132Y-77186024D01*
X157864727Y-77128814D01*
X158038538Y-77035910D01*
X158190883Y-76910883D01*
X158315910Y-76758538D01*
X158408814Y-76584727D01*
X158466024Y-76396132D01*
X158485341Y-76200000D01*
X158485341Y-76199996D01*
X158466025Y-76003873D01*
X158466024Y-76003870D01*
X158466024Y-76003868D01*
X158408814Y-75815273D01*
X158398536Y-75796045D01*
X158386942Y-75774353D01*
X158315910Y-75641462D01*
X158293001Y-75613547D01*
X158190887Y-75489121D01*
X158190878Y-75489112D01*
X158038542Y-75364093D01*
X158038540Y-75364092D01*
X158038538Y-75364090D01*
X157997618Y-75342218D01*
X157975233Y-75330253D01*
X161509500Y-75330253D01*
X161509500Y-77069746D01*
X161509501Y-77069758D01*
X161521132Y-77128227D01*
X161521134Y-77128233D01*
X161559750Y-77186025D01*
X161565448Y-77194552D01*
X161631769Y-77238867D01*
X161676231Y-77247711D01*
X161690241Y-77250498D01*
X161690246Y-77250498D01*
X161690252Y-77250500D01*
X161690253Y-77250500D01*
X163429747Y-77250500D01*
X163429748Y-77250500D01*
X163488231Y-77238867D01*
X163554552Y-77194552D01*
X163598867Y-77128231D01*
X163610500Y-77069748D01*
X163610500Y-76199996D01*
X164044417Y-76199996D01*
X164044417Y-76200003D01*
X164064698Y-76405929D01*
X164064699Y-76405934D01*
X164124768Y-76603954D01*
X164222316Y-76786452D01*
X164324430Y-76910878D01*
X164353590Y-76946410D01*
X164353595Y-76946414D01*
X164513547Y-77077683D01*
X164513548Y-77077683D01*
X164513550Y-77077685D01*
X164696046Y-77175232D01*
X164833997Y-77217078D01*
X164894065Y-77235300D01*
X164894070Y-77235301D01*
X165099997Y-77255583D01*
X165100000Y-77255583D01*
X165100003Y-77255583D01*
X165305929Y-77235301D01*
X165305934Y-77235300D01*
X165503954Y-77175232D01*
X165686450Y-77077685D01*
X165846410Y-76946410D01*
X165977685Y-76786450D01*
X166075232Y-76603954D01*
X166135300Y-76405934D01*
X166135301Y-76405929D01*
X166155583Y-76200003D01*
X166155583Y-76199996D01*
X179284417Y-76199996D01*
X179284417Y-76200003D01*
X179304698Y-76405929D01*
X179304699Y-76405934D01*
X179364768Y-76603954D01*
X179462316Y-76786452D01*
X179564430Y-76910878D01*
X179593590Y-76946410D01*
X179593595Y-76946414D01*
X179753547Y-77077683D01*
X179753548Y-77077683D01*
X179753550Y-77077685D01*
X179936046Y-77175232D01*
X180073997Y-77217078D01*
X180134065Y-77235300D01*
X180134070Y-77235301D01*
X180339997Y-77255583D01*
X180340000Y-77255583D01*
X180340003Y-77255583D01*
X180545929Y-77235301D01*
X180545934Y-77235300D01*
X180743954Y-77175232D01*
X180926450Y-77077685D01*
X181086410Y-76946410D01*
X181217685Y-76786450D01*
X181315232Y-76603954D01*
X181375300Y-76405934D01*
X181375301Y-76405929D01*
X181395583Y-76200003D01*
X181395583Y-76199996D01*
X181375301Y-75994070D01*
X181375300Y-75994065D01*
X181321063Y-75815269D01*
X181315232Y-75796046D01*
X181217685Y-75613550D01*
X181086410Y-75453590D01*
X181086404Y-75453585D01*
X180926452Y-75322316D01*
X180743954Y-75224768D01*
X180545934Y-75164699D01*
X180545929Y-75164698D01*
X180340003Y-75144417D01*
X180339997Y-75144417D01*
X180134070Y-75164698D01*
X180134065Y-75164699D01*
X179936045Y-75224768D01*
X179753547Y-75322316D01*
X179593595Y-75453585D01*
X179593585Y-75453595D01*
X179462316Y-75613547D01*
X179364768Y-75796045D01*
X179304699Y-75994065D01*
X179304698Y-75994070D01*
X179284417Y-76199996D01*
X166155583Y-76199996D01*
X166135301Y-75994070D01*
X166135300Y-75994065D01*
X166081063Y-75815269D01*
X166075232Y-75796046D01*
X165977685Y-75613550D01*
X165846410Y-75453590D01*
X165846404Y-75453585D01*
X165686452Y-75322316D01*
X165503954Y-75224768D01*
X165305934Y-75164699D01*
X165305929Y-75164698D01*
X165100003Y-75144417D01*
X165099997Y-75144417D01*
X164894070Y-75164698D01*
X164894065Y-75164699D01*
X164696045Y-75224768D01*
X164513547Y-75322316D01*
X164353595Y-75453585D01*
X164353585Y-75453595D01*
X164222316Y-75613547D01*
X164124768Y-75796045D01*
X164064699Y-75994065D01*
X164064698Y-75994070D01*
X164044417Y-76199996D01*
X163610500Y-76199996D01*
X163610500Y-75330252D01*
X163608921Y-75322316D01*
X163607711Y-75316231D01*
X163598867Y-75271769D01*
X163554552Y-75205448D01*
X163554548Y-75205445D01*
X163488233Y-75161134D01*
X163488231Y-75161133D01*
X163488228Y-75161132D01*
X163488227Y-75161132D01*
X163429758Y-75149501D01*
X163429748Y-75149500D01*
X161690252Y-75149500D01*
X161690251Y-75149500D01*
X161690241Y-75149501D01*
X161631772Y-75161132D01*
X161631766Y-75161134D01*
X161565451Y-75205445D01*
X161565445Y-75205451D01*
X161521134Y-75271766D01*
X161521132Y-75271772D01*
X161509501Y-75330241D01*
X161509500Y-75330253D01*
X157975233Y-75330253D01*
X157864732Y-75271188D01*
X157864730Y-75271187D01*
X157676129Y-75213975D01*
X157676126Y-75213974D01*
X157480003Y-75194659D01*
X157479997Y-75194659D01*
X157283873Y-75213974D01*
X157283870Y-75213975D01*
X157095269Y-75271187D01*
X157095267Y-75271188D01*
X156921467Y-75364087D01*
X156921457Y-75364093D01*
X156769121Y-75489112D01*
X156769112Y-75489121D01*
X156644093Y-75641457D01*
X156644087Y-75641467D01*
X156551188Y-75815267D01*
X156551187Y-75815269D01*
X156493975Y-76003870D01*
X156493974Y-76003873D01*
X156474659Y-76199996D01*
X155945341Y-76199996D01*
X155926025Y-76003873D01*
X155926024Y-76003870D01*
X155926024Y-76003868D01*
X155868814Y-75815273D01*
X155858536Y-75796045D01*
X155846942Y-75774353D01*
X155775910Y-75641462D01*
X155753001Y-75613547D01*
X155650887Y-75489121D01*
X155650878Y-75489112D01*
X155498542Y-75364093D01*
X155498540Y-75364092D01*
X155498538Y-75364090D01*
X155457618Y-75342218D01*
X155324732Y-75271188D01*
X155324730Y-75271187D01*
X155136129Y-75213975D01*
X155136126Y-75213974D01*
X154940003Y-75194659D01*
X154939997Y-75194659D01*
X154743873Y-75213974D01*
X154743870Y-75213975D01*
X154555269Y-75271187D01*
X154555267Y-75271188D01*
X154381467Y-75364087D01*
X154381457Y-75364093D01*
X154229121Y-75489112D01*
X154229112Y-75489121D01*
X154104093Y-75641457D01*
X154104087Y-75641467D01*
X154011188Y-75815267D01*
X154011187Y-75815269D01*
X153953975Y-76003870D01*
X153953974Y-76003873D01*
X153934659Y-76199996D01*
X148500500Y-76199996D01*
X148500500Y-71120000D01*
X179234785Y-71120000D01*
X179253603Y-71323083D01*
X179309418Y-71519250D01*
X179400327Y-71701821D01*
X179523236Y-71864579D01*
X179673959Y-72001981D01*
X179847363Y-72109348D01*
X180037544Y-72183024D01*
X180238024Y-72220500D01*
X180441976Y-72220500D01*
X180642456Y-72183024D01*
X180832637Y-72109348D01*
X181006041Y-72001981D01*
X181156764Y-71864579D01*
X181279673Y-71701821D01*
X181370582Y-71519250D01*
X181426397Y-71323083D01*
X181445215Y-71120000D01*
X181774785Y-71120000D01*
X181793603Y-71323083D01*
X181849418Y-71519250D01*
X181940327Y-71701821D01*
X182063236Y-71864579D01*
X182213959Y-72001981D01*
X182387363Y-72109348D01*
X182577544Y-72183024D01*
X182778024Y-72220500D01*
X182981976Y-72220500D01*
X183182456Y-72183024D01*
X183372637Y-72109348D01*
X183546041Y-72001981D01*
X183696764Y-71864579D01*
X183819673Y-71701821D01*
X183910582Y-71519250D01*
X183966397Y-71323083D01*
X183985215Y-71120000D01*
X184314785Y-71120000D01*
X184333603Y-71323083D01*
X184389418Y-71519250D01*
X184480327Y-71701821D01*
X184603236Y-71864579D01*
X184753959Y-72001981D01*
X184927363Y-72109348D01*
X185117544Y-72183024D01*
X185318024Y-72220500D01*
X185521976Y-72220500D01*
X185722456Y-72183024D01*
X185912637Y-72109348D01*
X186086041Y-72001981D01*
X186236764Y-71864579D01*
X186359673Y-71701821D01*
X186450582Y-71519250D01*
X186506397Y-71323083D01*
X186525215Y-71120000D01*
X186854785Y-71120000D01*
X186873603Y-71323083D01*
X186929418Y-71519250D01*
X187020327Y-71701821D01*
X187143236Y-71864579D01*
X187293959Y-72001981D01*
X187467363Y-72109348D01*
X187657544Y-72183024D01*
X187858024Y-72220500D01*
X188061976Y-72220500D01*
X188262456Y-72183024D01*
X188452637Y-72109348D01*
X188626041Y-72001981D01*
X188776764Y-71864579D01*
X188899673Y-71701821D01*
X188937740Y-71625371D01*
X188980603Y-71581709D01*
X189026361Y-71570500D01*
X189433639Y-71570500D01*
X189491830Y-71589407D01*
X189522259Y-71625371D01*
X189560327Y-71701821D01*
X189683236Y-71864579D01*
X189833959Y-72001981D01*
X190002617Y-72106409D01*
X190042138Y-72153117D01*
X190049500Y-72190580D01*
X190049500Y-73160102D01*
X190040553Y-73201229D01*
X190014834Y-73257543D01*
X189994353Y-73399997D01*
X189994353Y-73400002D01*
X190014834Y-73542456D01*
X190074622Y-73673371D01*
X190074623Y-73673373D01*
X190168872Y-73782143D01*
X190168873Y-73782144D01*
X190289942Y-73859950D01*
X190289947Y-73859953D01*
X190396403Y-73891211D01*
X190428035Y-73900499D01*
X190428036Y-73900499D01*
X190428039Y-73900500D01*
X190428041Y-73900500D01*
X190571959Y-73900500D01*
X190571961Y-73900500D01*
X190710053Y-73859953D01*
X190831128Y-73782143D01*
X190925377Y-73673373D01*
X190985165Y-73542457D01*
X191005647Y-73400000D01*
X190985165Y-73257543D01*
X190959447Y-73201229D01*
X190950500Y-73160102D01*
X190950500Y-72190580D01*
X190969407Y-72132389D01*
X190997381Y-72106410D01*
X191166041Y-72001981D01*
X191316764Y-71864579D01*
X191439673Y-71701821D01*
X191530582Y-71519250D01*
X191586397Y-71323083D01*
X191605215Y-71120000D01*
X191935287Y-71120000D01*
X191954097Y-71322989D01*
X192009887Y-71519070D01*
X192100751Y-71701551D01*
X192102532Y-71703911D01*
X192557036Y-71249406D01*
X192574075Y-71312993D01*
X192639901Y-71427007D01*
X192732993Y-71520099D01*
X192847007Y-71585925D01*
X192910590Y-71602962D01*
X192459312Y-72054241D01*
X192547581Y-72108895D01*
X192547586Y-72108898D01*
X192737683Y-72182541D01*
X192938070Y-72220000D01*
X193141930Y-72220000D01*
X193342316Y-72182541D01*
X193532415Y-72108897D01*
X193532416Y-72108897D01*
X193620686Y-72054241D01*
X193169407Y-71602962D01*
X193232993Y-71585925D01*
X193347007Y-71520099D01*
X193440099Y-71427007D01*
X193505925Y-71312993D01*
X193522962Y-71249407D01*
X193977466Y-71703911D01*
X193979245Y-71701556D01*
X193979249Y-71701549D01*
X194070112Y-71519070D01*
X194125902Y-71322989D01*
X194144712Y-71120000D01*
X194125902Y-70917010D01*
X194070112Y-70720929D01*
X193979249Y-70538450D01*
X193979244Y-70538441D01*
X193977466Y-70536087D01*
X193522962Y-70990590D01*
X193505925Y-70927007D01*
X193440099Y-70812993D01*
X193347007Y-70719901D01*
X193232993Y-70654075D01*
X193169406Y-70637036D01*
X193620686Y-70185757D01*
X193532418Y-70131104D01*
X193532413Y-70131101D01*
X193342316Y-70057458D01*
X193141930Y-70020000D01*
X192938070Y-70020000D01*
X192737683Y-70057458D01*
X192547586Y-70131101D01*
X192547584Y-70131102D01*
X192459312Y-70185757D01*
X192910592Y-70637037D01*
X192847007Y-70654075D01*
X192732993Y-70719901D01*
X192639901Y-70812993D01*
X192574075Y-70927007D01*
X192557037Y-70990591D01*
X192102533Y-70536087D01*
X192100753Y-70538445D01*
X192100750Y-70538449D01*
X192009887Y-70720929D01*
X191954097Y-70917010D01*
X191935287Y-71120000D01*
X191605215Y-71120000D01*
X191586397Y-70916917D01*
X191530582Y-70720750D01*
X191439673Y-70538179D01*
X191316764Y-70375421D01*
X191166041Y-70238019D01*
X190992637Y-70130652D01*
X190802456Y-70056976D01*
X190802455Y-70056975D01*
X190802453Y-70056975D01*
X190601976Y-70019500D01*
X190398024Y-70019500D01*
X190197546Y-70056975D01*
X190127632Y-70084059D01*
X190007363Y-70130652D01*
X189833959Y-70238019D01*
X189683237Y-70375420D01*
X189560328Y-70538177D01*
X189560323Y-70538186D01*
X189522260Y-70614628D01*
X189479397Y-70658291D01*
X189433639Y-70669500D01*
X189026361Y-70669500D01*
X188968170Y-70650593D01*
X188937740Y-70614628D01*
X188899673Y-70538179D01*
X188776764Y-70375421D01*
X188626041Y-70238019D01*
X188452637Y-70130652D01*
X188262456Y-70056976D01*
X188262455Y-70056975D01*
X188262453Y-70056975D01*
X188061976Y-70019500D01*
X187858024Y-70019500D01*
X187657546Y-70056975D01*
X187587632Y-70084059D01*
X187467363Y-70130652D01*
X187293959Y-70238019D01*
X187143237Y-70375420D01*
X187020328Y-70538177D01*
X187020323Y-70538186D01*
X186929419Y-70720747D01*
X186929418Y-70720750D01*
X186873603Y-70916917D01*
X186854785Y-71120000D01*
X186525215Y-71120000D01*
X186506397Y-70916917D01*
X186450582Y-70720750D01*
X186359673Y-70538179D01*
X186236764Y-70375421D01*
X186086041Y-70238019D01*
X185912637Y-70130652D01*
X185722456Y-70056976D01*
X185722455Y-70056975D01*
X185722453Y-70056975D01*
X185521976Y-70019500D01*
X185318024Y-70019500D01*
X185117546Y-70056975D01*
X185047632Y-70084059D01*
X184927363Y-70130652D01*
X184753959Y-70238019D01*
X184603237Y-70375420D01*
X184480328Y-70538177D01*
X184480323Y-70538186D01*
X184389419Y-70720747D01*
X184389418Y-70720750D01*
X184333603Y-70916917D01*
X184314785Y-71120000D01*
X183985215Y-71120000D01*
X183966397Y-70916917D01*
X183910582Y-70720750D01*
X183819673Y-70538179D01*
X183696764Y-70375421D01*
X183546041Y-70238019D01*
X183372637Y-70130652D01*
X183182456Y-70056976D01*
X183182455Y-70056975D01*
X183182453Y-70056975D01*
X182981976Y-70019500D01*
X182778024Y-70019500D01*
X182577546Y-70056975D01*
X182507632Y-70084059D01*
X182387363Y-70130652D01*
X182213959Y-70238019D01*
X182063237Y-70375420D01*
X181940328Y-70538177D01*
X181940323Y-70538186D01*
X181849419Y-70720747D01*
X181849418Y-70720750D01*
X181793603Y-70916917D01*
X181774785Y-71120000D01*
X181445215Y-71120000D01*
X181426397Y-70916917D01*
X181370582Y-70720750D01*
X181279673Y-70538179D01*
X181156764Y-70375421D01*
X181006041Y-70238019D01*
X180832637Y-70130652D01*
X180642456Y-70056976D01*
X180642455Y-70056975D01*
X180642453Y-70056975D01*
X180441976Y-70019500D01*
X180238024Y-70019500D01*
X180037546Y-70056975D01*
X179967632Y-70084059D01*
X179847363Y-70130652D01*
X179673959Y-70238019D01*
X179523237Y-70375420D01*
X179400328Y-70538177D01*
X179400323Y-70538186D01*
X179309419Y-70720747D01*
X179309418Y-70720750D01*
X179253603Y-70916917D01*
X179234785Y-71120000D01*
X148500500Y-71120000D01*
X148500500Y-50800000D01*
X179234785Y-50800000D01*
X179253603Y-51003083D01*
X179309418Y-51199250D01*
X179400327Y-51381821D01*
X179523236Y-51544579D01*
X179673959Y-51681981D01*
X179847363Y-51789348D01*
X180037544Y-51863024D01*
X180238024Y-51900500D01*
X180441976Y-51900500D01*
X180642456Y-51863024D01*
X180832637Y-51789348D01*
X181006041Y-51681981D01*
X181156764Y-51544579D01*
X181279673Y-51381821D01*
X181370582Y-51199250D01*
X181426397Y-51003083D01*
X181445215Y-50800000D01*
X181774785Y-50800000D01*
X181793603Y-51003083D01*
X181849418Y-51199250D01*
X181940327Y-51381821D01*
X182063236Y-51544579D01*
X182213959Y-51681981D01*
X182387363Y-51789348D01*
X182577544Y-51863024D01*
X182778024Y-51900500D01*
X182981976Y-51900500D01*
X183182456Y-51863024D01*
X183372637Y-51789348D01*
X183546041Y-51681981D01*
X183696764Y-51544579D01*
X183819673Y-51381821D01*
X183910582Y-51199250D01*
X183966397Y-51003083D01*
X183985215Y-50800000D01*
X184314785Y-50800000D01*
X184333603Y-51003083D01*
X184389418Y-51199250D01*
X184480327Y-51381821D01*
X184603236Y-51544579D01*
X184753959Y-51681981D01*
X184927363Y-51789348D01*
X185117544Y-51863024D01*
X185318024Y-51900500D01*
X185521976Y-51900500D01*
X185722456Y-51863024D01*
X185912637Y-51789348D01*
X186086041Y-51681981D01*
X186236764Y-51544579D01*
X186359673Y-51381821D01*
X186450582Y-51199250D01*
X186506397Y-51003083D01*
X186525215Y-50800000D01*
X186854785Y-50800000D01*
X186873603Y-51003083D01*
X186929418Y-51199250D01*
X187020327Y-51381821D01*
X187143236Y-51544579D01*
X187293959Y-51681981D01*
X187467363Y-51789348D01*
X187657544Y-51863024D01*
X187858024Y-51900500D01*
X188061976Y-51900500D01*
X188262456Y-51863024D01*
X188452637Y-51789348D01*
X188626041Y-51681981D01*
X188776764Y-51544579D01*
X188899673Y-51381821D01*
X188990582Y-51199250D01*
X189046397Y-51003083D01*
X189065215Y-50800000D01*
X189395287Y-50800000D01*
X189414097Y-51002989D01*
X189469887Y-51199070D01*
X189560751Y-51381551D01*
X189562532Y-51383911D01*
X190017036Y-50929406D01*
X190034075Y-50992993D01*
X190099901Y-51107007D01*
X190192993Y-51200099D01*
X190307007Y-51265925D01*
X190370590Y-51282962D01*
X189919312Y-51734241D01*
X190007581Y-51788895D01*
X190007586Y-51788898D01*
X190197683Y-51862541D01*
X190398070Y-51900000D01*
X190601930Y-51900000D01*
X190802316Y-51862541D01*
X190992415Y-51788897D01*
X190992416Y-51788897D01*
X191080686Y-51734241D01*
X190629407Y-51282962D01*
X190692993Y-51265925D01*
X190807007Y-51200099D01*
X190900099Y-51107007D01*
X190965925Y-50992993D01*
X190982962Y-50929407D01*
X191437466Y-51383911D01*
X191439245Y-51381556D01*
X191439249Y-51381549D01*
X191530112Y-51199070D01*
X191585902Y-51002989D01*
X191604712Y-50800000D01*
X191935287Y-50800000D01*
X191954097Y-51002989D01*
X192009887Y-51199070D01*
X192100751Y-51381551D01*
X192102532Y-51383911D01*
X192557036Y-50929406D01*
X192574075Y-50992993D01*
X192639901Y-51107007D01*
X192732993Y-51200099D01*
X192847007Y-51265925D01*
X192910590Y-51282962D01*
X192459312Y-51734241D01*
X192547581Y-51788895D01*
X192547586Y-51788898D01*
X192737683Y-51862541D01*
X192938070Y-51900000D01*
X193141930Y-51900000D01*
X193342316Y-51862541D01*
X193532415Y-51788897D01*
X193532416Y-51788897D01*
X193620686Y-51734241D01*
X193169407Y-51282962D01*
X193232993Y-51265925D01*
X193347007Y-51200099D01*
X193440099Y-51107007D01*
X193505925Y-50992993D01*
X193522962Y-50929407D01*
X193977466Y-51383911D01*
X193979245Y-51381556D01*
X193979249Y-51381549D01*
X194070112Y-51199070D01*
X194125902Y-51002989D01*
X194144712Y-50800000D01*
X194125902Y-50597010D01*
X194070112Y-50400929D01*
X193979249Y-50218450D01*
X193979244Y-50218441D01*
X193977466Y-50216087D01*
X193522962Y-50670590D01*
X193505925Y-50607007D01*
X193440099Y-50492993D01*
X193347007Y-50399901D01*
X193232993Y-50334075D01*
X193169406Y-50317036D01*
X193620686Y-49865757D01*
X193532418Y-49811104D01*
X193532413Y-49811101D01*
X193342316Y-49737458D01*
X193141930Y-49700000D01*
X192938070Y-49700000D01*
X192737683Y-49737458D01*
X192547586Y-49811101D01*
X192547584Y-49811102D01*
X192459312Y-49865757D01*
X192910592Y-50317037D01*
X192847007Y-50334075D01*
X192732993Y-50399901D01*
X192639901Y-50492993D01*
X192574075Y-50607007D01*
X192557037Y-50670591D01*
X192102533Y-50216087D01*
X192100753Y-50218445D01*
X192100750Y-50218449D01*
X192009887Y-50400929D01*
X191954097Y-50597010D01*
X191935287Y-50800000D01*
X191604712Y-50800000D01*
X191585902Y-50597010D01*
X191530112Y-50400929D01*
X191439249Y-50218450D01*
X191439244Y-50218441D01*
X191437466Y-50216087D01*
X190982962Y-50670590D01*
X190965925Y-50607007D01*
X190900099Y-50492993D01*
X190807007Y-50399901D01*
X190692993Y-50334075D01*
X190629406Y-50317036D01*
X191080686Y-49865757D01*
X190992418Y-49811104D01*
X190992413Y-49811101D01*
X190802316Y-49737458D01*
X190601930Y-49700000D01*
X190398070Y-49700000D01*
X190197683Y-49737458D01*
X190007586Y-49811101D01*
X190007584Y-49811102D01*
X189919312Y-49865757D01*
X190370592Y-50317037D01*
X190307007Y-50334075D01*
X190192993Y-50399901D01*
X190099901Y-50492993D01*
X190034075Y-50607007D01*
X190017037Y-50670591D01*
X189562533Y-50216087D01*
X189560753Y-50218445D01*
X189560750Y-50218449D01*
X189469887Y-50400929D01*
X189414097Y-50597010D01*
X189395287Y-50800000D01*
X189065215Y-50800000D01*
X189046397Y-50596917D01*
X188990582Y-50400750D01*
X188899673Y-50218179D01*
X188776764Y-50055421D01*
X188626041Y-49918019D01*
X188452637Y-49810652D01*
X188262456Y-49736976D01*
X188262455Y-49736975D01*
X188262453Y-49736975D01*
X188061976Y-49699500D01*
X187858024Y-49699500D01*
X187657546Y-49736975D01*
X187587632Y-49764059D01*
X187467363Y-49810652D01*
X187293959Y-49918019D01*
X187143237Y-50055420D01*
X187020328Y-50218177D01*
X187020323Y-50218186D01*
X186929419Y-50400747D01*
X186929418Y-50400750D01*
X186873603Y-50596917D01*
X186854785Y-50800000D01*
X186525215Y-50800000D01*
X186506397Y-50596917D01*
X186450582Y-50400750D01*
X186359673Y-50218179D01*
X186236764Y-50055421D01*
X186086041Y-49918019D01*
X185912637Y-49810652D01*
X185722456Y-49736976D01*
X185722455Y-49736975D01*
X185722453Y-49736975D01*
X185521976Y-49699500D01*
X185318024Y-49699500D01*
X185117546Y-49736975D01*
X185047632Y-49764059D01*
X184927363Y-49810652D01*
X184753959Y-49918019D01*
X184603237Y-50055420D01*
X184480328Y-50218177D01*
X184480323Y-50218186D01*
X184389419Y-50400747D01*
X184389418Y-50400750D01*
X184333603Y-50596917D01*
X184314785Y-50800000D01*
X183985215Y-50800000D01*
X183966397Y-50596917D01*
X183910582Y-50400750D01*
X183819673Y-50218179D01*
X183696764Y-50055421D01*
X183546041Y-49918019D01*
X183372637Y-49810652D01*
X183182456Y-49736976D01*
X183182455Y-49736975D01*
X183182453Y-49736975D01*
X182981976Y-49699500D01*
X182778024Y-49699500D01*
X182577546Y-49736975D01*
X182507632Y-49764059D01*
X182387363Y-49810652D01*
X182213959Y-49918019D01*
X182063237Y-50055420D01*
X181940328Y-50218177D01*
X181940323Y-50218186D01*
X181849419Y-50400747D01*
X181849418Y-50400750D01*
X181793603Y-50596917D01*
X181774785Y-50800000D01*
X181445215Y-50800000D01*
X181426397Y-50596917D01*
X181370582Y-50400750D01*
X181279673Y-50218179D01*
X181156764Y-50055421D01*
X181006041Y-49918019D01*
X180832637Y-49810652D01*
X180642456Y-49736976D01*
X180642455Y-49736975D01*
X180642453Y-49736975D01*
X180441976Y-49699500D01*
X180238024Y-49699500D01*
X180037546Y-49736975D01*
X179967632Y-49764059D01*
X179847363Y-49810652D01*
X179673959Y-49918019D01*
X179523237Y-50055420D01*
X179400328Y-50218177D01*
X179400323Y-50218186D01*
X179309419Y-50400747D01*
X179309418Y-50400750D01*
X179253603Y-50596917D01*
X179234785Y-50800000D01*
X148500500Y-50800000D01*
X148500500Y-45000000D01*
X149994916Y-45000000D01*
X150015235Y-45348871D01*
X150075917Y-45693015D01*
X150176144Y-46027798D01*
X150176145Y-46027800D01*
X150314556Y-46348672D01*
X150314559Y-46348679D01*
X150489288Y-46651319D01*
X150489290Y-46651322D01*
X150697973Y-46931632D01*
X150697975Y-46931635D01*
X150706147Y-46940297D01*
X151705747Y-45940696D01*
X151779588Y-46042330D01*
X151957670Y-46220412D01*
X152059300Y-46294251D01*
X151062818Y-47290734D01*
X151205493Y-47410451D01*
X151497452Y-47602476D01*
X151809744Y-47759315D01*
X151809748Y-47759316D01*
X152138136Y-47878840D01*
X152478162Y-47959428D01*
X152825273Y-48000000D01*
X153174727Y-48000000D01*
X153521837Y-47959428D01*
X153861863Y-47878840D01*
X154190251Y-47759316D01*
X154190255Y-47759315D01*
X154502547Y-47602476D01*
X154794509Y-47410449D01*
X154794514Y-47410445D01*
X154937180Y-47290734D01*
X153940698Y-46294252D01*
X154042330Y-46220412D01*
X154220412Y-46042330D01*
X154294252Y-45940698D01*
X155293851Y-46940297D01*
X155302026Y-46931632D01*
X155302030Y-46931626D01*
X155510709Y-46651322D01*
X155510711Y-46651319D01*
X155685440Y-46348679D01*
X155685443Y-46348672D01*
X155823854Y-46027800D01*
X155823855Y-46027798D01*
X155924082Y-45693015D01*
X155984764Y-45348871D01*
X156005083Y-45000000D01*
X191994916Y-45000000D01*
X192015235Y-45348871D01*
X192075917Y-45693015D01*
X192176144Y-46027798D01*
X192176145Y-46027800D01*
X192314556Y-46348672D01*
X192314559Y-46348679D01*
X192489288Y-46651319D01*
X192489290Y-46651322D01*
X192697973Y-46931632D01*
X192697975Y-46931635D01*
X192706147Y-46940297D01*
X193705747Y-45940696D01*
X193779588Y-46042330D01*
X193957670Y-46220412D01*
X194059300Y-46294251D01*
X193062818Y-47290734D01*
X193205493Y-47410451D01*
X193497452Y-47602476D01*
X193809744Y-47759315D01*
X193809748Y-47759316D01*
X194138136Y-47878840D01*
X194478162Y-47959428D01*
X194825273Y-48000000D01*
X195174727Y-48000000D01*
X195521837Y-47959428D01*
X195861863Y-47878840D01*
X196190251Y-47759316D01*
X196190255Y-47759315D01*
X196502547Y-47602476D01*
X196794509Y-47410449D01*
X196794514Y-47410445D01*
X196937180Y-47290734D01*
X195940698Y-46294252D01*
X196042330Y-46220412D01*
X196220412Y-46042330D01*
X196294252Y-45940698D01*
X197293851Y-46940297D01*
X197302026Y-46931632D01*
X197302030Y-46931626D01*
X197510709Y-46651322D01*
X197510711Y-46651319D01*
X197685440Y-46348679D01*
X197685443Y-46348672D01*
X197823854Y-46027800D01*
X197823855Y-46027798D01*
X197924082Y-45693015D01*
X197984764Y-45348871D01*
X198005083Y-45000000D01*
X197984764Y-44651128D01*
X197924082Y-44306984D01*
X197823855Y-43972201D01*
X197823854Y-43972199D01*
X197685443Y-43651327D01*
X197685440Y-43651320D01*
X197510711Y-43348680D01*
X197510709Y-43348677D01*
X197302029Y-43068370D01*
X197293851Y-43059701D01*
X196294251Y-44059300D01*
X196220412Y-43957670D01*
X196042330Y-43779588D01*
X195940696Y-43705747D01*
X196937180Y-42709264D01*
X196794506Y-42589548D01*
X196502547Y-42397523D01*
X196190255Y-42240684D01*
X196190251Y-42240683D01*
X195861863Y-42121159D01*
X195521837Y-42040571D01*
X195174727Y-42000000D01*
X194825273Y-42000000D01*
X194478162Y-42040571D01*
X194138136Y-42121159D01*
X193809748Y-42240683D01*
X193809744Y-42240684D01*
X193497452Y-42397524D01*
X193205498Y-42589543D01*
X193205490Y-42589550D01*
X193062818Y-42709264D01*
X194059301Y-43705747D01*
X193957670Y-43779588D01*
X193779588Y-43957670D01*
X193705748Y-44059301D01*
X192706148Y-43059701D01*
X192697966Y-43068375D01*
X192489290Y-43348677D01*
X192489288Y-43348680D01*
X192314559Y-43651320D01*
X192314556Y-43651327D01*
X192176145Y-43972199D01*
X192176144Y-43972201D01*
X192075917Y-44306984D01*
X192015235Y-44651128D01*
X191994916Y-45000000D01*
X156005083Y-45000000D01*
X155984764Y-44651128D01*
X155924082Y-44306984D01*
X155823855Y-43972201D01*
X155823854Y-43972199D01*
X155685443Y-43651327D01*
X155685440Y-43651320D01*
X155510711Y-43348680D01*
X155510709Y-43348677D01*
X155302029Y-43068370D01*
X155293851Y-43059701D01*
X154294251Y-44059300D01*
X154220412Y-43957670D01*
X154042330Y-43779588D01*
X153940696Y-43705747D01*
X154937180Y-42709264D01*
X154794506Y-42589548D01*
X154502547Y-42397523D01*
X154190255Y-42240684D01*
X154190251Y-42240683D01*
X153861863Y-42121159D01*
X153521837Y-42040571D01*
X153174727Y-42000000D01*
X152825273Y-42000000D01*
X152478162Y-42040571D01*
X152138136Y-42121159D01*
X151809748Y-42240683D01*
X151809744Y-42240684D01*
X151497452Y-42397524D01*
X151205498Y-42589543D01*
X151205490Y-42589550D01*
X151062818Y-42709264D01*
X152059301Y-43705747D01*
X151957670Y-43779588D01*
X151779588Y-43957670D01*
X151705748Y-44059301D01*
X150706148Y-43059701D01*
X150697966Y-43068375D01*
X150489290Y-43348677D01*
X150489288Y-43348680D01*
X150314559Y-43651320D01*
X150314556Y-43651327D01*
X150176145Y-43972199D01*
X150176144Y-43972201D01*
X150075917Y-44306984D01*
X150015235Y-44651128D01*
X149994916Y-45000000D01*
X148500500Y-45000000D01*
X148500500Y-40599500D01*
X148519407Y-40541309D01*
X148568907Y-40505345D01*
X148599500Y-40500500D01*
X199400500Y-40500500D01*
X199458691Y-40519407D01*
G37*
%TD.AperFunction*%
%TD*%
M02*
