%TF.GenerationSoftware,KiCad,Pcbnew,8.0.9-1.fc40*%
%TF.CreationDate,2025-07-10T00:16:48+02:00*%
%TF.ProjectId,pico-artnet-node,7069636f-2d61-4727-946e-65742d6e6f64,rev?*%
%TF.SameCoordinates,Original*%
%TF.FileFunction,Legend,Bot*%
%TF.FilePolarity,Positive*%
%FSLAX46Y46*%
G04 Gerber Fmt 4.6, Leading zero omitted, Abs format (unit mm)*
G04 Created by KiCad (PCBNEW 8.0.9-1.fc40) date 2025-07-10 00:16:48*
%MOMM*%
%LPD*%
G01*
G04 APERTURE LIST*
%ADD10C,0.300000*%
%ADD11C,0.150000*%
%ADD12C,0.120000*%
G04 APERTURE END LIST*
D10*
X174117000Y-132588000D02*
X174117000Y-136017000D01*
X179421155Y-131097352D02*
X178944489Y-131097352D01*
X178740203Y-131778304D02*
X179421155Y-131778304D01*
X179421155Y-131778304D02*
X179421155Y-130478304D01*
X179421155Y-130478304D02*
X178740203Y-130478304D01*
X177037821Y-131778304D02*
X177037821Y-130478304D01*
X177037821Y-130478304D02*
X176697345Y-130478304D01*
X176697345Y-130478304D02*
X176493059Y-130540209D01*
X176493059Y-130540209D02*
X176356869Y-130664019D01*
X176356869Y-130664019D02*
X176288774Y-130787828D01*
X176288774Y-130787828D02*
X176220678Y-131035447D01*
X176220678Y-131035447D02*
X176220678Y-131221161D01*
X176220678Y-131221161D02*
X176288774Y-131468780D01*
X176288774Y-131468780D02*
X176356869Y-131592590D01*
X176356869Y-131592590D02*
X176493059Y-131716400D01*
X176493059Y-131716400D02*
X176697345Y-131778304D01*
X176697345Y-131778304D02*
X177037821Y-131778304D01*
X174518297Y-130478304D02*
X174518297Y-131530685D01*
X174518297Y-131530685D02*
X174450202Y-131654495D01*
X174450202Y-131654495D02*
X174382107Y-131716400D01*
X174382107Y-131716400D02*
X174245916Y-131778304D01*
X174245916Y-131778304D02*
X173973535Y-131778304D01*
X173973535Y-131778304D02*
X173837345Y-131716400D01*
X173837345Y-131716400D02*
X173769250Y-131654495D01*
X173769250Y-131654495D02*
X173701154Y-131530685D01*
X173701154Y-131530685D02*
X173701154Y-130478304D01*
X171930678Y-131778304D02*
X171930678Y-130478304D01*
X171930678Y-130478304D02*
X171454012Y-131406876D01*
X171454012Y-131406876D02*
X170977345Y-130478304D01*
X170977345Y-130478304D02*
X170977345Y-131778304D01*
D11*
X166433333Y-136954819D02*
X166433333Y-137669104D01*
X166433333Y-137669104D02*
X166480952Y-137811961D01*
X166480952Y-137811961D02*
X166576190Y-137907200D01*
X166576190Y-137907200D02*
X166719047Y-137954819D01*
X166719047Y-137954819D02*
X166814285Y-137954819D01*
X165528571Y-137288152D02*
X165528571Y-137954819D01*
X165766666Y-136907200D02*
X166004761Y-137621485D01*
X166004761Y-137621485D02*
X165385714Y-137621485D01*
D12*
%TO.C,J4*%
X167590000Y-136670000D02*
X168920000Y-136670000D01*
X167590000Y-138000000D02*
X167590000Y-136670000D01*
X170190000Y-139330000D02*
X170190000Y-136670000D01*
X180410000Y-136670000D02*
X170190000Y-136670000D01*
X180410000Y-139330000D02*
X170190000Y-139330000D01*
X180410000Y-139330000D02*
X180410000Y-136670000D01*
%TD*%
M02*
